<?xml version="1.0" encoding="utf-8" standalone="no"?>
<!DOCTYPE svg PUBLIC "-//W3C//DTD SVG 1.1//EN"
  "http://www.w3.org/Graphics/SVG/1.1/DTD/svg11.dtd">
<!-- Created with matplotlib (http://matplotlib.org/) -->
<svg height="288pt" version="1.1" viewBox="0 0 432 288" width="432pt" xmlns="http://www.w3.org/2000/svg" xmlns:xlink="http://www.w3.org/1999/xlink">
 <defs>
  <style type="text/css">
*{stroke-linecap:butt;stroke-linejoin:round;}
  </style>
 </defs>
 <g id="figure_1">
  <g id="patch_1">
   <path d="M 0 288 
L 432 288 
L 432 0 
L 0 0 
z
" style="fill:#ffffff;"/>
  </g>
  <g id="axes_1">
   <g id="patch_2">
    <path d="M 54 252 
L 388.8 252 
L 388.8 34.56 
L 54 34.56 
z
" style="fill:#ffffff;"/>
   </g>
   <g id="matplotlib.axis_1">
    <g id="xtick_1">
     <g id="line2d_1">
      <defs>
       <path d="M 0 0 
L 0 3.5 
" id="mfa7c91da42" style="stroke:#000000;stroke-width:0.8;"/>
      </defs>
      <g>
       <use style="stroke:#000000;stroke-width:0.8;" x="69.218182" xlink:href="#mfa7c91da42" y="252"/>
      </g>
     </g>
     <g id="text_1">
      <!-- 0.0 -->
      <defs>
       <path d="M 31.78125 66.40625 
Q 24.171875 66.40625 20.328125 58.90625 
Q 16.5 51.421875 16.5 36.375 
Q 16.5 21.390625 20.328125 13.890625 
Q 24.171875 6.390625 31.78125 6.390625 
Q 39.453125 6.390625 43.28125 13.890625 
Q 47.125 21.390625 47.125 36.375 
Q 47.125 51.421875 43.28125 58.90625 
Q 39.453125 66.40625 31.78125 66.40625 
z
M 31.78125 74.21875 
Q 44.046875 74.21875 50.515625 64.515625 
Q 56.984375 54.828125 56.984375 36.375 
Q 56.984375 17.96875 50.515625 8.265625 
Q 44.046875 -1.421875 31.78125 -1.421875 
Q 19.53125 -1.421875 13.0625 8.265625 
Q 6.59375 17.96875 6.59375 36.375 
Q 6.59375 54.828125 13.0625 64.515625 
Q 19.53125 74.21875 31.78125 74.21875 
z
" id="DejaVuSans-30"/>
       <path d="M 10.6875 12.40625 
L 21 12.40625 
L 21 0 
L 10.6875 0 
z
" id="DejaVuSans-2e"/>
      </defs>
      <g transform="translate(61.266619 266.598437)scale(0.1 -0.1)">
       <use xlink:href="#DejaVuSans-30"/>
       <use x="63.623047" xlink:href="#DejaVuSans-2e"/>
       <use x="95.410156" xlink:href="#DejaVuSans-30"/>
      </g>
     </g>
    </g>
    <g id="xtick_2">
     <g id="line2d_2">
      <g>
       <use style="stroke:#000000;stroke-width:0.8;" x="130.090909" xlink:href="#mfa7c91da42" y="252"/>
      </g>
     </g>
     <g id="text_2">
      <!-- 0.2 -->
      <defs>
       <path d="M 19.1875 8.296875 
L 53.609375 8.296875 
L 53.609375 0 
L 7.328125 0 
L 7.328125 8.296875 
Q 12.9375 14.109375 22.625 23.890625 
Q 32.328125 33.6875 34.8125 36.53125 
Q 39.546875 41.84375 41.421875 45.53125 
Q 43.3125 49.21875 43.3125 52.78125 
Q 43.3125 58.59375 39.234375 62.25 
Q 35.15625 65.921875 28.609375 65.921875 
Q 23.96875 65.921875 18.8125 64.3125 
Q 13.671875 62.703125 7.8125 59.421875 
L 7.8125 69.390625 
Q 13.765625 71.78125 18.9375 73 
Q 24.125 74.21875 28.421875 74.21875 
Q 39.75 74.21875 46.484375 68.546875 
Q 53.21875 62.890625 53.21875 53.421875 
Q 53.21875 48.921875 51.53125 44.890625 
Q 49.859375 40.875 45.40625 35.40625 
Q 44.1875 33.984375 37.640625 27.21875 
Q 31.109375 20.453125 19.1875 8.296875 
z
" id="DejaVuSans-32"/>
      </defs>
      <g transform="translate(122.139347 266.598437)scale(0.1 -0.1)">
       <use xlink:href="#DejaVuSans-30"/>
       <use x="63.623047" xlink:href="#DejaVuSans-2e"/>
       <use x="95.410156" xlink:href="#DejaVuSans-32"/>
      </g>
     </g>
    </g>
    <g id="xtick_3">
     <g id="line2d_3">
      <g>
       <use style="stroke:#000000;stroke-width:0.8;" x="190.963636" xlink:href="#mfa7c91da42" y="252"/>
      </g>
     </g>
     <g id="text_3">
      <!-- 0.4 -->
      <defs>
       <path d="M 37.796875 64.3125 
L 12.890625 25.390625 
L 37.796875 25.390625 
z
M 35.203125 72.90625 
L 47.609375 72.90625 
L 47.609375 25.390625 
L 58.015625 25.390625 
L 58.015625 17.1875 
L 47.609375 17.1875 
L 47.609375 0 
L 37.796875 0 
L 37.796875 17.1875 
L 4.890625 17.1875 
L 4.890625 26.703125 
z
" id="DejaVuSans-34"/>
      </defs>
      <g transform="translate(183.012074 266.598437)scale(0.1 -0.1)">
       <use xlink:href="#DejaVuSans-30"/>
       <use x="63.623047" xlink:href="#DejaVuSans-2e"/>
       <use x="95.410156" xlink:href="#DejaVuSans-34"/>
      </g>
     </g>
    </g>
    <g id="xtick_4">
     <g id="line2d_4">
      <g>
       <use style="stroke:#000000;stroke-width:0.8;" x="251.836364" xlink:href="#mfa7c91da42" y="252"/>
      </g>
     </g>
     <g id="text_4">
      <!-- 0.6 -->
      <defs>
       <path d="M 33.015625 40.375 
Q 26.375 40.375 22.484375 35.828125 
Q 18.609375 31.296875 18.609375 23.390625 
Q 18.609375 15.53125 22.484375 10.953125 
Q 26.375 6.390625 33.015625 6.390625 
Q 39.65625 6.390625 43.53125 10.953125 
Q 47.40625 15.53125 47.40625 23.390625 
Q 47.40625 31.296875 43.53125 35.828125 
Q 39.65625 40.375 33.015625 40.375 
z
M 52.59375 71.296875 
L 52.59375 62.3125 
Q 48.875 64.0625 45.09375 64.984375 
Q 41.3125 65.921875 37.59375 65.921875 
Q 27.828125 65.921875 22.671875 59.328125 
Q 17.53125 52.734375 16.796875 39.40625 
Q 19.671875 43.65625 24.015625 45.921875 
Q 28.375 48.1875 33.59375 48.1875 
Q 44.578125 48.1875 50.953125 41.515625 
Q 57.328125 34.859375 57.328125 23.390625 
Q 57.328125 12.15625 50.6875 5.359375 
Q 44.046875 -1.421875 33.015625 -1.421875 
Q 20.359375 -1.421875 13.671875 8.265625 
Q 6.984375 17.96875 6.984375 36.375 
Q 6.984375 53.65625 15.1875 63.9375 
Q 23.390625 74.21875 37.203125 74.21875 
Q 40.921875 74.21875 44.703125 73.484375 
Q 48.484375 72.75 52.59375 71.296875 
z
" id="DejaVuSans-36"/>
      </defs>
      <g transform="translate(243.884801 266.598437)scale(0.1 -0.1)">
       <use xlink:href="#DejaVuSans-30"/>
       <use x="63.623047" xlink:href="#DejaVuSans-2e"/>
       <use x="95.410156" xlink:href="#DejaVuSans-36"/>
      </g>
     </g>
    </g>
    <g id="xtick_5">
     <g id="line2d_5">
      <g>
       <use style="stroke:#000000;stroke-width:0.8;" x="312.709091" xlink:href="#mfa7c91da42" y="252"/>
      </g>
     </g>
     <g id="text_5">
      <!-- 0.8 -->
      <defs>
       <path d="M 31.78125 34.625 
Q 24.75 34.625 20.71875 30.859375 
Q 16.703125 27.09375 16.703125 20.515625 
Q 16.703125 13.921875 20.71875 10.15625 
Q 24.75 6.390625 31.78125 6.390625 
Q 38.8125 6.390625 42.859375 10.171875 
Q 46.921875 13.96875 46.921875 20.515625 
Q 46.921875 27.09375 42.890625 30.859375 
Q 38.875 34.625 31.78125 34.625 
z
M 21.921875 38.8125 
Q 15.578125 40.375 12.03125 44.71875 
Q 8.5 49.078125 8.5 55.328125 
Q 8.5 64.0625 14.71875 69.140625 
Q 20.953125 74.21875 31.78125 74.21875 
Q 42.671875 74.21875 48.875 69.140625 
Q 55.078125 64.0625 55.078125 55.328125 
Q 55.078125 49.078125 51.53125 44.71875 
Q 48 40.375 41.703125 38.8125 
Q 48.828125 37.15625 52.796875 32.3125 
Q 56.78125 27.484375 56.78125 20.515625 
Q 56.78125 9.90625 50.3125 4.234375 
Q 43.84375 -1.421875 31.78125 -1.421875 
Q 19.734375 -1.421875 13.25 4.234375 
Q 6.78125 9.90625 6.78125 20.515625 
Q 6.78125 27.484375 10.78125 32.3125 
Q 14.796875 37.15625 21.921875 38.8125 
z
M 18.3125 54.390625 
Q 18.3125 48.734375 21.84375 45.5625 
Q 25.390625 42.390625 31.78125 42.390625 
Q 38.140625 42.390625 41.71875 45.5625 
Q 45.3125 48.734375 45.3125 54.390625 
Q 45.3125 60.0625 41.71875 63.234375 
Q 38.140625 66.40625 31.78125 66.40625 
Q 25.390625 66.40625 21.84375 63.234375 
Q 18.3125 60.0625 18.3125 54.390625 
z
" id="DejaVuSans-38"/>
      </defs>
      <g transform="translate(304.757528 266.598437)scale(0.1 -0.1)">
       <use xlink:href="#DejaVuSans-30"/>
       <use x="63.623047" xlink:href="#DejaVuSans-2e"/>
       <use x="95.410156" xlink:href="#DejaVuSans-38"/>
      </g>
     </g>
    </g>
    <g id="xtick_6">
     <g id="line2d_6">
      <g>
       <use style="stroke:#000000;stroke-width:0.8;" x="373.581818" xlink:href="#mfa7c91da42" y="252"/>
      </g>
     </g>
     <g id="text_6">
      <!-- 1.0 -->
      <defs>
       <path d="M 12.40625 8.296875 
L 28.515625 8.296875 
L 28.515625 63.921875 
L 10.984375 60.40625 
L 10.984375 69.390625 
L 28.421875 72.90625 
L 38.28125 72.90625 
L 38.28125 8.296875 
L 54.390625 8.296875 
L 54.390625 0 
L 12.40625 0 
z
" id="DejaVuSans-31"/>
      </defs>
      <g transform="translate(365.630256 266.598437)scale(0.1 -0.1)">
       <use xlink:href="#DejaVuSans-31"/>
       <use x="63.623047" xlink:href="#DejaVuSans-2e"/>
       <use x="95.410156" xlink:href="#DejaVuSans-30"/>
      </g>
     </g>
    </g>
    <g id="text_7">
     <!-- $t$ -->
     <defs>
      <path d="M 42.28125 54.6875 
L 40.921875 47.703125 
L 23 47.703125 
L 17.1875 18.015625 
Q 16.890625 16.359375 16.75 15.234375 
Q 16.609375 14.109375 16.609375 13.484375 
Q 16.609375 10.359375 18.484375 8.9375 
Q 20.359375 7.515625 24.515625 7.515625 
L 33.59375 7.515625 
L 32.078125 0 
L 23.484375 0 
Q 15.484375 0 11.546875 3.125 
Q 7.625 6.25 7.625 12.59375 
Q 7.625 13.71875 7.765625 15.0625 
Q 7.90625 16.40625 8.203125 18.015625 
L 14.015625 47.703125 
L 6.390625 47.703125 
L 7.8125 54.6875 
L 15.28125 54.6875 
L 18.3125 70.21875 
L 27.296875 70.21875 
L 24.3125 54.6875 
z
" id="DejaVuSans-Oblique-74"/>
     </defs>
     <g transform="translate(219.4 280.276563)scale(0.1 -0.1)">
      <use transform="translate(0 0.78125)" xlink:href="#DejaVuSans-Oblique-74"/>
     </g>
    </g>
   </g>
   <g id="matplotlib.axis_2">
    <g id="ytick_1">
     <g id="line2d_7">
      <defs>
       <path d="M 0 0 
L -3.5 0 
" id="mcdd3287059" style="stroke:#000000;stroke-width:0.8;"/>
      </defs>
      <g>
       <use style="stroke:#000000;stroke-width:0.8;" x="54" xlink:href="#mcdd3287059" y="231.519027"/>
      </g>
     </g>
     <g id="text_8">
      <!-- −2.0 -->
      <defs>
       <path d="M 10.59375 35.5 
L 73.1875 35.5 
L 73.1875 27.203125 
L 10.59375 27.203125 
z
" id="DejaVuSans-2212"/>
      </defs>
      <g transform="translate(22.717187 235.318246)scale(0.1 -0.1)">
       <use xlink:href="#DejaVuSans-2212"/>
       <use x="83.789062" xlink:href="#DejaVuSans-32"/>
       <use x="147.412109" xlink:href="#DejaVuSans-2e"/>
       <use x="179.199219" xlink:href="#DejaVuSans-30"/>
      </g>
     </g>
    </g>
    <g id="ytick_2">
     <g id="line2d_8">
      <g>
       <use style="stroke:#000000;stroke-width:0.8;" x="54" xlink:href="#mcdd3287059" y="198.724129"/>
      </g>
     </g>
     <g id="text_9">
      <!-- −1.5 -->
      <defs>
       <path d="M 10.796875 72.90625 
L 49.515625 72.90625 
L 49.515625 64.59375 
L 19.828125 64.59375 
L 19.828125 46.734375 
Q 21.96875 47.46875 24.109375 47.828125 
Q 26.265625 48.1875 28.421875 48.1875 
Q 40.625 48.1875 47.75 41.5 
Q 54.890625 34.8125 54.890625 23.390625 
Q 54.890625 11.625 47.5625 5.09375 
Q 40.234375 -1.421875 26.90625 -1.421875 
Q 22.3125 -1.421875 17.546875 -0.640625 
Q 12.796875 0.140625 7.71875 1.703125 
L 7.71875 11.625 
Q 12.109375 9.234375 16.796875 8.0625 
Q 21.484375 6.890625 26.703125 6.890625 
Q 35.15625 6.890625 40.078125 11.328125 
Q 45.015625 15.765625 45.015625 23.390625 
Q 45.015625 31 40.078125 35.4375 
Q 35.15625 39.890625 26.703125 39.890625 
Q 22.75 39.890625 18.8125 39.015625 
Q 14.890625 38.140625 10.796875 36.28125 
z
" id="DejaVuSans-35"/>
      </defs>
      <g transform="translate(22.717187 202.523348)scale(0.1 -0.1)">
       <use xlink:href="#DejaVuSans-2212"/>
       <use x="83.789062" xlink:href="#DejaVuSans-31"/>
       <use x="147.412109" xlink:href="#DejaVuSans-2e"/>
       <use x="179.199219" xlink:href="#DejaVuSans-35"/>
      </g>
     </g>
    </g>
    <g id="ytick_3">
     <g id="line2d_9">
      <g>
       <use style="stroke:#000000;stroke-width:0.8;" x="54" xlink:href="#mcdd3287059" y="165.929231"/>
      </g>
     </g>
     <g id="text_10">
      <!-- −1.0 -->
      <g transform="translate(22.717187 169.72845)scale(0.1 -0.1)">
       <use xlink:href="#DejaVuSans-2212"/>
       <use x="83.789062" xlink:href="#DejaVuSans-31"/>
       <use x="147.412109" xlink:href="#DejaVuSans-2e"/>
       <use x="179.199219" xlink:href="#DejaVuSans-30"/>
      </g>
     </g>
    </g>
    <g id="ytick_4">
     <g id="line2d_10">
      <g>
       <use style="stroke:#000000;stroke-width:0.8;" x="54" xlink:href="#mcdd3287059" y="133.134333"/>
      </g>
     </g>
     <g id="text_11">
      <!-- −0.5 -->
      <g transform="translate(22.717187 136.933552)scale(0.1 -0.1)">
       <use xlink:href="#DejaVuSans-2212"/>
       <use x="83.789062" xlink:href="#DejaVuSans-30"/>
       <use x="147.412109" xlink:href="#DejaVuSans-2e"/>
       <use x="179.199219" xlink:href="#DejaVuSans-35"/>
      </g>
     </g>
    </g>
    <g id="ytick_5">
     <g id="line2d_11">
      <g>
       <use style="stroke:#000000;stroke-width:0.8;" x="54" xlink:href="#mcdd3287059" y="100.339435"/>
      </g>
     </g>
     <g id="text_12">
      <!-- 0.0 -->
      <g transform="translate(31.096875 104.138654)scale(0.1 -0.1)">
       <use xlink:href="#DejaVuSans-30"/>
       <use x="63.623047" xlink:href="#DejaVuSans-2e"/>
       <use x="95.410156" xlink:href="#DejaVuSans-30"/>
      </g>
     </g>
    </g>
    <g id="ytick_6">
     <g id="line2d_12">
      <g>
       <use style="stroke:#000000;stroke-width:0.8;" x="54" xlink:href="#mcdd3287059" y="67.544537"/>
      </g>
     </g>
     <g id="text_13">
      <!-- 0.5 -->
      <g transform="translate(31.096875 71.343756)scale(0.1 -0.1)">
       <use xlink:href="#DejaVuSans-30"/>
       <use x="63.623047" xlink:href="#DejaVuSans-2e"/>
       <use x="95.410156" xlink:href="#DejaVuSans-35"/>
      </g>
     </g>
    </g>
    <g id="ytick_7">
     <g id="line2d_13">
      <g>
       <use style="stroke:#000000;stroke-width:0.8;" x="54" xlink:href="#mcdd3287059" y="34.749639"/>
      </g>
     </g>
     <g id="text_14">
      <!-- 1.0 -->
      <g transform="translate(31.096875 38.548858)scale(0.1 -0.1)">
       <use xlink:href="#DejaVuSans-31"/>
       <use x="63.623047" xlink:href="#DejaVuSans-2e"/>
       <use x="95.410156" xlink:href="#DejaVuSans-30"/>
      </g>
     </g>
    </g>
    <g id="text_15">
     <!-- $W_t$ -->
     <defs>
      <path d="M 9.625 72.90625 
L 19.1875 72.90625 
L 22.703125 10.890625 
L 50.203125 72.90625 
L 61.1875 72.90625 
L 64.796875 10.890625 
L 92 72.90625 
L 102 72.90625 
L 69.578125 0 
L 57.171875 0 
L 53.8125 60.796875 
L 26.515625 0 
L 14.109375 0 
z
" id="DejaVuSans-Oblique-57"/>
     </defs>
     <g transform="translate(16.6375 149.78)rotate(-90)scale(0.1 -0.1)">
      <use transform="translate(0 0.09375)" xlink:href="#DejaVuSans-Oblique-57"/>
      <use transform="translate(98.876953 -16.3125)scale(0.7)" xlink:href="#DejaVuSans-Oblique-74"/>
     </g>
    </g>
   </g>
   <g id="line2d_14">
    <path clip-path="url(#pf476572806)" d="M 69.218182 100.339435 
L 69.522545 99.509457 
L 69.826909 97.479425 
L 70.435636 88.957957 
L 70.74 90.98496 
L 71.044364 89.014352 
L 71.653091 89.542376 
L 71.957455 88.690741 
L 72.261818 88.391976 
L 72.566182 85.375621 
L 72.870545 83.797129 
L 73.174909 83.544759 
L 73.783636 81.932044 
L 74.088 78.833127 
L 74.392364 79.258652 
L 74.696727 78.609309 
L 75.001091 80.380816 
L 75.305455 85.676052 
L 75.914182 82.527407 
L 76.218545 84.066755 
L 76.522909 79.358985 
L 76.827273 82.375531 
L 77.131636 82.280622 
L 77.436 82.668866 
L 78.044727 76.442037 
L 78.349091 76.120656 
L 78.653455 75.336297 
L 78.957818 77.177681 
L 79.262182 81.286113 
L 79.566545 82.007729 
L 79.870909 81.683441 
L 80.479636 76.637762 
L 81.088364 78.068144 
L 81.697091 83.188285 
L 82.001455 86.727314 
L 82.305818 82.681149 
L 82.914545 84.646858 
L 83.218909 87.245321 
L 83.523273 85.632704 
L 83.827636 88.98014 
L 84.132 89.421391 
L 84.436364 91.278707 
L 84.740727 90.47622 
L 85.045091 91.535697 
L 85.349455 93.984483 
L 85.653818 94.042937 
L 85.958182 93.15452 
L 86.262545 93.016555 
L 86.566909 92.389188 
L 86.871273 93.704856 
L 87.175636 94.457229 
L 87.48 95.852 
L 87.784364 96.597761 
L 88.088727 98.284333 
L 88.393091 101.86487 
L 88.697455 101.496865 
L 89.001818 102.330211 
L 89.306182 105.711457 
L 89.610545 104.751586 
L 89.914909 106.633442 
L 90.219273 106.5257 
L 90.523636 105.013471 
L 90.828 104.745943 
L 91.132364 102.382676 
L 91.436727 104.943867 
L 91.741091 104.109358 
L 92.654182 108.536502 
L 92.958545 109.182703 
L 93.262909 109.066209 
L 93.567273 111.482883 
L 93.871636 109.61445 
L 94.176 108.648605 
L 94.480364 111.834976 
L 95.393455 102.370878 
L 95.697818 102.744066 
L 96.002182 104.964948 
L 96.306545 102.777876 
L 96.610909 103.614118 
L 96.915273 101.078607 
L 97.219636 100.646617 
L 97.524 98.620939 
L 97.828364 97.881788 
L 98.132727 96.416263 
L 98.437091 96.394484 
L 98.741455 92.690354 
L 99.045818 92.427122 
L 99.350182 91.593343 
L 99.654545 87.687441 
L 100.263273 93.118023 
L 100.567636 91.107367 
L 100.872 93.540579 
L 101.176364 89.509253 
L 101.480727 90.367153 
L 101.785091 91.917473 
L 102.698182 80.984693 
L 103.002545 79.105438 
L 103.306909 80.891733 
L 103.611273 76.930007 
L 103.915636 77.485881 
L 104.524364 73.856756 
L 104.828727 74.178267 
L 105.133091 72.904586 
L 105.437455 70.991808 
L 105.741818 70.211052 
L 106.046182 72.491354 
L 106.350545 71.872769 
L 106.654909 69.12167 
L 106.959273 70.562295 
L 107.263636 70.872657 
L 107.568 71.775222 
L 107.872364 67.939606 
L 108.176727 66.545179 
L 108.481091 65.700049 
L 108.785455 67.296956 
L 109.089818 66.178483 
L 109.394182 67.577137 
L 109.698545 67.511116 
L 110.002909 68.829945 
L 110.611636 66.231008 
L 110.916 66.663047 
L 111.220364 65.841677 
L 111.829091 71.201895 
L 112.133455 70.290539 
L 112.437818 69.944836 
L 112.742182 68.627697 
L 113.046545 63.684742 
L 113.350909 61.725767 
L 113.655273 63.61908 
L 113.959636 61.302242 
L 114.264 64.031607 
L 114.568364 64.988994 
L 114.872727 65.130536 
L 115.177091 61.576838 
L 115.785818 64.835699 
L 116.090182 65.039903 
L 116.394545 66.416044 
L 116.698909 64.079253 
L 117.307636 68.699174 
L 117.916364 70.640255 
L 118.220727 66.638152 
L 118.525091 64.668928 
L 118.829455 64.487335 
L 119.133818 67.02905 
L 119.438182 65.27773 
L 119.742545 67.352308 
L 120.046909 70.556366 
L 120.351273 68.092236 
L 120.655636 67.434856 
L 120.96 65.524873 
L 121.264364 64.86379 
L 121.568727 63.086611 
L 121.873091 64.436924 
L 122.177455 66.582079 
L 122.481818 65.168363 
L 123.090545 68.264957 
L 123.394909 69.209791 
L 123.699273 69.173537 
L 124.003636 69.907767 
L 124.308 72.759597 
L 124.612364 74.094546 
L 124.916727 78.706176 
L 125.221091 77.409364 
L 125.829818 83.022879 
L 126.134182 82.914681 
L 126.438545 84.448632 
L 126.742909 81.248217 
L 127.047273 83.929772 
L 127.351636 83.375874 
L 127.656 83.457351 
L 127.960364 85.880131 
L 128.264727 84.794786 
L 128.569091 85.150596 
L 129.177818 81.841745 
L 129.482182 77.354909 
L 129.786545 74.582775 
L 130.395273 75.84501 
L 130.699636 73.564172 
L 131.308364 70.877352 
L 131.612727 74.231131 
L 131.917091 74.281587 
L 132.221455 75.81236 
L 132.525818 75.231759 
L 132.830182 75.435336 
L 133.134545 73.547505 
L 133.438909 72.889553 
L 133.743273 71.258605 
L 134.047636 72.22602 
L 134.352 74.184926 
L 134.656364 75.035423 
L 134.960727 75.070725 
L 135.265091 74.284315 
L 135.569455 69.598211 
L 135.873818 69.685858 
L 136.178182 71.668613 
L 136.786909 73.347784 
L 137.091273 72.349128 
L 137.395636 75.544944 
L 137.7 75.41373 
L 138.308727 74.607541 
L 138.613091 75.846453 
L 138.917455 76.339934 
L 139.221818 79.293624 
L 139.830545 81.4428 
L 140.134909 80.579857 
L 140.439273 82.977932 
L 140.743636 81.357624 
L 141.048 78.257867 
L 141.352364 82.551288 
L 141.656727 81.667171 
L 141.961091 80.263175 
L 142.265455 81.585303 
L 142.569818 82.409297 
L 142.874182 82.684909 
L 143.482909 83.9435 
L 143.787273 87.419752 
L 144.396 82.790394 
L 144.700364 84.477418 
L 145.004727 87.518975 
L 145.309091 86.438218 
L 145.613455 87.632478 
L 145.917818 87.338049 
L 146.222182 88.000378 
L 146.830909 85.125034 
L 147.135273 86.630019 
L 147.744 92.78252 
L 148.048364 91.516513 
L 148.352727 93.982363 
L 148.961455 96.270401 
L 149.265818 96.379432 
L 149.570182 100.395531 
L 149.874545 100.003979 
L 150.178909 98.91736 
L 150.483273 98.733961 
L 150.787636 99.37878 
L 151.092 99.176759 
L 151.396364 98.349085 
L 151.700727 104.099807 
L 152.005091 100.042988 
L 152.309455 99.233883 
L 152.613818 100.587064 
L 152.918182 101.397953 
L 153.222545 100.373867 
L 153.526909 100.614682 
L 153.831273 104.826589 
L 154.135636 100.544559 
L 154.44 100.773835 
L 154.744364 98.657863 
L 155.048727 100.093265 
L 155.353091 96.906617 
L 155.657455 96.312702 
L 155.961818 95.04988 
L 156.266182 97.217873 
L 156.570545 94.705799 
L 156.874909 93.275025 
L 157.179273 90.574825 
L 157.788 92.875274 
L 158.092364 88.096648 
L 158.396727 90.295261 
L 158.701091 90.577238 
L 159.005455 88.219176 
L 159.309818 88.016481 
L 159.614182 86.807359 
L 159.918545 87.635869 
L 160.222909 86.868324 
L 160.527273 89.578233 
L 160.831636 86.139052 
L 161.136 86.384139 
L 161.440364 87.794918 
L 161.744727 86.412752 
L 162.049091 87.368346 
L 162.657818 92.929042 
L 162.962182 91.490066 
L 163.570909 92.098356 
L 163.875273 89.862974 
L 164.484 93.715681 
L 164.788364 94.513972 
L 165.092727 94.318274 
L 165.397091 94.405744 
L 165.701455 95.000785 
L 166.310182 95.351172 
L 166.918909 98.52998 
L 167.223273 97.960597 
L 168.136364 102.856714 
L 168.440727 103.183737 
L 168.745091 98.502995 
L 169.049455 99.964636 
L 169.658182 96.458423 
L 169.962545 98.924451 
L 170.266909 97.320623 
L 170.571273 99.776147 
L 170.875636 105.291619 
L 171.18 104.034033 
L 171.484364 107.675981 
L 171.788727 106.740684 
L 172.093091 108.159412 
L 172.701818 102.501057 
L 173.006182 103.441438 
L 173.310545 104.868104 
L 173.614909 107.38626 
L 174.223636 108.882286 
L 174.528 109.638708 
L 174.832364 109.313684 
L 175.136727 108.113754 
L 175.441091 107.388525 
L 175.745455 108.97346 
L 176.049818 111.955628 
L 176.354182 109.12541 
L 177.267273 112.989376 
L 177.571636 116.812145 
L 178.180364 118.798395 
L 178.789091 116.062998 
L 179.093455 116.055177 
L 179.397818 114.122401 
L 179.702182 113.417269 
L 180.006545 113.449795 
L 180.310909 113.116009 
L 180.615273 113.51145 
L 181.224 114.885734 
L 181.528364 117.225378 
L 181.832727 116.643705 
L 182.137091 118.703574 
L 182.441455 116.95792 
L 182.745818 117.47533 
L 183.050182 117.372671 
L 183.658909 115.014069 
L 183.963273 118.271749 
L 184.267636 118.700894 
L 184.572 116.875288 
L 184.876364 120.397382 
L 185.180727 119.594112 
L 185.485091 124.272448 
L 185.789455 126.393262 
L 186.093818 126.313137 
L 186.398182 129.749382 
L 186.702545 131.793461 
L 187.006909 134.84624 
L 187.311273 131.427792 
L 187.615636 131.087162 
L 187.92 129.910527 
L 188.224364 130.372385 
L 188.528727 131.105449 
L 188.833091 134.458228 
L 189.137455 135.063538 
L 189.441818 136.642973 
L 190.050545 132.49673 
L 190.354909 129.454853 
L 190.659273 127.686548 
L 190.963636 128.928235 
L 191.268 131.242752 
L 191.572364 129.652592 
L 191.876727 128.913594 
L 192.181091 132.581775 
L 192.485455 131.844459 
L 192.789818 130.155038 
L 193.094182 130.032819 
L 193.398545 130.416644 
L 193.702909 132.091813 
L 194.007273 135.092117 
L 194.311636 133.432193 
L 194.920364 134.557578 
L 195.224727 130.963686 
L 195.529091 129.543941 
L 195.833455 128.774801 
L 196.137818 128.480146 
L 197.050909 119.832907 
L 197.355273 118.625297 
L 197.659636 122.969779 
L 197.964 122.713163 
L 198.268364 122.983022 
L 198.572727 122.788151 
L 198.877091 120.83215 
L 199.181455 126.5146 
L 199.485818 127.695428 
L 199.790182 127.135611 
L 200.094545 128.10391 
L 200.398909 131.04276 
L 200.703273 129.240415 
L 201.007636 128.666146 
L 201.312 130.680345 
L 201.616364 130.027373 
L 201.920727 128.323296 
L 202.225091 128.312318 
L 202.529455 126.651842 
L 202.833818 126.48952 
L 203.138182 127.309277 
L 203.442545 129.714067 
L 203.746909 129.892299 
L 204.051273 129.48931 
L 204.355636 127.672717 
L 204.66 127.911466 
L 204.964364 126.962725 
L 205.573091 130.586733 
L 205.877455 130.815695 
L 206.181818 133.003133 
L 206.486182 131.301831 
L 206.790545 130.341238 
L 207.399273 129.059425 
L 207.703636 124.867515 
L 208.008 125.840001 
L 208.312364 130.40608 
L 208.616727 129.992705 
L 208.921091 130.097663 
L 209.225455 131.171066 
L 209.529818 133.201288 
L 209.834182 134.112225 
L 210.138545 133.736105 
L 210.442909 134.779013 
L 210.747273 129.775267 
L 211.356 133.412509 
L 211.660364 138.159408 
L 211.964727 137.637796 
L 212.269091 141.820088 
L 212.573455 142.938988 
L 212.877818 143.510765 
L 213.182182 144.982834 
L 213.486545 141.376184 
L 214.095273 136.577616 
L 214.399636 138.407868 
L 214.704 136.067016 
L 215.008364 135.038245 
L 215.617091 131.303056 
L 215.921455 133.18795 
L 216.225818 134.068041 
L 216.530182 132.278903 
L 216.834545 137.787006 
L 217.138909 134.648165 
L 217.443273 133.500896 
L 217.747636 133.595692 
L 218.052 133.13833 
L 218.356364 135.274552 
L 218.660727 136.00038 
L 219.269455 131.025978 
L 219.573818 125.433654 
L 219.878182 125.586984 
L 220.791273 130.131051 
L 221.095636 130.292532 
L 221.4 129.498695 
L 221.704364 129.569718 
L 222.008727 127.29575 
L 222.313091 127.781544 
L 222.617455 128.502203 
L 222.921818 129.70783 
L 223.834909 138.791614 
L 224.748 131.383537 
L 225.052364 134.146719 
L 225.356727 138.229905 
L 225.661091 139.598949 
L 225.965455 139.234277 
L 226.269818 138.199928 
L 226.574182 136.026296 
L 226.878545 135.436663 
L 227.182909 131.822139 
L 227.487273 132.283852 
L 227.791636 134.177698 
L 228.096 137.664766 
L 228.400364 139.508609 
L 228.704727 139.006425 
L 229.009091 140.849748 
L 229.313455 138.906821 
L 229.617818 135.977467 
L 229.922182 140.892302 
L 230.226545 139.100144 
L 230.530909 143.745377 
L 230.835273 142.912615 
L 231.139636 140.372073 
L 231.444 140.237553 
L 231.748364 142.891796 
L 232.052727 144.106058 
L 232.661455 145.026744 
L 232.965818 145.447579 
L 233.270182 145.67549 
L 233.574545 145.232705 
L 233.878909 147.739445 
L 234.183273 148.241426 
L 234.487636 145.092353 
L 235.096364 146.810733 
L 235.400727 144.57441 
L 235.705091 149.882495 
L 236.009455 147.43216 
L 236.313818 148.742812 
L 236.922545 148.203019 
L 237.226909 146.248217 
L 237.531273 146.803243 
L 237.835636 148.209558 
L 238.14 145.517655 
L 238.444364 150.421262 
L 238.748727 150.379087 
L 239.053091 153.174861 
L 239.357455 154.754465 
L 239.661818 150.582854 
L 239.966182 150.675351 
L 240.270545 150.27075 
L 240.574909 153.965946 
L 240.879273 155.47808 
L 241.183636 155.070394 
L 241.488 154.33458 
L 241.792364 153.055077 
L 242.096727 153.037181 
L 242.705455 151.002902 
L 243.009818 154.798024 
L 243.314182 154.721269 
L 243.922909 151.90505 
L 244.227273 152.659741 
L 244.531636 154.330717 
L 244.836 156.650243 
L 245.140364 156.922066 
L 245.444727 154.571909 
L 245.749091 158.620208 
L 246.053455 159.98891 
L 246.357818 162.35301 
L 246.662182 160.724905 
L 247.270909 162.85078 
L 247.575273 163.300762 
L 247.879636 162.376958 
L 248.184 163.190824 
L 248.488364 169.508926 
L 249.097091 167.471392 
L 249.401455 167.926749 
L 249.705818 170.175184 
L 250.314545 168.658961 
L 250.618909 169.633871 
L 250.923273 170.083401 
L 251.227636 172.012668 
L 251.532 172.383085 
L 251.836364 175.598879 
L 252.140727 174.733305 
L 252.445091 176.69205 
L 252.749455 176.198192 
L 253.053818 179.114344 
L 253.358182 180.338201 
L 253.662545 180.567371 
L 253.966909 184.011881 
L 254.271273 183.773049 
L 254.575636 184.559451 
L 255.184364 190.876423 
L 255.488727 189.621325 
L 255.793091 187.763824 
L 256.097455 188.03742 
L 256.401818 187.197891 
L 256.706182 186.73361 
L 257.010545 186.049928 
L 257.314909 183.382628 
L 257.619273 186.508341 
L 257.923636 185.105273 
L 258.228 185.897609 
L 258.836727 186.989658 
L 259.141091 187.767762 
L 259.445455 190.311054 
L 259.749818 189.930785 
L 260.054182 186.465029 
L 260.662909 186.584329 
L 260.967273 188.009878 
L 261.271636 188.253535 
L 261.576 187.286645 
L 262.184727 188.995826 
L 262.489091 188.159402 
L 262.793455 190.063464 
L 263.097818 189.539753 
L 263.402182 187.838298 
L 263.706545 185.017586 
L 264.010909 185.20505 
L 264.619636 180.222972 
L 265.228364 184.815412 
L 265.532727 185.447947 
L 265.837091 183.313799 
L 266.141455 183.463732 
L 266.445818 184.709575 
L 266.750182 181.490018 
L 267.054545 180.894941 
L 267.358909 185.708158 
L 267.663273 185.050326 
L 267.967636 183.971693 
L 268.272 183.503751 
L 268.576364 182.570989 
L 268.880727 182.710527 
L 269.185091 185.445054 
L 269.489455 186.213943 
L 270.402545 192.729671 
L 270.706909 191.791149 
L 271.011273 191.5881 
L 271.315636 192.517654 
L 271.62 193.864466 
L 271.924364 193.913049 
L 272.228727 191.674657 
L 272.533091 195.831664 
L 272.837455 195.049972 
L 273.141818 196.181851 
L 273.750545 204.126373 
L 274.054909 206.019606 
L 274.359273 205.564315 
L 274.663636 204.74905 
L 274.968 206.696622 
L 275.272364 204.587186 
L 275.576727 201.635732 
L 275.881091 200.814196 
L 276.185455 202.040843 
L 276.794182 198.14186 
L 277.098545 196.342743 
L 277.402909 197.704335 
L 277.707273 203.583573 
L 278.011636 199.19307 
L 278.316 202.534244 
L 278.620364 202.608432 
L 278.924727 197.670453 
L 279.229091 196.984793 
L 279.533455 195.015931 
L 280.142182 201.819214 
L 280.446545 202.92411 
L 280.750909 200.661751 
L 281.055273 201.379918 
L 281.359636 203.028099 
L 281.664 202.617488 
L 281.968364 200.373412 
L 282.577091 205.881234 
L 282.881455 207.517037 
L 283.185818 205.246614 
L 283.490182 204.759563 
L 283.794545 200.337196 
L 284.098909 198.394885 
L 284.403273 198.467677 
L 284.707636 195.843739 
L 285.012 195.405066 
L 285.316364 196.867166 
L 285.620727 195.456809 
L 285.925091 196.901082 
L 286.229455 197.503404 
L 286.533818 194.749408 
L 286.838182 194.959479 
L 287.142545 196.6253 
L 287.446909 197.588397 
L 287.751273 195.469069 
L 288.664364 198.475946 
L 288.968727 198.094461 
L 289.273091 198.894017 
L 289.577455 202.216436 
L 290.186182 205.991293 
L 290.794909 201.726892 
L 291.099273 200.508839 
L 291.403636 201.557018 
L 291.708 203.249077 
L 292.012364 204.301736 
L 292.316727 206.483473 
L 292.621091 201.303951 
L 292.925455 205.961044 
L 293.229818 204.791216 
L 293.534182 207.455546 
L 293.838545 207.671968 
L 294.751636 214.528688 
L 295.056 210.888616 
L 295.360364 211.164452 
L 295.664727 212.752619 
L 295.969091 211.599844 
L 296.273455 211.578378 
L 296.577818 210.084933 
L 296.882182 213.868681 
L 297.186545 213.238967 
L 297.490909 211.636296 
L 297.795273 215.082669 
L 298.099636 214.153054 
L 298.404 210.63495 
L 298.708364 210.665767 
L 299.317091 207.571212 
L 299.621455 209.038671 
L 299.925818 208.95619 
L 300.230182 212.206343 
L 300.534545 213.142405 
L 300.838909 212.591333 
L 301.143273 211.091528 
L 301.447636 211.040479 
L 301.752 209.547138 
L 302.056364 211.83471 
L 302.360727 212.045644 
L 302.665091 212.005656 
L 302.969455 208.16936 
L 303.273818 208.61357 
L 303.578182 209.648596 
L 303.882545 209.604311 
L 304.186909 211.510673 
L 304.491273 211.110876 
L 304.795636 211.868049 
L 305.1 215.583498 
L 305.404364 215.705014 
L 305.708727 216.36364 
L 306.013091 219.749501 
L 306.317455 219.888746 
L 306.621818 216.799626 
L 307.230545 214.449156 
L 307.534909 217.231596 
L 307.839273 216.242446 
L 308.143636 215.934542 
L 308.752364 213.960646 
L 309.056727 216.78101 
L 309.361091 216.86688 
L 309.665455 218.438804 
L 309.969818 218.542685 
L 310.274182 220.404013 
L 310.578545 217.681777 
L 311.187273 221.327923 
L 311.491636 221.173221 
L 311.796 223.407266 
L 312.100364 224.288073 
L 312.404727 226.009529 
L 312.709091 223.082572 
L 313.013455 221.452712 
L 313.317818 221.571911 
L 313.622182 222.383347 
L 313.926545 220.43176 
L 314.535273 218.558287 
L 314.839636 218.612614 
L 315.144 222.114225 
L 315.448364 222.347494 
L 315.752727 223.451948 
L 316.057091 222.114018 
L 316.361455 220.015324 
L 316.665818 221.380001 
L 316.970182 220.408509 
L 317.274545 216.808067 
L 317.578909 218.192991 
L 317.883273 214.704465 
L 318.187636 216.47284 
L 319.100727 216.424485 
L 319.709455 219.388131 
L 320.013818 220.773071 
L 320.622545 219.410371 
L 320.926909 214.79347 
L 321.231273 211.949859 
L 321.535636 213.007341 
L 321.84 212.333518 
L 322.144364 210.265364 
L 322.448727 210.201892 
L 322.753091 210.346338 
L 323.057455 210.239365 
L 323.361818 208.440519 
L 323.666182 210.200047 
L 323.970545 210.875529 
L 324.579273 209.253806 
L 324.883636 208.75688 
L 325.188 209.523896 
L 325.492364 207.506729 
L 325.796727 203.080806 
L 326.101091 202.237847 
L 326.405455 202.638521 
L 326.709818 201.071016 
L 327.014182 202.189248 
L 327.318545 203.744204 
L 327.622909 203.676155 
L 327.927273 209.033214 
L 328.231636 211.426659 
L 328.536 212.148378 
L 329.144727 217.097322 
L 329.449091 218.003195 
L 329.753455 221.410921 
L 330.362182 223.363388 
L 330.666545 223.310695 
L 330.970909 220.916765 
L 331.275273 220.558968 
L 331.579636 220.515283 
L 331.884 220.309001 
L 332.188364 219.837359 
L 332.492727 221.946208 
L 332.797091 222.184267 
L 333.101455 221.543877 
L 333.405818 224.387013 
L 334.014545 220.348619 
L 334.318909 221.658176 
L 334.623273 222.158742 
L 334.927636 223.980225 
L 335.232 222.529617 
L 335.536364 224.730732 
L 335.840727 225.192179 
L 336.145091 226.973691 
L 336.449455 226.868006 
L 336.753818 230.589473 
L 337.058182 227.838217 
L 337.362545 229.838938 
L 337.666909 229.714708 
L 337.971273 230.155509 
L 338.58 233.577607 
L 338.884364 231.635394 
L 339.188727 232.725641 
L 339.493091 232.163199 
L 340.101818 235.167948 
L 340.406182 234.188445 
L 340.710545 232.258656 
L 341.014909 232.622285 
L 341.319273 235.571534 
L 341.623636 231.42751 
L 341.928 233.204106 
L 342.232364 236.401561 
L 342.536727 231.020383 
L 342.841091 231.858399 
L 343.145455 234.890225 
L 343.449818 236.307769 
L 343.754182 235.545433 
L 344.058545 235.150702 
L 344.362909 236.9173 
L 344.667273 233.136731 
L 344.971636 234.218556 
L 345.276 236.675752 
L 345.580364 234.683148 
L 345.884727 231.926497 
L 346.189091 233.622085 
L 346.493455 236.528663 
L 346.797818 234.391399 
L 347.102182 238.637817 
L 347.406545 241.181992 
L 347.710909 239.175381 
L 348.015273 239.29019 
L 348.319636 239.83763 
L 348.624 239.105842 
L 348.928364 239.422717 
L 349.232727 242.116364 
L 349.841455 236.721362 
L 350.145818 236.295476 
L 350.450182 236.201862 
L 350.754545 231.349172 
L 351.363273 232.460927 
L 351.667636 231.704945 
L 352.276364 225.349614 
L 352.580727 225.885928 
L 352.885091 225.246408 
L 353.189455 228.104734 
L 353.493818 228.751814 
L 354.102545 232.582988 
L 354.406909 229.095177 
L 355.015636 231.841104 
L 355.32 231.082286 
L 355.624364 228.390425 
L 355.928727 227.392529 
L 356.233091 221.669264 
L 356.537455 221.824135 
L 357.146182 220.715891 
L 357.450545 217.73941 
L 357.754909 216.68733 
L 358.059273 216.928406 
L 358.363636 218.893621 
L 358.668 218.386614 
L 358.972364 215.48004 
L 359.276727 216.331226 
L 359.581091 215.234127 
L 359.885455 214.723585 
L 360.189818 212.932531 
L 360.494182 214.601696 
L 360.798545 209.734442 
L 361.102909 212.38759 
L 361.407273 213.145791 
L 361.711636 211.200064 
L 362.016 210.5846 
L 362.320364 208.8631 
L 362.624727 209.892081 
L 362.929091 210.047237 
L 363.233455 210.021866 
L 363.537818 206.767015 
L 364.146545 203.682572 
L 364.450909 205.047197 
L 364.755273 203.037607 
L 365.059636 202.569721 
L 365.364 199.688451 
L 365.668364 195.511026 
L 366.277091 196.990024 
L 366.581455 198.782167 
L 366.885818 199.07997 
L 367.190182 199.872341 
L 367.494545 199.126682 
L 367.798909 199.426532 
L 368.103273 200.176537 
L 368.407636 197.968447 
L 368.712 199.913734 
L 369.016364 199.015411 
L 369.320727 199.857388 
L 369.625091 198.354952 
L 369.929455 195.481738 
L 370.233818 196.110403 
L 370.538182 195.195643 
L 370.842545 194.824803 
L 371.146909 196.48291 
L 371.755636 195.383811 
L 372.06 194.527463 
L 372.364364 194.938968 
L 372.668727 194.743601 
L 372.973091 197.123897 
L 373.277455 197.866673 
L 373.581818 196.713533 
L 373.581818 196.713533 
" style="fill:none;stroke:#1f77b4;stroke-linecap:square;stroke-width:1.5;"/>
   </g>
   <g id="line2d_15">
    <path clip-path="url(#pf476572806)" d="M 69.218182 100.339435 
L 69.522545 101.215372 
L 69.826909 100.998181 
L 70.435636 100.107272 
L 70.74 98.985637 
L 71.044364 102.756569 
L 71.348727 102.858874 
L 71.653091 102.363087 
L 71.957455 104.437903 
L 72.261818 100.965837 
L 72.566182 100.630742 
L 72.870545 97.388035 
L 73.479273 100.909543 
L 73.783636 100.444414 
L 74.088 103.926235 
L 74.392364 103.480368 
L 74.696727 103.278722 
L 75.305455 99.718047 
L 75.609818 100.58395 
L 75.914182 102.860302 
L 76.218545 99.308756 
L 76.827273 103.120262 
L 77.131636 105.370396 
L 77.436 103.052958 
L 77.740364 104.129226 
L 78.044727 105.692508 
L 78.349091 105.406921 
L 78.653455 105.836151 
L 78.957818 107.242611 
L 79.262182 105.678733 
L 80.175273 99.834759 
L 80.479636 98.99966 
L 80.784 102.683085 
L 81.088364 99.22084 
L 81.392727 98.594474 
L 81.697091 97.333078 
L 82.610182 91.179726 
L 82.914545 90.276346 
L 83.218909 91.519216 
L 83.523273 91.450583 
L 84.436364 96.568868 
L 84.740727 96.892482 
L 85.045091 94.716525 
L 85.349455 88.139506 
L 85.653818 87.746459 
L 85.958182 90.543245 
L 86.262545 87.919503 
L 86.566909 88.543369 
L 86.871273 89.913558 
L 87.175636 89.478302 
L 87.48 92.051521 
L 87.784364 91.590103 
L 88.088727 91.773405 
L 88.393091 91.569357 
L 88.697455 90.778249 
L 89.306182 90.604374 
L 89.610545 90.014668 
L 89.914909 89.153073 
L 90.219273 91.292503 
L 90.523636 94.258493 
L 90.828 94.386338 
L 91.132364 97.35802 
L 91.436727 97.176468 
L 92.045455 93.970155 
L 92.654182 97.928495 
L 92.958545 97.247555 
L 93.567273 98.736684 
L 93.871636 97.498622 
L 94.176 99.546384 
L 94.480364 100.378598 
L 95.089091 104.201662 
L 95.393455 105.979355 
L 95.697818 104.574209 
L 96.002182 104.466727 
L 96.306545 106.290221 
L 96.610909 106.769556 
L 96.915273 110.168658 
L 97.219636 111.689645 
L 97.524 107.231145 
L 97.828364 107.418323 
L 98.132727 105.900766 
L 98.437091 106.036598 
L 98.741455 105.314449 
L 99.045818 103.938764 
L 99.350182 106.229884 
L 99.654545 106.29405 
L 99.958909 103.019276 
L 100.567636 105.84412 
L 100.872 106.482312 
L 101.176364 105.924321 
L 101.480727 104.835572 
L 101.785091 102.206793 
L 102.089455 101.170768 
L 102.393818 101.299475 
L 102.698182 98.687797 
L 103.002545 97.227378 
L 103.306909 100.329614 
L 103.915636 91.418544 
L 104.22 91.767443 
L 104.524364 90.983607 
L 104.828727 88.236713 
L 105.133091 88.59388 
L 105.437455 87.079035 
L 105.741818 84.787994 
L 106.046182 86.892876 
L 106.350545 88.142192 
L 106.654909 86.231069 
L 106.959273 85.27528 
L 107.263636 83.359204 
L 107.568 83.634168 
L 107.872364 84.233602 
L 108.176727 88.379043 
L 108.481091 90.755999 
L 108.785455 90.658378 
L 109.394182 87.846404 
L 109.698545 88.112395 
L 110.002909 88.676085 
L 110.307273 88.225625 
L 110.611636 88.063405 
L 110.916 85.150193 
L 111.220364 84.846456 
L 111.829091 90.558207 
L 112.133455 87.408101 
L 112.437818 89.837242 
L 112.742182 88.251573 
L 113.350909 89.160315 
L 113.655273 89.438524 
L 113.959636 86.905211 
L 114.264 87.30519 
L 114.568364 87.374299 
L 114.872727 90.549386 
L 115.177091 90.120683 
L 115.481455 89.019231 
L 115.785818 88.523212 
L 116.090182 85.623791 
L 116.394545 85.509359 
L 116.698909 84.88924 
L 117.003273 81.470026 
L 117.307636 84.684959 
L 117.612 85.630401 
L 118.220727 80.730705 
L 119.133818 76.91825 
L 119.438182 73.534103 
L 120.046909 72.253065 
L 120.655636 71.523338 
L 120.96 73.923144 
L 121.264364 72.324667 
L 121.568727 72.595216 
L 121.873091 68.816325 
L 122.177455 68.973234 
L 122.481818 68.100194 
L 122.786182 67.588708 
L 123.090545 68.886196 
L 123.394909 66.828374 
L 123.699273 62.877021 
L 124.003636 62.907671 
L 124.612364 64.26728 
L 124.916727 68.192287 
L 125.221091 68.561095 
L 125.525455 68.040492 
L 126.134182 63.86152 
L 126.742909 65.299561 
L 127.047273 62.968434 
L 127.351636 63.328221 
L 127.656 64.386089 
L 128.264727 59.345734 
L 128.569091 59.306757 
L 128.873455 60.53833 
L 129.177818 64.711234 
L 129.482182 63.488111 
L 129.786545 65.3473 
L 130.090909 69.418264 
L 130.395273 66.131138 
L 130.699636 64.787167 
L 131.308364 69.668448 
L 131.612727 67.861959 
L 131.917091 69.682986 
L 132.221455 66.9946 
L 132.830182 64.603011 
L 133.134545 63.763619 
L 133.438909 63.366525 
L 133.743273 61.540229 
L 134.047636 62.482052 
L 134.352 62.303776 
L 134.960727 59.576425 
L 135.265091 62.054985 
L 135.569455 63.0929 
L 135.873818 62.568553 
L 136.178182 63.414829 
L 136.482545 59.733953 
L 136.786909 60.549405 
L 137.091273 60.885867 
L 137.395636 59.289968 
L 137.7 58.6044 
L 138.004364 58.905718 
L 138.308727 60.474785 
L 138.613091 59.849405 
L 138.917455 57.694183 
L 139.221818 56.700476 
L 139.526182 58.314531 
L 139.830545 54.712231 
L 140.439273 60.995322 
L 140.743636 59.003 
L 141.048 58.534577 
L 141.352364 59.67431 
L 141.656727 61.95289 
L 141.961091 57.139246 
L 142.265455 56.896384 
L 142.569818 55.78838 
L 143.178545 54.227196 
L 143.787273 51.587825 
L 144.396 52.97099 
L 144.700364 56.5821 
L 145.004727 58.200554 
L 145.309091 57.63823 
L 145.613455 55.470715 
L 145.917818 54.228228 
L 146.222182 54.934869 
L 146.526545 57.554855 
L 146.830909 63.315463 
L 147.135273 60.926616 
L 147.744 63.078929 
L 148.048364 62.806028 
L 148.352727 65.721344 
L 148.657091 66.446838 
L 148.961455 62.249891 
L 149.570182 60.456522 
L 149.874545 63.738824 
L 150.178909 59.085299 
L 150.483273 62.036362 
L 150.787636 58.049208 
L 151.092 62.436112 
L 151.700727 56.165142 
L 152.005091 57.875075 
L 152.613818 55.863041 
L 152.918182 57.550958 
L 153.526909 63.289738 
L 153.831273 62.167615 
L 154.135636 62.344156 
L 154.44 63.514591 
L 154.744364 61.509387 
L 155.048727 60.455587 
L 155.353091 62.022516 
L 155.657455 64.513966 
L 155.961818 63.428652 
L 156.266182 64.543671 
L 156.570545 64.337907 
L 156.874909 61.068456 
L 157.179273 60.026561 
L 157.483636 61.815016 
L 157.788 61.481784 
L 158.092364 63.457695 
L 158.396727 60.121408 
L 158.701091 61.286196 
L 159.005455 60.85629 
L 159.309818 60.218012 
L 159.614182 59.887705 
L 160.222909 66.950061 
L 160.527273 67.888295 
L 160.831636 67.225751 
L 161.136 67.511523 
L 161.440364 69.496773 
L 161.744727 72.293582 
L 162.353455 74.098146 
L 162.657818 73.034456 
L 162.962182 73.711284 
L 163.266545 72.461189 
L 163.570909 73.69457 
L 164.179636 74.947354 
L 164.484 76.570086 
L 164.788364 75.273508 
L 165.397091 78.042966 
L 165.701455 78.194626 
L 166.005818 80.885562 
L 166.310182 81.55952 
L 166.614545 83.034862 
L 166.918909 83.839945 
L 167.223273 83.964244 
L 167.527636 85.62337 
L 167.832 86.079836 
L 168.136364 83.365485 
L 168.440727 83.418995 
L 168.745091 81.04357 
L 169.049455 80.324895 
L 169.353818 78.719184 
L 169.658182 80.325514 
L 170.266909 79.83017 
L 170.875636 82.80749 
L 171.18 85.898497 
L 171.484364 82.795306 
L 171.788727 84.812198 
L 172.093091 82.019958 
L 172.397455 82.9896 
L 172.701818 84.778525 
L 173.006182 83.487338 
L 173.310545 84.796514 
L 173.614909 83.617455 
L 173.919273 84.30775 
L 174.223636 83.311287 
L 174.528 85.319432 
L 174.832364 83.595101 
L 175.136727 82.582981 
L 175.441091 84.490458 
L 175.745455 79.008661 
L 176.049818 77.888375 
L 176.658545 69.81848 
L 176.962909 70.210148 
L 177.571636 71.902081 
L 177.876 75.697801 
L 178.180364 77.141054 
L 178.484727 76.629229 
L 178.789091 73.464192 
L 179.093455 75.067023 
L 179.397818 73.237522 
L 179.702182 75.835565 
L 180.310909 78.000876 
L 180.919636 76.281171 
L 181.528364 72.686331 
L 181.832727 72.181968 
L 182.137091 71.372299 
L 182.441455 68.077478 
L 182.745818 69.137206 
L 183.050182 67.530318 
L 183.354545 71.280646 
L 183.658909 70.427485 
L 183.963273 71.429808 
L 184.267636 71.424475 
L 184.572 69.267199 
L 184.876364 68.925706 
L 185.180727 67.089711 
L 185.485091 64.032929 
L 185.789455 63.225897 
L 186.093818 60.797004 
L 186.398182 61.474334 
L 186.702545 61.491362 
L 187.006909 62.575344 
L 187.311273 60.412071 
L 187.615636 59.553191 
L 187.92 60.605262 
L 188.224364 60.284459 
L 188.528727 58.124109 
L 188.833091 58.205556 
L 189.137455 60.173767 
L 189.441818 59.900165 
L 189.746182 64.008118 
L 190.050545 62.413587 
L 190.659273 64.260888 
L 190.963636 62.44458 
L 191.268 65.276107 
L 191.572364 61.237569 
L 192.181091 63.318945 
L 192.789818 59.730864 
L 193.094182 54.646691 
L 193.702909 55.334499 
L 194.007273 58.402795 
L 194.311636 59.091619 
L 194.616 60.587962 
L 194.920364 61.518764 
L 195.224727 65.136439 
L 195.529091 61.69212 
L 195.833455 64.630342 
L 196.137818 70.442479 
L 196.442182 72.907428 
L 196.746545 74.15987 
L 197.050909 76.544196 
L 197.355273 74.26617 
L 197.659636 74.552067 
L 197.964 74.499414 
L 198.268364 73.233381 
L 198.572727 72.640154 
L 198.877091 70.610476 
L 199.181455 72.911679 
L 199.485818 74.047303 
L 199.790182 72.666 
L 200.094545 77.922999 
L 200.398909 80.775312 
L 200.703273 79.736189 
L 201.007636 80.732288 
L 201.616364 77.112332 
L 201.920727 79.597334 
L 202.225091 78.753874 
L 202.529455 76.261394 
L 202.833818 75.955596 
L 203.138182 77.982987 
L 203.746909 74.841062 
L 204.355636 72.230665 
L 204.66 78.441886 
L 204.964364 76.614705 
L 205.268727 72.864402 
L 205.573091 71.958757 
L 205.877455 71.559011 
L 206.181818 70.114506 
L 206.486182 69.412982 
L 206.790545 68.061102 
L 207.094909 68.058051 
L 207.703636 71.731395 
L 208.008 73.801776 
L 208.616727 78.864284 
L 208.921091 75.211186 
L 209.225455 73.647093 
L 209.529818 74.943482 
L 209.834182 75.753207 
L 210.138545 75.519748 
L 210.442909 76.879435 
L 210.747273 76.739396 
L 211.051636 75.126543 
L 211.356 75.200678 
L 211.660364 74.503737 
L 211.964727 72.665037 
L 212.269091 73.229474 
L 212.573455 72.638781 
L 212.877818 73.280471 
L 213.182182 73.339643 
L 213.486545 74.013177 
L 213.790909 75.110122 
L 214.095273 74.749821 
L 214.399636 73.574732 
L 214.704 73.271277 
L 215.008364 72.236852 
L 215.312727 73.767419 
L 215.617091 76.264124 
L 215.921455 75.399121 
L 216.225818 73.972365 
L 216.530182 73.868954 
L 217.138909 69.190264 
L 217.443273 63.630408 
L 217.747636 64.046911 
L 218.356364 67.653796 
L 218.660727 68.826713 
L 218.965091 67.839361 
L 219.269455 72.315479 
L 219.573818 69.580631 
L 220.182545 70.588846 
L 220.486909 72.827545 
L 220.791273 73.064464 
L 221.095636 73.037003 
L 221.4 73.289933 
L 221.704364 72.586679 
L 222.008727 73.809654 
L 222.313091 75.667693 
L 222.617455 74.530389 
L 222.921818 74.325739 
L 223.226182 73.91676 
L 223.530545 71.720198 
L 224.139273 75.615012 
L 224.443636 73.007374 
L 225.052364 78.798962 
L 225.356727 77.102609 
L 225.661091 76.60855 
L 225.965455 76.390285 
L 226.269818 76.580398 
L 226.574182 76.515545 
L 226.878545 76.706598 
L 227.182909 73.895232 
L 227.487273 74.721043 
L 227.791636 75.055753 
L 228.096 71.333831 
L 228.400364 71.276772 
L 228.704727 66.647276 
L 229.009091 66.865018 
L 229.313455 64.02882 
L 229.617818 67.462221 
L 229.922182 67.143542 
L 230.226545 70.429948 
L 230.530909 68.678439 
L 230.835273 71.194086 
L 231.139636 70.605511 
L 231.444 71.190822 
L 231.748364 73.593088 
L 232.052727 76.951854 
L 232.357091 78.011819 
L 232.661455 74.401524 
L 232.965818 75.010251 
L 233.270182 73.107813 
L 233.574545 73.226127 
L 233.878909 71.407681 
L 234.183273 75.196935 
L 234.487636 76.033201 
L 234.792 74.064009 
L 235.400727 74.581941 
L 235.705091 75.474775 
L 236.009455 73.090811 
L 236.313818 72.473727 
L 236.618182 72.382419 
L 237.226909 69.828584 
L 237.531273 69.38765 
L 237.835636 66.178904 
L 238.14 66.303948 
L 238.444364 65.727171 
L 238.748727 67.060739 
L 239.053091 66.749381 
L 239.357455 63.456155 
L 239.661818 64.790355 
L 239.966182 67.141576 
L 240.270545 65.074165 
L 240.574909 65.382726 
L 240.879273 65.183601 
L 241.183636 65.277172 
L 241.488 65.113063 
L 241.792364 63.34895 
L 242.401091 67.187957 
L 242.705455 67.011722 
L 243.314182 73.191582 
L 243.618545 69.319836 
L 243.922909 67.748747 
L 244.227273 67.769606 
L 244.531636 65.201816 
L 244.836 67.360156 
L 245.140364 68.014758 
L 245.444727 66.721634 
L 245.749091 64.874263 
L 246.053455 63.810406 
L 246.357818 69.08127 
L 246.662182 71.089199 
L 246.966545 70.099697 
L 247.270909 70.837988 
L 247.575273 65.569213 
L 247.879636 63.64741 
L 248.184 62.489874 
L 248.488364 64.806575 
L 248.792727 64.879785 
L 249.097091 64.379496 
L 250.010182 58.070187 
L 250.314545 59.986502 
L 250.618909 57.057514 
L 250.923273 59.920709 
L 251.227636 61.032266 
L 251.532 60.13879 
L 251.836364 60.449685 
L 252.749455 67.451623 
L 253.053818 66.348238 
L 253.358182 63.733652 
L 253.662545 63.941882 
L 253.966909 64.772258 
L 254.271273 67.826049 
L 254.575636 65.931948 
L 254.88 61.345412 
L 255.184364 65.073572 
L 255.793091 68.688837 
L 256.097455 69.859306 
L 256.401818 69.387761 
L 256.706182 66.039595 
L 257.010545 63.947632 
L 257.314909 62.853326 
L 257.619273 64.354849 
L 258.228 68.329722 
L 258.532364 65.118828 
L 258.836727 65.246891 
L 259.141091 66.173689 
L 259.445455 66.554822 
L 259.749818 64.844456 
L 260.054182 67.567478 
L 260.358545 64.632843 
L 260.662909 64.308291 
L 260.967273 64.757017 
L 261.271636 63.838496 
L 261.576 63.385512 
L 262.184727 64.623575 
L 262.489091 66.425711 
L 262.793455 65.06427 
L 263.097818 66.167695 
L 263.402182 68.151101 
L 263.706545 67.807078 
L 264.010909 65.050264 
L 264.315273 65.150537 
L 264.619636 66.411819 
L 264.924 65.574086 
L 265.228364 61.55709 
L 265.532727 64.568532 
L 265.837091 63.775794 
L 266.141455 63.350417 
L 266.750182 58.885967 
L 267.054545 59.273227 
L 267.358909 62.767137 
L 267.663273 61.094218 
L 268.272 64.790181 
L 268.576364 62.408351 
L 268.880727 64.297574 
L 269.185091 61.38789 
L 270.098182 59.392103 
L 270.706909 66.474872 
L 271.011273 66.027787 
L 271.315636 64.849665 
L 271.62 64.678319 
L 271.924364 66.382289 
L 272.228727 66.343043 
L 272.533091 66.513192 
L 272.837455 68.498464 
L 273.141818 66.395352 
L 273.446182 69.984172 
L 274.359273 65.871631 
L 274.663636 67.95678 
L 274.968 67.746448 
L 275.272364 63.243166 
L 275.576727 61.869937 
L 275.881091 61.661319 
L 276.185455 60.543027 
L 276.489818 60.364285 
L 276.794182 55.820075 
L 277.098545 53.779884 
L 277.402909 53.957461 
L 277.707273 53.434092 
L 278.011636 54.244658 
L 278.316 51.73527 
L 278.924727 57.980155 
L 279.229091 54.954589 
L 279.533455 50.488735 
L 279.837818 49.517409 
L 280.142182 49.283576 
L 280.446545 47.920317 
L 280.750909 49.262391 
L 281.055273 48.907209 
L 281.359636 48.826507 
L 281.664 47.526931 
L 281.968364 50.758424 
L 282.272727 51.810081 
L 282.577091 50.057449 
L 282.881455 51.45872 
L 283.185818 53.519082 
L 283.490182 49.283556 
L 283.794545 49.204494 
L 284.098909 50.405246 
L 284.403273 53.915445 
L 285.012 50.952584 
L 285.316364 51.572251 
L 285.620727 53.858421 
L 285.925091 53.90934 
L 286.533818 57.597042 
L 286.838182 57.811118 
L 287.142545 59.99184 
L 287.446909 59.480258 
L 287.751273 58.219202 
L 288.055636 59.96071 
L 288.36 62.79863 
L 288.664364 59.560331 
L 289.273091 62.879383 
L 289.577455 62.437557 
L 289.881818 61.194386 
L 290.186182 61.726021 
L 290.490545 60.770273 
L 290.794909 61.601971 
L 291.099273 63.616307 
L 291.403636 60.657938 
L 292.012364 51.978919 
L 292.316727 51.684794 
L 292.621091 47.882008 
L 292.925455 47.144232 
L 293.229818 48.134186 
L 293.534182 47.166854 
L 293.838545 47.362636 
L 294.447273 51.26499 
L 294.751636 49.60143 
L 295.056 53.43138 
L 295.360364 52.178321 
L 295.969091 59.95789 
L 296.273455 63.7719 
L 296.577818 59.692573 
L 296.882182 60.099588 
L 297.186545 59.920003 
L 297.795273 55.03867 
L 298.099636 57.924835 
L 298.404 56.122401 
L 298.708364 55.740385 
L 299.012727 56.44907 
L 299.317091 56.398688 
L 299.621455 53.744189 
L 299.925818 55.5818 
L 300.230182 54.750311 
L 300.534545 54.770341 
L 300.838909 58.497897 
L 301.143273 60.161875 
L 301.447636 59.761125 
L 302.056364 54.993375 
L 302.360727 53.754678 
L 302.665091 55.445666 
L 302.969455 51.709712 
L 303.273818 51.263275 
L 303.578182 53.350609 
L 303.882545 53.729978 
L 304.186909 51.871041 
L 304.491273 51.855241 
L 305.404364 46.895808 
L 305.708727 48.674796 
L 306.013091 48.393845 
L 306.317455 48.300165 
L 306.621818 44.443636 
L 306.926182 47.816842 
L 307.230545 48.096481 
L 307.534909 49.307968 
L 307.839273 48.612915 
L 308.143636 53.668744 
L 308.448 51.356244 
L 308.752364 51.327728 
L 309.056727 55.15388 
L 309.361091 55.902877 
L 309.665455 54.639809 
L 309.969818 57.940681 
L 310.274182 57.933997 
L 310.578545 60.127337 
L 310.882909 61.280523 
L 311.187273 61.225064 
L 311.491636 60.844564 
L 311.796 61.820946 
L 312.100364 61.25513 
L 312.404727 59.558537 
L 312.709091 60.137042 
L 313.317818 54.134958 
L 313.622182 55.024142 
L 313.926545 56.347107 
L 314.230909 59.798821 
L 314.535273 60.061342 
L 314.839636 60.81516 
L 315.144 59.199306 
L 315.448364 62.330542 
L 315.752727 62.905888 
L 316.057091 60.896585 
L 316.665818 63.99268 
L 316.970182 66.993824 
L 317.274545 61.55841 
L 317.578909 63.108767 
L 317.883273 65.805858 
L 318.492 69.079139 
L 318.796364 69.637889 
L 319.100727 67.925958 
L 319.405091 68.54472 
L 319.709455 70.458776 
L 320.013818 73.469043 
L 320.622545 73.335477 
L 320.926909 70.160122 
L 321.231273 69.968373 
L 321.535636 70.173729 
L 321.84 72.352923 
L 322.144364 72.987509 
L 322.753091 74.664732 
L 323.057455 76.654354 
L 323.361818 75.537787 
L 323.970545 76.248797 
L 324.274909 79.803954 
L 324.883636 77.769938 
L 325.188 79.510403 
L 325.492364 77.456761 
L 325.796727 80.287449 
L 326.101091 80.33281 
L 326.405455 80.895329 
L 326.709818 83.627323 
L 327.014182 83.233855 
L 327.318545 79.702501 
L 327.622909 79.562218 
L 327.927273 80.522586 
L 328.231636 79.595399 
L 328.536 79.376122 
L 328.840364 79.31854 
L 329.144727 80.20117 
L 329.449091 77.251806 
L 329.753455 76.305249 
L 330.057818 77.401781 
L 330.362182 77.625795 
L 331.579636 84.105787 
L 331.884 82.493612 
L 332.188364 83.09727 
L 332.492727 81.947937 
L 332.797091 83.337866 
L 333.101455 83.463066 
L 333.405818 84.937858 
L 333.710182 83.445171 
L 334.014545 83.960425 
L 334.318909 85.476353 
L 334.623273 88.881462 
L 334.927636 88.309693 
L 335.232 89.778977 
L 335.536364 89.811705 
L 335.840727 90.831618 
L 336.145091 88.852503 
L 336.753818 86.796299 
L 337.058182 88.074215 
L 337.362545 87.107068 
L 337.666909 83.550282 
L 337.971273 85.276345 
L 338.275636 84.918891 
L 338.58 88.339584 
L 338.884364 85.438782 
L 339.188727 86.264104 
L 339.493091 84.640933 
L 339.797455 88.215135 
L 340.101818 84.486802 
L 340.406182 85.227 
L 340.710545 84.095235 
L 341.014909 83.782418 
L 341.319273 84.312298 
L 341.623636 80.815744 
L 341.928 84.234008 
L 342.232364 83.614437 
L 342.536727 81.725638 
L 342.841091 81.787563 
L 343.449818 82.328618 
L 343.754182 84.874897 
L 344.058545 84.795816 
L 344.362909 83.732373 
L 344.667273 83.590089 
L 344.971636 84.154825 
L 345.276 85.170579 
L 345.580364 85.749877 
L 345.884727 83.141151 
L 346.189091 87.469106 
L 346.493455 87.385992 
L 346.797818 88.065799 
L 347.102182 85.046262 
L 347.406545 84.931164 
L 347.710909 81.851233 
L 348.015273 86.25646 
L 348.319636 85.303221 
L 348.624 84.722344 
L 348.928364 81.838193 
L 349.232727 85.242566 
L 349.537091 85.564131 
L 349.841455 85.427113 
L 350.145818 86.455458 
L 350.450182 83.932116 
L 350.754545 84.634588 
L 351.058909 80.414223 
L 351.667636 76.255565 
L 351.972 75.095505 
L 352.276364 77.30175 
L 352.580727 78.1959 
L 353.189455 75.602596 
L 353.493818 72.891325 
L 353.798182 73.860859 
L 354.102545 75.64493 
L 354.406909 73.863035 
L 354.711273 75.542307 
L 355.015636 73.730944 
L 355.32 71.242533 
L 355.624364 70.296412 
L 355.928727 71.038078 
L 356.233091 70.952868 
L 356.537455 69.721941 
L 356.841818 69.700815 
L 357.146182 65.14126 
L 358.059273 71.301917 
L 358.363636 72.524784 
L 358.668 77.044174 
L 359.276727 79.70515 
L 359.581091 79.542302 
L 359.885455 78.675729 
L 360.189818 81.2481 
L 360.494182 79.381269 
L 360.798545 75.643182 
L 361.102909 76.075193 
L 361.407273 72.80974 
L 361.711636 72.397009 
L 362.016 68.272118 
L 362.320364 65.954725 
L 362.624727 69.198469 
L 362.929091 69.159833 
L 363.233455 66.973025 
L 363.537818 66.909667 
L 363.842182 66.986168 
L 364.146545 64.352509 
L 364.450909 65.82484 
L 364.755273 65.788511 
L 365.059636 65.117268 
L 365.364 65.809595 
L 365.668364 65.851345 
L 365.972727 64.243845 
L 366.277091 63.346083 
L 367.190182 68.950269 
L 367.494545 68.94768 
L 367.798909 69.279416 
L 368.407636 72.245648 
L 368.712 75.398409 
L 369.016364 74.531726 
L 369.320727 74.61473 
L 369.625091 77.227694 
L 369.929455 77.168332 
L 370.233818 74.383557 
L 370.538182 75.918281 
L 370.842545 73.190513 
L 371.146909 73.861406 
L 371.451273 73.451085 
L 371.755636 73.248337 
L 372.06 70.341393 
L 372.364364 70.01278 
L 372.973091 75.100359 
L 373.581818 81.83069 
L 373.581818 81.83069 
" style="fill:none;stroke:#ff7f0e;stroke-linecap:square;stroke-width:1.5;"/>
   </g>
   <g id="line2d_16">
    <path clip-path="url(#pf476572806)" d="M 69.218182 100.339435 
L 69.522545 102.32723 
L 69.826909 102.494844 
L 70.74 106.550784 
L 71.653091 102.394426 
L 71.957455 104.447448 
L 72.566182 101.68361 
L 72.870545 101.113955 
L 73.174909 102.365943 
L 73.479273 100.895675 
L 73.783636 100.018694 
L 74.088 106.483464 
L 74.392364 105.146786 
L 74.696727 109.11614 
L 75.001091 107.739826 
L 75.305455 108.059392 
L 75.609818 105.583685 
L 75.914182 105.787284 
L 76.218545 107.626239 
L 76.522909 107.93187 
L 76.827273 105.733692 
L 77.131636 105.679253 
L 77.436 105.916399 
L 77.740364 104.374171 
L 78.044727 103.937858 
L 78.349091 103.950153 
L 78.957818 97.891254 
L 79.262182 96.619134 
L 79.566545 97.212251 
L 80.175273 91.653515 
L 80.479636 90.162428 
L 80.784 92.684731 
L 81.088364 92.392959 
L 81.392727 93.935433 
L 81.697091 94.265245 
L 82.001455 93.767335 
L 82.305818 93.559592 
L 82.610182 94.545167 
L 82.914545 91.904894 
L 83.218909 95.422893 
L 83.523273 93.908397 
L 83.827636 97.761061 
L 84.132 96.967502 
L 84.436364 98.807058 
L 84.740727 96.985341 
L 85.045091 96.806027 
L 85.349455 96.292251 
L 85.958182 99.761961 
L 86.262545 99.332165 
L 86.566909 98.121764 
L 86.871273 92.046434 
L 87.175636 91.584196 
L 87.48 89.559766 
L 88.088727 95.547422 
L 88.393091 96.284765 
L 88.697455 98.768388 
L 89.001818 95.6854 
L 89.306182 96.536248 
L 89.914909 90.585638 
L 90.219273 90.496908 
L 90.523636 89.456109 
L 90.828 89.572467 
L 91.436727 87.453163 
L 91.741091 87.709628 
L 92.045455 86.662254 
L 92.349818 83.087082 
L 92.654182 81.608192 
L 92.958545 80.932441 
L 93.262909 80.673653 
L 93.871636 84.904819 
L 94.176 84.234135 
L 94.480364 87.074432 
L 94.784727 88.663896 
L 95.089091 86.005873 
L 95.393455 82.035509 
L 95.697818 85.490921 
L 96.002182 82.117036 
L 96.306545 82.555587 
L 96.610909 82.586709 
L 96.915273 82.82194 
L 97.219636 80.580749 
L 97.524 83.915282 
L 97.828364 82.969139 
L 98.132727 84.928924 
L 98.437091 83.745033 
L 98.741455 80.545071 
L 99.045818 80.545936 
L 99.654545 78.920425 
L 99.958909 80.578887 
L 100.567636 73.904109 
L 100.872 72.448518 
L 101.176364 72.296514 
L 101.785091 74.553966 
L 102.393818 68.071783 
L 102.698182 68.203826 
L 103.002545 71.480809 
L 103.306909 77.354774 
L 103.611273 79.601943 
L 103.915636 79.872867 
L 104.22 76.967654 
L 104.524364 78.319275 
L 104.828727 77.272221 
L 105.133091 74.569253 
L 105.437455 74.302651 
L 105.741818 74.598107 
L 106.350545 79.806746 
L 106.654909 78.943701 
L 106.959273 79.36041 
L 107.263636 79.106264 
L 107.568 79.204324 
L 107.872364 77.826802 
L 108.176727 79.454347 
L 108.481091 80.150385 
L 108.785455 76.217454 
L 109.089818 77.876315 
L 109.394182 78.46034 
L 109.698545 79.682805 
L 110.002909 78.76027 
L 110.307273 76.639694 
L 110.916 78.567861 
L 111.220364 79.146505 
L 111.524727 78.04756 
L 111.829091 79.581163 
L 112.133455 80.360954 
L 112.437818 85.281196 
L 112.742182 88.147116 
L 113.046545 88.38034 
L 113.350909 86.518051 
L 113.655273 85.906025 
L 114.264 91.089331 
L 114.568364 90.727021 
L 114.872727 94.155154 
L 115.177091 91.944281 
L 115.481455 91.811752 
L 115.785818 95.145545 
L 116.394545 98.651378 
L 116.698909 100.255081 
L 117.003273 103.345397 
L 117.612 106.579101 
L 117.916364 108.054401 
L 118.220727 105.714871 
L 118.525091 105.497445 
L 118.829455 107.557591 
L 119.133818 108.25164 
L 119.438182 110.075957 
L 119.742545 110.69821 
L 120.046909 108.882289 
L 120.351273 108.359046 
L 120.655636 103.618409 
L 120.96 102.838686 
L 121.264364 104.733601 
L 121.873091 100.814173 
L 122.177455 98.544727 
L 122.481818 100.814326 
L 122.786182 101.120546 
L 123.090545 98.773019 
L 123.394909 102.267368 
L 123.699273 103.303224 
L 124.308 108.197154 
L 124.612364 110.297123 
L 124.916727 107.703277 
L 125.221091 108.18974 
L 125.829818 112.128435 
L 126.134182 111.834599 
L 126.438545 111.857696 
L 126.742909 109.069909 
L 127.047273 108.032808 
L 127.351636 111.002545 
L 127.656 112.307134 
L 127.960364 110.087663 
L 128.264727 111.37587 
L 128.569091 107.778139 
L 128.873455 110.056136 
L 129.177818 108.86846 
L 129.482182 110.654735 
L 129.786545 111.711702 
L 130.090909 109.433099 
L 130.395273 109.696653 
L 130.699636 108.009446 
L 131.004 107.027779 
L 131.308364 105.464163 
L 131.612727 107.306382 
L 131.917091 107.765956 
L 132.221455 106.886001 
L 132.525818 108.64709 
L 132.830182 105.267292 
L 133.134545 106.879365 
L 133.438909 107.501612 
L 133.743273 109.589348 
L 134.047636 114.034851 
L 134.352 110.307806 
L 134.656364 110.731631 
L 134.960727 111.660666 
L 135.265091 112.072827 
L 135.569455 109.127842 
L 135.873818 111.1296 
L 136.178182 109.720087 
L 136.482545 110.59908 
L 136.786909 111.836653 
L 137.091273 110.6605 
L 137.395636 108.610759 
L 137.7 109.676662 
L 138.004364 111.271356 
L 138.308727 113.696214 
L 138.613091 111.407402 
L 138.917455 112.600559 
L 139.221818 116.435899 
L 139.526182 113.511473 
L 139.830545 116.352742 
L 140.134909 114.736038 
L 140.439273 114.355583 
L 140.743636 113.758408 
L 141.048 114.97048 
L 141.352364 114.212195 
L 141.656727 117.67139 
L 141.961091 116.451722 
L 142.265455 113.222278 
L 142.569818 111.38869 
L 142.874182 115.577481 
L 143.178545 117.61886 
L 143.482909 118.008372 
L 143.787273 116.9984 
L 144.091636 117.219611 
L 144.396 118.242603 
L 144.700364 117.007872 
L 145.004727 114.593268 
L 145.309091 115.075076 
L 145.613455 113.56318 
L 145.917818 118.91247 
L 146.222182 120.856988 
L 146.526545 121.523321 
L 146.830909 122.536672 
L 147.135273 121.846404 
L 147.439636 119.743753 
L 147.744 118.692854 
L 148.048364 119.983432 
L 148.352727 123.141853 
L 148.657091 121.986636 
L 148.961455 125.799256 
L 149.265818 124.444771 
L 149.570182 124.835639 
L 149.874545 127.274476 
L 150.178909 126.678666 
L 150.787636 126.760539 
L 151.092 126.93523 
L 151.396364 126.065081 
L 151.700727 124.147684 
L 152.005091 123.117638 
L 152.309455 121.018341 
L 152.613818 121.109893 
L 152.918182 117.752995 
L 153.222545 116.568438 
L 153.526909 117.696131 
L 153.831273 119.965014 
L 154.135636 119.538164 
L 154.744364 124.266971 
L 155.048727 123.771073 
L 155.353091 125.031911 
L 155.657455 126.967732 
L 155.961818 127.039238 
L 156.266182 126.888494 
L 156.570545 127.315421 
L 156.874909 128.098503 
L 157.179273 126.325862 
L 157.483636 125.615622 
L 157.788 126.079038 
L 158.092364 120.96771 
L 158.396727 120.565677 
L 158.701091 118.21775 
L 159.005455 119.381298 
L 159.309818 122.208217 
L 159.614182 123.850424 
L 159.918545 124.406312 
L 160.222909 125.436342 
L 160.527273 122.664502 
L 160.831636 122.913483 
L 161.136 121.956336 
L 161.440364 122.052744 
L 161.744727 122.951992 
L 162.049091 122.873184 
L 162.353455 119.318015 
L 162.657818 120.910842 
L 162.962182 119.320003 
L 163.266545 121.448077 
L 163.570909 122.401402 
L 163.875273 122.39397 
L 164.179636 121.717025 
L 164.484 118.640822 
L 164.788364 118.7447 
L 165.092727 120.494469 
L 165.397091 119.146197 
L 165.701455 119.901533 
L 166.005818 119.406476 
L 166.310182 119.647537 
L 166.614545 123.678522 
L 167.223273 121.41426 
L 167.527636 119.49236 
L 167.832 115.757964 
L 168.136364 118.236766 
L 168.745091 116.31653 
L 169.049455 117.185761 
L 169.658182 115.325777 
L 169.962545 117.853488 
L 170.266909 117.342789 
L 170.875636 120.598846 
L 171.18 124.2799 
L 171.484364 125.261712 
L 171.788727 125.683945 
L 172.093091 124.543469 
L 172.397455 124.541603 
L 172.701818 127.740511 
L 173.006182 125.952303 
L 173.310545 126.198267 
L 173.614909 125.185322 
L 173.919273 123.181844 
L 174.223636 120.231174 
L 174.528 116.163332 
L 174.832364 116.313164 
L 175.136727 115.667851 
L 175.441091 117.904514 
L 175.745455 115.702616 
L 176.049818 118.160228 
L 176.354182 121.904558 
L 176.658545 120.182228 
L 176.962909 121.264295 
L 177.267273 119.651435 
L 177.571636 118.805035 
L 177.876 122.185875 
L 178.180364 127.826847 
L 178.484727 130.101343 
L 178.789091 130.067138 
L 179.093455 132.601262 
L 179.397818 133.955176 
L 179.702182 136.98121 
L 180.310909 136.440476 
L 180.615273 137.438948 
L 181.224 131.434793 
L 181.528364 130.262354 
L 181.832727 133.995316 
L 182.137091 136.286589 
L 182.441455 135.442147 
L 183.050182 137.75615 
L 183.354545 135.891573 
L 183.658909 134.831952 
L 183.963273 132.106223 
L 184.267636 132.996459 
L 184.572 130.144061 
L 184.876364 131.293402 
L 185.180727 128.18326 
L 185.485091 127.963745 
L 185.789455 129.748555 
L 186.093818 133.131919 
L 186.702545 134.288672 
L 187.006909 132.509769 
L 187.311273 132.739148 
L 187.615636 133.636069 
L 187.92 131.402151 
L 188.224364 131.868471 
L 188.528727 133.063672 
L 188.833091 131.871858 
L 189.137455 132.887826 
L 189.441818 131.521384 
L 189.746182 132.759468 
L 190.050545 133.221915 
L 190.354909 132.90628 
L 190.659273 133.682267 
L 190.963636 133.710167 
L 191.268 132.018771 
L 191.876727 130.169534 
L 192.181091 131.487501 
L 193.094182 126.246562 
L 193.398545 127.75314 
L 193.702909 128.110842 
L 194.007273 126.796809 
L 194.311636 128.059572 
L 194.616 128.52858 
L 195.529091 117.914197 
L 195.833455 115.967448 
L 196.137818 118.081509 
L 196.442182 117.018387 
L 196.746545 117.763242 
L 197.050909 119.958859 
L 197.355273 121.014605 
L 197.659636 120.7747 
L 198.268364 123.052418 
L 198.572727 121.40962 
L 198.877091 121.110724 
L 199.181455 120.626501 
L 199.485818 120.394463 
L 199.790182 121.79596 
L 200.094545 124.638706 
L 200.398909 123.994554 
L 200.703273 125.046215 
L 201.007636 129.216842 
L 201.312 130.031078 
L 201.616364 132.296482 
L 202.225091 129.76547 
L 202.529455 128.734848 
L 202.833818 130.114232 
L 203.138182 128.596898 
L 203.442545 127.933902 
L 204.051273 129.724276 
L 204.355636 127.872682 
L 204.66 128.854999 
L 204.964364 128.225175 
L 205.268727 126.080613 
L 205.877455 118.669293 
L 206.181818 116.800868 
L 206.486182 119.924327 
L 207.094909 122.490308 
L 207.399273 119.061458 
L 207.703636 120.511936 
L 208.008 119.710976 
L 208.312364 119.501764 
L 208.616727 121.441341 
L 209.225455 119.823269 
L 209.529818 122.427912 
L 209.834182 119.891503 
L 210.138545 124.219199 
L 210.442909 125.444507 
L 210.747273 123.428513 
L 211.051636 125.903487 
L 211.356 125.176989 
L 211.660364 127.865811 
L 211.964727 128.058755 
L 212.269091 132.857825 
L 212.573455 134.605429 
L 212.877818 137.805651 
L 213.486545 139.500207 
L 213.790909 140.897475 
L 214.095273 139.242498 
L 214.399636 141.082003 
L 214.704 139.766201 
L 215.008364 136.386869 
L 215.312727 136.098432 
L 215.617091 137.877353 
L 215.921455 140.468645 
L 216.225818 141.940833 
L 216.530182 140.479311 
L 216.834545 140.156595 
L 217.443273 136.615791 
L 217.747636 136.323732 
L 218.052 135.341655 
L 218.660727 128.557373 
L 218.965091 129.185308 
L 219.269455 127.132583 
L 219.573818 125.917451 
L 219.878182 123.560433 
L 220.182545 122.167412 
L 220.486909 124.187963 
L 220.791273 127.547402 
L 221.095636 126.359698 
L 221.4 122.413418 
L 221.704364 124.022247 
L 222.008727 124.41237 
L 222.313091 126.560647 
L 222.617455 124.117674 
L 223.226182 133.594022 
L 223.530545 132.816181 
L 223.834909 132.986973 
L 224.443636 134.606284 
L 224.748 133.492501 
L 225.052364 134.350785 
L 225.661091 138.549424 
L 225.965455 136.706892 
L 226.269818 137.795276 
L 226.574182 140.668524 
L 226.878545 140.456593 
L 227.182909 139.409167 
L 227.487273 136.652728 
L 227.791636 136.200768 
L 228.096 137.569095 
L 228.400364 136.585941 
L 228.704727 135.077684 
L 229.313455 135.250884 
L 229.617818 134.711334 
L 229.922182 134.856226 
L 230.226545 134.337457 
L 231.139636 140.577403 
L 231.444 139.245374 
L 231.748364 138.708593 
L 232.052727 136.551001 
L 232.357091 136.938223 
L 232.661455 139.310285 
L 232.965818 136.936331 
L 233.270182 136.975256 
L 233.574545 134.313201 
L 233.878909 133.072982 
L 234.183273 128.533499 
L 234.487636 128.989337 
L 235.096364 125.272311 
L 235.400727 126.423716 
L 235.705091 126.781467 
L 236.313818 133.025711 
L 236.618182 132.763191 
L 237.226909 129.795044 
L 237.531273 129.089789 
L 237.835636 127.299777 
L 238.14 128.522888 
L 238.444364 129.088157 
L 238.748727 127.55844 
L 239.053091 126.660095 
L 239.357455 127.096054 
L 239.661818 124.356553 
L 239.966182 127.036334 
L 240.270545 128.112141 
L 240.574909 128.699946 
L 240.879273 127.006345 
L 241.183636 127.001398 
L 241.488 129.617898 
L 241.792364 128.551785 
L 242.401091 124.762656 
L 242.705455 123.478448 
L 243.009818 127.36602 
L 243.314182 129.232503 
L 243.618545 128.232605 
L 243.922909 128.34645 
L 244.227273 127.262597 
L 244.531636 129.889158 
L 244.836 130.016706 
L 245.140364 132.899295 
L 245.444727 136.951481 
L 245.749091 136.337996 
L 246.053455 134.590356 
L 246.357818 134.080916 
L 246.662182 134.149355 
L 246.966545 137.389178 
L 247.270909 135.302379 
L 247.575273 135.393734 
L 247.879636 131.329345 
L 248.184 129.374861 
L 248.488364 133.533755 
L 248.792727 131.967683 
L 249.097091 134.86428 
L 249.401455 136.439574 
L 249.705818 136.959676 
L 250.010182 137.154774 
L 250.314545 136.330172 
L 250.923273 140.838394 
L 251.227636 139.59266 
L 251.532 139.620143 
L 251.836364 139.25847 
L 252.140727 143.808458 
L 252.445091 144.175864 
L 253.053818 147.932853 
L 253.358182 146.020639 
L 253.966909 150.560017 
L 254.271273 151.246576 
L 254.575636 150.312618 
L 254.88 152.146181 
L 255.488727 146.57923 
L 255.793091 148.407467 
L 256.097455 148.915798 
L 256.401818 150.530874 
L 256.706182 154.026578 
L 257.010545 153.398093 
L 257.314909 151.876521 
L 257.619273 147.70365 
L 257.923636 149.564995 
L 258.532364 144.00925 
L 258.836727 143.598876 
L 259.141091 142.34991 
L 259.445455 140.538627 
L 259.749818 136.444084 
L 260.054182 135.453046 
L 260.358545 135.57778 
L 260.662909 137.374328 
L 260.967273 136.741053 
L 261.271636 134.6168 
L 261.576 134.109446 
L 261.880364 135.727109 
L 262.184727 135.542353 
L 262.489091 135.810235 
L 262.793455 135.261132 
L 263.097818 138.708024 
L 264.010909 135.407945 
L 264.315273 135.41575 
L 264.619636 139.161499 
L 264.924 139.201577 
L 265.228364 137.001515 
L 265.532727 138.785535 
L 266.141455 146.106861 
L 266.750182 144.682137 
L 267.054545 142.843848 
L 267.358909 142.958463 
L 267.663273 146.070341 
L 267.967636 147.768026 
L 268.272 146.069646 
L 268.576364 145.778239 
L 269.185091 143.528597 
L 269.793818 144.314626 
L 270.098182 140.462751 
L 270.402545 139.602662 
L 270.706909 139.86937 
L 271.011273 138.924769 
L 271.315636 138.462433 
L 271.62 142.937074 
L 271.924364 141.588713 
L 272.228727 137.811846 
L 272.533091 139.430249 
L 272.837455 136.414387 
L 273.141818 136.947169 
L 273.446182 136.338471 
L 273.750545 134.118403 
L 274.054909 135.611781 
L 274.359273 133.034685 
L 274.968 137.368317 
L 275.272364 138.599356 
L 275.576727 137.22627 
L 275.881091 137.933289 
L 276.185455 141.085916 
L 276.489818 141.535033 
L 276.794182 143.161611 
L 277.098545 141.644812 
L 277.402909 142.356727 
L 277.707273 142.209932 
L 278.011636 143.050935 
L 278.316 142.150889 
L 278.620364 142.53168 
L 278.924727 141.857175 
L 279.229091 147.236204 
L 279.533455 147.034493 
L 279.837818 146.175982 
L 280.142182 146.589315 
L 280.750909 143.668939 
L 281.055273 140.963828 
L 281.359636 140.746435 
L 282.272727 152.778764 
L 282.577091 152.857388 
L 282.881455 153.18366 
L 283.185818 152.610702 
L 283.794545 155.435124 
L 284.403273 152.923408 
L 284.707636 153.455734 
L 285.012 153.53554 
L 285.620727 151.650864 
L 285.925091 154.02363 
L 286.229455 155.516121 
L 286.533818 158.068435 
L 286.838182 159.119826 
L 287.446909 156.3019 
L 287.751273 158.579499 
L 288.055636 157.516991 
L 288.36 157.338941 
L 288.664364 158.36341 
L 288.968727 161.280592 
L 289.273091 161.643199 
L 289.577455 160.232906 
L 289.881818 164.719454 
L 290.186182 165.541066 
L 290.490545 160.865385 
L 290.794909 159.470248 
L 291.099273 158.931322 
L 291.708 161.867286 
L 292.012364 162.040037 
L 292.316727 158.715487 
L 292.621091 157.749794 
L 292.925455 159.558765 
L 293.229818 157.117954 
L 293.534182 157.724833 
L 293.838545 154.204313 
L 294.142909 155.379522 
L 294.447273 157.460427 
L 294.751636 157.098223 
L 295.360364 152.908951 
L 295.664727 152.578766 
L 295.969091 154.628208 
L 296.273455 155.676351 
L 296.577818 159.862533 
L 296.882182 161.756467 
L 297.186545 162.12661 
L 297.490909 161.319769 
L 297.795273 162.023842 
L 298.099636 162.142024 
L 298.404 162.963764 
L 298.708364 161.406039 
L 299.012727 163.270918 
L 299.317091 161.533733 
L 299.621455 157.466609 
L 299.925818 156.485981 
L 300.534545 158.691533 
L 300.838909 156.182171 
L 302.360727 167.731293 
L 302.665091 166.092926 
L 302.969455 163.806647 
L 303.273818 165.252469 
L 303.578182 164.82243 
L 303.882545 163.24784 
L 304.186909 163.039256 
L 304.491273 165.019933 
L 304.795636 168.06974 
L 305.1 165.97398 
L 305.708727 163.748156 
L 306.013091 166.045562 
L 306.317455 165.558188 
L 306.621818 164.25356 
L 306.926182 163.602213 
L 307.230545 165.147489 
L 307.534909 163.047928 
L 307.839273 166.216437 
L 308.448 162.047852 
L 308.752364 158.786632 
L 309.056727 159.497006 
L 309.361091 161.569955 
L 309.665455 159.923343 
L 309.969818 161.373607 
L 310.274182 161.282355 
L 310.578545 161.940813 
L 310.882909 163.811829 
L 311.187273 163.146034 
L 311.491636 166.033258 
L 311.796 164.804946 
L 312.100364 166.810488 
L 312.404727 170.402326 
L 312.709091 170.506256 
L 313.317818 168.414352 
L 313.622182 166.716979 
L 313.926545 171.598739 
L 314.230909 173.68354 
L 314.535273 173.462329 
L 314.839636 170.311717 
L 315.144 168.686128 
L 315.448364 164.742499 
L 315.752727 165.831292 
L 316.057091 165.262115 
L 316.361455 167.543599 
L 316.665818 168.382279 
L 317.274545 171.222355 
L 317.578909 172.03842 
L 318.187636 171.986711 
L 318.492 170.859517 
L 318.796364 170.569163 
L 319.100727 171.282759 
L 319.405091 172.366655 
L 319.709455 173.003687 
L 320.013818 173.935049 
L 320.318182 172.916711 
L 320.622545 171.121497 
L 320.926909 168.478962 
L 321.231273 170.133502 
L 321.535636 169.159962 
L 321.84 172.052711 
L 322.144364 171.278698 
L 322.448727 169.033093 
L 322.753091 169.343361 
L 323.057455 167.118573 
L 323.666182 171.32328 
L 323.970545 171.604967 
L 324.274909 169.484769 
L 324.883636 171.291301 
L 325.188 173.348069 
L 325.492364 172.927267 
L 325.796727 170.341457 
L 326.405455 167.443209 
L 326.709818 167.872502 
L 327.014182 169.040879 
L 327.318545 167.636182 
L 327.622909 167.70237 
L 327.927273 168.062456 
L 328.231636 166.199387 
L 328.536 166.609624 
L 328.840364 168.347282 
L 329.144727 166.461506 
L 329.449091 166.294082 
L 330.057818 170.753331 
L 330.362182 170.555434 
L 330.666545 165.707339 
L 331.275273 167.219577 
L 331.579636 164.059075 
L 331.884 164.177884 
L 332.492727 170.444381 
L 332.797091 167.900119 
L 333.405818 164.804518 
L 333.710182 164.924313 
L 334.014545 166.431609 
L 334.318909 166.882034 
L 334.623273 166.599888 
L 334.927636 168.338655 
L 335.232 167.174134 
L 335.536364 169.786702 
L 336.145091 170.900027 
L 336.449455 172.333293 
L 336.753818 176.907801 
L 337.058182 175.97886 
L 337.362545 177.546387 
L 337.666909 174.796694 
L 337.971273 175.50601 
L 338.275636 176.628861 
L 338.58 176.439033 
L 338.884364 174.25406 
L 339.188727 175.422642 
L 339.493091 173.317942 
L 341.319273 155.752304 
L 341.623636 155.320741 
L 341.928 156.211007 
L 342.232364 160.903198 
L 342.536727 163.646721 
L 343.145455 165.368287 
L 343.449818 165.685203 
L 343.754182 167.760911 
L 344.058545 171.070764 
L 344.667273 171.733742 
L 345.580364 176.898044 
L 345.884727 177.720487 
L 346.189091 179.496571 
L 346.493455 176.883424 
L 346.797818 176.383565 
L 347.102182 178.400281 
L 347.406545 178.981966 
L 347.710909 181.430034 
L 348.319636 176.459678 
L 348.624 173.862862 
L 348.928364 176.237105 
L 349.232727 176.426404 
L 349.537091 177.259315 
L 349.841455 176.093626 
L 350.450182 179.586051 
L 350.754545 180.443118 
L 351.058909 180.125177 
L 351.363273 178.685463 
L 351.667636 179.367288 
L 352.276364 176.285042 
L 352.580727 176.727279 
L 353.189455 181.74014 
L 353.493818 180.512821 
L 353.798182 181.500573 
L 354.102545 185.052791 
L 354.406909 183.781447 
L 354.711273 183.512734 
L 355.015636 186.428895 
L 355.624364 182.24733 
L 355.928727 181.959554 
L 356.537455 187.511278 
L 356.841818 188.148178 
L 357.146182 191.703064 
L 357.450545 190.862874 
L 357.754909 193.789107 
L 358.059273 193.447056 
L 358.363636 194.044679 
L 358.668 192.568343 
L 358.972364 194.513769 
L 359.276727 193.946019 
L 359.581091 196.8391 
L 359.885455 195.189026 
L 360.189818 195.427472 
L 360.494182 194.399012 
L 360.798545 197.137956 
L 361.102909 196.102789 
L 362.016 194.064882 
L 362.320364 194.466151 
L 362.624727 191.891534 
L 362.929091 192.214887 
L 363.233455 193.748021 
L 363.537818 193.869827 
L 363.842182 195.841326 
L 364.146545 196.803715 
L 364.450909 197.171348 
L 364.755273 197.958593 
L 365.059636 197.545017 
L 365.364 193.509253 
L 365.668364 192.325028 
L 365.972727 190.100935 
L 366.885818 193.147635 
L 367.190182 191.37863 
L 367.494545 195.834111 
L 367.798909 197.97703 
L 368.103273 197.764772 
L 368.407636 198.229569 
L 368.712 194.148239 
L 369.016364 193.219685 
L 369.320727 194.593157 
L 369.625091 197.865322 
L 369.929455 198.571688 
L 370.233818 201.274738 
L 370.538182 200.306636 
L 370.842545 199.97248 
L 371.146909 199.308692 
L 371.451273 194.996206 
L 371.755636 196.87841 
L 372.06 197.277481 
L 372.364364 199.792398 
L 372.668727 199.95957 
L 372.973091 196.654911 
L 373.277455 195.475306 
L 373.581818 195.712768 
L 373.581818 195.712768 
" style="fill:none;stroke:#2ca02c;stroke-linecap:square;stroke-width:1.5;"/>
   </g>
   <g id="patch_3">
    <path d="M 54 252 
L 54 34.56 
" style="fill:none;stroke:#000000;stroke-linecap:square;stroke-linejoin:miter;stroke-width:0.8;"/>
   </g>
   <g id="patch_4">
    <path d="M 388.8 252 
L 388.8 34.56 
" style="fill:none;stroke:#000000;stroke-linecap:square;stroke-linejoin:miter;stroke-width:0.8;"/>
   </g>
   <g id="patch_5">
    <path d="M 54 252 
L 388.8 252 
" style="fill:none;stroke:#000000;stroke-linecap:square;stroke-linejoin:miter;stroke-width:0.8;"/>
   </g>
   <g id="patch_6">
    <path d="M 54 34.56 
L 388.8 34.56 
" style="fill:none;stroke:#000000;stroke-linecap:square;stroke-linejoin:miter;stroke-width:0.8;"/>
   </g>
   <g id="text_16">
    <!-- Simulated Brownian Motion Paths -->
    <defs>
     <path d="M 53.515625 70.515625 
L 53.515625 60.890625 
Q 47.90625 63.578125 42.921875 64.890625 
Q 37.9375 66.21875 33.296875 66.21875 
Q 25.25 66.21875 20.875 63.09375 
Q 16.5 59.96875 16.5 54.203125 
Q 16.5 49.359375 19.40625 46.890625 
Q 22.3125 44.4375 30.421875 42.921875 
L 36.375 41.703125 
Q 47.40625 39.59375 52.65625 34.296875 
Q 57.90625 29 57.90625 20.125 
Q 57.90625 9.515625 50.796875 4.046875 
Q 43.703125 -1.421875 29.984375 -1.421875 
Q 24.8125 -1.421875 18.96875 -0.25 
Q 13.140625 0.921875 6.890625 3.21875 
L 6.890625 13.375 
Q 12.890625 10.015625 18.65625 8.296875 
Q 24.421875 6.59375 29.984375 6.59375 
Q 38.421875 6.59375 43.015625 9.90625 
Q 47.609375 13.234375 47.609375 19.390625 
Q 47.609375 24.75 44.3125 27.78125 
Q 41.015625 30.8125 33.5 32.328125 
L 27.484375 33.5 
Q 16.453125 35.6875 11.515625 40.375 
Q 6.59375 45.0625 6.59375 53.421875 
Q 6.59375 63.09375 13.40625 68.65625 
Q 20.21875 74.21875 32.171875 74.21875 
Q 37.3125 74.21875 42.625 73.28125 
Q 47.953125 72.359375 53.515625 70.515625 
z
" id="DejaVuSans-53"/>
     <path d="M 9.421875 54.6875 
L 18.40625 54.6875 
L 18.40625 0 
L 9.421875 0 
z
M 9.421875 75.984375 
L 18.40625 75.984375 
L 18.40625 64.59375 
L 9.421875 64.59375 
z
" id="DejaVuSans-69"/>
     <path d="M 52 44.1875 
Q 55.375 50.25 60.0625 53.125 
Q 64.75 56 71.09375 56 
Q 79.640625 56 84.28125 50.015625 
Q 88.921875 44.046875 88.921875 33.015625 
L 88.921875 0 
L 79.890625 0 
L 79.890625 32.71875 
Q 79.890625 40.578125 77.09375 44.375 
Q 74.3125 48.1875 68.609375 48.1875 
Q 61.625 48.1875 57.5625 43.546875 
Q 53.515625 38.921875 53.515625 30.90625 
L 53.515625 0 
L 44.484375 0 
L 44.484375 32.71875 
Q 44.484375 40.625 41.703125 44.40625 
Q 38.921875 48.1875 33.109375 48.1875 
Q 26.21875 48.1875 22.15625 43.53125 
Q 18.109375 38.875 18.109375 30.90625 
L 18.109375 0 
L 9.078125 0 
L 9.078125 54.6875 
L 18.109375 54.6875 
L 18.109375 46.1875 
Q 21.1875 51.21875 25.484375 53.609375 
Q 29.78125 56 35.6875 56 
Q 41.65625 56 45.828125 52.96875 
Q 50 49.953125 52 44.1875 
z
" id="DejaVuSans-6d"/>
     <path d="M 8.5 21.578125 
L 8.5 54.6875 
L 17.484375 54.6875 
L 17.484375 21.921875 
Q 17.484375 14.15625 20.5 10.265625 
Q 23.53125 6.390625 29.59375 6.390625 
Q 36.859375 6.390625 41.078125 11.03125 
Q 45.3125 15.671875 45.3125 23.6875 
L 45.3125 54.6875 
L 54.296875 54.6875 
L 54.296875 0 
L 45.3125 0 
L 45.3125 8.40625 
Q 42.046875 3.421875 37.71875 1 
Q 33.40625 -1.421875 27.6875 -1.421875 
Q 18.265625 -1.421875 13.375 4.4375 
Q 8.5 10.296875 8.5 21.578125 
z
M 31.109375 56 
z
" id="DejaVuSans-75"/>
     <path d="M 9.421875 75.984375 
L 18.40625 75.984375 
L 18.40625 0 
L 9.421875 0 
z
" id="DejaVuSans-6c"/>
     <path d="M 34.28125 27.484375 
Q 23.390625 27.484375 19.1875 25 
Q 14.984375 22.515625 14.984375 16.5 
Q 14.984375 11.71875 18.140625 8.90625 
Q 21.296875 6.109375 26.703125 6.109375 
Q 34.1875 6.109375 38.703125 11.40625 
Q 43.21875 16.703125 43.21875 25.484375 
L 43.21875 27.484375 
z
M 52.203125 31.203125 
L 52.203125 0 
L 43.21875 0 
L 43.21875 8.296875 
Q 40.140625 3.328125 35.546875 0.953125 
Q 30.953125 -1.421875 24.3125 -1.421875 
Q 15.921875 -1.421875 10.953125 3.296875 
Q 6 8.015625 6 15.921875 
Q 6 25.140625 12.171875 29.828125 
Q 18.359375 34.515625 30.609375 34.515625 
L 43.21875 34.515625 
L 43.21875 35.40625 
Q 43.21875 41.609375 39.140625 45 
Q 35.0625 48.390625 27.6875 48.390625 
Q 23 48.390625 18.546875 47.265625 
Q 14.109375 46.140625 10.015625 43.890625 
L 10.015625 52.203125 
Q 14.9375 54.109375 19.578125 55.046875 
Q 24.21875 56 28.609375 56 
Q 40.484375 56 46.34375 49.84375 
Q 52.203125 43.703125 52.203125 31.203125 
z
" id="DejaVuSans-61"/>
     <path d="M 18.3125 70.21875 
L 18.3125 54.6875 
L 36.8125 54.6875 
L 36.8125 47.703125 
L 18.3125 47.703125 
L 18.3125 18.015625 
Q 18.3125 11.328125 20.140625 9.421875 
Q 21.96875 7.515625 27.59375 7.515625 
L 36.8125 7.515625 
L 36.8125 0 
L 27.59375 0 
Q 17.1875 0 13.234375 3.875 
Q 9.28125 7.765625 9.28125 18.015625 
L 9.28125 47.703125 
L 2.6875 47.703125 
L 2.6875 54.6875 
L 9.28125 54.6875 
L 9.28125 70.21875 
z
" id="DejaVuSans-74"/>
     <path d="M 56.203125 29.59375 
L 56.203125 25.203125 
L 14.890625 25.203125 
Q 15.484375 15.921875 20.484375 11.0625 
Q 25.484375 6.203125 34.421875 6.203125 
Q 39.59375 6.203125 44.453125 7.46875 
Q 49.3125 8.734375 54.109375 11.28125 
L 54.109375 2.78125 
Q 49.265625 0.734375 44.1875 -0.34375 
Q 39.109375 -1.421875 33.890625 -1.421875 
Q 20.796875 -1.421875 13.15625 6.1875 
Q 5.515625 13.8125 5.515625 26.8125 
Q 5.515625 40.234375 12.765625 48.109375 
Q 20.015625 56 32.328125 56 
Q 43.359375 56 49.78125 48.890625 
Q 56.203125 41.796875 56.203125 29.59375 
z
M 47.21875 32.234375 
Q 47.125 39.59375 43.09375 43.984375 
Q 39.0625 48.390625 32.421875 48.390625 
Q 24.90625 48.390625 20.390625 44.140625 
Q 15.875 39.890625 15.1875 32.171875 
z
" id="DejaVuSans-65"/>
     <path d="M 45.40625 46.390625 
L 45.40625 75.984375 
L 54.390625 75.984375 
L 54.390625 0 
L 45.40625 0 
L 45.40625 8.203125 
Q 42.578125 3.328125 38.25 0.953125 
Q 33.9375 -1.421875 27.875 -1.421875 
Q 17.96875 -1.421875 11.734375 6.484375 
Q 5.515625 14.40625 5.515625 27.296875 
Q 5.515625 40.1875 11.734375 48.09375 
Q 17.96875 56 27.875 56 
Q 33.9375 56 38.25 53.625 
Q 42.578125 51.265625 45.40625 46.390625 
z
M 14.796875 27.296875 
Q 14.796875 17.390625 18.875 11.75 
Q 22.953125 6.109375 30.078125 6.109375 
Q 37.203125 6.109375 41.296875 11.75 
Q 45.40625 17.390625 45.40625 27.296875 
Q 45.40625 37.203125 41.296875 42.84375 
Q 37.203125 48.484375 30.078125 48.484375 
Q 22.953125 48.484375 18.875 42.84375 
Q 14.796875 37.203125 14.796875 27.296875 
z
" id="DejaVuSans-64"/>
     <path id="DejaVuSans-20"/>
     <path d="M 19.671875 34.8125 
L 19.671875 8.109375 
L 35.5 8.109375 
Q 43.453125 8.109375 47.28125 11.40625 
Q 51.125 14.703125 51.125 21.484375 
Q 51.125 28.328125 47.28125 31.5625 
Q 43.453125 34.8125 35.5 34.8125 
z
M 19.671875 64.796875 
L 19.671875 42.828125 
L 34.28125 42.828125 
Q 41.5 42.828125 45.03125 45.53125 
Q 48.578125 48.25 48.578125 53.8125 
Q 48.578125 59.328125 45.03125 62.0625 
Q 41.5 64.796875 34.28125 64.796875 
z
M 9.8125 72.90625 
L 35.015625 72.90625 
Q 46.296875 72.90625 52.390625 68.21875 
Q 58.5 63.53125 58.5 54.890625 
Q 58.5 48.1875 55.375 44.234375 
Q 52.25 40.28125 46.1875 39.3125 
Q 53.46875 37.75 57.5 32.78125 
Q 61.53125 27.828125 61.53125 20.40625 
Q 61.53125 10.640625 54.890625 5.3125 
Q 48.25 0 35.984375 0 
L 9.8125 0 
z
" id="DejaVuSans-42"/>
     <path d="M 41.109375 46.296875 
Q 39.59375 47.171875 37.8125 47.578125 
Q 36.03125 48 33.890625 48 
Q 26.265625 48 22.1875 43.046875 
Q 18.109375 38.09375 18.109375 28.8125 
L 18.109375 0 
L 9.078125 0 
L 9.078125 54.6875 
L 18.109375 54.6875 
L 18.109375 46.1875 
Q 20.953125 51.171875 25.484375 53.578125 
Q 30.03125 56 36.53125 56 
Q 37.453125 56 38.578125 55.875 
Q 39.703125 55.765625 41.0625 55.515625 
z
" id="DejaVuSans-72"/>
     <path d="M 30.609375 48.390625 
Q 23.390625 48.390625 19.1875 42.75 
Q 14.984375 37.109375 14.984375 27.296875 
Q 14.984375 17.484375 19.15625 11.84375 
Q 23.34375 6.203125 30.609375 6.203125 
Q 37.796875 6.203125 41.984375 11.859375 
Q 46.1875 17.53125 46.1875 27.296875 
Q 46.1875 37.015625 41.984375 42.703125 
Q 37.796875 48.390625 30.609375 48.390625 
z
M 30.609375 56 
Q 42.328125 56 49.015625 48.375 
Q 55.71875 40.765625 55.71875 27.296875 
Q 55.71875 13.875 49.015625 6.21875 
Q 42.328125 -1.421875 30.609375 -1.421875 
Q 18.84375 -1.421875 12.171875 6.21875 
Q 5.515625 13.875 5.515625 27.296875 
Q 5.515625 40.765625 12.171875 48.375 
Q 18.84375 56 30.609375 56 
z
" id="DejaVuSans-6f"/>
     <path d="M 4.203125 54.6875 
L 13.1875 54.6875 
L 24.421875 12.015625 
L 35.59375 54.6875 
L 46.1875 54.6875 
L 57.421875 12.015625 
L 68.609375 54.6875 
L 77.59375 54.6875 
L 63.28125 0 
L 52.6875 0 
L 40.921875 44.828125 
L 29.109375 0 
L 18.5 0 
z
" id="DejaVuSans-77"/>
     <path d="M 54.890625 33.015625 
L 54.890625 0 
L 45.90625 0 
L 45.90625 32.71875 
Q 45.90625 40.484375 42.875 44.328125 
Q 39.84375 48.1875 33.796875 48.1875 
Q 26.515625 48.1875 22.3125 43.546875 
Q 18.109375 38.921875 18.109375 30.90625 
L 18.109375 0 
L 9.078125 0 
L 9.078125 54.6875 
L 18.109375 54.6875 
L 18.109375 46.1875 
Q 21.34375 51.125 25.703125 53.5625 
Q 30.078125 56 35.796875 56 
Q 45.21875 56 50.046875 50.171875 
Q 54.890625 44.34375 54.890625 33.015625 
z
" id="DejaVuSans-6e"/>
     <path d="M 9.8125 72.90625 
L 24.515625 72.90625 
L 43.109375 23.296875 
L 61.8125 72.90625 
L 76.515625 72.90625 
L 76.515625 0 
L 66.890625 0 
L 66.890625 64.015625 
L 48.09375 14.015625 
L 38.1875 14.015625 
L 19.390625 64.015625 
L 19.390625 0 
L 9.8125 0 
z
" id="DejaVuSans-4d"/>
     <path d="M 19.671875 64.796875 
L 19.671875 37.40625 
L 32.078125 37.40625 
Q 38.96875 37.40625 42.71875 40.96875 
Q 46.484375 44.53125 46.484375 51.125 
Q 46.484375 57.671875 42.71875 61.234375 
Q 38.96875 64.796875 32.078125 64.796875 
z
M 9.8125 72.90625 
L 32.078125 72.90625 
Q 44.34375 72.90625 50.609375 67.359375 
Q 56.890625 61.8125 56.890625 51.125 
Q 56.890625 40.328125 50.609375 34.8125 
Q 44.34375 29.296875 32.078125 29.296875 
L 19.671875 29.296875 
L 19.671875 0 
L 9.8125 0 
z
" id="DejaVuSans-50"/>
     <path d="M 54.890625 33.015625 
L 54.890625 0 
L 45.90625 0 
L 45.90625 32.71875 
Q 45.90625 40.484375 42.875 44.328125 
Q 39.84375 48.1875 33.796875 48.1875 
Q 26.515625 48.1875 22.3125 43.546875 
Q 18.109375 38.921875 18.109375 30.90625 
L 18.109375 0 
L 9.078125 0 
L 9.078125 75.984375 
L 18.109375 75.984375 
L 18.109375 46.1875 
Q 21.34375 51.125 25.703125 53.5625 
Q 30.078125 56 35.796875 56 
Q 45.21875 56 50.046875 50.171875 
Q 54.890625 44.34375 54.890625 33.015625 
z
" id="DejaVuSans-68"/>
     <path d="M 44.28125 53.078125 
L 44.28125 44.578125 
Q 40.484375 46.53125 36.375 47.5 
Q 32.28125 48.484375 27.875 48.484375 
Q 21.1875 48.484375 17.84375 46.4375 
Q 14.5 44.390625 14.5 40.28125 
Q 14.5 37.15625 16.890625 35.375 
Q 19.28125 33.59375 26.515625 31.984375 
L 29.59375 31.296875 
Q 39.15625 29.25 43.1875 25.515625 
Q 47.21875 21.78125 47.21875 15.09375 
Q 47.21875 7.46875 41.1875 3.015625 
Q 35.15625 -1.421875 24.609375 -1.421875 
Q 20.21875 -1.421875 15.453125 -0.5625 
Q 10.6875 0.296875 5.421875 2 
L 5.421875 11.28125 
Q 10.40625 8.6875 15.234375 7.390625 
Q 20.0625 6.109375 24.8125 6.109375 
Q 31.15625 6.109375 34.5625 8.28125 
Q 37.984375 10.453125 37.984375 14.40625 
Q 37.984375 18.0625 35.515625 20.015625 
Q 33.0625 21.96875 24.703125 23.78125 
L 21.578125 24.515625 
Q 13.234375 26.265625 9.515625 29.90625 
Q 5.8125 33.546875 5.8125 39.890625 
Q 5.8125 47.609375 11.28125 51.796875 
Q 16.75 56 26.8125 56 
Q 31.78125 56 36.171875 55.265625 
Q 40.578125 54.546875 44.28125 53.078125 
z
" id="DejaVuSans-73"/>
    </defs>
    <g transform="translate(120.339375 28.56)scale(0.12 -0.12)">
     <use xlink:href="#DejaVuSans-53"/>
     <use x="63.476562" xlink:href="#DejaVuSans-69"/>
     <use x="91.259766" xlink:href="#DejaVuSans-6d"/>
     <use x="188.671875" xlink:href="#DejaVuSans-75"/>
     <use x="252.050781" xlink:href="#DejaVuSans-6c"/>
     <use x="279.833984" xlink:href="#DejaVuSans-61"/>
     <use x="341.113281" xlink:href="#DejaVuSans-74"/>
     <use x="380.322266" xlink:href="#DejaVuSans-65"/>
     <use x="441.845703" xlink:href="#DejaVuSans-64"/>
     <use x="505.322266" xlink:href="#DejaVuSans-20"/>
     <use x="537.109375" xlink:href="#DejaVuSans-42"/>
     <use x="605.712891" xlink:href="#DejaVuSans-72"/>
     <use x="646.794922" xlink:href="#DejaVuSans-6f"/>
     <use x="707.976562" xlink:href="#DejaVuSans-77"/>
     <use x="789.763672" xlink:href="#DejaVuSans-6e"/>
     <use x="853.142578" xlink:href="#DejaVuSans-69"/>
     <use x="880.925781" xlink:href="#DejaVuSans-61"/>
     <use x="942.205078" xlink:href="#DejaVuSans-6e"/>
     <use x="1005.583984" xlink:href="#DejaVuSans-20"/>
     <use x="1037.371094" xlink:href="#DejaVuSans-4d"/>
     <use x="1123.650391" xlink:href="#DejaVuSans-6f"/>
     <use x="1184.832031" xlink:href="#DejaVuSans-74"/>
     <use x="1224.041016" xlink:href="#DejaVuSans-69"/>
     <use x="1251.824219" xlink:href="#DejaVuSans-6f"/>
     <use x="1313.005859" xlink:href="#DejaVuSans-6e"/>
     <use x="1376.384766" xlink:href="#DejaVuSans-20"/>
     <use x="1408.171875" xlink:href="#DejaVuSans-50"/>
     <use x="1468.412109" xlink:href="#DejaVuSans-61"/>
     <use x="1529.691406" xlink:href="#DejaVuSans-74"/>
     <use x="1568.900391" xlink:href="#DejaVuSans-68"/>
     <use x="1632.279297" xlink:href="#DejaVuSans-73"/>
    </g>
   </g>
  </g>
 </g>
 <defs>
  <clipPath id="pf476572806">
   <rect height="217.44" width="334.8" x="54" y="34.56"/>
  </clipPath>
 </defs>
</svg>
