<?xml version="1.0" encoding="utf-8" standalone="no"?>
<!DOCTYPE svg PUBLIC "-//W3C//DTD SVG 1.1//EN"
  "http://www.w3.org/Graphics/SVG/1.1/DTD/svg11.dtd">
<!-- Created with matplotlib (http://matplotlib.org/) -->
<svg height="288pt" version="1.1" viewBox="0 0 432 288" width="432pt" xmlns="http://www.w3.org/2000/svg" xmlns:xlink="http://www.w3.org/1999/xlink">
 <defs>
  <style type="text/css">
*{stroke-linecap:butt;stroke-linejoin:round;}
  </style>
 </defs>
 <g id="figure_1">
  <g id="patch_1">
   <path d="M 0 288 
L 432 288 
L 432 0 
L 0 0 
z
" style="fill:#ffffff;"/>
  </g>
  <g id="axes_1">
   <g id="patch_2">
    <path d="M 54 252 
L 388.8 252 
L 388.8 34.56 
L 54 34.56 
z
" style="fill:#ffffff;"/>
   </g>
   <g id="matplotlib.axis_1">
    <g id="xtick_1">
     <g id="line2d_1">
      <defs>
       <path d="M 0 0 
L 0 3.5 
" id="m1f297d3220" style="stroke:#000000;stroke-width:0.8;"/>
      </defs>
      <g>
       <use style="stroke:#000000;stroke-width:0.8;" x="69.218182" xlink:href="#m1f297d3220" y="252"/>
      </g>
     </g>
     <g id="text_1">
      <!-- 0.0 -->
      <defs>
       <path d="M 31.78125 66.40625 
Q 24.171875 66.40625 20.328125 58.90625 
Q 16.5 51.421875 16.5 36.375 
Q 16.5 21.390625 20.328125 13.890625 
Q 24.171875 6.390625 31.78125 6.390625 
Q 39.453125 6.390625 43.28125 13.890625 
Q 47.125 21.390625 47.125 36.375 
Q 47.125 51.421875 43.28125 58.90625 
Q 39.453125 66.40625 31.78125 66.40625 
z
M 31.78125 74.21875 
Q 44.046875 74.21875 50.515625 64.515625 
Q 56.984375 54.828125 56.984375 36.375 
Q 56.984375 17.96875 50.515625 8.265625 
Q 44.046875 -1.421875 31.78125 -1.421875 
Q 19.53125 -1.421875 13.0625 8.265625 
Q 6.59375 17.96875 6.59375 36.375 
Q 6.59375 54.828125 13.0625 64.515625 
Q 19.53125 74.21875 31.78125 74.21875 
z
" id="DejaVuSans-30"/>
       <path d="M 10.6875 12.40625 
L 21 12.40625 
L 21 0 
L 10.6875 0 
z
" id="DejaVuSans-2e"/>
      </defs>
      <g transform="translate(61.266619 266.598437)scale(0.1 -0.1)">
       <use xlink:href="#DejaVuSans-30"/>
       <use x="63.623047" xlink:href="#DejaVuSans-2e"/>
       <use x="95.410156" xlink:href="#DejaVuSans-30"/>
      </g>
     </g>
    </g>
    <g id="xtick_2">
     <g id="line2d_2">
      <g>
       <use style="stroke:#000000;stroke-width:0.8;" x="130.090909" xlink:href="#m1f297d3220" y="252"/>
      </g>
     </g>
     <g id="text_2">
      <!-- 0.2 -->
      <defs>
       <path d="M 19.1875 8.296875 
L 53.609375 8.296875 
L 53.609375 0 
L 7.328125 0 
L 7.328125 8.296875 
Q 12.9375 14.109375 22.625 23.890625 
Q 32.328125 33.6875 34.8125 36.53125 
Q 39.546875 41.84375 41.421875 45.53125 
Q 43.3125 49.21875 43.3125 52.78125 
Q 43.3125 58.59375 39.234375 62.25 
Q 35.15625 65.921875 28.609375 65.921875 
Q 23.96875 65.921875 18.8125 64.3125 
Q 13.671875 62.703125 7.8125 59.421875 
L 7.8125 69.390625 
Q 13.765625 71.78125 18.9375 73 
Q 24.125 74.21875 28.421875 74.21875 
Q 39.75 74.21875 46.484375 68.546875 
Q 53.21875 62.890625 53.21875 53.421875 
Q 53.21875 48.921875 51.53125 44.890625 
Q 49.859375 40.875 45.40625 35.40625 
Q 44.1875 33.984375 37.640625 27.21875 
Q 31.109375 20.453125 19.1875 8.296875 
z
" id="DejaVuSans-32"/>
      </defs>
      <g transform="translate(122.139347 266.598437)scale(0.1 -0.1)">
       <use xlink:href="#DejaVuSans-30"/>
       <use x="63.623047" xlink:href="#DejaVuSans-2e"/>
       <use x="95.410156" xlink:href="#DejaVuSans-32"/>
      </g>
     </g>
    </g>
    <g id="xtick_3">
     <g id="line2d_3">
      <g>
       <use style="stroke:#000000;stroke-width:0.8;" x="190.963636" xlink:href="#m1f297d3220" y="252"/>
      </g>
     </g>
     <g id="text_3">
      <!-- 0.4 -->
      <defs>
       <path d="M 37.796875 64.3125 
L 12.890625 25.390625 
L 37.796875 25.390625 
z
M 35.203125 72.90625 
L 47.609375 72.90625 
L 47.609375 25.390625 
L 58.015625 25.390625 
L 58.015625 17.1875 
L 47.609375 17.1875 
L 47.609375 0 
L 37.796875 0 
L 37.796875 17.1875 
L 4.890625 17.1875 
L 4.890625 26.703125 
z
" id="DejaVuSans-34"/>
      </defs>
      <g transform="translate(183.012074 266.598437)scale(0.1 -0.1)">
       <use xlink:href="#DejaVuSans-30"/>
       <use x="63.623047" xlink:href="#DejaVuSans-2e"/>
       <use x="95.410156" xlink:href="#DejaVuSans-34"/>
      </g>
     </g>
    </g>
    <g id="xtick_4">
     <g id="line2d_4">
      <g>
       <use style="stroke:#000000;stroke-width:0.8;" x="251.836364" xlink:href="#m1f297d3220" y="252"/>
      </g>
     </g>
     <g id="text_4">
      <!-- 0.6 -->
      <defs>
       <path d="M 33.015625 40.375 
Q 26.375 40.375 22.484375 35.828125 
Q 18.609375 31.296875 18.609375 23.390625 
Q 18.609375 15.53125 22.484375 10.953125 
Q 26.375 6.390625 33.015625 6.390625 
Q 39.65625 6.390625 43.53125 10.953125 
Q 47.40625 15.53125 47.40625 23.390625 
Q 47.40625 31.296875 43.53125 35.828125 
Q 39.65625 40.375 33.015625 40.375 
z
M 52.59375 71.296875 
L 52.59375 62.3125 
Q 48.875 64.0625 45.09375 64.984375 
Q 41.3125 65.921875 37.59375 65.921875 
Q 27.828125 65.921875 22.671875 59.328125 
Q 17.53125 52.734375 16.796875 39.40625 
Q 19.671875 43.65625 24.015625 45.921875 
Q 28.375 48.1875 33.59375 48.1875 
Q 44.578125 48.1875 50.953125 41.515625 
Q 57.328125 34.859375 57.328125 23.390625 
Q 57.328125 12.15625 50.6875 5.359375 
Q 44.046875 -1.421875 33.015625 -1.421875 
Q 20.359375 -1.421875 13.671875 8.265625 
Q 6.984375 17.96875 6.984375 36.375 
Q 6.984375 53.65625 15.1875 63.9375 
Q 23.390625 74.21875 37.203125 74.21875 
Q 40.921875 74.21875 44.703125 73.484375 
Q 48.484375 72.75 52.59375 71.296875 
z
" id="DejaVuSans-36"/>
      </defs>
      <g transform="translate(243.884801 266.598437)scale(0.1 -0.1)">
       <use xlink:href="#DejaVuSans-30"/>
       <use x="63.623047" xlink:href="#DejaVuSans-2e"/>
       <use x="95.410156" xlink:href="#DejaVuSans-36"/>
      </g>
     </g>
    </g>
    <g id="xtick_5">
     <g id="line2d_5">
      <g>
       <use style="stroke:#000000;stroke-width:0.8;" x="312.709091" xlink:href="#m1f297d3220" y="252"/>
      </g>
     </g>
     <g id="text_5">
      <!-- 0.8 -->
      <defs>
       <path d="M 31.78125 34.625 
Q 24.75 34.625 20.71875 30.859375 
Q 16.703125 27.09375 16.703125 20.515625 
Q 16.703125 13.921875 20.71875 10.15625 
Q 24.75 6.390625 31.78125 6.390625 
Q 38.8125 6.390625 42.859375 10.171875 
Q 46.921875 13.96875 46.921875 20.515625 
Q 46.921875 27.09375 42.890625 30.859375 
Q 38.875 34.625 31.78125 34.625 
z
M 21.921875 38.8125 
Q 15.578125 40.375 12.03125 44.71875 
Q 8.5 49.078125 8.5 55.328125 
Q 8.5 64.0625 14.71875 69.140625 
Q 20.953125 74.21875 31.78125 74.21875 
Q 42.671875 74.21875 48.875 69.140625 
Q 55.078125 64.0625 55.078125 55.328125 
Q 55.078125 49.078125 51.53125 44.71875 
Q 48 40.375 41.703125 38.8125 
Q 48.828125 37.15625 52.796875 32.3125 
Q 56.78125 27.484375 56.78125 20.515625 
Q 56.78125 9.90625 50.3125 4.234375 
Q 43.84375 -1.421875 31.78125 -1.421875 
Q 19.734375 -1.421875 13.25 4.234375 
Q 6.78125 9.90625 6.78125 20.515625 
Q 6.78125 27.484375 10.78125 32.3125 
Q 14.796875 37.15625 21.921875 38.8125 
z
M 18.3125 54.390625 
Q 18.3125 48.734375 21.84375 45.5625 
Q 25.390625 42.390625 31.78125 42.390625 
Q 38.140625 42.390625 41.71875 45.5625 
Q 45.3125 48.734375 45.3125 54.390625 
Q 45.3125 60.0625 41.71875 63.234375 
Q 38.140625 66.40625 31.78125 66.40625 
Q 25.390625 66.40625 21.84375 63.234375 
Q 18.3125 60.0625 18.3125 54.390625 
z
" id="DejaVuSans-38"/>
      </defs>
      <g transform="translate(304.757528 266.598437)scale(0.1 -0.1)">
       <use xlink:href="#DejaVuSans-30"/>
       <use x="63.623047" xlink:href="#DejaVuSans-2e"/>
       <use x="95.410156" xlink:href="#DejaVuSans-38"/>
      </g>
     </g>
    </g>
    <g id="xtick_6">
     <g id="line2d_6">
      <g>
       <use style="stroke:#000000;stroke-width:0.8;" x="373.581818" xlink:href="#m1f297d3220" y="252"/>
      </g>
     </g>
     <g id="text_6">
      <!-- 1.0 -->
      <defs>
       <path d="M 12.40625 8.296875 
L 28.515625 8.296875 
L 28.515625 63.921875 
L 10.984375 60.40625 
L 10.984375 69.390625 
L 28.421875 72.90625 
L 38.28125 72.90625 
L 38.28125 8.296875 
L 54.390625 8.296875 
L 54.390625 0 
L 12.40625 0 
z
" id="DejaVuSans-31"/>
      </defs>
      <g transform="translate(365.630256 266.598437)scale(0.1 -0.1)">
       <use xlink:href="#DejaVuSans-31"/>
       <use x="63.623047" xlink:href="#DejaVuSans-2e"/>
       <use x="95.410156" xlink:href="#DejaVuSans-30"/>
      </g>
     </g>
    </g>
    <g id="text_7">
     <!-- $t$ -->
     <defs>
      <path d="M 42.28125 54.6875 
L 40.921875 47.703125 
L 23 47.703125 
L 17.1875 18.015625 
Q 16.890625 16.359375 16.75 15.234375 
Q 16.609375 14.109375 16.609375 13.484375 
Q 16.609375 10.359375 18.484375 8.9375 
Q 20.359375 7.515625 24.515625 7.515625 
L 33.59375 7.515625 
L 32.078125 0 
L 23.484375 0 
Q 15.484375 0 11.546875 3.125 
Q 7.625 6.25 7.625 12.59375 
Q 7.625 13.71875 7.765625 15.0625 
Q 7.90625 16.40625 8.203125 18.015625 
L 14.015625 47.703125 
L 6.390625 47.703125 
L 7.8125 54.6875 
L 15.28125 54.6875 
L 18.3125 70.21875 
L 27.296875 70.21875 
L 24.3125 54.6875 
z
" id="DejaVuSans-Oblique-74"/>
     </defs>
     <g transform="translate(219.4 280.276563)scale(0.1 -0.1)">
      <use transform="translate(0 0.78125)" xlink:href="#DejaVuSans-Oblique-74"/>
     </g>
    </g>
   </g>
   <g id="matplotlib.axis_2">
    <g id="ytick_1">
     <g id="line2d_7">
      <defs>
       <path d="M 0 0 
L -3.5 0 
" id="m4379ce9da5" style="stroke:#000000;stroke-width:0.8;"/>
      </defs>
      <g>
       <use style="stroke:#000000;stroke-width:0.8;" x="54" xlink:href="#m4379ce9da5" y="230.530961"/>
      </g>
     </g>
     <g id="text_8">
      <!-- −2.0 -->
      <defs>
       <path d="M 10.59375 35.5 
L 73.1875 35.5 
L 73.1875 27.203125 
L 10.59375 27.203125 
z
" id="DejaVuSans-2212"/>
      </defs>
      <g transform="translate(22.717187 234.33018)scale(0.1 -0.1)">
       <use xlink:href="#DejaVuSans-2212"/>
       <use x="83.789062" xlink:href="#DejaVuSans-32"/>
       <use x="147.412109" xlink:href="#DejaVuSans-2e"/>
       <use x="179.199219" xlink:href="#DejaVuSans-30"/>
      </g>
     </g>
    </g>
    <g id="ytick_2">
     <g id="line2d_8">
      <g>
       <use style="stroke:#000000;stroke-width:0.8;" x="54" xlink:href="#m4379ce9da5" y="194.678358"/>
      </g>
     </g>
     <g id="text_9">
      <!-- −1.5 -->
      <defs>
       <path d="M 10.796875 72.90625 
L 49.515625 72.90625 
L 49.515625 64.59375 
L 19.828125 64.59375 
L 19.828125 46.734375 
Q 21.96875 47.46875 24.109375 47.828125 
Q 26.265625 48.1875 28.421875 48.1875 
Q 40.625 48.1875 47.75 41.5 
Q 54.890625 34.8125 54.890625 23.390625 
Q 54.890625 11.625 47.5625 5.09375 
Q 40.234375 -1.421875 26.90625 -1.421875 
Q 22.3125 -1.421875 17.546875 -0.640625 
Q 12.796875 0.140625 7.71875 1.703125 
L 7.71875 11.625 
Q 12.109375 9.234375 16.796875 8.0625 
Q 21.484375 6.890625 26.703125 6.890625 
Q 35.15625 6.890625 40.078125 11.328125 
Q 45.015625 15.765625 45.015625 23.390625 
Q 45.015625 31 40.078125 35.4375 
Q 35.15625 39.890625 26.703125 39.890625 
Q 22.75 39.890625 18.8125 39.015625 
Q 14.890625 38.140625 10.796875 36.28125 
z
" id="DejaVuSans-35"/>
      </defs>
      <g transform="translate(22.717187 198.477577)scale(0.1 -0.1)">
       <use xlink:href="#DejaVuSans-2212"/>
       <use x="83.789062" xlink:href="#DejaVuSans-31"/>
       <use x="147.412109" xlink:href="#DejaVuSans-2e"/>
       <use x="179.199219" xlink:href="#DejaVuSans-35"/>
      </g>
     </g>
    </g>
    <g id="ytick_3">
     <g id="line2d_9">
      <g>
       <use style="stroke:#000000;stroke-width:0.8;" x="54" xlink:href="#m4379ce9da5" y="158.825755"/>
      </g>
     </g>
     <g id="text_10">
      <!-- −1.0 -->
      <g transform="translate(22.717187 162.624974)scale(0.1 -0.1)">
       <use xlink:href="#DejaVuSans-2212"/>
       <use x="83.789062" xlink:href="#DejaVuSans-31"/>
       <use x="147.412109" xlink:href="#DejaVuSans-2e"/>
       <use x="179.199219" xlink:href="#DejaVuSans-30"/>
      </g>
     </g>
    </g>
    <g id="ytick_4">
     <g id="line2d_10">
      <g>
       <use style="stroke:#000000;stroke-width:0.8;" x="54" xlink:href="#m4379ce9da5" y="122.973152"/>
      </g>
     </g>
     <g id="text_11">
      <!-- −0.5 -->
      <g transform="translate(22.717187 126.772371)scale(0.1 -0.1)">
       <use xlink:href="#DejaVuSans-2212"/>
       <use x="83.789062" xlink:href="#DejaVuSans-30"/>
       <use x="147.412109" xlink:href="#DejaVuSans-2e"/>
       <use x="179.199219" xlink:href="#DejaVuSans-35"/>
      </g>
     </g>
    </g>
    <g id="ytick_5">
     <g id="line2d_11">
      <g>
       <use style="stroke:#000000;stroke-width:0.8;" x="54" xlink:href="#m4379ce9da5" y="87.120549"/>
      </g>
     </g>
     <g id="text_12">
      <!-- 0.0 -->
      <g transform="translate(31.096875 90.919768)scale(0.1 -0.1)">
       <use xlink:href="#DejaVuSans-30"/>
       <use x="63.623047" xlink:href="#DejaVuSans-2e"/>
       <use x="95.410156" xlink:href="#DejaVuSans-30"/>
      </g>
     </g>
    </g>
    <g id="ytick_6">
     <g id="line2d_12">
      <g>
       <use style="stroke:#000000;stroke-width:0.8;" x="54" xlink:href="#m4379ce9da5" y="51.267946"/>
      </g>
     </g>
     <g id="text_13">
      <!-- 0.5 -->
      <g transform="translate(31.096875 55.067165)scale(0.1 -0.1)">
       <use xlink:href="#DejaVuSans-30"/>
       <use x="63.623047" xlink:href="#DejaVuSans-2e"/>
       <use x="95.410156" xlink:href="#DejaVuSans-35"/>
      </g>
     </g>
    </g>
    <g id="text_14">
     <!-- $W_t$ -->
     <defs>
      <path d="M 9.625 72.90625 
L 19.1875 72.90625 
L 22.703125 10.890625 
L 50.203125 72.90625 
L 61.1875 72.90625 
L 64.796875 10.890625 
L 92 72.90625 
L 102 72.90625 
L 69.578125 0 
L 57.171875 0 
L 53.8125 60.796875 
L 26.515625 0 
L 14.109375 0 
z
" id="DejaVuSans-Oblique-57"/>
     </defs>
     <g transform="translate(16.6375 149.78)rotate(-90)scale(0.1 -0.1)">
      <use transform="translate(0 0.09375)" xlink:href="#DejaVuSans-Oblique-57"/>
      <use transform="translate(98.876953 -16.3125)scale(0.7)" xlink:href="#DejaVuSans-Oblique-74"/>
     </g>
    </g>
   </g>
   <g id="line2d_13">
    <path clip-path="url(#pe65aa61d13)" d="M 69.218182 87.120549 
L 69.522545 86.213186 
L 69.826909 83.99388 
L 70.435636 74.677894 
L 70.74 76.893889 
L 71.044364 74.739547 
L 71.653091 75.316802 
L 71.957455 74.385763 
L 72.261818 74.059142 
L 72.566182 70.761551 
L 72.870545 69.035884 
L 73.174909 68.759984 
L 73.783636 66.996904 
L 74.088 63.609053 
L 74.392364 64.074253 
L 74.696727 63.364366 
L 75.001091 65.301044 
L 75.305455 71.089993 
L 75.914182 67.647777 
L 76.218545 69.330649 
L 76.522909 64.183941 
L 76.827273 67.481741 
L 77.131636 67.377982 
L 77.436 67.802425 
L 78.044727 60.995024 
L 78.349091 60.643678 
L 78.653455 59.786188 
L 78.957818 61.799258 
L 79.262182 66.290749 
L 79.566545 67.079646 
L 79.870909 66.725122 
L 80.479636 61.208998 
L 81.088364 62.772745 
L 81.697091 68.370274 
L 82.001455 72.239271 
L 82.305818 67.815854 
L 82.914545 69.96484 
L 83.218909 72.805576 
L 83.523273 71.042603 
L 83.827636 74.702145 
L 84.132 75.184537 
L 84.436364 77.215023 
L 84.740727 76.337715 
L 85.045091 77.495975 
L 85.349455 80.173079 
L 85.653818 80.236983 
L 85.958182 79.265733 
L 86.262545 79.114904 
L 86.566909 78.429043 
L 86.871273 79.86738 
L 87.175636 80.689902 
L 87.48 82.214718 
L 87.784364 83.030011 
L 88.088727 84.873835 
L 88.393091 88.788211 
L 88.697455 88.385894 
L 89.001818 89.29694 
L 89.306182 92.993443 
L 89.610545 91.944076 
L 89.914909 94.001391 
L 90.219273 93.883604 
L 90.523636 92.230379 
L 90.828 91.937908 
L 91.132364 89.354296 
L 91.436727 92.154286 
L 91.741091 91.241969 
L 92.654182 96.081888 
L 92.958545 96.788339 
L 93.262909 96.660983 
L 93.567273 99.302981 
L 93.871636 97.260341 
L 94.176 96.204443 
L 94.480364 99.687903 
L 95.393455 89.341398 
L 95.697818 89.749381 
L 96.002182 92.177332 
L 96.306545 89.786344 
L 96.610909 90.700555 
L 96.915273 87.928639 
L 97.219636 87.456372 
L 97.524 85.241825 
L 97.828364 84.433758 
L 98.132727 82.831591 
L 98.437091 82.807782 
L 98.741455 78.758289 
L 99.045818 78.470514 
L 99.350182 77.558996 
L 99.654545 73.288918 
L 100.263273 79.225833 
L 100.567636 77.027709 
L 100.872 79.687787 
L 101.176364 75.280591 
L 101.480727 76.21848 
L 101.785091 77.913347 
L 102.698182 65.961225 
L 103.002545 63.906753 
L 103.306909 65.859597 
L 103.611273 61.528491 
L 103.915636 62.136194 
L 104.524364 58.168699 
L 104.828727 58.520187 
L 105.133091 57.127751 
L 105.437455 55.036631 
L 105.741818 54.18308 
L 106.046182 56.67599 
L 106.350545 55.99973 
L 106.654909 52.992127 
L 106.959273 54.567071 
L 107.263636 54.90637 
L 107.568 55.893089 
L 107.872364 51.699851 
L 108.176727 50.17541 
L 108.481091 49.251483 
L 108.785455 50.997282 
L 109.089818 49.774525 
L 109.394182 51.303586 
L 109.698545 51.231409 
L 110.002909 52.673202 
L 110.611636 49.831947 
L 110.916 50.304268 
L 111.220364 49.406316 
L 111.829091 55.266306 
L 112.133455 54.269977 
L 112.437818 53.892042 
L 112.742182 52.452097 
L 113.046545 47.048274 
L 113.350909 44.90665 
L 113.655273 46.976491 
L 113.959636 44.443636 
L 114.264 47.42748 
L 114.568364 48.474131 
L 114.872727 48.62887 
L 115.177091 44.743835 
L 115.785818 48.306544 
L 116.090182 48.529787 
L 116.394545 50.034235 
L 116.698909 47.479569 
L 117.307636 52.530238 
L 117.916364 54.6523 
L 118.220727 50.277052 
L 118.525091 48.124223 
L 118.829455 47.925699 
L 119.133818 50.704396 
L 119.438182 48.789788 
L 119.742545 51.057794 
L 120.046909 54.56059 
L 120.351273 51.866711 
L 120.655636 51.148038 
L 120.96 49.059975 
L 121.264364 48.337254 
L 121.568727 46.394375 
L 121.873091 47.870588 
L 122.177455 50.215752 
L 122.481818 48.670224 
L 123.090545 52.055536 
L 123.394909 53.088464 
L 123.699273 53.04883 
L 124.003636 53.851517 
L 124.308 56.969243 
L 124.612364 58.42866 
L 124.916727 63.470266 
L 125.221091 62.052542 
L 125.829818 68.189445 
L 126.134182 68.07116 
L 126.438545 69.748132 
L 126.742909 66.249319 
L 127.047273 69.180895 
L 127.351636 68.575352 
L 127.656 68.664427 
L 127.960364 71.3131 
L 128.264727 70.126561 
L 128.569091 70.515545 
L 129.177818 66.898186 
L 129.482182 61.99301 
L 129.786545 58.962409 
L 130.395273 60.342332 
L 130.699636 57.848835 
L 131.308364 54.911503 
L 131.612727 58.577979 
L 131.917091 58.633139 
L 132.221455 60.306637 
L 132.525818 59.671903 
L 132.830182 59.894461 
L 133.134545 57.830614 
L 133.438909 57.111316 
L 133.743273 55.328304 
L 134.047636 56.385917 
L 134.352 58.527466 
L 134.656364 59.457261 
L 134.960727 59.495855 
L 135.265091 58.636122 
L 135.569455 53.513099 
L 135.873818 53.608918 
L 136.178182 55.77654 
L 136.786909 57.612272 
L 137.091273 56.520504 
L 137.395636 60.014288 
L 137.7 59.870841 
L 138.004364 59.515959 
L 138.308727 58.989485 
L 138.613091 60.34391 
L 138.917455 60.883401 
L 139.221818 64.112485 
L 139.830545 66.462044 
L 140.134909 65.518643 
L 140.439273 68.140308 
L 140.743636 66.368927 
L 141.048 62.980157 
L 141.352364 67.673885 
L 141.656727 66.707335 
L 141.961091 65.172434 
L 142.265455 66.617834 
L 142.569818 67.518655 
L 142.874182 67.819964 
L 143.482909 69.195902 
L 143.787273 72.996271 
L 144.396 67.935284 
L 144.700364 69.779602 
L 145.004727 73.104745 
L 145.309091 71.923221 
L 145.613455 73.228831 
L 145.917818 72.90695 
L 146.222182 73.631032 
L 146.830909 70.4876 
L 147.135273 72.132905 
L 147.744 78.859048 
L 148.048364 77.475002 
L 148.352727 80.170761 
L 148.961455 82.672129 
L 149.265818 82.791326 
L 149.570182 87.181875 
L 149.874545 86.753816 
L 150.178909 85.565884 
L 150.483273 85.365386 
L 150.787636 86.070325 
L 151.092 85.849469 
L 151.396364 84.944624 
L 151.700727 91.231527 
L 152.005091 86.796462 
L 152.309455 85.911918 
L 152.613818 87.391266 
L 152.918182 88.27776 
L 153.222545 87.158192 
L 153.526909 87.421459 
L 153.831273 92.026072 
L 154.135636 87.344798 
L 154.44 87.595451 
L 154.744364 85.282191 
L 155.048727 86.851427 
L 155.353091 83.367664 
L 155.657455 82.718375 
L 155.961818 81.337811 
L 156.266182 83.707941 
L 156.570545 80.961648 
L 156.874909 79.397473 
L 157.179273 76.445514 
L 157.788 78.960451 
L 158.092364 73.736279 
L 158.396727 76.139884 
L 158.701091 76.448152 
L 159.005455 73.870231 
L 159.309818 73.648638 
L 159.614182 72.32678 
L 159.918545 73.232538 
L 160.222909 72.393429 
L 160.527273 75.356002 
L 160.831636 71.596161 
L 161.136 71.8641 
L 161.440364 73.406417 
L 161.744727 71.895381 
L 162.049091 72.940071 
L 162.657818 79.019232 
L 162.962182 77.446089 
L 163.570909 78.111095 
L 163.875273 75.667292 
L 164.484 79.879214 
L 164.788364 80.751936 
L 165.092727 80.537992 
L 165.397091 80.633617 
L 165.701455 81.284138 
L 166.310182 81.667194 
L 166.918909 85.142386 
L 167.223273 84.519915 
L 168.136364 89.872533 
L 168.440727 90.230045 
L 168.745091 85.112885 
L 169.049455 86.710805 
L 169.658182 82.877682 
L 169.962545 85.573636 
L 170.266909 83.820271 
L 170.571273 86.504741 
L 170.875636 92.534461 
L 171.18 91.159621 
L 171.484364 95.141134 
L 171.788727 94.118632 
L 172.093091 95.669639 
L 172.701818 89.483714 
L 173.006182 90.511775 
L 173.310545 92.071459 
L 173.614909 94.824401 
L 174.223636 96.459911 
L 174.528 97.286861 
L 174.832364 96.931532 
L 175.136727 95.619724 
L 175.441091 94.826876 
L 175.745455 96.559586 
L 176.049818 99.819804 
L 176.354182 96.725704 
L 177.267273 100.949935 
L 177.571636 105.129128 
L 178.180364 107.300571 
L 178.789091 104.310133 
L 179.093455 104.301583 
L 179.397818 102.1886 
L 179.702182 101.417723 
L 180.006545 101.453283 
L 180.310909 101.088375 
L 180.615273 101.520686 
L 181.224 103.023104 
L 181.528364 105.58089 
L 181.832727 104.944984 
L 182.137091 107.196909 
L 182.441455 105.288495 
L 182.745818 105.854147 
L 183.050182 105.741916 
L 183.658909 103.163406 
L 183.963273 106.724822 
L 184.267636 107.19398 
L 184.572 105.198158 
L 184.876364 109.048643 
L 185.180727 108.170478 
L 185.485091 113.28501 
L 185.789455 115.603562 
L 186.093818 115.515967 
L 186.398182 119.272598 
L 186.702545 121.507261 
L 187.006909 124.844673 
L 187.311273 121.107498 
L 187.615636 120.735108 
L 187.92 119.448767 
L 188.224364 119.953687 
L 188.528727 120.7551 
L 188.833091 124.420484 
L 189.137455 125.08223 
L 189.441818 126.808927 
L 190.050545 122.276101 
L 190.354909 118.950608 
L 190.659273 117.017431 
L 190.963636 118.374889 
L 191.268 120.905206 
L 191.572364 119.166783 
L 191.876727 118.358883 
L 192.181091 122.369075 
L 192.485455 121.563014 
L 192.789818 119.716076 
L 193.094182 119.582461 
L 193.398545 120.002074 
L 193.702909 121.833431 
L 194.007273 125.113474 
L 194.311636 123.298784 
L 194.920364 124.529096 
L 195.224727 120.60012 
L 195.529091 119.048002 
L 195.833455 118.20715 
L 196.137818 117.885022 
L 197.050909 108.431538 
L 197.355273 107.111334 
L 197.659636 111.860883 
L 197.964 111.580342 
L 198.268364 111.875361 
L 198.572727 111.662321 
L 198.877091 109.523947 
L 199.181455 115.736214 
L 199.485818 117.027139 
L 199.790182 116.415126 
L 200.094545 117.473706 
L 200.398909 120.686566 
L 200.703273 118.716176 
L 201.007636 118.088364 
L 201.312 120.290361 
L 201.616364 119.576507 
L 201.920727 117.713547 
L 202.225091 117.701546 
L 202.529455 115.886251 
L 202.833818 115.708795 
L 203.138182 116.604983 
L 203.442545 119.23399 
L 203.746909 119.42884 
L 204.051273 118.988277 
L 204.355636 117.002311 
L 204.66 117.263319 
L 204.964364 116.226121 
L 205.573091 120.188021 
L 205.877455 120.438331 
L 206.181818 122.82972 
L 206.486182 120.969793 
L 206.790545 119.919637 
L 207.399273 118.518311 
L 207.703636 113.935559 
L 208.008 114.998717 
L 208.312364 119.990524 
L 208.616727 119.538607 
L 208.921091 119.653352 
L 209.225455 120.826835 
L 209.529818 123.046349 
L 209.834182 124.042219 
L 210.138545 123.631031 
L 210.442909 124.771177 
L 210.747273 119.300896 
L 211.356 123.277264 
L 211.660364 128.46675 
L 211.964727 127.896505 
L 212.269091 132.468743 
L 212.573455 133.691966 
L 212.877818 134.317054 
L 213.182182 135.926374 
L 213.486545 131.98345 
L 214.095273 126.737477 
L 214.399636 128.738377 
L 214.704 126.17927 
L 215.008364 125.054579 
L 215.617091 120.971131 
L 215.921455 123.031768 
L 216.225818 123.993916 
L 216.530182 122.037964 
L 216.834545 128.059628 
L 217.138909 124.628129 
L 217.443273 123.373893 
L 217.747636 123.477527 
L 218.052 122.977522 
L 218.356364 125.312919 
L 218.660727 126.106421 
L 219.269455 120.668219 
L 219.573818 114.554484 
L 219.878182 114.722109 
L 220.791273 119.689852 
L 221.095636 119.866389 
L 221.4 118.998537 
L 221.704364 119.076182 
L 222.008727 116.590196 
L 222.313091 117.121284 
L 222.617455 117.909135 
L 222.921818 119.227171 
L 223.834909 129.157902 
L 224.748 121.059116 
L 225.052364 124.07993 
L 225.356727 128.543821 
L 225.661091 130.040511 
L 225.965455 129.641838 
L 226.269818 128.511049 
L 226.574182 126.134754 
L 226.878545 125.490144 
L 227.182909 121.538612 
L 227.487273 122.043374 
L 227.791636 124.113798 
L 228.096 127.92599 
L 228.400364 129.941748 
L 228.704727 129.392741 
L 229.009091 131.40793 
L 229.313455 129.28385 
L 229.617818 126.081372 
L 229.922182 131.454452 
L 230.226545 129.495198 
L 230.530909 134.57354 
L 230.835273 133.663134 
L 231.139636 130.885718 
L 231.444 130.738656 
L 231.748364 133.640374 
L 232.052727 134.96785 
L 232.661455 135.974379 
L 232.965818 136.434451 
L 233.270182 136.683612 
L 233.574545 136.199542 
L 233.878909 138.940004 
L 234.183273 139.488788 
L 234.487636 136.046104 
L 235.096364 137.924701 
L 235.400727 135.479869 
L 235.705091 141.282866 
L 236.009455 138.604069 
L 236.313818 140.036922 
L 236.922545 139.446801 
L 237.226909 137.309738 
L 237.531273 137.916513 
L 237.835636 139.453949 
L 238.14 136.511061 
L 238.444364 141.871867 
L 238.748727 141.825758 
L 239.053091 144.882203 
L 239.357455 146.609084 
L 239.661818 142.048524 
L 239.966182 142.149645 
L 240.270545 141.707321 
L 240.574909 145.747046 
L 240.879273 147.400168 
L 241.183636 146.954471 
L 241.488 146.150051 
L 241.792364 144.75125 
L 242.096727 144.731686 
L 242.705455 142.507736 
L 243.009818 146.656705 
L 243.314182 146.572794 
L 243.922909 143.493999 
L 244.227273 144.319055 
L 244.531636 146.145827 
L 244.836 148.68162 
L 245.140364 148.978787 
L 245.444727 146.409508 
L 245.749091 150.835259 
L 246.053455 152.331575 
L 246.357818 154.916097 
L 246.662182 153.136192 
L 247.270909 155.460278 
L 247.575273 155.952215 
L 247.879636 154.942278 
L 248.184 155.832027 
L 248.488364 162.73921 
L 249.097091 160.511703 
L 249.401455 161.009516 
L 249.705818 163.467589 
L 250.314545 161.809998 
L 250.618909 162.875806 
L 250.923273 163.367248 
L 251.227636 165.476394 
L 251.532 165.881348 
L 251.836364 169.396974 
L 252.140727 168.450696 
L 252.445091 170.592069 
L 252.749455 170.052166 
L 253.053818 173.240211 
L 253.358182 174.578178 
L 253.662545 174.828714 
L 253.966909 178.594381 
L 254.271273 178.333281 
L 254.575636 179.193005 
L 255.184364 186.098954 
L 255.488727 184.726834 
L 255.793091 182.696145 
L 256.097455 182.99525 
L 256.401818 182.077445 
L 256.706182 181.569876 
L 257.010545 180.82245 
L 257.314909 177.906458 
L 257.619273 181.323604 
L 257.923636 179.789717 
L 258.228 180.655929 
L 258.836727 181.849797 
L 259.141091 182.70045 
L 259.445455 185.480871 
L 259.749818 185.065146 
L 260.054182 181.276254 
L 260.358545 181.403536 
L 260.662909 181.406677 
L 260.967273 182.96514 
L 261.271636 183.231515 
L 261.576 182.174475 
L 262.184727 184.043015 
L 262.489091 183.128605 
L 262.793455 185.210197 
L 263.097818 184.637657 
L 263.402182 182.777562 
L 263.706545 179.693855 
L 264.010909 179.898798 
L 264.619636 174.452204 
L 265.228364 179.472831 
L 265.532727 180.164341 
L 265.837091 177.831212 
L 266.141455 177.995124 
L 266.445818 179.357126 
L 266.750182 175.837387 
L 267.054545 175.186826 
L 267.358909 180.448814 
L 267.663273 179.729647 
L 267.967636 178.550446 
L 268.272 178.038874 
L 268.576364 177.019144 
L 268.880727 177.171693 
L 269.185091 180.161179 
L 269.489455 181.001757 
L 270.402545 188.124993 
L 270.706909 187.098966 
L 271.011273 186.876985 
L 271.315636 187.893208 
L 271.62 189.365593 
L 271.924364 189.418706 
L 272.228727 186.971612 
L 272.533091 191.516207 
L 272.837455 190.661633 
L 273.141818 191.899044 
L 273.750545 200.584292 
L 274.054909 202.654045 
L 274.359273 202.156303 
L 274.663636 201.265026 
L 274.968 203.394184 
L 275.272364 201.08807 
L 275.576727 197.86143 
L 275.881091 196.963297 
L 276.185455 198.304313 
L 276.794182 194.041799 
L 277.098545 192.074938 
L 277.402909 193.563481 
L 277.707273 199.990883 
L 278.011636 195.191022 
L 278.316 198.843717 
L 278.620364 198.924822 
L 278.924727 193.52644 
L 279.229091 192.776851 
L 279.533455 190.624418 
L 280.142182 198.06202 
L 280.446545 199.269933 
L 280.750909 196.796639 
L 281.055273 197.581766 
L 281.359636 199.383618 
L 281.664 198.934723 
L 281.968364 196.481416 
L 282.577091 202.502771 
L 282.881455 204.291093 
L 283.185818 201.808981 
L 283.490182 201.276519 
L 283.794545 196.441823 
L 284.098909 194.318416 
L 284.403273 194.397995 
L 284.707636 191.529408 
L 285.012 191.049835 
L 285.316364 192.648257 
L 285.620727 191.106402 
L 285.925091 192.685335 
L 286.229455 193.343815 
L 286.533818 190.333045 
L 286.838182 190.562702 
L 287.142545 192.38384 
L 287.446909 193.436733 
L 287.751273 191.119805 
L 288.36 193.249937 
L 288.664364 194.407035 
L 288.968727 193.989981 
L 289.273091 194.864086 
L 289.577455 198.496277 
L 290.186182 202.623092 
L 290.794909 197.96109 
L 291.099273 196.629469 
L 291.403636 197.775378 
L 291.708 199.6252 
L 292.012364 200.776005 
L 292.316727 203.161162 
L 292.621091 197.498716 
L 292.925455 202.590022 
L 293.229818 201.311123 
L 293.534182 204.223868 
L 293.838545 204.460469 
L 294.751636 211.95649 
L 295.056 207.977028 
L 295.360364 208.278582 
L 295.664727 210.014825 
L 295.969091 208.754568 
L 296.273455 208.731101 
L 296.577818 207.098412 
L 296.882182 211.234946 
L 297.186545 210.546519 
L 297.490909 208.79442 
L 297.795273 212.562123 
L 298.099636 211.545832 
L 298.404 207.699711 
L 298.708364 207.733401 
L 299.317091 204.350318 
L 299.621455 205.9546 
L 299.925818 205.864428 
L 300.230182 209.417616 
L 300.534545 210.440954 
L 300.838909 209.838501 
L 301.143273 208.198858 
L 301.447636 208.14305 
L 301.752 206.510474 
L 302.056364 209.011333 
L 302.360727 209.241934 
L 302.665091 209.198217 
L 302.969455 205.004236 
L 303.273818 205.489863 
L 303.578182 206.621392 
L 303.882545 206.572978 
L 304.186909 208.657084 
L 304.491273 208.220011 
L 304.795636 209.04778 
L 305.1 213.109647 
L 305.404364 213.242493 
L 305.708727 213.962528 
L 306.013091 217.664077 
L 306.317455 217.816305 
L 306.621818 214.439164 
L 307.230545 211.869542 
L 307.534909 214.91141 
L 307.839273 213.830034 
L 308.143636 213.493422 
L 308.752364 211.335485 
L 309.056727 214.418812 
L 309.361091 214.512689 
L 309.665455 216.231175 
L 309.969818 216.344741 
L 310.274182 218.379614 
L 310.578545 215.403564 
L 311.187273 219.389666 
L 311.491636 219.22054 
L 311.796 221.662881 
L 312.100364 222.625813 
L 312.404727 224.507772 
L 312.709091 221.307915 
L 313.013455 219.526091 
L 313.317818 219.656404 
L 313.622182 220.543495 
L 313.926545 218.409948 
L 314.535273 216.361798 
L 314.839636 216.421189 
L 315.144 220.249281 
L 315.448364 220.504299 
L 315.752727 221.71173 
L 316.057091 220.249055 
L 316.361455 217.954685 
L 316.665818 219.4466 
L 316.970182 218.384529 
L 317.274545 214.448392 
L 317.578909 215.962443 
L 317.883273 212.148655 
L 318.187636 214.081909 
L 319.100727 214.029046 
L 319.709455 217.269014 
L 320.013818 218.783082 
L 320.622545 217.293328 
L 320.926909 212.24596 
L 321.231273 209.137218 
L 321.535636 210.293296 
L 321.84 209.556649 
L 322.144364 207.295666 
L 322.448727 207.226276 
L 322.753091 207.384189 
L 323.057455 207.267242 
L 323.361818 205.300677 
L 323.666182 207.224259 
L 323.970545 207.96272 
L 324.579273 206.189793 
L 324.883636 205.646535 
L 325.188 206.485066 
L 325.492364 204.279823 
L 325.796727 199.441239 
L 326.101091 198.519685 
L 326.405455 198.957717 
L 326.709818 197.244062 
L 327.014182 198.466555 
L 327.318545 200.166491 
L 327.622909 200.092097 
L 327.927273 205.948634 
L 328.231636 208.565237 
L 328.536 209.354246 
L 329.144727 214.764616 
L 329.449091 215.754951 
L 329.753455 219.480404 
L 330.362182 221.614913 
L 330.666545 221.557306 
L 330.970909 218.940174 
L 331.275273 218.549017 
L 331.579636 218.501258 
L 331.884 218.275744 
L 332.188364 217.760126 
L 332.492727 220.065599 
L 332.797091 220.325854 
L 333.101455 219.625755 
L 333.405818 222.733978 
L 334.014545 218.319055 
L 334.318909 219.750712 
L 334.623273 220.297949 
L 334.927636 222.289261 
L 335.232 220.703404 
L 335.536364 223.109744 
L 335.840727 223.614215 
L 336.145091 225.561831 
L 336.449455 225.446291 
L 336.753818 229.514738 
L 337.058182 226.506962 
L 337.362545 228.694225 
L 337.666909 228.558412 
L 337.971273 229.040312 
L 338.58 232.781477 
L 338.884364 230.658177 
L 339.188727 231.850077 
L 339.493091 231.235193 
L 340.101818 234.520097 
L 340.406182 233.449268 
L 340.710545 231.339551 
L 341.014909 231.737084 
L 341.319273 234.961312 
L 341.623636 230.430911 
L 341.928 232.373152 
L 342.232364 235.868729 
L 342.536727 229.985825 
L 342.841091 230.901975 
L 343.145455 234.21648 
L 343.449818 235.766192 
L 343.754182 234.932777 
L 344.058545 234.501243 
L 344.362909 236.432554 
L 344.667273 232.299496 
L 344.971636 233.482187 
L 345.276 236.168485 
L 345.580364 233.990095 
L 345.884727 230.976422 
L 346.189091 232.830102 
L 346.493455 236.007682 
L 346.797818 233.671145 
L 347.102182 238.313487 
L 347.406545 241.094873 
L 347.710909 238.901172 
L 348.015273 239.026685 
L 348.319636 239.625168 
L 348.624 238.82515 
L 348.928364 239.171568 
L 349.232727 242.116364 
L 349.841455 236.218347 
L 350.145818 235.752752 
L 350.450182 235.65041 
L 350.754545 230.345269 
L 351.363273 231.560681 
L 351.667636 230.734213 
L 352.276364 223.786329 
L 352.580727 224.372647 
L 352.885091 223.6735 
L 353.189455 226.798329 
L 353.493818 227.50574 
L 354.102545 231.694123 
L 354.406909 227.881118 
L 355.015636 230.883067 
L 355.32 230.053499 
L 355.624364 227.110657 
L 355.928727 226.01972 
L 356.233091 219.762833 
L 356.537455 219.932144 
L 357.146182 218.720571 
L 357.450545 215.466571 
L 357.754909 214.316398 
L 358.059273 214.57995 
L 358.363636 216.728398 
L 358.668 216.174118 
L 358.972364 212.996544 
L 359.276727 213.927092 
L 359.581091 212.727703 
L 359.885455 212.169558 
L 360.189818 210.211512 
L 360.494182 212.036305 
L 360.798545 206.715242 
L 361.102909 209.615762 
L 361.407273 210.444656 
L 361.711636 208.317514 
L 362.016 207.644666 
L 362.320364 205.762658 
L 362.624727 206.887579 
L 362.929091 207.057201 
L 363.233455 207.029464 
L 363.537818 203.47114 
L 364.146545 200.099112 
L 364.450909 201.590971 
L 364.755273 199.394013 
L 365.059636 198.882502 
L 365.364 195.732591 
L 365.668364 191.165674 
L 366.277091 192.78257 
L 366.581455 194.741807 
L 366.885818 195.067376 
L 367.190182 195.933626 
L 367.494545 195.118443 
L 367.798909 195.446251 
L 368.103273 196.266184 
L 368.407636 193.852218 
L 368.712 195.978878 
L 369.016364 194.996798 
L 369.320727 195.917278 
L 369.625091 194.27476 
L 369.929455 191.133655 
L 370.233818 191.820936 
L 370.538182 190.820886 
L 370.842545 190.41547 
L 371.146909 192.228174 
L 371.755636 191.026598 
L 372.06 190.090406 
L 372.364364 190.540279 
L 372.668727 190.326697 
L 372.973091 192.928925 
L 373.277455 193.740955 
L 373.581818 192.4803 
L 373.581818 192.4803 
" style="fill:none;stroke:#1f77b4;stroke-linecap:square;stroke-width:1.5;"/>
   </g>
   <g id="patch_3">
    <path d="M 54 252 
L 54 34.56 
" style="fill:none;stroke:#000000;stroke-linecap:square;stroke-linejoin:miter;stroke-width:0.8;"/>
   </g>
   <g id="patch_4">
    <path d="M 388.8 252 
L 388.8 34.56 
" style="fill:none;stroke:#000000;stroke-linecap:square;stroke-linejoin:miter;stroke-width:0.8;"/>
   </g>
   <g id="patch_5">
    <path d="M 54 252 
L 388.8 252 
" style="fill:none;stroke:#000000;stroke-linecap:square;stroke-linejoin:miter;stroke-width:0.8;"/>
   </g>
   <g id="patch_6">
    <path d="M 54 34.56 
L 388.8 34.56 
" style="fill:none;stroke:#000000;stroke-linecap:square;stroke-linejoin:miter;stroke-width:0.8;"/>
   </g>
   <g id="text_15">
    <!-- Simulated Brownian Motion Path -->
    <defs>
     <path d="M 53.515625 70.515625 
L 53.515625 60.890625 
Q 47.90625 63.578125 42.921875 64.890625 
Q 37.9375 66.21875 33.296875 66.21875 
Q 25.25 66.21875 20.875 63.09375 
Q 16.5 59.96875 16.5 54.203125 
Q 16.5 49.359375 19.40625 46.890625 
Q 22.3125 44.4375 30.421875 42.921875 
L 36.375 41.703125 
Q 47.40625 39.59375 52.65625 34.296875 
Q 57.90625 29 57.90625 20.125 
Q 57.90625 9.515625 50.796875 4.046875 
Q 43.703125 -1.421875 29.984375 -1.421875 
Q 24.8125 -1.421875 18.96875 -0.25 
Q 13.140625 0.921875 6.890625 3.21875 
L 6.890625 13.375 
Q 12.890625 10.015625 18.65625 8.296875 
Q 24.421875 6.59375 29.984375 6.59375 
Q 38.421875 6.59375 43.015625 9.90625 
Q 47.609375 13.234375 47.609375 19.390625 
Q 47.609375 24.75 44.3125 27.78125 
Q 41.015625 30.8125 33.5 32.328125 
L 27.484375 33.5 
Q 16.453125 35.6875 11.515625 40.375 
Q 6.59375 45.0625 6.59375 53.421875 
Q 6.59375 63.09375 13.40625 68.65625 
Q 20.21875 74.21875 32.171875 74.21875 
Q 37.3125 74.21875 42.625 73.28125 
Q 47.953125 72.359375 53.515625 70.515625 
z
" id="DejaVuSans-53"/>
     <path d="M 9.421875 54.6875 
L 18.40625 54.6875 
L 18.40625 0 
L 9.421875 0 
z
M 9.421875 75.984375 
L 18.40625 75.984375 
L 18.40625 64.59375 
L 9.421875 64.59375 
z
" id="DejaVuSans-69"/>
     <path d="M 52 44.1875 
Q 55.375 50.25 60.0625 53.125 
Q 64.75 56 71.09375 56 
Q 79.640625 56 84.28125 50.015625 
Q 88.921875 44.046875 88.921875 33.015625 
L 88.921875 0 
L 79.890625 0 
L 79.890625 32.71875 
Q 79.890625 40.578125 77.09375 44.375 
Q 74.3125 48.1875 68.609375 48.1875 
Q 61.625 48.1875 57.5625 43.546875 
Q 53.515625 38.921875 53.515625 30.90625 
L 53.515625 0 
L 44.484375 0 
L 44.484375 32.71875 
Q 44.484375 40.625 41.703125 44.40625 
Q 38.921875 48.1875 33.109375 48.1875 
Q 26.21875 48.1875 22.15625 43.53125 
Q 18.109375 38.875 18.109375 30.90625 
L 18.109375 0 
L 9.078125 0 
L 9.078125 54.6875 
L 18.109375 54.6875 
L 18.109375 46.1875 
Q 21.1875 51.21875 25.484375 53.609375 
Q 29.78125 56 35.6875 56 
Q 41.65625 56 45.828125 52.96875 
Q 50 49.953125 52 44.1875 
z
" id="DejaVuSans-6d"/>
     <path d="M 8.5 21.578125 
L 8.5 54.6875 
L 17.484375 54.6875 
L 17.484375 21.921875 
Q 17.484375 14.15625 20.5 10.265625 
Q 23.53125 6.390625 29.59375 6.390625 
Q 36.859375 6.390625 41.078125 11.03125 
Q 45.3125 15.671875 45.3125 23.6875 
L 45.3125 54.6875 
L 54.296875 54.6875 
L 54.296875 0 
L 45.3125 0 
L 45.3125 8.40625 
Q 42.046875 3.421875 37.71875 1 
Q 33.40625 -1.421875 27.6875 -1.421875 
Q 18.265625 -1.421875 13.375 4.4375 
Q 8.5 10.296875 8.5 21.578125 
z
M 31.109375 56 
z
" id="DejaVuSans-75"/>
     <path d="M 9.421875 75.984375 
L 18.40625 75.984375 
L 18.40625 0 
L 9.421875 0 
z
" id="DejaVuSans-6c"/>
     <path d="M 34.28125 27.484375 
Q 23.390625 27.484375 19.1875 25 
Q 14.984375 22.515625 14.984375 16.5 
Q 14.984375 11.71875 18.140625 8.90625 
Q 21.296875 6.109375 26.703125 6.109375 
Q 34.1875 6.109375 38.703125 11.40625 
Q 43.21875 16.703125 43.21875 25.484375 
L 43.21875 27.484375 
z
M 52.203125 31.203125 
L 52.203125 0 
L 43.21875 0 
L 43.21875 8.296875 
Q 40.140625 3.328125 35.546875 0.953125 
Q 30.953125 -1.421875 24.3125 -1.421875 
Q 15.921875 -1.421875 10.953125 3.296875 
Q 6 8.015625 6 15.921875 
Q 6 25.140625 12.171875 29.828125 
Q 18.359375 34.515625 30.609375 34.515625 
L 43.21875 34.515625 
L 43.21875 35.40625 
Q 43.21875 41.609375 39.140625 45 
Q 35.0625 48.390625 27.6875 48.390625 
Q 23 48.390625 18.546875 47.265625 
Q 14.109375 46.140625 10.015625 43.890625 
L 10.015625 52.203125 
Q 14.9375 54.109375 19.578125 55.046875 
Q 24.21875 56 28.609375 56 
Q 40.484375 56 46.34375 49.84375 
Q 52.203125 43.703125 52.203125 31.203125 
z
" id="DejaVuSans-61"/>
     <path d="M 18.3125 70.21875 
L 18.3125 54.6875 
L 36.8125 54.6875 
L 36.8125 47.703125 
L 18.3125 47.703125 
L 18.3125 18.015625 
Q 18.3125 11.328125 20.140625 9.421875 
Q 21.96875 7.515625 27.59375 7.515625 
L 36.8125 7.515625 
L 36.8125 0 
L 27.59375 0 
Q 17.1875 0 13.234375 3.875 
Q 9.28125 7.765625 9.28125 18.015625 
L 9.28125 47.703125 
L 2.6875 47.703125 
L 2.6875 54.6875 
L 9.28125 54.6875 
L 9.28125 70.21875 
z
" id="DejaVuSans-74"/>
     <path d="M 56.203125 29.59375 
L 56.203125 25.203125 
L 14.890625 25.203125 
Q 15.484375 15.921875 20.484375 11.0625 
Q 25.484375 6.203125 34.421875 6.203125 
Q 39.59375 6.203125 44.453125 7.46875 
Q 49.3125 8.734375 54.109375 11.28125 
L 54.109375 2.78125 
Q 49.265625 0.734375 44.1875 -0.34375 
Q 39.109375 -1.421875 33.890625 -1.421875 
Q 20.796875 -1.421875 13.15625 6.1875 
Q 5.515625 13.8125 5.515625 26.8125 
Q 5.515625 40.234375 12.765625 48.109375 
Q 20.015625 56 32.328125 56 
Q 43.359375 56 49.78125 48.890625 
Q 56.203125 41.796875 56.203125 29.59375 
z
M 47.21875 32.234375 
Q 47.125 39.59375 43.09375 43.984375 
Q 39.0625 48.390625 32.421875 48.390625 
Q 24.90625 48.390625 20.390625 44.140625 
Q 15.875 39.890625 15.1875 32.171875 
z
" id="DejaVuSans-65"/>
     <path d="M 45.40625 46.390625 
L 45.40625 75.984375 
L 54.390625 75.984375 
L 54.390625 0 
L 45.40625 0 
L 45.40625 8.203125 
Q 42.578125 3.328125 38.25 0.953125 
Q 33.9375 -1.421875 27.875 -1.421875 
Q 17.96875 -1.421875 11.734375 6.484375 
Q 5.515625 14.40625 5.515625 27.296875 
Q 5.515625 40.1875 11.734375 48.09375 
Q 17.96875 56 27.875 56 
Q 33.9375 56 38.25 53.625 
Q 42.578125 51.265625 45.40625 46.390625 
z
M 14.796875 27.296875 
Q 14.796875 17.390625 18.875 11.75 
Q 22.953125 6.109375 30.078125 6.109375 
Q 37.203125 6.109375 41.296875 11.75 
Q 45.40625 17.390625 45.40625 27.296875 
Q 45.40625 37.203125 41.296875 42.84375 
Q 37.203125 48.484375 30.078125 48.484375 
Q 22.953125 48.484375 18.875 42.84375 
Q 14.796875 37.203125 14.796875 27.296875 
z
" id="DejaVuSans-64"/>
     <path id="DejaVuSans-20"/>
     <path d="M 19.671875 34.8125 
L 19.671875 8.109375 
L 35.5 8.109375 
Q 43.453125 8.109375 47.28125 11.40625 
Q 51.125 14.703125 51.125 21.484375 
Q 51.125 28.328125 47.28125 31.5625 
Q 43.453125 34.8125 35.5 34.8125 
z
M 19.671875 64.796875 
L 19.671875 42.828125 
L 34.28125 42.828125 
Q 41.5 42.828125 45.03125 45.53125 
Q 48.578125 48.25 48.578125 53.8125 
Q 48.578125 59.328125 45.03125 62.0625 
Q 41.5 64.796875 34.28125 64.796875 
z
M 9.8125 72.90625 
L 35.015625 72.90625 
Q 46.296875 72.90625 52.390625 68.21875 
Q 58.5 63.53125 58.5 54.890625 
Q 58.5 48.1875 55.375 44.234375 
Q 52.25 40.28125 46.1875 39.3125 
Q 53.46875 37.75 57.5 32.78125 
Q 61.53125 27.828125 61.53125 20.40625 
Q 61.53125 10.640625 54.890625 5.3125 
Q 48.25 0 35.984375 0 
L 9.8125 0 
z
" id="DejaVuSans-42"/>
     <path d="M 41.109375 46.296875 
Q 39.59375 47.171875 37.8125 47.578125 
Q 36.03125 48 33.890625 48 
Q 26.265625 48 22.1875 43.046875 
Q 18.109375 38.09375 18.109375 28.8125 
L 18.109375 0 
L 9.078125 0 
L 9.078125 54.6875 
L 18.109375 54.6875 
L 18.109375 46.1875 
Q 20.953125 51.171875 25.484375 53.578125 
Q 30.03125 56 36.53125 56 
Q 37.453125 56 38.578125 55.875 
Q 39.703125 55.765625 41.0625 55.515625 
z
" id="DejaVuSans-72"/>
     <path d="M 30.609375 48.390625 
Q 23.390625 48.390625 19.1875 42.75 
Q 14.984375 37.109375 14.984375 27.296875 
Q 14.984375 17.484375 19.15625 11.84375 
Q 23.34375 6.203125 30.609375 6.203125 
Q 37.796875 6.203125 41.984375 11.859375 
Q 46.1875 17.53125 46.1875 27.296875 
Q 46.1875 37.015625 41.984375 42.703125 
Q 37.796875 48.390625 30.609375 48.390625 
z
M 30.609375 56 
Q 42.328125 56 49.015625 48.375 
Q 55.71875 40.765625 55.71875 27.296875 
Q 55.71875 13.875 49.015625 6.21875 
Q 42.328125 -1.421875 30.609375 -1.421875 
Q 18.84375 -1.421875 12.171875 6.21875 
Q 5.515625 13.875 5.515625 27.296875 
Q 5.515625 40.765625 12.171875 48.375 
Q 18.84375 56 30.609375 56 
z
" id="DejaVuSans-6f"/>
     <path d="M 4.203125 54.6875 
L 13.1875 54.6875 
L 24.421875 12.015625 
L 35.59375 54.6875 
L 46.1875 54.6875 
L 57.421875 12.015625 
L 68.609375 54.6875 
L 77.59375 54.6875 
L 63.28125 0 
L 52.6875 0 
L 40.921875 44.828125 
L 29.109375 0 
L 18.5 0 
z
" id="DejaVuSans-77"/>
     <path d="M 54.890625 33.015625 
L 54.890625 0 
L 45.90625 0 
L 45.90625 32.71875 
Q 45.90625 40.484375 42.875 44.328125 
Q 39.84375 48.1875 33.796875 48.1875 
Q 26.515625 48.1875 22.3125 43.546875 
Q 18.109375 38.921875 18.109375 30.90625 
L 18.109375 0 
L 9.078125 0 
L 9.078125 54.6875 
L 18.109375 54.6875 
L 18.109375 46.1875 
Q 21.34375 51.125 25.703125 53.5625 
Q 30.078125 56 35.796875 56 
Q 45.21875 56 50.046875 50.171875 
Q 54.890625 44.34375 54.890625 33.015625 
z
" id="DejaVuSans-6e"/>
     <path d="M 9.8125 72.90625 
L 24.515625 72.90625 
L 43.109375 23.296875 
L 61.8125 72.90625 
L 76.515625 72.90625 
L 76.515625 0 
L 66.890625 0 
L 66.890625 64.015625 
L 48.09375 14.015625 
L 38.1875 14.015625 
L 19.390625 64.015625 
L 19.390625 0 
L 9.8125 0 
z
" id="DejaVuSans-4d"/>
     <path d="M 19.671875 64.796875 
L 19.671875 37.40625 
L 32.078125 37.40625 
Q 38.96875 37.40625 42.71875 40.96875 
Q 46.484375 44.53125 46.484375 51.125 
Q 46.484375 57.671875 42.71875 61.234375 
Q 38.96875 64.796875 32.078125 64.796875 
z
M 9.8125 72.90625 
L 32.078125 72.90625 
Q 44.34375 72.90625 50.609375 67.359375 
Q 56.890625 61.8125 56.890625 51.125 
Q 56.890625 40.328125 50.609375 34.8125 
Q 44.34375 29.296875 32.078125 29.296875 
L 19.671875 29.296875 
L 19.671875 0 
L 9.8125 0 
z
" id="DejaVuSans-50"/>
     <path d="M 54.890625 33.015625 
L 54.890625 0 
L 45.90625 0 
L 45.90625 32.71875 
Q 45.90625 40.484375 42.875 44.328125 
Q 39.84375 48.1875 33.796875 48.1875 
Q 26.515625 48.1875 22.3125 43.546875 
Q 18.109375 38.921875 18.109375 30.90625 
L 18.109375 0 
L 9.078125 0 
L 9.078125 75.984375 
L 18.109375 75.984375 
L 18.109375 46.1875 
Q 21.34375 51.125 25.703125 53.5625 
Q 30.078125 56 35.796875 56 
Q 45.21875 56 50.046875 50.171875 
Q 54.890625 44.34375 54.890625 33.015625 
z
" id="DejaVuSans-68"/>
    </defs>
    <g transform="translate(123.465 28.56)scale(0.12 -0.12)">
     <use xlink:href="#DejaVuSans-53"/>
     <use x="63.476562" xlink:href="#DejaVuSans-69"/>
     <use x="91.259766" xlink:href="#DejaVuSans-6d"/>
     <use x="188.671875" xlink:href="#DejaVuSans-75"/>
     <use x="252.050781" xlink:href="#DejaVuSans-6c"/>
     <use x="279.833984" xlink:href="#DejaVuSans-61"/>
     <use x="341.113281" xlink:href="#DejaVuSans-74"/>
     <use x="380.322266" xlink:href="#DejaVuSans-65"/>
     <use x="441.845703" xlink:href="#DejaVuSans-64"/>
     <use x="505.322266" xlink:href="#DejaVuSans-20"/>
     <use x="537.109375" xlink:href="#DejaVuSans-42"/>
     <use x="605.712891" xlink:href="#DejaVuSans-72"/>
     <use x="646.794922" xlink:href="#DejaVuSans-6f"/>
     <use x="707.976562" xlink:href="#DejaVuSans-77"/>
     <use x="789.763672" xlink:href="#DejaVuSans-6e"/>
     <use x="853.142578" xlink:href="#DejaVuSans-69"/>
     <use x="880.925781" xlink:href="#DejaVuSans-61"/>
     <use x="942.205078" xlink:href="#DejaVuSans-6e"/>
     <use x="1005.583984" xlink:href="#DejaVuSans-20"/>
     <use x="1037.371094" xlink:href="#DejaVuSans-4d"/>
     <use x="1123.650391" xlink:href="#DejaVuSans-6f"/>
     <use x="1184.832031" xlink:href="#DejaVuSans-74"/>
     <use x="1224.041016" xlink:href="#DejaVuSans-69"/>
     <use x="1251.824219" xlink:href="#DejaVuSans-6f"/>
     <use x="1313.005859" xlink:href="#DejaVuSans-6e"/>
     <use x="1376.384766" xlink:href="#DejaVuSans-20"/>
     <use x="1408.171875" xlink:href="#DejaVuSans-50"/>
     <use x="1468.412109" xlink:href="#DejaVuSans-61"/>
     <use x="1529.691406" xlink:href="#DejaVuSans-74"/>
     <use x="1568.900391" xlink:href="#DejaVuSans-68"/>
    </g>
   </g>
  </g>
 </g>
 <defs>
  <clipPath id="pe65aa61d13">
   <rect height="217.44" width="334.8" x="54" y="34.56"/>
  </clipPath>
 </defs>
</svg>
