<?xml version="1.0" encoding="utf-8" standalone="no"?>
<!DOCTYPE svg PUBLIC "-//W3C//DTD SVG 1.1//EN"
  "http://www.w3.org/Graphics/SVG/1.1/DTD/svg11.dtd">
<!-- Created with matplotlib (http://matplotlib.org/) -->
<svg height="288pt" version="1.1" viewBox="0 0 432 288" width="432pt" xmlns="http://www.w3.org/2000/svg" xmlns:xlink="http://www.w3.org/1999/xlink">
 <defs>
  <style type="text/css">
*{stroke-linecap:butt;stroke-linejoin:round;}
  </style>
 </defs>
 <g id="figure_1">
  <g id="patch_1">
   <path d="M 0 288 
L 432 288 
L 432 0 
L 0 0 
z
" style="fill:#ffffff;"/>
  </g>
  <g id="axes_1">
   <g id="patch_2">
    <path d="M 54 252 
L 388.8 252 
L 388.8 34.56 
L 54 34.56 
z
" style="fill:#ffffff;"/>
   </g>
   <g id="matplotlib.axis_1">
    <g id="xtick_1">
     <g id="line2d_1">
      <defs>
       <path d="M 0 0 
L 0 3.5 
" id="m0fd926753f" style="stroke:#000000;stroke-width:0.8;"/>
      </defs>
      <g>
       <use style="stroke:#000000;stroke-width:0.8;" x="69.218182" xlink:href="#m0fd926753f" y="252"/>
      </g>
     </g>
     <g id="text_1">
      <!-- 0.0 -->
      <defs>
       <path d="M 31.78125 66.40625 
Q 24.171875 66.40625 20.328125 58.90625 
Q 16.5 51.421875 16.5 36.375 
Q 16.5 21.390625 20.328125 13.890625 
Q 24.171875 6.390625 31.78125 6.390625 
Q 39.453125 6.390625 43.28125 13.890625 
Q 47.125 21.390625 47.125 36.375 
Q 47.125 51.421875 43.28125 58.90625 
Q 39.453125 66.40625 31.78125 66.40625 
z
M 31.78125 74.21875 
Q 44.046875 74.21875 50.515625 64.515625 
Q 56.984375 54.828125 56.984375 36.375 
Q 56.984375 17.96875 50.515625 8.265625 
Q 44.046875 -1.421875 31.78125 -1.421875 
Q 19.53125 -1.421875 13.0625 8.265625 
Q 6.59375 17.96875 6.59375 36.375 
Q 6.59375 54.828125 13.0625 64.515625 
Q 19.53125 74.21875 31.78125 74.21875 
z
" id="DejaVuSans-30"/>
       <path d="M 10.6875 12.40625 
L 21 12.40625 
L 21 0 
L 10.6875 0 
z
" id="DejaVuSans-2e"/>
      </defs>
      <g transform="translate(61.266619 266.598437)scale(0.1 -0.1)">
       <use xlink:href="#DejaVuSans-30"/>
       <use x="63.623047" xlink:href="#DejaVuSans-2e"/>
       <use x="95.410156" xlink:href="#DejaVuSans-30"/>
      </g>
     </g>
    </g>
    <g id="xtick_2">
     <g id="line2d_2">
      <g>
       <use style="stroke:#000000;stroke-width:0.8;" x="130.090909" xlink:href="#m0fd926753f" y="252"/>
      </g>
     </g>
     <g id="text_2">
      <!-- 0.2 -->
      <defs>
       <path d="M 19.1875 8.296875 
L 53.609375 8.296875 
L 53.609375 0 
L 7.328125 0 
L 7.328125 8.296875 
Q 12.9375 14.109375 22.625 23.890625 
Q 32.328125 33.6875 34.8125 36.53125 
Q 39.546875 41.84375 41.421875 45.53125 
Q 43.3125 49.21875 43.3125 52.78125 
Q 43.3125 58.59375 39.234375 62.25 
Q 35.15625 65.921875 28.609375 65.921875 
Q 23.96875 65.921875 18.8125 64.3125 
Q 13.671875 62.703125 7.8125 59.421875 
L 7.8125 69.390625 
Q 13.765625 71.78125 18.9375 73 
Q 24.125 74.21875 28.421875 74.21875 
Q 39.75 74.21875 46.484375 68.546875 
Q 53.21875 62.890625 53.21875 53.421875 
Q 53.21875 48.921875 51.53125 44.890625 
Q 49.859375 40.875 45.40625 35.40625 
Q 44.1875 33.984375 37.640625 27.21875 
Q 31.109375 20.453125 19.1875 8.296875 
z
" id="DejaVuSans-32"/>
      </defs>
      <g transform="translate(122.139347 266.598437)scale(0.1 -0.1)">
       <use xlink:href="#DejaVuSans-30"/>
       <use x="63.623047" xlink:href="#DejaVuSans-2e"/>
       <use x="95.410156" xlink:href="#DejaVuSans-32"/>
      </g>
     </g>
    </g>
    <g id="xtick_3">
     <g id="line2d_3">
      <g>
       <use style="stroke:#000000;stroke-width:0.8;" x="190.963636" xlink:href="#m0fd926753f" y="252"/>
      </g>
     </g>
     <g id="text_3">
      <!-- 0.4 -->
      <defs>
       <path d="M 37.796875 64.3125 
L 12.890625 25.390625 
L 37.796875 25.390625 
z
M 35.203125 72.90625 
L 47.609375 72.90625 
L 47.609375 25.390625 
L 58.015625 25.390625 
L 58.015625 17.1875 
L 47.609375 17.1875 
L 47.609375 0 
L 37.796875 0 
L 37.796875 17.1875 
L 4.890625 17.1875 
L 4.890625 26.703125 
z
" id="DejaVuSans-34"/>
      </defs>
      <g transform="translate(183.012074 266.598437)scale(0.1 -0.1)">
       <use xlink:href="#DejaVuSans-30"/>
       <use x="63.623047" xlink:href="#DejaVuSans-2e"/>
       <use x="95.410156" xlink:href="#DejaVuSans-34"/>
      </g>
     </g>
    </g>
    <g id="xtick_4">
     <g id="line2d_4">
      <g>
       <use style="stroke:#000000;stroke-width:0.8;" x="251.836364" xlink:href="#m0fd926753f" y="252"/>
      </g>
     </g>
     <g id="text_4">
      <!-- 0.6 -->
      <defs>
       <path d="M 33.015625 40.375 
Q 26.375 40.375 22.484375 35.828125 
Q 18.609375 31.296875 18.609375 23.390625 
Q 18.609375 15.53125 22.484375 10.953125 
Q 26.375 6.390625 33.015625 6.390625 
Q 39.65625 6.390625 43.53125 10.953125 
Q 47.40625 15.53125 47.40625 23.390625 
Q 47.40625 31.296875 43.53125 35.828125 
Q 39.65625 40.375 33.015625 40.375 
z
M 52.59375 71.296875 
L 52.59375 62.3125 
Q 48.875 64.0625 45.09375 64.984375 
Q 41.3125 65.921875 37.59375 65.921875 
Q 27.828125 65.921875 22.671875 59.328125 
Q 17.53125 52.734375 16.796875 39.40625 
Q 19.671875 43.65625 24.015625 45.921875 
Q 28.375 48.1875 33.59375 48.1875 
Q 44.578125 48.1875 50.953125 41.515625 
Q 57.328125 34.859375 57.328125 23.390625 
Q 57.328125 12.15625 50.6875 5.359375 
Q 44.046875 -1.421875 33.015625 -1.421875 
Q 20.359375 -1.421875 13.671875 8.265625 
Q 6.984375 17.96875 6.984375 36.375 
Q 6.984375 53.65625 15.1875 63.9375 
Q 23.390625 74.21875 37.203125 74.21875 
Q 40.921875 74.21875 44.703125 73.484375 
Q 48.484375 72.75 52.59375 71.296875 
z
" id="DejaVuSans-36"/>
      </defs>
      <g transform="translate(243.884801 266.598437)scale(0.1 -0.1)">
       <use xlink:href="#DejaVuSans-30"/>
       <use x="63.623047" xlink:href="#DejaVuSans-2e"/>
       <use x="95.410156" xlink:href="#DejaVuSans-36"/>
      </g>
     </g>
    </g>
    <g id="xtick_5">
     <g id="line2d_5">
      <g>
       <use style="stroke:#000000;stroke-width:0.8;" x="312.709091" xlink:href="#m0fd926753f" y="252"/>
      </g>
     </g>
     <g id="text_5">
      <!-- 0.8 -->
      <defs>
       <path d="M 31.78125 34.625 
Q 24.75 34.625 20.71875 30.859375 
Q 16.703125 27.09375 16.703125 20.515625 
Q 16.703125 13.921875 20.71875 10.15625 
Q 24.75 6.390625 31.78125 6.390625 
Q 38.8125 6.390625 42.859375 10.171875 
Q 46.921875 13.96875 46.921875 20.515625 
Q 46.921875 27.09375 42.890625 30.859375 
Q 38.875 34.625 31.78125 34.625 
z
M 21.921875 38.8125 
Q 15.578125 40.375 12.03125 44.71875 
Q 8.5 49.078125 8.5 55.328125 
Q 8.5 64.0625 14.71875 69.140625 
Q 20.953125 74.21875 31.78125 74.21875 
Q 42.671875 74.21875 48.875 69.140625 
Q 55.078125 64.0625 55.078125 55.328125 
Q 55.078125 49.078125 51.53125 44.71875 
Q 48 40.375 41.703125 38.8125 
Q 48.828125 37.15625 52.796875 32.3125 
Q 56.78125 27.484375 56.78125 20.515625 
Q 56.78125 9.90625 50.3125 4.234375 
Q 43.84375 -1.421875 31.78125 -1.421875 
Q 19.734375 -1.421875 13.25 4.234375 
Q 6.78125 9.90625 6.78125 20.515625 
Q 6.78125 27.484375 10.78125 32.3125 
Q 14.796875 37.15625 21.921875 38.8125 
z
M 18.3125 54.390625 
Q 18.3125 48.734375 21.84375 45.5625 
Q 25.390625 42.390625 31.78125 42.390625 
Q 38.140625 42.390625 41.71875 45.5625 
Q 45.3125 48.734375 45.3125 54.390625 
Q 45.3125 60.0625 41.71875 63.234375 
Q 38.140625 66.40625 31.78125 66.40625 
Q 25.390625 66.40625 21.84375 63.234375 
Q 18.3125 60.0625 18.3125 54.390625 
z
" id="DejaVuSans-38"/>
      </defs>
      <g transform="translate(304.757528 266.598437)scale(0.1 -0.1)">
       <use xlink:href="#DejaVuSans-30"/>
       <use x="63.623047" xlink:href="#DejaVuSans-2e"/>
       <use x="95.410156" xlink:href="#DejaVuSans-38"/>
      </g>
     </g>
    </g>
    <g id="xtick_6">
     <g id="line2d_6">
      <g>
       <use style="stroke:#000000;stroke-width:0.8;" x="373.581818" xlink:href="#m0fd926753f" y="252"/>
      </g>
     </g>
     <g id="text_6">
      <!-- 1.0 -->
      <defs>
       <path d="M 12.40625 8.296875 
L 28.515625 8.296875 
L 28.515625 63.921875 
L 10.984375 60.40625 
L 10.984375 69.390625 
L 28.421875 72.90625 
L 38.28125 72.90625 
L 38.28125 8.296875 
L 54.390625 8.296875 
L 54.390625 0 
L 12.40625 0 
z
" id="DejaVuSans-31"/>
      </defs>
      <g transform="translate(365.630256 266.598437)scale(0.1 -0.1)">
       <use xlink:href="#DejaVuSans-31"/>
       <use x="63.623047" xlink:href="#DejaVuSans-2e"/>
       <use x="95.410156" xlink:href="#DejaVuSans-30"/>
      </g>
     </g>
    </g>
    <g id="text_7">
     <!-- $t$ -->
     <defs>
      <path d="M 42.28125 54.6875 
L 40.921875 47.703125 
L 23 47.703125 
L 17.1875 18.015625 
Q 16.890625 16.359375 16.75 15.234375 
Q 16.609375 14.109375 16.609375 13.484375 
Q 16.609375 10.359375 18.484375 8.9375 
Q 20.359375 7.515625 24.515625 7.515625 
L 33.59375 7.515625 
L 32.078125 0 
L 23.484375 0 
Q 15.484375 0 11.546875 3.125 
Q 7.625 6.25 7.625 12.59375 
Q 7.625 13.71875 7.765625 15.0625 
Q 7.90625 16.40625 8.203125 18.015625 
L 14.015625 47.703125 
L 6.390625 47.703125 
L 7.8125 54.6875 
L 15.28125 54.6875 
L 18.3125 70.21875 
L 27.296875 70.21875 
L 24.3125 54.6875 
z
" id="DejaVuSans-Oblique-74"/>
     </defs>
     <g transform="translate(219.4 280.276563)scale(0.1 -0.1)">
      <use transform="translate(0 0.78125)" xlink:href="#DejaVuSans-Oblique-74"/>
     </g>
    </g>
   </g>
   <g id="matplotlib.axis_2">
    <g id="ytick_1">
     <g id="line2d_7">
      <defs>
       <path d="M 0 0 
L -3.5 0 
" id="m9db51e9a11" style="stroke:#000000;stroke-width:0.8;"/>
      </defs>
      <g>
       <use style="stroke:#000000;stroke-width:0.8;" x="54" xlink:href="#m9db51e9a11" y="251.096718"/>
      </g>
     </g>
     <g id="text_8">
      <!-- 0.0 -->
      <g transform="translate(31.096875 254.895937)scale(0.1 -0.1)">
       <use xlink:href="#DejaVuSans-30"/>
       <use x="63.623047" xlink:href="#DejaVuSans-2e"/>
       <use x="95.410156" xlink:href="#DejaVuSans-30"/>
      </g>
     </g>
    </g>
    <g id="ytick_2">
     <g id="line2d_8">
      <g>
       <use style="stroke:#000000;stroke-width:0.8;" x="54" xlink:href="#m9db51e9a11" y="226.501304"/>
      </g>
     </g>
     <g id="text_9">
      <!-- 0.2 -->
      <g transform="translate(31.096875 230.300523)scale(0.1 -0.1)">
       <use xlink:href="#DejaVuSans-30"/>
       <use x="63.623047" xlink:href="#DejaVuSans-2e"/>
       <use x="95.410156" xlink:href="#DejaVuSans-32"/>
      </g>
     </g>
    </g>
    <g id="ytick_3">
     <g id="line2d_9">
      <g>
       <use style="stroke:#000000;stroke-width:0.8;" x="54" xlink:href="#m9db51e9a11" y="201.90589"/>
      </g>
     </g>
     <g id="text_10">
      <!-- 0.4 -->
      <g transform="translate(31.096875 205.705109)scale(0.1 -0.1)">
       <use xlink:href="#DejaVuSans-30"/>
       <use x="63.623047" xlink:href="#DejaVuSans-2e"/>
       <use x="95.410156" xlink:href="#DejaVuSans-34"/>
      </g>
     </g>
    </g>
    <g id="ytick_4">
     <g id="line2d_10">
      <g>
       <use style="stroke:#000000;stroke-width:0.8;" x="54" xlink:href="#m9db51e9a11" y="177.310476"/>
      </g>
     </g>
     <g id="text_11">
      <!-- 0.6 -->
      <g transform="translate(31.096875 181.109695)scale(0.1 -0.1)">
       <use xlink:href="#DejaVuSans-30"/>
       <use x="63.623047" xlink:href="#DejaVuSans-2e"/>
       <use x="95.410156" xlink:href="#DejaVuSans-36"/>
      </g>
     </g>
    </g>
    <g id="ytick_5">
     <g id="line2d_11">
      <g>
       <use style="stroke:#000000;stroke-width:0.8;" x="54" xlink:href="#m9db51e9a11" y="152.715062"/>
      </g>
     </g>
     <g id="text_12">
      <!-- 0.8 -->
      <g transform="translate(31.096875 156.514281)scale(0.1 -0.1)">
       <use xlink:href="#DejaVuSans-30"/>
       <use x="63.623047" xlink:href="#DejaVuSans-2e"/>
       <use x="95.410156" xlink:href="#DejaVuSans-38"/>
      </g>
     </g>
    </g>
    <g id="ytick_6">
     <g id="line2d_12">
      <g>
       <use style="stroke:#000000;stroke-width:0.8;" x="54" xlink:href="#m9db51e9a11" y="128.119648"/>
      </g>
     </g>
     <g id="text_13">
      <!-- 1.0 -->
      <g transform="translate(31.096875 131.918867)scale(0.1 -0.1)">
       <use xlink:href="#DejaVuSans-31"/>
       <use x="63.623047" xlink:href="#DejaVuSans-2e"/>
       <use x="95.410156" xlink:href="#DejaVuSans-30"/>
      </g>
     </g>
    </g>
    <g id="ytick_7">
     <g id="line2d_13">
      <g>
       <use style="stroke:#000000;stroke-width:0.8;" x="54" xlink:href="#m9db51e9a11" y="103.524234"/>
      </g>
     </g>
     <g id="text_14">
      <!-- 1.2 -->
      <g transform="translate(31.096875 107.323453)scale(0.1 -0.1)">
       <use xlink:href="#DejaVuSans-31"/>
       <use x="63.623047" xlink:href="#DejaVuSans-2e"/>
       <use x="95.410156" xlink:href="#DejaVuSans-32"/>
      </g>
     </g>
    </g>
    <g id="ytick_8">
     <g id="line2d_14">
      <g>
       <use style="stroke:#000000;stroke-width:0.8;" x="54" xlink:href="#m9db51e9a11" y="78.92882"/>
      </g>
     </g>
     <g id="text_15">
      <!-- 1.4 -->
      <g transform="translate(31.096875 82.728039)scale(0.1 -0.1)">
       <use xlink:href="#DejaVuSans-31"/>
       <use x="63.623047" xlink:href="#DejaVuSans-2e"/>
       <use x="95.410156" xlink:href="#DejaVuSans-34"/>
      </g>
     </g>
    </g>
    <g id="ytick_9">
     <g id="line2d_15">
      <g>
       <use style="stroke:#000000;stroke-width:0.8;" x="54" xlink:href="#m9db51e9a11" y="54.333406"/>
      </g>
     </g>
     <g id="text_16">
      <!-- 1.6 -->
      <g transform="translate(31.096875 58.132625)scale(0.1 -0.1)">
       <use xlink:href="#DejaVuSans-31"/>
       <use x="63.623047" xlink:href="#DejaVuSans-2e"/>
       <use x="95.410156" xlink:href="#DejaVuSans-36"/>
      </g>
     </g>
    </g>
    <g id="text_17">
     <!-- $S_t$ -->
     <defs>
      <path d="M 60.296875 70.515625 
L 58.40625 60.890625 
Q 53.46875 63.53125 48.609375 64.875 
Q 43.75 66.21875 39.203125 66.21875 
Q 30.375 66.21875 25.140625 62.359375 
Q 19.921875 58.5 19.921875 52.09375 
Q 19.921875 48.578125 21.84375 46.703125 
Q 23.78125 44.828125 31.78125 42.671875 
L 37.703125 41.21875 
Q 47.703125 38.625 51.609375 34.640625 
Q 55.515625 30.671875 55.515625 23.484375 
Q 55.515625 12.453125 46.84375 5.515625 
Q 38.1875 -1.421875 24.03125 -1.421875 
Q 18.21875 -1.421875 12.359375 -0.265625 
Q 6.5 0.875 0.59375 3.21875 
L 2.59375 13.375 
Q 8.015625 10.015625 13.453125 8.296875 
Q 18.890625 6.59375 24.3125 6.59375 
Q 33.546875 6.59375 39.109375 10.6875 
Q 44.671875 14.796875 44.671875 21.390625 
Q 44.671875 25.78125 42.453125 28.046875 
Q 40.234375 30.328125 32.90625 32.171875 
L 27 33.6875 
Q 16.890625 36.328125 13.203125 39.765625 
Q 9.515625 43.21875 9.515625 49.421875 
Q 9.515625 60.296875 17.890625 67.25 
Q 26.265625 74.21875 39.703125 74.21875 
Q 44.921875 74.21875 50.046875 73.28125 
Q 55.171875 72.359375 60.296875 70.515625 
z
" id="DejaVuSans-Oblique-53"/>
     </defs>
     <g transform="translate(25.017187 147.98)rotate(-90)scale(0.1 -0.1)">
      <use transform="translate(0 0.78125)" xlink:href="#DejaVuSans-Oblique-53"/>
      <use transform="translate(63.476562 -15.625)scale(0.7)" xlink:href="#DejaVuSans-Oblique-74"/>
     </g>
    </g>
   </g>
   <g id="line2d_16">
    <path clip-path="url(#pb6a0b34cea)" d="M 69.218182 128.119648 
L 69.522545 126.563486 
L 69.826909 122.709131 
L 70.435636 105.491633 
L 70.74 109.991447 
L 71.044364 105.752019 
L 71.653091 106.919832 
L 71.957455 105.047801 
L 72.261818 104.38254 
L 72.566182 97.635424 
L 72.870545 93.942205 
L 73.174909 93.337521 
L 73.783636 89.435189 
L 74.088 81.797178 
L 74.392364 82.895539 
L 74.696727 81.230335 
L 75.001091 85.818236 
L 75.305455 99.161602 
L 75.914182 91.782095 
L 76.218545 95.521101 
L 76.522909 84.354514 
L 76.827273 92.023168 
L 77.131636 91.792987 
L 77.436 92.735949 
L 78.044727 77.34516 
L 78.349091 76.493801 
L 78.653455 74.405803 
L 78.957818 79.366268 
L 79.262182 90.123169 
L 79.566545 91.894192 
L 79.870909 91.107064 
L 80.479636 78.562744 
L 81.088364 82.305163 
L 81.697091 95.230225 
L 82.001455 103.640313 
L 82.305818 94.543885 
L 82.914545 99.20078 
L 83.218909 105.218421 
L 83.523273 101.631799 
L 83.827636 109.25988 
L 84.132 110.214079 
L 84.436364 114.203472 
L 84.740727 112.528592 
L 85.045091 114.766894 
L 85.349455 119.85675 
L 85.653818 119.973711 
L 85.958182 118.197644 
L 86.262545 117.918097 
L 86.566909 116.644243 
L 86.871273 119.341229 
L 87.175636 120.85258 
L 87.48 123.622231 
L 87.784364 125.071624 
L 88.088727 128.312226 
L 88.393091 135.015013 
L 88.697455 134.363713 
L 89.001818 135.846856 
L 89.306182 141.788147 
L 89.610545 140.188475 
L 89.914909 143.370576 
L 90.219273 143.193619 
L 90.523636 140.70582 
L 90.828 140.255557 
L 91.132364 136.261838 
L 91.436727 140.745982 
L 91.741091 139.341972 
L 92.654182 146.719079 
L 92.958545 147.747424 
L 93.262909 147.563864 
L 93.567273 151.378561 
L 93.871636 148.537926 
L 94.176 147.027692 
L 94.480364 152.083396 
L 95.393455 137.111777 
L 95.697818 137.76032 
L 96.002182 141.59791 
L 96.306545 137.946706 
L 96.610909 139.38932 
L 96.915273 135.071035 
L 97.219636 134.306863 
L 97.524 130.699921 
L 97.828364 129.343134 
L 98.132727 126.622695 
L 98.437091 126.581365 
L 98.741455 119.549462 
L 99.045818 119.021522 
L 99.350182 117.342579 
L 99.654545 109.37746 
L 100.263273 120.868601 
L 100.567636 116.876456 
L 100.872 121.855682 
L 101.176364 113.912179 
L 101.480727 115.706523 
L 101.785091 118.906686 
L 102.698182 95.633919 
L 103.002545 91.179653 
L 103.306909 95.53489 
L 103.611273 86.138713 
L 103.915636 87.536734 
L 104.524364 78.36253 
L 104.828727 79.209247 
L 105.133091 75.871382 
L 105.437455 70.761332 
L 105.741818 68.614688 
L 106.046182 74.958877 
L 106.350545 73.2977 
L 106.654909 65.840097 
L 106.959273 69.909104 
L 107.263636 70.766459 
L 107.568 73.247941 
L 107.872364 62.847548 
L 108.176727 58.845403 
L 108.481091 56.368231 
L 108.785455 61.109263 
L 109.089818 57.869491 
L 109.394182 61.989921 
L 109.698545 61.799571 
L 110.002909 65.60581 
L 110.611636 58.183554 
L 110.916 59.45427 
L 111.220364 57.054364 
L 111.829091 72.595858 
L 112.133455 70.115627 
L 112.437818 69.161734 
L 112.742182 65.508214 
L 113.046545 51.521957 
L 113.350909 45.561245 
L 113.655273 51.494226 
L 113.959636 44.443636 
L 114.264 53.043018 
L 114.568364 55.933926 
L 114.872727 56.355085 
L 115.177091 45.803856 
L 115.785818 55.877577 
L 116.090182 56.485361 
L 116.394545 60.568507 
L 116.698909 53.780491 
L 117.307636 67.434259 
L 117.916364 72.829565 
L 118.220727 61.952209 
L 118.525091 56.273463 
L 118.829455 55.734073 
L 119.133818 63.304702 
L 119.438182 58.290448 
L 119.742545 64.388831 
L 120.046909 73.509502 
L 120.351273 66.837763 
L 120.655636 64.991009 
L 120.96 59.571589 
L 121.264364 57.641197 
L 121.568727 52.39945 
L 121.873091 56.490077 
L 122.177455 62.85481 
L 122.481818 58.797461 
L 123.090545 67.76967 
L 123.394909 70.410533 
L 123.699273 70.310661 
L 124.003636 72.334429 
L 124.308 80.106973 
L 124.612364 83.587128 
L 124.916727 95.364757 
L 125.221091 92.285694 
L 125.829818 105.596582 
L 126.134182 105.356564 
L 126.438545 108.764995 
L 126.742909 101.820003 
L 127.047273 107.922991 
L 127.351636 106.713905 
L 127.656 106.893262 
L 127.960364 112.219901 
L 128.264727 109.921842 
L 128.569091 110.687683 
L 129.177818 103.515138 
L 129.786545 86.75526 
L 130.395273 89.903388 
L 130.699636 84.298004 
L 131.308364 77.395298 
L 131.612727 86.27711 
L 131.917091 86.403899 
L 132.221455 90.247597 
L 132.525818 88.823761 
L 132.830182 89.327422 
L 133.134545 84.671316 
L 133.438909 83.001849 
L 133.743273 78.822024 
L 134.047636 81.362984 
L 134.352 86.432254 
L 134.656364 88.567443 
L 134.960727 88.654921 
L 135.265091 86.707272 
L 135.569455 74.962365 
L 135.873818 75.197732 
L 136.178182 80.515094 
L 136.786909 84.85481 
L 137.091273 82.323647 
L 137.395636 90.546993 
L 137.7 90.22581 
L 138.004364 89.429633 
L 138.308727 88.242639 
L 138.613091 91.318756 
L 138.917455 92.520885 
L 139.221818 99.661992 
L 139.830545 104.583489 
L 140.134909 102.655864 
L 140.439273 108.083114 
L 140.743636 104.550156 
L 141.048 97.624402 
L 141.352364 107.670496 
L 141.656727 105.737185 
L 141.961091 102.62566 
L 142.265455 105.61847 
L 142.569818 107.44609 
L 142.874182 108.049717 
L 143.482909 110.781457 
L 143.787273 118.218151 
L 144.396 108.674209 
L 144.700364 112.337435 
L 145.004727 118.772037 
L 145.309091 116.591655 
L 145.613455 119.040725 
L 145.917818 118.447932 
L 146.222182 119.787426 
L 146.830909 113.967967 
L 147.135273 117.114441 
L 147.744 129.388951 
L 148.048364 127.039761 
L 148.352727 131.703686 
L 148.961455 135.832515 
L 149.265818 136.024122 
L 149.570182 143.070079 
L 149.874545 142.425192 
L 150.178909 140.624843 
L 150.483273 140.315947 
L 150.787636 141.405042 
L 151.092 141.067185 
L 151.396364 139.678727 
L 151.700727 149.447531 
L 152.005091 143.160389 
L 152.309455 141.828905 
L 152.613818 144.083206 
L 152.918182 145.406217 
L 153.222545 143.75602 
L 153.526909 144.150124 
L 153.831273 151.017794 
L 154.135636 144.484142 
L 154.44 144.856817 
L 154.744364 141.429444 
L 155.048727 143.829462 
L 155.353091 138.617935 
L 155.657455 137.599441 
L 155.961818 135.414241 
L 156.266182 139.237988 
L 156.570545 134.953823 
L 156.874909 132.420286 
L 157.179273 127.534616 
L 157.788 131.831013 
L 158.092364 123.141762 
L 158.396727 127.430894 
L 158.701091 127.962547 
L 159.005455 123.535669 
L 159.309818 123.141463 
L 159.614182 120.782657 
L 159.918545 122.428743 
L 160.222909 120.923046 
L 160.527273 126.301302 
L 160.831636 119.757692 
L 161.136 120.248464 
L 161.440364 123.062895 
L 161.744727 120.364853 
L 162.049091 122.269517 
L 162.657818 132.959989 
L 162.962182 130.368183 
L 163.570909 131.485264 
L 163.875273 127.408756 
L 164.179636 131.816174 
L 164.484 134.572278 
L 164.788364 135.990493 
L 165.092727 135.647055 
L 165.397091 135.801016 
L 165.701455 136.846998 
L 166.005818 137.069648 
L 166.310182 137.456575 
L 166.918909 142.89766 
L 167.223273 141.958387 
L 167.832 148.914961 
L 168.136364 149.924062 
L 168.440727 150.428496 
L 168.745091 143.244422 
L 169.049455 145.647865 
L 169.658182 139.936599 
L 169.962545 144.115968 
L 170.266909 141.500031 
L 170.571273 145.603068 
L 170.875636 154.474072 
L 171.18 152.621477 
L 171.484364 158.089427 
L 171.788727 156.763161 
L 172.093091 158.803627 
L 172.701818 150.67795 
L 173.006182 152.117686 
L 173.310545 154.270612 
L 173.614909 157.988008 
L 174.223636 160.100198 
L 174.528 161.149627 
L 174.832364 160.703902 
L 175.136727 159.050215 
L 175.441091 158.032452 
L 175.745455 160.28129 
L 176.049818 164.410391 
L 176.354182 160.669852 
L 177.267273 165.893764 
L 177.571636 170.859646 
L 178.180364 173.271063 
L 178.789091 169.991653 
L 179.093455 169.981982 
L 179.397818 167.591722 
L 179.702182 166.69399 
L 180.006545 166.735847 
L 180.310909 166.306535 
L 180.615273 166.817734 
L 181.224 168.574698 
L 181.528364 171.518329 
L 181.832727 170.8126 
L 182.137091 173.333949 
L 182.441455 171.264315 
L 182.745818 171.894079 
L 183.050182 171.770113 
L 183.658909 168.892337 
L 183.963273 172.97522 
L 184.267636 173.486359 
L 184.572 171.326176 
L 184.876364 175.60976 
L 185.180727 174.68528 
L 185.485091 180.135494 
L 185.789455 182.42999 
L 186.093818 182.346106 
L 186.398182 185.947946 
L 186.702545 187.978281 
L 187.006909 190.916034 
L 187.311273 187.779501 
L 187.615636 187.450674 
L 187.92 186.308908 
L 188.224364 186.765119 
L 188.528727 187.48412 
L 188.833091 190.735831 
L 189.137455 191.292884 
L 189.441818 192.73299 
L 190.050545 188.986405 
L 190.354909 186.105897 
L 190.659273 184.353741 
L 190.963636 185.617259 
L 191.268 187.927882 
L 191.572364 186.396416 
L 191.876727 185.667439 
L 192.181091 189.326644 
L 192.485455 188.632266 
L 192.789818 187.023346 
L 193.094182 186.903952 
L 193.398545 187.279602 
L 193.702909 188.909497 
L 194.007273 191.754155 
L 194.311636 190.252334 
L 194.920364 191.291906 
L 195.224727 188.014994 
L 195.529091 186.649538 
L 195.833455 185.893797 
L 196.137818 185.60088 
L 197.050909 176.592584 
L 197.355273 175.220847 
L 197.659636 180.246649 
L 197.964 179.969453 
L 198.268364 180.262095 
L 198.572727 180.051641 
L 198.877091 177.932954 
L 199.181455 184.271584 
L 199.485818 185.474652 
L 199.790182 184.91456 
L 200.094545 185.891604 
L 200.398909 188.813217 
L 200.703273 187.101727 
L 201.007636 186.541421 
L 201.312 188.523851 
L 201.616364 187.900914 
L 201.920727 186.259035 
L 202.225091 186.248183 
L 202.529455 184.606472 
L 202.833818 184.441922 
L 203.138182 185.274989 
L 203.442545 187.688283 
L 203.746909 187.860588 
L 204.051273 187.47206 
L 204.355636 185.709894 
L 204.66 185.947903 
L 204.964364 185.005542 
L 205.573091 188.607358 
L 205.877455 188.825497 
L 206.181818 190.90226 
L 206.486182 189.340905 
L 206.790545 188.436462 
L 207.399273 187.205974 
L 207.703636 183.122652 
L 208.008 184.130489 
L 208.312364 188.792389 
L 208.616727 188.399721 
L 208.921091 188.50005 
L 209.225455 189.524469 
L 209.529818 191.430334 
L 209.834182 192.259004 
L 210.138545 191.921604 
L 210.442909 192.862515 
L 210.747273 188.419916 
L 211.356 191.847873 
L 211.660364 196.135862 
L 211.964727 195.698778 
L 212.269091 199.231193 
L 212.573455 200.11597 
L 212.877818 200.560393 
L 213.182182 201.694608 
L 213.486545 198.978086 
L 214.095273 195.096706 
L 214.399636 196.65936 
L 214.704 194.71653 
L 215.008364 193.832211 
L 215.617091 190.525654 
L 215.921455 192.266322 
L 216.225818 193.055714 
L 216.530182 191.47249 
L 216.834545 196.479616 
L 217.138909 193.86588 
L 217.443273 192.864823 
L 217.747636 192.948985 
L 218.052 192.543517 
L 218.356364 194.45056 
L 218.660727 195.077417 
L 219.269455 190.748845 
L 219.573818 185.603459 
L 219.878182 185.756563 
L 220.791273 190.183907 
L 221.095636 190.333873 
L 221.4 189.598457 
L 221.704364 189.665049 
L 222.008727 187.535242 
L 222.313091 188.006013 
L 222.617455 188.699213 
L 222.921818 189.846162 
L 223.530545 195.888285 
L 223.834909 197.946911 
L 224.748 191.718726 
L 225.052364 194.220215 
L 225.356727 197.76097 
L 225.661091 198.874237 
L 225.965455 198.583886 
L 226.269818 197.75576 
L 226.574182 195.988052 
L 226.878545 195.492641 
L 227.182909 192.42841 
L 227.487273 192.8414 
L 227.791636 194.52347 
L 228.096 197.531175 
L 228.400364 199.036996 
L 228.704727 198.638404 
L 229.009091 200.112682 
L 229.313455 198.602412 
L 229.617818 196.257926 
L 229.922182 200.367157 
L 230.226545 198.981036 
L 230.530909 202.671999 
L 230.835273 202.057174 
L 231.139636 200.157685 
L 231.444 200.053213 
L 231.748364 202.118807 
L 232.052727 203.025533 
L 232.661455 203.698018 
L 233.270182 204.16578 
L 233.574545 203.848957 
L 233.878909 205.654694 
L 234.183273 206.002477 
L 234.487636 203.837429 
L 235.096364 205.067501 
L 235.400727 203.498108 
L 235.705091 207.350193 
L 236.009455 205.71589 
L 236.313818 206.622715 
L 236.922545 206.255999 
L 237.226909 204.91959 
L 237.531273 205.310345 
L 237.835636 206.292054 
L 238.14 204.453204 
L 238.444364 207.940354 
L 238.748727 207.912603 
L 239.053091 209.753333 
L 239.357455 210.749008 
L 239.661818 208.182832 
L 239.966182 208.243351 
L 240.270545 207.979004 
L 240.574909 210.408168 
L 240.879273 211.346219 
L 241.183636 211.099142 
L 241.488 210.650432 
L 241.792364 209.861419 
L 242.096727 209.850169 
L 242.705455 208.561036 
L 243.009818 211.022213 
L 243.314182 210.975317 
L 243.922909 209.234457 
L 244.227273 209.716133 
L 244.836 212.196458 
L 245.140364 212.357672 
L 245.444727 210.969608 
L 245.749091 213.446312 
L 246.053455 214.231986 
L 246.357818 215.560728 
L 246.662182 214.678635 
L 247.270909 215.849505 
L 247.575273 216.09132 
L 247.879636 215.598284 
L 248.184 216.038764 
L 248.488364 219.415809 
L 249.097091 218.424092 
L 249.401455 218.650921 
L 249.705818 219.763171 
L 250.314545 219.034661 
L 250.618909 219.511224 
L 250.923273 219.7277 
L 251.227636 220.650392 
L 251.532 220.822337 
L 251.836364 222.306656 
L 252.140727 221.92672 
L 252.445091 222.79784 
L 252.749455 222.584764 
L 253.053818 223.852418 
L 253.358182 224.360777 
L 253.662545 224.454192 
L 253.966909 225.853349 
L 254.271273 225.76143 
L 254.575636 226.065193 
L 255.184364 228.419147 
L 255.488727 227.985199 
L 255.793091 227.330681 
L 256.097455 227.429817 
L 256.706182 226.957216 
L 257.010545 226.705596 
L 257.314909 225.713697 
L 257.619273 226.923337 
L 257.923636 226.40623 
L 258.532364 226.877478 
L 259.141091 227.393536 
L 259.445455 228.312644 
L 259.749818 228.180549 
L 260.054182 226.969662 
L 260.662909 227.013545 
L 260.967273 227.536976 
L 261.271636 227.624497 
L 261.576 227.278482 
L 262.184727 227.895151 
L 262.489091 227.599276 
L 262.793455 228.281404 
L 263.097818 228.099232 
L 263.402182 227.502657 
L 263.706545 226.487986 
L 264.010909 226.558321 
L 264.619636 224.659717 
L 265.228364 226.478696 
L 265.532727 226.716107 
L 265.837091 225.922816 
L 266.141455 225.980361 
L 266.445818 226.457433 
L 266.750182 225.247983 
L 267.054545 225.013465 
L 267.358909 226.927549 
L 267.663273 226.685144 
L 267.967636 226.283693 
L 268.272 226.106667 
L 268.576364 225.75128 
L 268.880727 225.805201 
L 269.185091 226.859638 
L 269.489455 227.143762 
L 270.402545 229.446151 
L 270.706909 229.136354 
L 271.011273 229.06837 
L 271.62 229.826478 
L 271.924364 229.842233 
L 272.228727 229.116878 
L 272.533091 230.509936 
L 272.837455 230.264585 
L 273.141818 230.624083 
L 273.750545 233.028749 
L 274.054909 233.550276 
L 274.663636 233.208866 
L 274.968 233.740013 
L 275.272364 233.181804 
L 275.576727 232.375656 
L 275.881091 232.141168 
L 276.185455 232.495671 
L 276.794182 231.374133 
L 277.098545 230.833146 
L 277.402909 231.253801 
L 277.707273 233.032451 
L 278.011636 231.82325 
L 278.316 232.805049 
L 278.620364 232.825739 
L 278.924727 231.450194 
L 279.229091 231.244814 
L 279.533455 230.648903 
L 280.142182 232.715236 
L 280.446545 233.024882 
L 280.750909 232.401538 
L 281.055273 232.606239 
L 281.359636 233.070879 
L 281.664 232.958032 
L 281.968364 232.337439 
L 282.577091 233.879913 
L 282.881455 234.309298 
L 283.185818 233.728193 
L 283.490182 233.59922 
L 283.794545 232.419458 
L 284.098909 231.866368 
L 284.403273 231.88771 
L 284.707636 231.119248 
L 285.012 230.985636 
L 285.316364 231.433944 
L 285.620727 231.011141 
L 285.925091 231.453421 
L 286.229455 231.633809 
L 286.533818 230.816597 
L 286.838182 230.88155 
L 287.142545 231.394966 
L 287.446909 231.68426 
L 287.751273 231.057007 
L 288.664364 231.96188 
L 288.968727 231.850587 
L 289.273091 232.085202 
L 289.577455 233.048221 
L 290.186182 234.072021 
L 290.794909 232.947938 
L 291.099273 232.610901 
L 291.403636 232.90632 
L 292.316727 234.240001 
L 292.621091 232.908853 
L 292.925455 234.200251 
L 293.229818 233.898894 
L 293.534182 234.597489 
L 293.838545 234.65193 
L 294.751636 236.312009 
L 295.056 235.491494 
L 295.360364 235.557122 
L 295.664727 235.933392 
L 295.969091 235.666888 
L 296.273455 235.661838 
L 296.577818 235.310394 
L 296.882182 236.221077 
L 297.186545 236.078259 
L 297.490909 235.711286 
L 297.795273 236.519704 
L 298.099636 236.313101 
L 298.404 235.520138 
L 298.708364 235.527457 
L 299.317091 234.784316 
L 299.621455 235.149278 
L 299.925818 235.129224 
L 300.230182 235.920457 
L 300.534545 236.137044 
L 300.838909 236.011356 
L 301.143273 235.666408 
L 301.447636 235.654398 
L 301.752 235.302809 
L 302.056364 235.853653 
L 302.665091 235.89341 
L 302.969455 235.004181 
L 303.273818 235.113168 
L 303.578182 235.365393 
L 303.882545 235.354772 
L 304.186909 235.81231 
L 304.491273 235.719145 
L 304.795636 235.896665 
L 305.1 236.757699 
L 305.404364 236.784264 
L 305.708727 236.927984 
L 306.013091 237.659399 
L 306.317455 237.687926 
L 306.621818 237.056404 
L 307.230545 236.548778 
L 307.534909 237.165929 
L 307.839273 236.95584 
L 308.143636 236.889458 
L 308.752364 236.45872 
L 309.056727 237.088154 
L 309.361091 237.106494 
L 309.665455 237.441784 
L 309.969818 237.46341 
L 310.274182 237.850301 
L 310.578545 237.300522 
L 311.187273 238.056801 
L 311.491636 238.026045 
L 311.796 238.471244 
L 312.100364 238.640791 
L 312.404727 238.967707 
L 313.013455 238.1116 
L 313.317818 238.135199 
L 313.622182 238.295551 
L 313.926545 237.914659 
L 314.535273 237.535473 
L 314.839636 237.546706 
L 315.144 238.270094 
L 315.448364 238.315712 
L 315.752727 238.530928 
L 316.057091 238.274606 
L 316.361455 237.864333 
L 316.665818 238.13965 
L 316.970182 237.947734 
L 317.274545 237.225943 
L 317.578909 237.518823 
L 317.883273 236.796655 
L 318.187636 237.182201 
L 319.100727 237.171945 
L 319.709455 237.794234 
L 320.013818 238.075118 
L 320.622545 237.803175 
L 321.231273 236.250532 
L 321.535636 236.489892 
L 321.84 236.339832 
L 322.144364 235.874523 
L 323.057455 235.868552 
L 323.361818 235.450909 
L 323.666182 235.870627 
L 323.970545 236.027434 
L 324.579273 235.652635 
L 324.883636 235.535627 
L 325.188 235.7176 
L 325.492364 235.244626 
L 325.796727 234.174946 
L 326.101091 233.957467 
L 326.405455 234.062167 
L 326.709818 233.655065 
L 327.318545 234.35887 
L 327.622909 234.341505 
L 327.927273 235.70999 
L 328.231636 236.271469 
L 328.536 236.434599 
L 329.144727 237.520408 
L 329.449091 237.707913 
L 329.753455 238.40353 
L 330.666545 238.768724 
L 330.970909 238.318771 
L 332.188364 238.107339 
L 332.492727 238.524975 
L 332.797091 238.570604 
L 333.101455 238.448304 
L 333.405818 238.996578 
L 334.014545 238.24024 
L 334.318909 238.496931 
L 334.623273 238.593089 
L 334.927636 238.940325 
L 335.232 238.67147 
L 335.536364 239.088447 
L 335.840727 239.172929 
L 336.145091 239.496796 
L 336.449455 239.478105 
L 336.753818 240.137328 
L 337.058182 239.677621 
L 337.362545 240.025944 
L 337.971273 240.079518 
L 338.58 240.646878 
L 338.884364 240.337442 
L 339.188727 240.516285 
L 339.493091 240.425556 
L 340.101818 240.90888 
L 340.406182 240.756737 
L 340.710545 240.452514 
L 341.014909 240.511525 
L 341.319273 240.987489 
L 341.623636 240.348778 
L 341.928 240.639902 
L 342.232364 241.149664 
L 342.536727 240.333579 
L 342.841091 240.471096 
L 343.145455 240.962255 
L 343.449818 241.181284 
L 344.058545 241.005672 
L 344.362909 241.277465 
L 344.667273 240.711487 
L 344.971636 240.882779 
L 345.276 241.265425 
L 345.884727 240.541003 
L 346.189091 240.813883 
L 346.493455 241.269562 
L 346.797818 240.949341 
L 347.102182 241.606303 
L 347.406545 241.974428 
L 347.710909 241.695347 
L 348.928364 241.731763 
L 349.232727 242.116364 
L 349.841455 241.362512 
L 350.450182 241.285323 
L 350.754545 240.559423 
L 351.363273 240.737275 
L 351.667636 240.617873 
L 352.276364 239.577967 
L 352.580727 239.672153 
L 352.885091 239.56076 
L 353.189455 240.063484 
L 353.493818 240.172333 
L 354.102545 240.801196 
L 354.406909 240.25372 
L 355.015636 240.703097 
L 355.32 240.582852 
L 355.624364 240.151354 
L 355.928727 239.984829 
L 356.233091 239.015222 
L 356.537455 239.043749 
L 357.146182 238.839236 
L 357.450545 238.282988 
L 357.754909 238.077452 
L 358.059273 238.125305 
L 358.363636 238.513957 
L 358.668 238.416692 
L 358.972364 237.854785 
L 359.276727 238.026631 
L 360.189818 237.338876 
L 360.494182 237.688993 
L 360.798545 236.69404 
L 361.102909 237.276637 
L 361.407273 237.436393 
L 361.711636 237.031159 
L 362.016 236.899174 
L 362.320364 236.526539 
L 362.624727 236.755118 
L 363.233455 236.783509 
L 363.537818 236.073225 
L 364.146545 235.358463 
L 364.450909 235.685904 
L 364.755273 235.213736 
L 365.059636 235.100435 
L 365.364 234.39774 
L 365.668364 233.334179 
L 366.277091 233.732496 
L 366.581455 234.206948 
L 366.885818 234.283634 
L 367.190182 234.486748 
L 367.494545 234.297917 
L 368.103273 234.565927 
L 368.407636 234.009415 
L 368.712 234.516197 
L 369.016364 234.289109 
L 369.320727 234.504868 
L 369.625091 234.124806 
L 369.929455 233.381338 
L 370.233818 233.551136 
L 370.538182 233.306434 
L 370.842545 233.205849 
L 371.146909 233.658129 
L 371.755636 233.364694 
L 372.06 233.133182 
L 372.364364 233.245884 
L 372.668727 233.192713 
L 372.973091 233.842461 
L 373.277455 234.037858 
L 373.581818 233.737945 
L 373.581818 233.737945 
" style="fill:none;stroke:#1f77b4;stroke-linecap:square;stroke-width:1.5;"/>
   </g>
   <g id="patch_3">
    <path d="M 54 252 
L 54 34.56 
" style="fill:none;stroke:#000000;stroke-linecap:square;stroke-linejoin:miter;stroke-width:0.8;"/>
   </g>
   <g id="patch_4">
    <path d="M 388.8 252 
L 388.8 34.56 
" style="fill:none;stroke:#000000;stroke-linecap:square;stroke-linejoin:miter;stroke-width:0.8;"/>
   </g>
   <g id="patch_5">
    <path d="M 54 252 
L 388.8 252 
" style="fill:none;stroke:#000000;stroke-linecap:square;stroke-linejoin:miter;stroke-width:0.8;"/>
   </g>
   <g id="patch_6">
    <path d="M 54 34.56 
L 388.8 34.56 
" style="fill:none;stroke:#000000;stroke-linecap:square;stroke-linejoin:miter;stroke-width:0.8;"/>
   </g>
   <g id="text_18">
    <!-- Simulated Geometric Brownian Motion Path -->
    <defs>
     <path d="M 53.515625 70.515625 
L 53.515625 60.890625 
Q 47.90625 63.578125 42.921875 64.890625 
Q 37.9375 66.21875 33.296875 66.21875 
Q 25.25 66.21875 20.875 63.09375 
Q 16.5 59.96875 16.5 54.203125 
Q 16.5 49.359375 19.40625 46.890625 
Q 22.3125 44.4375 30.421875 42.921875 
L 36.375 41.703125 
Q 47.40625 39.59375 52.65625 34.296875 
Q 57.90625 29 57.90625 20.125 
Q 57.90625 9.515625 50.796875 4.046875 
Q 43.703125 -1.421875 29.984375 -1.421875 
Q 24.8125 -1.421875 18.96875 -0.25 
Q 13.140625 0.921875 6.890625 3.21875 
L 6.890625 13.375 
Q 12.890625 10.015625 18.65625 8.296875 
Q 24.421875 6.59375 29.984375 6.59375 
Q 38.421875 6.59375 43.015625 9.90625 
Q 47.609375 13.234375 47.609375 19.390625 
Q 47.609375 24.75 44.3125 27.78125 
Q 41.015625 30.8125 33.5 32.328125 
L 27.484375 33.5 
Q 16.453125 35.6875 11.515625 40.375 
Q 6.59375 45.0625 6.59375 53.421875 
Q 6.59375 63.09375 13.40625 68.65625 
Q 20.21875 74.21875 32.171875 74.21875 
Q 37.3125 74.21875 42.625 73.28125 
Q 47.953125 72.359375 53.515625 70.515625 
z
" id="DejaVuSans-53"/>
     <path d="M 9.421875 54.6875 
L 18.40625 54.6875 
L 18.40625 0 
L 9.421875 0 
z
M 9.421875 75.984375 
L 18.40625 75.984375 
L 18.40625 64.59375 
L 9.421875 64.59375 
z
" id="DejaVuSans-69"/>
     <path d="M 52 44.1875 
Q 55.375 50.25 60.0625 53.125 
Q 64.75 56 71.09375 56 
Q 79.640625 56 84.28125 50.015625 
Q 88.921875 44.046875 88.921875 33.015625 
L 88.921875 0 
L 79.890625 0 
L 79.890625 32.71875 
Q 79.890625 40.578125 77.09375 44.375 
Q 74.3125 48.1875 68.609375 48.1875 
Q 61.625 48.1875 57.5625 43.546875 
Q 53.515625 38.921875 53.515625 30.90625 
L 53.515625 0 
L 44.484375 0 
L 44.484375 32.71875 
Q 44.484375 40.625 41.703125 44.40625 
Q 38.921875 48.1875 33.109375 48.1875 
Q 26.21875 48.1875 22.15625 43.53125 
Q 18.109375 38.875 18.109375 30.90625 
L 18.109375 0 
L 9.078125 0 
L 9.078125 54.6875 
L 18.109375 54.6875 
L 18.109375 46.1875 
Q 21.1875 51.21875 25.484375 53.609375 
Q 29.78125 56 35.6875 56 
Q 41.65625 56 45.828125 52.96875 
Q 50 49.953125 52 44.1875 
z
" id="DejaVuSans-6d"/>
     <path d="M 8.5 21.578125 
L 8.5 54.6875 
L 17.484375 54.6875 
L 17.484375 21.921875 
Q 17.484375 14.15625 20.5 10.265625 
Q 23.53125 6.390625 29.59375 6.390625 
Q 36.859375 6.390625 41.078125 11.03125 
Q 45.3125 15.671875 45.3125 23.6875 
L 45.3125 54.6875 
L 54.296875 54.6875 
L 54.296875 0 
L 45.3125 0 
L 45.3125 8.40625 
Q 42.046875 3.421875 37.71875 1 
Q 33.40625 -1.421875 27.6875 -1.421875 
Q 18.265625 -1.421875 13.375 4.4375 
Q 8.5 10.296875 8.5 21.578125 
z
M 31.109375 56 
z
" id="DejaVuSans-75"/>
     <path d="M 9.421875 75.984375 
L 18.40625 75.984375 
L 18.40625 0 
L 9.421875 0 
z
" id="DejaVuSans-6c"/>
     <path d="M 34.28125 27.484375 
Q 23.390625 27.484375 19.1875 25 
Q 14.984375 22.515625 14.984375 16.5 
Q 14.984375 11.71875 18.140625 8.90625 
Q 21.296875 6.109375 26.703125 6.109375 
Q 34.1875 6.109375 38.703125 11.40625 
Q 43.21875 16.703125 43.21875 25.484375 
L 43.21875 27.484375 
z
M 52.203125 31.203125 
L 52.203125 0 
L 43.21875 0 
L 43.21875 8.296875 
Q 40.140625 3.328125 35.546875 0.953125 
Q 30.953125 -1.421875 24.3125 -1.421875 
Q 15.921875 -1.421875 10.953125 3.296875 
Q 6 8.015625 6 15.921875 
Q 6 25.140625 12.171875 29.828125 
Q 18.359375 34.515625 30.609375 34.515625 
L 43.21875 34.515625 
L 43.21875 35.40625 
Q 43.21875 41.609375 39.140625 45 
Q 35.0625 48.390625 27.6875 48.390625 
Q 23 48.390625 18.546875 47.265625 
Q 14.109375 46.140625 10.015625 43.890625 
L 10.015625 52.203125 
Q 14.9375 54.109375 19.578125 55.046875 
Q 24.21875 56 28.609375 56 
Q 40.484375 56 46.34375 49.84375 
Q 52.203125 43.703125 52.203125 31.203125 
z
" id="DejaVuSans-61"/>
     <path d="M 18.3125 70.21875 
L 18.3125 54.6875 
L 36.8125 54.6875 
L 36.8125 47.703125 
L 18.3125 47.703125 
L 18.3125 18.015625 
Q 18.3125 11.328125 20.140625 9.421875 
Q 21.96875 7.515625 27.59375 7.515625 
L 36.8125 7.515625 
L 36.8125 0 
L 27.59375 0 
Q 17.1875 0 13.234375 3.875 
Q 9.28125 7.765625 9.28125 18.015625 
L 9.28125 47.703125 
L 2.6875 47.703125 
L 2.6875 54.6875 
L 9.28125 54.6875 
L 9.28125 70.21875 
z
" id="DejaVuSans-74"/>
     <path d="M 56.203125 29.59375 
L 56.203125 25.203125 
L 14.890625 25.203125 
Q 15.484375 15.921875 20.484375 11.0625 
Q 25.484375 6.203125 34.421875 6.203125 
Q 39.59375 6.203125 44.453125 7.46875 
Q 49.3125 8.734375 54.109375 11.28125 
L 54.109375 2.78125 
Q 49.265625 0.734375 44.1875 -0.34375 
Q 39.109375 -1.421875 33.890625 -1.421875 
Q 20.796875 -1.421875 13.15625 6.1875 
Q 5.515625 13.8125 5.515625 26.8125 
Q 5.515625 40.234375 12.765625 48.109375 
Q 20.015625 56 32.328125 56 
Q 43.359375 56 49.78125 48.890625 
Q 56.203125 41.796875 56.203125 29.59375 
z
M 47.21875 32.234375 
Q 47.125 39.59375 43.09375 43.984375 
Q 39.0625 48.390625 32.421875 48.390625 
Q 24.90625 48.390625 20.390625 44.140625 
Q 15.875 39.890625 15.1875 32.171875 
z
" id="DejaVuSans-65"/>
     <path d="M 45.40625 46.390625 
L 45.40625 75.984375 
L 54.390625 75.984375 
L 54.390625 0 
L 45.40625 0 
L 45.40625 8.203125 
Q 42.578125 3.328125 38.25 0.953125 
Q 33.9375 -1.421875 27.875 -1.421875 
Q 17.96875 -1.421875 11.734375 6.484375 
Q 5.515625 14.40625 5.515625 27.296875 
Q 5.515625 40.1875 11.734375 48.09375 
Q 17.96875 56 27.875 56 
Q 33.9375 56 38.25 53.625 
Q 42.578125 51.265625 45.40625 46.390625 
z
M 14.796875 27.296875 
Q 14.796875 17.390625 18.875 11.75 
Q 22.953125 6.109375 30.078125 6.109375 
Q 37.203125 6.109375 41.296875 11.75 
Q 45.40625 17.390625 45.40625 27.296875 
Q 45.40625 37.203125 41.296875 42.84375 
Q 37.203125 48.484375 30.078125 48.484375 
Q 22.953125 48.484375 18.875 42.84375 
Q 14.796875 37.203125 14.796875 27.296875 
z
" id="DejaVuSans-64"/>
     <path id="DejaVuSans-20"/>
     <path d="M 59.515625 10.40625 
L 59.515625 29.984375 
L 43.40625 29.984375 
L 43.40625 38.09375 
L 69.28125 38.09375 
L 69.28125 6.78125 
Q 63.578125 2.734375 56.6875 0.65625 
Q 49.8125 -1.421875 42 -1.421875 
Q 24.90625 -1.421875 15.25 8.5625 
Q 5.609375 18.5625 5.609375 36.375 
Q 5.609375 54.25 15.25 64.234375 
Q 24.90625 74.21875 42 74.21875 
Q 49.125 74.21875 55.546875 72.453125 
Q 61.96875 70.703125 67.390625 67.28125 
L 67.390625 56.78125 
Q 61.921875 61.421875 55.765625 63.765625 
Q 49.609375 66.109375 42.828125 66.109375 
Q 29.4375 66.109375 22.71875 58.640625 
Q 16.015625 51.171875 16.015625 36.375 
Q 16.015625 21.625 22.71875 14.15625 
Q 29.4375 6.6875 42.828125 6.6875 
Q 48.046875 6.6875 52.140625 7.59375 
Q 56.25 8.5 59.515625 10.40625 
z
" id="DejaVuSans-47"/>
     <path d="M 30.609375 48.390625 
Q 23.390625 48.390625 19.1875 42.75 
Q 14.984375 37.109375 14.984375 27.296875 
Q 14.984375 17.484375 19.15625 11.84375 
Q 23.34375 6.203125 30.609375 6.203125 
Q 37.796875 6.203125 41.984375 11.859375 
Q 46.1875 17.53125 46.1875 27.296875 
Q 46.1875 37.015625 41.984375 42.703125 
Q 37.796875 48.390625 30.609375 48.390625 
z
M 30.609375 56 
Q 42.328125 56 49.015625 48.375 
Q 55.71875 40.765625 55.71875 27.296875 
Q 55.71875 13.875 49.015625 6.21875 
Q 42.328125 -1.421875 30.609375 -1.421875 
Q 18.84375 -1.421875 12.171875 6.21875 
Q 5.515625 13.875 5.515625 27.296875 
Q 5.515625 40.765625 12.171875 48.375 
Q 18.84375 56 30.609375 56 
z
" id="DejaVuSans-6f"/>
     <path d="M 41.109375 46.296875 
Q 39.59375 47.171875 37.8125 47.578125 
Q 36.03125 48 33.890625 48 
Q 26.265625 48 22.1875 43.046875 
Q 18.109375 38.09375 18.109375 28.8125 
L 18.109375 0 
L 9.078125 0 
L 9.078125 54.6875 
L 18.109375 54.6875 
L 18.109375 46.1875 
Q 20.953125 51.171875 25.484375 53.578125 
Q 30.03125 56 36.53125 56 
Q 37.453125 56 38.578125 55.875 
Q 39.703125 55.765625 41.0625 55.515625 
z
" id="DejaVuSans-72"/>
     <path d="M 48.78125 52.59375 
L 48.78125 44.1875 
Q 44.96875 46.296875 41.140625 47.34375 
Q 37.3125 48.390625 33.40625 48.390625 
Q 24.65625 48.390625 19.8125 42.84375 
Q 14.984375 37.3125 14.984375 27.296875 
Q 14.984375 17.28125 19.8125 11.734375 
Q 24.65625 6.203125 33.40625 6.203125 
Q 37.3125 6.203125 41.140625 7.25 
Q 44.96875 8.296875 48.78125 10.40625 
L 48.78125 2.09375 
Q 45.015625 0.34375 40.984375 -0.53125 
Q 36.96875 -1.421875 32.421875 -1.421875 
Q 20.0625 -1.421875 12.78125 6.34375 
Q 5.515625 14.109375 5.515625 27.296875 
Q 5.515625 40.671875 12.859375 48.328125 
Q 20.21875 56 33.015625 56 
Q 37.15625 56 41.109375 55.140625 
Q 45.0625 54.296875 48.78125 52.59375 
z
" id="DejaVuSans-63"/>
     <path d="M 19.671875 34.8125 
L 19.671875 8.109375 
L 35.5 8.109375 
Q 43.453125 8.109375 47.28125 11.40625 
Q 51.125 14.703125 51.125 21.484375 
Q 51.125 28.328125 47.28125 31.5625 
Q 43.453125 34.8125 35.5 34.8125 
z
M 19.671875 64.796875 
L 19.671875 42.828125 
L 34.28125 42.828125 
Q 41.5 42.828125 45.03125 45.53125 
Q 48.578125 48.25 48.578125 53.8125 
Q 48.578125 59.328125 45.03125 62.0625 
Q 41.5 64.796875 34.28125 64.796875 
z
M 9.8125 72.90625 
L 35.015625 72.90625 
Q 46.296875 72.90625 52.390625 68.21875 
Q 58.5 63.53125 58.5 54.890625 
Q 58.5 48.1875 55.375 44.234375 
Q 52.25 40.28125 46.1875 39.3125 
Q 53.46875 37.75 57.5 32.78125 
Q 61.53125 27.828125 61.53125 20.40625 
Q 61.53125 10.640625 54.890625 5.3125 
Q 48.25 0 35.984375 0 
L 9.8125 0 
z
" id="DejaVuSans-42"/>
     <path d="M 4.203125 54.6875 
L 13.1875 54.6875 
L 24.421875 12.015625 
L 35.59375 54.6875 
L 46.1875 54.6875 
L 57.421875 12.015625 
L 68.609375 54.6875 
L 77.59375 54.6875 
L 63.28125 0 
L 52.6875 0 
L 40.921875 44.828125 
L 29.109375 0 
L 18.5 0 
z
" id="DejaVuSans-77"/>
     <path d="M 54.890625 33.015625 
L 54.890625 0 
L 45.90625 0 
L 45.90625 32.71875 
Q 45.90625 40.484375 42.875 44.328125 
Q 39.84375 48.1875 33.796875 48.1875 
Q 26.515625 48.1875 22.3125 43.546875 
Q 18.109375 38.921875 18.109375 30.90625 
L 18.109375 0 
L 9.078125 0 
L 9.078125 54.6875 
L 18.109375 54.6875 
L 18.109375 46.1875 
Q 21.34375 51.125 25.703125 53.5625 
Q 30.078125 56 35.796875 56 
Q 45.21875 56 50.046875 50.171875 
Q 54.890625 44.34375 54.890625 33.015625 
z
" id="DejaVuSans-6e"/>
     <path d="M 9.8125 72.90625 
L 24.515625 72.90625 
L 43.109375 23.296875 
L 61.8125 72.90625 
L 76.515625 72.90625 
L 76.515625 0 
L 66.890625 0 
L 66.890625 64.015625 
L 48.09375 14.015625 
L 38.1875 14.015625 
L 19.390625 64.015625 
L 19.390625 0 
L 9.8125 0 
z
" id="DejaVuSans-4d"/>
     <path d="M 19.671875 64.796875 
L 19.671875 37.40625 
L 32.078125 37.40625 
Q 38.96875 37.40625 42.71875 40.96875 
Q 46.484375 44.53125 46.484375 51.125 
Q 46.484375 57.671875 42.71875 61.234375 
Q 38.96875 64.796875 32.078125 64.796875 
z
M 9.8125 72.90625 
L 32.078125 72.90625 
Q 44.34375 72.90625 50.609375 67.359375 
Q 56.890625 61.8125 56.890625 51.125 
Q 56.890625 40.328125 50.609375 34.8125 
Q 44.34375 29.296875 32.078125 29.296875 
L 19.671875 29.296875 
L 19.671875 0 
L 9.8125 0 
z
" id="DejaVuSans-50"/>
     <path d="M 54.890625 33.015625 
L 54.890625 0 
L 45.90625 0 
L 45.90625 32.71875 
Q 45.90625 40.484375 42.875 44.328125 
Q 39.84375 48.1875 33.796875 48.1875 
Q 26.515625 48.1875 22.3125 43.546875 
Q 18.109375 38.921875 18.109375 30.90625 
L 18.109375 0 
L 9.078125 0 
L 9.078125 75.984375 
L 18.109375 75.984375 
L 18.109375 46.1875 
Q 21.34375 51.125 25.703125 53.5625 
Q 30.078125 56 35.796875 56 
Q 45.21875 56 50.046875 50.171875 
Q 54.890625 44.34375 54.890625 33.015625 
z
" id="DejaVuSans-68"/>
    </defs>
    <g transform="translate(90.225 28.56)scale(0.12 -0.12)">
     <use xlink:href="#DejaVuSans-53"/>
     <use x="63.476562" xlink:href="#DejaVuSans-69"/>
     <use x="91.259766" xlink:href="#DejaVuSans-6d"/>
     <use x="188.671875" xlink:href="#DejaVuSans-75"/>
     <use x="252.050781" xlink:href="#DejaVuSans-6c"/>
     <use x="279.833984" xlink:href="#DejaVuSans-61"/>
     <use x="341.113281" xlink:href="#DejaVuSans-74"/>
     <use x="380.322266" xlink:href="#DejaVuSans-65"/>
     <use x="441.845703" xlink:href="#DejaVuSans-64"/>
     <use x="505.322266" xlink:href="#DejaVuSans-20"/>
     <use x="537.109375" xlink:href="#DejaVuSans-47"/>
     <use x="614.599609" xlink:href="#DejaVuSans-65"/>
     <use x="676.123047" xlink:href="#DejaVuSans-6f"/>
     <use x="737.304688" xlink:href="#DejaVuSans-6d"/>
     <use x="834.716797" xlink:href="#DejaVuSans-65"/>
     <use x="896.240234" xlink:href="#DejaVuSans-74"/>
     <use x="935.449219" xlink:href="#DejaVuSans-72"/>
     <use x="976.5625" xlink:href="#DejaVuSans-69"/>
     <use x="1004.345703" xlink:href="#DejaVuSans-63"/>
     <use x="1059.326172" xlink:href="#DejaVuSans-20"/>
     <use x="1091.113281" xlink:href="#DejaVuSans-42"/>
     <use x="1159.716797" xlink:href="#DejaVuSans-72"/>
     <use x="1200.798828" xlink:href="#DejaVuSans-6f"/>
     <use x="1261.980469" xlink:href="#DejaVuSans-77"/>
     <use x="1343.767578" xlink:href="#DejaVuSans-6e"/>
     <use x="1407.146484" xlink:href="#DejaVuSans-69"/>
     <use x="1434.929688" xlink:href="#DejaVuSans-61"/>
     <use x="1496.208984" xlink:href="#DejaVuSans-6e"/>
     <use x="1559.587891" xlink:href="#DejaVuSans-20"/>
     <use x="1591.375" xlink:href="#DejaVuSans-4d"/>
     <use x="1677.654297" xlink:href="#DejaVuSans-6f"/>
     <use x="1738.835938" xlink:href="#DejaVuSans-74"/>
     <use x="1778.044922" xlink:href="#DejaVuSans-69"/>
     <use x="1805.828125" xlink:href="#DejaVuSans-6f"/>
     <use x="1867.009766" xlink:href="#DejaVuSans-6e"/>
     <use x="1930.388672" xlink:href="#DejaVuSans-20"/>
     <use x="1962.175781" xlink:href="#DejaVuSans-50"/>
     <use x="2022.416016" xlink:href="#DejaVuSans-61"/>
     <use x="2083.695312" xlink:href="#DejaVuSans-74"/>
     <use x="2122.904297" xlink:href="#DejaVuSans-68"/>
    </g>
   </g>
  </g>
 </g>
 <defs>
  <clipPath id="pb6a0b34cea">
   <rect height="217.44" width="334.8" x="54" y="34.56"/>
  </clipPath>
 </defs>
</svg>
