<?xml version="1.0" encoding="utf-8" standalone="no"?>
<!DOCTYPE svg PUBLIC "-//W3C//DTD SVG 1.1//EN"
  "http://www.w3.org/Graphics/SVG/1.1/DTD/svg11.dtd">
<!-- Created with matplotlib (http://matplotlib.org/) -->
<svg height="288pt" version="1.1" viewBox="0 0 432 288" width="432pt" xmlns="http://www.w3.org/2000/svg" xmlns:xlink="http://www.w3.org/1999/xlink">
 <defs>
  <style type="text/css">
*{stroke-linecap:butt;stroke-linejoin:round;}
  </style>
 </defs>
 <g id="figure_1">
  <g id="patch_1">
   <path d="M 0 288 
L 432 288 
L 432 0 
L 0 0 
z
" style="fill:#ffffff;"/>
  </g>
  <g id="axes_1">
   <g id="patch_2">
    <path d="M 54 252 
L 388.8 252 
L 388.8 34.56 
L 54 34.56 
z
" style="fill:#ffffff;"/>
   </g>
   <g id="matplotlib.axis_1">
    <g id="xtick_1">
     <g id="line2d_1">
      <defs>
       <path d="M 0 0 
L 0 3.5 
" id="m8640269e4d" style="stroke:#000000;stroke-width:0.8;"/>
      </defs>
      <g>
       <use style="stroke:#000000;stroke-width:0.8;" x="69.218182" xlink:href="#m8640269e4d" y="252"/>
      </g>
     </g>
     <g id="text_1">
      <!-- 0.0 -->
      <defs>
       <path d="M 31.78125 66.40625 
Q 24.171875 66.40625 20.328125 58.90625 
Q 16.5 51.421875 16.5 36.375 
Q 16.5 21.390625 20.328125 13.890625 
Q 24.171875 6.390625 31.78125 6.390625 
Q 39.453125 6.390625 43.28125 13.890625 
Q 47.125 21.390625 47.125 36.375 
Q 47.125 51.421875 43.28125 58.90625 
Q 39.453125 66.40625 31.78125 66.40625 
z
M 31.78125 74.21875 
Q 44.046875 74.21875 50.515625 64.515625 
Q 56.984375 54.828125 56.984375 36.375 
Q 56.984375 17.96875 50.515625 8.265625 
Q 44.046875 -1.421875 31.78125 -1.421875 
Q 19.53125 -1.421875 13.0625 8.265625 
Q 6.59375 17.96875 6.59375 36.375 
Q 6.59375 54.828125 13.0625 64.515625 
Q 19.53125 74.21875 31.78125 74.21875 
z
" id="DejaVuSans-30"/>
       <path d="M 10.6875 12.40625 
L 21 12.40625 
L 21 0 
L 10.6875 0 
z
" id="DejaVuSans-2e"/>
      </defs>
      <g transform="translate(61.266619 266.598437)scale(0.1 -0.1)">
       <use xlink:href="#DejaVuSans-30"/>
       <use x="63.623047" xlink:href="#DejaVuSans-2e"/>
       <use x="95.410156" xlink:href="#DejaVuSans-30"/>
      </g>
     </g>
    </g>
    <g id="xtick_2">
     <g id="line2d_2">
      <g>
       <use style="stroke:#000000;stroke-width:0.8;" x="130.090909" xlink:href="#m8640269e4d" y="252"/>
      </g>
     </g>
     <g id="text_2">
      <!-- 0.2 -->
      <defs>
       <path d="M 19.1875 8.296875 
L 53.609375 8.296875 
L 53.609375 0 
L 7.328125 0 
L 7.328125 8.296875 
Q 12.9375 14.109375 22.625 23.890625 
Q 32.328125 33.6875 34.8125 36.53125 
Q 39.546875 41.84375 41.421875 45.53125 
Q 43.3125 49.21875 43.3125 52.78125 
Q 43.3125 58.59375 39.234375 62.25 
Q 35.15625 65.921875 28.609375 65.921875 
Q 23.96875 65.921875 18.8125 64.3125 
Q 13.671875 62.703125 7.8125 59.421875 
L 7.8125 69.390625 
Q 13.765625 71.78125 18.9375 73 
Q 24.125 74.21875 28.421875 74.21875 
Q 39.75 74.21875 46.484375 68.546875 
Q 53.21875 62.890625 53.21875 53.421875 
Q 53.21875 48.921875 51.53125 44.890625 
Q 49.859375 40.875 45.40625 35.40625 
Q 44.1875 33.984375 37.640625 27.21875 
Q 31.109375 20.453125 19.1875 8.296875 
z
" id="DejaVuSans-32"/>
      </defs>
      <g transform="translate(122.139347 266.598437)scale(0.1 -0.1)">
       <use xlink:href="#DejaVuSans-30"/>
       <use x="63.623047" xlink:href="#DejaVuSans-2e"/>
       <use x="95.410156" xlink:href="#DejaVuSans-32"/>
      </g>
     </g>
    </g>
    <g id="xtick_3">
     <g id="line2d_3">
      <g>
       <use style="stroke:#000000;stroke-width:0.8;" x="190.963636" xlink:href="#m8640269e4d" y="252"/>
      </g>
     </g>
     <g id="text_3">
      <!-- 0.4 -->
      <defs>
       <path d="M 37.796875 64.3125 
L 12.890625 25.390625 
L 37.796875 25.390625 
z
M 35.203125 72.90625 
L 47.609375 72.90625 
L 47.609375 25.390625 
L 58.015625 25.390625 
L 58.015625 17.1875 
L 47.609375 17.1875 
L 47.609375 0 
L 37.796875 0 
L 37.796875 17.1875 
L 4.890625 17.1875 
L 4.890625 26.703125 
z
" id="DejaVuSans-34"/>
      </defs>
      <g transform="translate(183.012074 266.598437)scale(0.1 -0.1)">
       <use xlink:href="#DejaVuSans-30"/>
       <use x="63.623047" xlink:href="#DejaVuSans-2e"/>
       <use x="95.410156" xlink:href="#DejaVuSans-34"/>
      </g>
     </g>
    </g>
    <g id="xtick_4">
     <g id="line2d_4">
      <g>
       <use style="stroke:#000000;stroke-width:0.8;" x="251.836364" xlink:href="#m8640269e4d" y="252"/>
      </g>
     </g>
     <g id="text_4">
      <!-- 0.6 -->
      <defs>
       <path d="M 33.015625 40.375 
Q 26.375 40.375 22.484375 35.828125 
Q 18.609375 31.296875 18.609375 23.390625 
Q 18.609375 15.53125 22.484375 10.953125 
Q 26.375 6.390625 33.015625 6.390625 
Q 39.65625 6.390625 43.53125 10.953125 
Q 47.40625 15.53125 47.40625 23.390625 
Q 47.40625 31.296875 43.53125 35.828125 
Q 39.65625 40.375 33.015625 40.375 
z
M 52.59375 71.296875 
L 52.59375 62.3125 
Q 48.875 64.0625 45.09375 64.984375 
Q 41.3125 65.921875 37.59375 65.921875 
Q 27.828125 65.921875 22.671875 59.328125 
Q 17.53125 52.734375 16.796875 39.40625 
Q 19.671875 43.65625 24.015625 45.921875 
Q 28.375 48.1875 33.59375 48.1875 
Q 44.578125 48.1875 50.953125 41.515625 
Q 57.328125 34.859375 57.328125 23.390625 
Q 57.328125 12.15625 50.6875 5.359375 
Q 44.046875 -1.421875 33.015625 -1.421875 
Q 20.359375 -1.421875 13.671875 8.265625 
Q 6.984375 17.96875 6.984375 36.375 
Q 6.984375 53.65625 15.1875 63.9375 
Q 23.390625 74.21875 37.203125 74.21875 
Q 40.921875 74.21875 44.703125 73.484375 
Q 48.484375 72.75 52.59375 71.296875 
z
" id="DejaVuSans-36"/>
      </defs>
      <g transform="translate(243.884801 266.598437)scale(0.1 -0.1)">
       <use xlink:href="#DejaVuSans-30"/>
       <use x="63.623047" xlink:href="#DejaVuSans-2e"/>
       <use x="95.410156" xlink:href="#DejaVuSans-36"/>
      </g>
     </g>
    </g>
    <g id="xtick_5">
     <g id="line2d_5">
      <g>
       <use style="stroke:#000000;stroke-width:0.8;" x="312.709091" xlink:href="#m8640269e4d" y="252"/>
      </g>
     </g>
     <g id="text_5">
      <!-- 0.8 -->
      <defs>
       <path d="M 31.78125 34.625 
Q 24.75 34.625 20.71875 30.859375 
Q 16.703125 27.09375 16.703125 20.515625 
Q 16.703125 13.921875 20.71875 10.15625 
Q 24.75 6.390625 31.78125 6.390625 
Q 38.8125 6.390625 42.859375 10.171875 
Q 46.921875 13.96875 46.921875 20.515625 
Q 46.921875 27.09375 42.890625 30.859375 
Q 38.875 34.625 31.78125 34.625 
z
M 21.921875 38.8125 
Q 15.578125 40.375 12.03125 44.71875 
Q 8.5 49.078125 8.5 55.328125 
Q 8.5 64.0625 14.71875 69.140625 
Q 20.953125 74.21875 31.78125 74.21875 
Q 42.671875 74.21875 48.875 69.140625 
Q 55.078125 64.0625 55.078125 55.328125 
Q 55.078125 49.078125 51.53125 44.71875 
Q 48 40.375 41.703125 38.8125 
Q 48.828125 37.15625 52.796875 32.3125 
Q 56.78125 27.484375 56.78125 20.515625 
Q 56.78125 9.90625 50.3125 4.234375 
Q 43.84375 -1.421875 31.78125 -1.421875 
Q 19.734375 -1.421875 13.25 4.234375 
Q 6.78125 9.90625 6.78125 20.515625 
Q 6.78125 27.484375 10.78125 32.3125 
Q 14.796875 37.15625 21.921875 38.8125 
z
M 18.3125 54.390625 
Q 18.3125 48.734375 21.84375 45.5625 
Q 25.390625 42.390625 31.78125 42.390625 
Q 38.140625 42.390625 41.71875 45.5625 
Q 45.3125 48.734375 45.3125 54.390625 
Q 45.3125 60.0625 41.71875 63.234375 
Q 38.140625 66.40625 31.78125 66.40625 
Q 25.390625 66.40625 21.84375 63.234375 
Q 18.3125 60.0625 18.3125 54.390625 
z
" id="DejaVuSans-38"/>
      </defs>
      <g transform="translate(304.757528 266.598437)scale(0.1 -0.1)">
       <use xlink:href="#DejaVuSans-30"/>
       <use x="63.623047" xlink:href="#DejaVuSans-2e"/>
       <use x="95.410156" xlink:href="#DejaVuSans-38"/>
      </g>
     </g>
    </g>
    <g id="xtick_6">
     <g id="line2d_6">
      <g>
       <use style="stroke:#000000;stroke-width:0.8;" x="373.581818" xlink:href="#m8640269e4d" y="252"/>
      </g>
     </g>
     <g id="text_6">
      <!-- 1.0 -->
      <defs>
       <path d="M 12.40625 8.296875 
L 28.515625 8.296875 
L 28.515625 63.921875 
L 10.984375 60.40625 
L 10.984375 69.390625 
L 28.421875 72.90625 
L 38.28125 72.90625 
L 38.28125 8.296875 
L 54.390625 8.296875 
L 54.390625 0 
L 12.40625 0 
z
" id="DejaVuSans-31"/>
      </defs>
      <g transform="translate(365.630256 266.598437)scale(0.1 -0.1)">
       <use xlink:href="#DejaVuSans-31"/>
       <use x="63.623047" xlink:href="#DejaVuSans-2e"/>
       <use x="95.410156" xlink:href="#DejaVuSans-30"/>
      </g>
     </g>
    </g>
    <g id="text_7">
     <!-- $t$ -->
     <defs>
      <path d="M 42.28125 54.6875 
L 40.921875 47.703125 
L 23 47.703125 
L 17.1875 18.015625 
Q 16.890625 16.359375 16.75 15.234375 
Q 16.609375 14.109375 16.609375 13.484375 
Q 16.609375 10.359375 18.484375 8.9375 
Q 20.359375 7.515625 24.515625 7.515625 
L 33.59375 7.515625 
L 32.078125 0 
L 23.484375 0 
Q 15.484375 0 11.546875 3.125 
Q 7.625 6.25 7.625 12.59375 
Q 7.625 13.71875 7.765625 15.0625 
Q 7.90625 16.40625 8.203125 18.015625 
L 14.015625 47.703125 
L 6.390625 47.703125 
L 7.8125 54.6875 
L 15.28125 54.6875 
L 18.3125 70.21875 
L 27.296875 70.21875 
L 24.3125 54.6875 
z
" id="DejaVuSans-Oblique-74"/>
     </defs>
     <g transform="translate(219.4 280.276563)scale(0.1 -0.1)">
      <use transform="translate(0 0.78125)" xlink:href="#DejaVuSans-Oblique-74"/>
     </g>
    </g>
   </g>
   <g id="matplotlib.axis_2">
    <g id="ytick_1">
     <g id="line2d_7">
      <defs>
       <path d="M 0 0 
L -3.5 0 
" id="mfdc6632146" style="stroke:#000000;stroke-width:0.8;"/>
      </defs>
      <g>
       <use style="stroke:#000000;stroke-width:0.8;" x="54" xlink:href="#mfdc6632146" y="250.05311"/>
      </g>
     </g>
     <g id="text_8">
      <!-- 0.00 -->
      <g transform="translate(24.734375 253.852329)scale(0.1 -0.1)">
       <use xlink:href="#DejaVuSans-30"/>
       <use x="63.623047" xlink:href="#DejaVuSans-2e"/>
       <use x="95.410156" xlink:href="#DejaVuSans-30"/>
       <use x="159.033203" xlink:href="#DejaVuSans-30"/>
      </g>
     </g>
    </g>
    <g id="ytick_2">
     <g id="line2d_8">
      <g>
       <use style="stroke:#000000;stroke-width:0.8;" x="54" xlink:href="#mfdc6632146" y="222.881638"/>
      </g>
     </g>
     <g id="text_9">
      <!-- 0.25 -->
      <defs>
       <path d="M 10.796875 72.90625 
L 49.515625 72.90625 
L 49.515625 64.59375 
L 19.828125 64.59375 
L 19.828125 46.734375 
Q 21.96875 47.46875 24.109375 47.828125 
Q 26.265625 48.1875 28.421875 48.1875 
Q 40.625 48.1875 47.75 41.5 
Q 54.890625 34.8125 54.890625 23.390625 
Q 54.890625 11.625 47.5625 5.09375 
Q 40.234375 -1.421875 26.90625 -1.421875 
Q 22.3125 -1.421875 17.546875 -0.640625 
Q 12.796875 0.140625 7.71875 1.703125 
L 7.71875 11.625 
Q 12.109375 9.234375 16.796875 8.0625 
Q 21.484375 6.890625 26.703125 6.890625 
Q 35.15625 6.890625 40.078125 11.328125 
Q 45.015625 15.765625 45.015625 23.390625 
Q 45.015625 31 40.078125 35.4375 
Q 35.15625 39.890625 26.703125 39.890625 
Q 22.75 39.890625 18.8125 39.015625 
Q 14.890625 38.140625 10.796875 36.28125 
z
" id="DejaVuSans-35"/>
      </defs>
      <g transform="translate(24.734375 226.680857)scale(0.1 -0.1)">
       <use xlink:href="#DejaVuSans-30"/>
       <use x="63.623047" xlink:href="#DejaVuSans-2e"/>
       <use x="95.410156" xlink:href="#DejaVuSans-32"/>
       <use x="159.033203" xlink:href="#DejaVuSans-35"/>
      </g>
     </g>
    </g>
    <g id="ytick_3">
     <g id="line2d_9">
      <g>
       <use style="stroke:#000000;stroke-width:0.8;" x="54" xlink:href="#mfdc6632146" y="195.710167"/>
      </g>
     </g>
     <g id="text_10">
      <!-- 0.50 -->
      <g transform="translate(24.734375 199.509385)scale(0.1 -0.1)">
       <use xlink:href="#DejaVuSans-30"/>
       <use x="63.623047" xlink:href="#DejaVuSans-2e"/>
       <use x="95.410156" xlink:href="#DejaVuSans-35"/>
       <use x="159.033203" xlink:href="#DejaVuSans-30"/>
      </g>
     </g>
    </g>
    <g id="ytick_4">
     <g id="line2d_10">
      <g>
       <use style="stroke:#000000;stroke-width:0.8;" x="54" xlink:href="#mfdc6632146" y="168.538695"/>
      </g>
     </g>
     <g id="text_11">
      <!-- 0.75 -->
      <defs>
       <path d="M 8.203125 72.90625 
L 55.078125 72.90625 
L 55.078125 68.703125 
L 28.609375 0 
L 18.3125 0 
L 43.21875 64.59375 
L 8.203125 64.59375 
z
" id="DejaVuSans-37"/>
      </defs>
      <g transform="translate(24.734375 172.337914)scale(0.1 -0.1)">
       <use xlink:href="#DejaVuSans-30"/>
       <use x="63.623047" xlink:href="#DejaVuSans-2e"/>
       <use x="95.410156" xlink:href="#DejaVuSans-37"/>
       <use x="159.033203" xlink:href="#DejaVuSans-35"/>
      </g>
     </g>
    </g>
    <g id="ytick_5">
     <g id="line2d_11">
      <g>
       <use style="stroke:#000000;stroke-width:0.8;" x="54" xlink:href="#mfdc6632146" y="141.367223"/>
      </g>
     </g>
     <g id="text_12">
      <!-- 1.00 -->
      <g transform="translate(24.734375 145.166442)scale(0.1 -0.1)">
       <use xlink:href="#DejaVuSans-31"/>
       <use x="63.623047" xlink:href="#DejaVuSans-2e"/>
       <use x="95.410156" xlink:href="#DejaVuSans-30"/>
       <use x="159.033203" xlink:href="#DejaVuSans-30"/>
      </g>
     </g>
    </g>
    <g id="ytick_6">
     <g id="line2d_12">
      <g>
       <use style="stroke:#000000;stroke-width:0.8;" x="54" xlink:href="#mfdc6632146" y="114.195752"/>
      </g>
     </g>
     <g id="text_13">
      <!-- 1.25 -->
      <g transform="translate(24.734375 117.99497)scale(0.1 -0.1)">
       <use xlink:href="#DejaVuSans-31"/>
       <use x="63.623047" xlink:href="#DejaVuSans-2e"/>
       <use x="95.410156" xlink:href="#DejaVuSans-32"/>
       <use x="159.033203" xlink:href="#DejaVuSans-35"/>
      </g>
     </g>
    </g>
    <g id="ytick_7">
     <g id="line2d_13">
      <g>
       <use style="stroke:#000000;stroke-width:0.8;" x="54" xlink:href="#mfdc6632146" y="87.02428"/>
      </g>
     </g>
     <g id="text_14">
      <!-- 1.50 -->
      <g transform="translate(24.734375 90.823499)scale(0.1 -0.1)">
       <use xlink:href="#DejaVuSans-31"/>
       <use x="63.623047" xlink:href="#DejaVuSans-2e"/>
       <use x="95.410156" xlink:href="#DejaVuSans-35"/>
       <use x="159.033203" xlink:href="#DejaVuSans-30"/>
      </g>
     </g>
    </g>
    <g id="ytick_8">
     <g id="line2d_14">
      <g>
       <use style="stroke:#000000;stroke-width:0.8;" x="54" xlink:href="#mfdc6632146" y="59.852808"/>
      </g>
     </g>
     <g id="text_15">
      <!-- 1.75 -->
      <g transform="translate(24.734375 63.652027)scale(0.1 -0.1)">
       <use xlink:href="#DejaVuSans-31"/>
       <use x="63.623047" xlink:href="#DejaVuSans-2e"/>
       <use x="95.410156" xlink:href="#DejaVuSans-37"/>
       <use x="159.033203" xlink:href="#DejaVuSans-35"/>
      </g>
     </g>
    </g>
    <g id="text_16">
     <!-- $S_t$ -->
     <defs>
      <path d="M 60.296875 70.515625 
L 58.40625 60.890625 
Q 53.46875 63.53125 48.609375 64.875 
Q 43.75 66.21875 39.203125 66.21875 
Q 30.375 66.21875 25.140625 62.359375 
Q 19.921875 58.5 19.921875 52.09375 
Q 19.921875 48.578125 21.84375 46.703125 
Q 23.78125 44.828125 31.78125 42.671875 
L 37.703125 41.21875 
Q 47.703125 38.625 51.609375 34.640625 
Q 55.515625 30.671875 55.515625 23.484375 
Q 55.515625 12.453125 46.84375 5.515625 
Q 38.1875 -1.421875 24.03125 -1.421875 
Q 18.21875 -1.421875 12.359375 -0.265625 
Q 6.5 0.875 0.59375 3.21875 
L 2.59375 13.375 
Q 8.015625 10.015625 13.453125 8.296875 
Q 18.890625 6.59375 24.3125 6.59375 
Q 33.546875 6.59375 39.109375 10.6875 
Q 44.671875 14.796875 44.671875 21.390625 
Q 44.671875 25.78125 42.453125 28.046875 
Q 40.234375 30.328125 32.90625 32.171875 
L 27 33.6875 
Q 16.890625 36.328125 13.203125 39.765625 
Q 9.515625 43.21875 9.515625 49.421875 
Q 9.515625 60.296875 17.890625 67.25 
Q 26.265625 74.21875 39.703125 74.21875 
Q 44.921875 74.21875 50.046875 73.28125 
Q 55.171875 72.359375 60.296875 70.515625 
z
" id="DejaVuSans-Oblique-53"/>
     </defs>
     <g transform="translate(18.654688 147.98)rotate(-90)scale(0.1 -0.1)">
      <use transform="translate(0 0.78125)" xlink:href="#DejaVuSans-Oblique-53"/>
      <use transform="translate(63.476562 -15.625)scale(0.7)" xlink:href="#DejaVuSans-Oblique-74"/>
     </g>
    </g>
   </g>
   <g id="line2d_15">
    <path clip-path="url(#p0438542335)" d="M 69.218182 141.367223 
L 69.522545 139.991903 
L 69.826909 136.585463 
L 70.435636 121.368813 
L 70.74 125.345703 
L 71.044364 121.59894 
L 71.653091 122.631041 
L 71.957455 120.976559 
L 72.261818 120.388608 
L 72.566182 114.425575 
L 72.870545 111.161546 
L 73.174909 110.627133 
L 73.783636 107.178291 
L 74.088 100.427895 
L 74.392364 101.398614 
L 74.696727 99.926925 
L 75.001091 103.981664 
L 75.305455 115.774396 
L 75.914182 109.252463 
L 76.218545 112.556958 
L 76.522909 102.688042 
L 76.827273 109.465521 
L 77.131636 109.262089 
L 77.436 110.095469 
L 78.044727 96.493246 
L 78.349091 95.740823 
L 78.653455 93.895472 
L 78.957818 98.279481 
L 79.262182 107.786321 
L 79.566545 109.351533 
L 79.870909 108.655877 
L 80.479636 97.569334 
L 81.088364 100.876846 
L 81.697091 112.299885 
L 82.001455 119.732636 
L 82.305818 111.693305 
L 82.914545 115.809021 
L 83.218909 121.127352 
L 83.523273 117.957531 
L 83.827636 124.699152 
L 84.132 125.542463 
L 84.436364 129.068248 
L 84.740727 127.588007 
L 85.045091 129.566195 
L 85.349455 134.064558 
L 85.653818 134.167927 
L 85.958182 132.598257 
L 86.262545 132.351196 
L 86.566909 131.225377 
L 86.871273 133.608945 
L 87.175636 134.944663 
L 87.48 137.392451 
L 87.784364 138.673411 
L 88.088727 141.537422 
L 88.393091 147.461277 
L 88.697455 146.885664 
L 89.001818 148.196451 
L 89.306182 153.447304 
L 89.610545 152.03353 
L 89.914909 154.845839 
L 90.219273 154.689446 
L 90.523636 152.490754 
L 90.828 152.092817 
L 91.132364 148.563208 
L 91.436727 152.526249 
L 91.741091 151.285399 
L 92.654182 157.805211 
L 92.958545 158.714052 
L 93.262909 158.551824 
L 93.567273 161.923214 
L 93.871636 159.41269 
L 94.176 158.077961 
L 94.480364 162.546141 
L 95.393455 149.314376 
L 95.697818 149.887551 
L 96.002182 153.279174 
L 96.306545 150.052277 
L 96.610909 151.327245 
L 96.915273 147.510789 
L 97.219636 146.835421 
L 97.524 143.647642 
L 97.828364 142.448528 
L 98.132727 140.044232 
L 98.437091 140.007705 
L 98.741455 133.79298 
L 99.045818 133.326392 
L 99.350182 131.842559 
L 99.654545 124.803068 
L 100.263273 134.958822 
L 100.567636 131.430605 
L 100.872 135.831193 
L 101.176364 128.810806 
L 101.480727 130.396629 
L 101.785091 133.224901 
L 102.698182 112.656665 
L 103.002545 108.720031 
L 103.306909 112.569145 
L 103.611273 104.264899 
L 103.915636 105.500456 
L 104.524364 97.392387 
L 104.828727 98.140707 
L 105.133091 95.190736 
L 105.437455 90.674526 
L 105.741818 88.777343 
L 106.046182 94.384274 
L 106.350545 92.916142 
L 106.654909 86.325189 
L 106.959273 89.921336 
L 107.263636 90.679057 
L 107.568 92.872165 
L 107.872364 83.680404 
L 108.176727 80.143349 
L 108.481091 77.954049 
L 108.785455 82.144125 
L 109.089818 79.280847 
L 109.394182 82.922441 
L 109.698545 82.754212 
L 110.002909 86.118128 
L 110.611636 79.558413 
L 110.916 80.681459 
L 111.220364 78.560446 
L 111.829091 92.295861 
L 112.133455 90.103858 
L 112.437818 89.260817 
L 112.742182 86.031873 
L 113.046545 73.670961 
L 113.350909 68.402945 
L 113.655273 73.646453 
L 113.959636 67.415213 
L 114.264 75.01526 
L 114.568364 77.570215 
L 114.872727 77.942431 
L 115.177091 68.617362 
L 115.785818 77.520414 
L 116.090182 78.057568 
L 116.394545 81.666211 
L 116.698909 75.667031 
L 117.307636 87.734092 
L 117.916364 92.502409 
L 118.220727 82.889113 
L 118.525091 77.870294 
L 118.829455 77.393586 
L 119.133818 84.084432 
L 119.438182 79.652885 
L 119.742545 85.042574 
L 120.046909 93.103331 
L 120.351273 87.206916 
L 120.655636 85.574772 
L 120.96 80.785145 
L 121.264364 79.079084 
L 121.568727 74.446481 
L 121.873091 78.061736 
L 122.177455 83.686822 
L 122.481818 80.100978 
L 123.090545 88.030525 
L 123.394909 90.364493 
L 123.699273 90.276227 
L 124.003636 92.064813 
L 124.308 98.934109 
L 124.612364 102.009834 
L 124.916727 112.418783 
L 125.221091 109.697539 
L 125.829818 121.461566 
L 126.134182 121.249441 
L 126.438545 124.261777 
L 126.742909 118.123864 
L 127.047273 123.517623 
L 127.351636 122.449045 
L 127.656 122.607558 
L 127.960364 127.315188 
L 128.264727 125.284187 
L 128.569091 125.96103 
L 129.177818 119.622007 
L 129.786545 104.809797 
L 130.395273 107.59208 
L 130.699636 102.638099 
L 131.308364 96.537557 
L 131.612727 104.387213 
L 131.917091 104.499268 
L 132.221455 107.896289 
L 132.525818 106.637917 
L 132.830182 107.083048 
L 133.134545 102.968028 
L 133.438909 101.492571 
L 133.743273 97.798483 
L 134.047636 100.044158 
L 134.352 104.524327 
L 134.656364 106.411386 
L 134.960727 106.488698 
L 135.265091 104.767385 
L 135.569455 94.387356 
L 135.873818 94.595371 
L 136.178182 99.294802 
L 136.786909 103.130199 
L 137.091273 100.893182 
L 137.395636 108.160893 
L 137.7 107.877034 
L 138.004364 107.173381 
L 138.308727 106.124328 
L 138.613091 108.842969 
L 138.917455 109.905398 
L 139.221818 116.216636 
L 139.830545 120.566205 
L 140.134909 118.86259 
L 140.439273 123.659138 
L 140.743636 120.536745 
L 141.048 114.415834 
L 141.352364 123.29447 
L 141.656727 121.585829 
L 141.961091 118.835896 
L 142.265455 121.48091 
L 142.569818 123.096142 
L 142.874182 123.629622 
L 143.482909 126.043906 
L 143.787273 132.616381 
L 144.396 124.181542 
L 144.700364 127.419064 
L 145.004727 133.1059 
L 145.309091 131.1789 
L 145.613455 133.343364 
L 145.917818 132.819459 
L 146.222182 134.00329 
L 146.830909 128.860111 
L 147.135273 131.640933 
L 147.744 142.489021 
L 148.048364 140.41283 
L 148.352727 144.53476 
L 148.961455 148.183777 
L 149.265818 148.353117 
L 149.570182 154.580263 
L 149.874545 154.010318 
L 150.178909 152.419188 
L 150.483273 152.146189 
L 150.787636 153.10872 
L 151.092 152.810125 
L 151.396364 151.58302 
L 151.700727 160.21659 
L 152.005091 154.660078 
L 152.309455 153.483325 
L 152.613818 155.475654 
L 152.918182 156.644918 
L 153.222545 155.18649 
L 153.526909 155.534796 
L 153.831273 161.604372 
L 154.135636 155.829997 
L 154.44 156.159364 
L 154.744364 153.130286 
L 155.048727 155.251397 
L 155.353091 150.645503 
L 155.657455 149.745369 
L 155.961818 147.81411 
L 156.266182 151.193499 
L 156.570545 147.407198 
L 156.874909 145.168084 
L 157.179273 140.850178 
L 157.788 144.64729 
L 158.092364 136.967818 
L 158.396727 140.75851 
L 158.701091 141.228379 
L 159.005455 137.315949 
L 159.309818 136.967554 
L 159.614182 134.882865 
L 159.918545 136.33766 
L 160.222909 135.006939 
L 160.527273 139.760188 
L 160.831636 133.977012 
L 161.136 134.41075 
L 161.440364 136.898116 
L 161.744727 134.513614 
L 162.049091 136.196937 
L 162.657818 145.645068 
L 162.962182 143.354456 
L 163.570909 144.341721 
L 163.875273 140.738945 
L 164.179636 144.634176 
L 164.484 147.069992 
L 164.788364 148.323396 
L 165.092727 148.019869 
L 165.397091 148.155939 
L 165.701455 149.080367 
L 166.005818 149.277142 
L 166.310182 149.619105 
L 166.918909 154.42788 
L 167.223273 153.59776 
L 167.832 159.74591 
L 168.136364 160.637743 
L 168.440727 161.083556 
L 168.745091 154.734345 
L 169.049455 156.858484 
L 169.658182 151.810925 
L 169.962545 155.504609 
L 170.266909 153.19267 
L 170.571273 156.818892 
L 170.875636 164.658996 
L 171.18 163.021691 
L 171.484364 167.854209 
L 171.788727 166.68207 
L 172.093091 168.485412 
L 172.701818 161.304022 
L 173.006182 162.576446 
L 173.310545 164.47918 
L 173.614909 167.764577 
L 174.223636 169.631309 
L 174.528 170.558783 
L 174.832364 170.164856 
L 175.136727 168.703344 
L 175.441091 167.803856 
L 175.745455 169.791356 
L 176.049818 173.440614 
L 176.354182 170.134763 
L 177.267273 174.751604 
L 177.571636 179.1404 
L 178.180364 181.271585 
L 178.789091 178.373276 
L 179.093455 178.364729 
L 179.397818 176.252242 
L 179.702182 175.458836 
L 180.006545 175.495828 
L 180.310909 175.116406 
L 180.615273 175.568199 
L 181.224 177.120986 
L 181.528364 179.722537 
L 181.832727 179.098821 
L 182.137091 181.327164 
L 182.441455 179.498042 
L 182.745818 180.054621 
L 183.050182 179.945061 
L 183.658909 177.401712 
L 183.963273 181.010123 
L 184.267636 181.461862 
L 184.572 179.552714 
L 184.876364 183.338502 
L 185.180727 182.521456 
L 185.485091 187.3383 
L 185.789455 189.366152 
L 186.093818 189.292017 
L 186.398182 192.475286 
L 186.702545 194.269675 
L 187.006909 196.866032 
L 187.311273 194.093996 
L 187.615636 193.803382 
L 187.92 192.794301 
L 188.224364 193.197495 
L 188.528727 193.832941 
L 188.833091 196.70677 
L 189.137455 197.199088 
L 189.441818 198.471839 
L 190.050545 195.160645 
L 190.354909 192.614882 
L 190.659273 191.066344 
L 190.963636 192.183028 
L 191.268 194.225134 
L 191.572364 192.871639 
L 191.876727 192.227377 
L 192.181091 195.461345 
L 192.485455 194.847661 
L 192.789818 193.425714 
L 193.094182 193.320195 
L 193.398545 193.652191 
L 193.702909 195.092675 
L 194.007273 197.606755 
L 194.311636 196.279461 
L 194.920364 197.198224 
L 195.224727 194.302122 
L 195.529091 193.095346 
L 195.833455 192.42743 
L 196.137818 192.168553 
L 197.050909 184.207112 
L 197.355273 182.994785 
L 197.659636 187.436538 
L 197.964 187.191555 
L 198.268364 187.450189 
L 198.572727 187.264192 
L 198.877091 185.391717 
L 199.181455 190.993735 
L 199.485818 192.056994 
L 199.790182 191.56199 
L 200.094545 192.425492 
L 200.398909 195.007584 
L 200.703273 193.494986 
L 201.007636 192.999793 
L 201.312 194.751845 
L 201.616364 194.201299 
L 201.920727 192.750223 
L 202.225091 192.740633 
L 202.529455 191.289705 
L 202.833818 191.144277 
L 203.138182 191.880534 
L 203.442545 194.013379 
L 203.746909 194.165659 
L 204.051273 193.822282 
L 204.355636 192.264898 
L 204.66 192.475249 
L 204.964364 191.642399 
L 205.573091 194.825648 
L 205.877455 195.018436 
L 206.181818 196.853858 
L 206.486182 195.473949 
L 207.094909 194.185853 
L 207.399273 193.587118 
L 207.703636 189.97832 
L 208.008 190.869036 
L 208.312364 194.989176 
L 208.616727 194.64214 
L 208.921091 194.73081 
L 209.225455 195.636181 
L 209.529818 197.320565 
L 209.834182 198.052935 
L 210.138545 197.754744 
L 210.442909 198.586312 
L 210.747273 194.659988 
L 211.356 197.689582 
L 211.660364 201.479263 
L 211.964727 201.092972 
L 212.269091 204.214885 
L 212.573455 204.996842 
L 212.877818 205.389618 
L 213.182182 206.392026 
L 213.486545 203.991192 
L 214.095273 200.560867 
L 214.399636 201.941925 
L 214.704 200.224872 
L 215.008364 199.443319 
L 215.617091 196.521018 
L 215.921455 198.059402 
L 216.225818 198.757059 
L 216.530182 197.357822 
L 216.834545 201.783069 
L 217.138909 199.473076 
L 217.443273 198.588352 
L 217.747636 198.662733 
L 218.052 198.304385 
L 218.356364 199.98981 
L 218.660727 200.54382 
L 219.269455 196.718272 
L 219.573818 192.170832 
L 219.878182 192.306143 
L 220.791273 196.218985 
L 221.095636 196.351524 
L 221.4 195.70157 
L 221.704364 195.760424 
L 222.008727 193.878122 
L 222.313091 194.294185 
L 222.617455 194.906828 
L 222.921818 195.92049 
L 223.530545 201.260457 
L 223.834909 203.07985 
L 224.748 197.575443 
L 225.052364 199.786234 
L 225.356727 202.915517 
L 225.661091 203.899411 
L 225.965455 203.642802 
L 226.269818 202.910913 
L 226.574182 201.34863 
L 226.878545 200.910791 
L 227.182909 198.202655 
L 227.487273 198.567651 
L 227.791636 200.054248 
L 228.096 202.712427 
L 228.400364 204.043256 
L 228.704727 203.690984 
L 229.009091 204.993936 
L 229.313455 203.659175 
L 229.617818 201.587142 
L 229.922182 205.218838 
L 230.226545 203.993799 
L 230.530909 207.255834 
L 230.835273 206.712458 
L 231.139636 205.033709 
L 231.444 204.941378 
L 231.748364 206.766929 
L 232.052727 207.568284 
L 232.661455 208.16262 
L 233.270182 208.576023 
L 233.574545 208.296018 
L 233.878909 209.89191 
L 234.183273 210.199277 
L 234.487636 208.285829 
L 235.096364 209.372955 
L 235.400727 207.985941 
L 235.705091 211.390375 
L 236.009455 209.945994 
L 236.313818 210.747437 
L 236.922545 210.423337 
L 237.226909 209.242233 
L 237.531273 209.587578 
L 237.835636 210.455202 
L 238.14 208.830045 
L 238.444364 211.911953 
L 238.748727 211.887427 
L 239.053091 213.514245 
L 239.357455 214.394213 
L 239.661818 212.126253 
L 239.966182 212.179739 
L 240.270545 211.946111 
L 240.574909 214.092982 
L 240.879273 214.922022 
L 241.183636 214.703658 
L 241.488 214.307093 
L 241.792364 213.609771 
L 242.096727 213.599828 
L 242.705455 212.460505 
L 243.009818 214.635669 
L 243.314182 214.594223 
L 243.922909 213.055668 
L 244.227273 213.481369 
L 244.836 215.673455 
L 245.140364 215.815934 
L 245.444727 214.589177 
L 245.749091 216.778063 
L 246.053455 217.472434 
L 246.357818 218.646763 
L 246.662182 217.867177 
L 247.270909 218.901981 
L 247.575273 219.115695 
L 247.879636 218.679954 
L 248.184 219.069246 
L 248.488364 222.053844 
L 249.097091 221.177374 
L 249.401455 221.377844 
L 249.705818 222.360839 
L 250.314545 221.716989 
L 250.618909 222.13817 
L 250.923273 222.32949 
L 251.227636 223.144956 
L 251.532 223.296919 
L 251.836364 224.608745 
L 252.140727 224.272962 
L 252.445091 225.042848 
L 252.749455 224.854534 
L 253.053818 225.974874 
L 253.358182 226.424156 
L 253.662545 226.506715 
L 253.966909 227.743276 
L 254.271273 227.66204 
L 254.575636 227.930502 
L 255.184364 230.010903 
L 255.488727 229.627383 
L 255.793091 229.048928 
L 256.097455 229.136543 
L 256.706182 228.718863 
L 257.010545 228.496483 
L 257.314909 227.619853 
L 257.619273 228.688921 
L 257.923636 228.231907 
L 258.532364 228.648391 
L 259.141091 229.104478 
L 259.445455 229.916777 
L 259.749818 229.800032 
L 260.054182 228.729863 
L 260.662909 228.768645 
L 260.967273 229.231248 
L 261.271636 229.308599 
L 261.576 229.002794 
L 262.184727 229.5478 
L 262.489091 229.286309 
L 262.793455 229.889167 
L 263.097818 229.728165 
L 263.402182 229.200918 
L 263.706545 228.304162 
L 264.010909 228.366324 
L 264.619636 226.688357 
L 265.228364 228.295952 
L 265.532727 228.505773 
L 265.837091 227.80467 
L 266.141455 227.855528 
L 266.445818 228.27716 
L 266.750182 227.20826 
L 267.054545 227.000995 
L 267.358909 228.692643 
L 267.663273 228.478408 
L 267.967636 228.12361 
L 268.272 227.967156 
L 268.576364 227.653069 
L 268.880727 227.700724 
L 269.185091 228.632625 
L 269.489455 228.88373 
L 270.402545 230.918559 
L 270.706909 230.644763 
L 271.011273 230.58468 
L 271.924364 231.268612 
L 272.228727 230.62755 
L 272.533091 231.85872 
L 272.837455 231.641882 
L 273.141818 231.959603 
L 273.750545 234.084822 
L 274.054909 234.545742 
L 274.663636 234.244007 
L 274.968 234.71343 
L 275.272364 234.22009 
L 275.576727 233.507625 
L 275.881091 233.300387 
L 276.185455 233.613693 
L 276.794182 232.622489 
L 277.098545 232.14437 
L 277.402909 232.516141 
L 277.707273 234.088094 
L 278.011636 233.019414 
L 278.316 233.887118 
L 278.620364 233.905404 
L 278.924727 232.689711 
L 279.229091 232.508198 
L 279.533455 231.981538 
L 280.142182 233.807742 
L 280.446545 234.081404 
L 280.750909 233.5305 
L 281.055273 233.711412 
L 281.359636 234.122056 
L 281.664 234.022323 
L 281.968364 233.473849 
L 282.577091 234.837072 
L 282.881455 235.216559 
L 283.185818 234.702984 
L 283.490182 234.588998 
L 283.794545 233.546337 
L 284.098909 233.057521 
L 284.403273 233.076383 
L 284.707636 232.397224 
L 285.012 232.27914 
L 285.316364 232.675349 
L 285.620727 232.301681 
L 285.925091 232.692563 
L 286.229455 232.851988 
L 286.533818 232.129744 
L 286.838182 232.187149 
L 287.446909 232.896576 
L 287.751273 232.342216 
L 288.664364 233.141934 
L 288.968727 233.043575 
L 289.273091 233.250925 
L 289.577455 234.102031 
L 290.186182 235.006856 
L 290.794909 234.013402 
L 291.099273 233.715532 
L 291.403636 233.97662 
L 292.316727 235.155314 
L 292.621091 233.978859 
L 292.925455 235.120184 
L 293.229818 234.853848 
L 293.534182 235.471258 
L 293.838545 235.519373 
L 294.751636 236.986534 
L 295.056 236.261371 
L 295.360364 236.319372 
L 295.664727 236.651916 
L 295.969091 236.416383 
L 296.273455 236.41192 
L 296.577818 236.101317 
L 296.882182 236.906169 
L 297.186545 236.779948 
L 297.490909 236.455621 
L 297.795273 237.170093 
L 298.099636 236.987499 
L 298.404 236.286686 
L 298.708364 236.293154 
L 299.317091 235.636375 
L 299.621455 235.958924 
L 299.925818 235.941201 
L 300.230182 236.640484 
L 300.534545 236.831902 
L 300.838909 236.72082 
L 301.143273 236.415958 
L 301.447636 236.405344 
L 301.752 236.094613 
L 302.056364 236.581443 
L 302.665091 236.616581 
L 302.969455 235.830689 
L 303.273818 235.927011 
L 303.578182 236.149924 
L 303.882545 236.140537 
L 304.186909 236.544905 
L 304.491273 236.462567 
L 304.795636 236.619457 
L 305.1 237.38043 
L 305.708727 237.530926 
L 306.013091 238.177343 
L 306.317455 238.202555 
L 306.621818 237.644423 
L 307.230545 237.195788 
L 307.534909 237.741219 
L 308.752364 237.116195 
L 309.056727 237.672483 
L 309.361091 237.688692 
L 309.665455 237.985017 
L 309.969818 238.004131 
L 310.274182 238.34606 
L 310.578545 237.860172 
L 311.187273 238.528564 
L 311.491636 238.501382 
L 311.796 238.894843 
L 312.100364 239.044688 
L 312.404727 239.333613 
L 313.013455 238.576995 
L 313.317818 238.597851 
L 313.622182 238.739568 
L 313.926545 238.40294 
L 314.839636 238.077746 
L 315.144 238.717069 
L 315.448364 238.757386 
L 315.752727 238.947592 
L 316.361455 238.358462 
L 316.665818 238.601784 
L 316.970182 238.432171 
L 317.274545 237.794259 
L 317.578909 238.053104 
L 317.883273 237.414859 
L 318.187636 237.755601 
L 319.100727 237.746536 
L 319.709455 238.296509 
L 320.013818 238.544752 
L 320.622545 238.304411 
L 321.231273 236.932201 
L 321.535636 237.143745 
L 321.84 237.011123 
L 322.144364 236.599888 
L 323.057455 236.594611 
L 323.361818 236.225503 
L 323.666182 236.596445 
L 323.970545 236.73503 
L 324.579273 236.403786 
L 324.883636 236.300375 
L 325.188 236.461201 
L 325.492364 236.043192 
L 325.796727 235.097819 
L 326.101091 234.905614 
L 326.405455 234.998147 
L 326.709818 234.638354 
L 327.318545 235.26037 
L 327.622909 235.245022 
L 327.927273 236.454476 
L 328.231636 236.950705 
L 328.536 237.094878 
L 329.144727 238.054505 
L 329.449091 238.22022 
L 329.753455 238.834999 
L 330.666545 239.157754 
L 330.970909 238.760089 
L 332.188364 238.573228 
L 332.492727 238.94233 
L 332.797091 238.982657 
L 333.101455 238.87457 
L 333.405818 239.359129 
L 334.014545 238.690685 
L 334.318909 238.917545 
L 334.623273 239.00253 
L 334.927636 239.309413 
L 335.232 239.071802 
L 335.536364 239.440321 
L 335.840727 239.514986 
L 336.145091 239.801216 
L 336.449455 239.784697 
L 336.753818 240.367312 
L 337.058182 239.961027 
L 337.362545 240.268872 
L 337.971273 240.31622 
L 338.58 240.817647 
L 338.884364 240.544171 
L 339.188727 240.702231 
L 339.493091 240.622045 
L 340.101818 241.049202 
L 340.406182 240.91474 
L 340.710545 240.64587 
L 341.014909 240.698023 
L 341.319273 241.118675 
L 341.623636 240.55419 
L 341.928 240.811482 
L 342.232364 241.262005 
L 342.536727 240.540757 
L 342.841091 240.662292 
L 343.145455 241.096374 
L 343.449818 241.289949 
L 344.058545 241.134746 
L 344.362909 241.374953 
L 344.667273 240.874748 
L 344.971636 241.026134 
L 345.276 241.364312 
L 345.884727 240.724076 
L 346.189091 240.965245 
L 346.493455 241.367969 
L 346.797818 241.084961 
L 347.102182 241.665577 
L 347.406545 241.990923 
L 347.710909 241.744273 
L 348.928364 241.776457 
L 349.232727 242.116364 
L 349.841455 241.450118 
L 350.450182 241.381898 
L 350.754545 240.740355 
L 351.363273 240.897539 
L 351.667636 240.792013 
L 352.276364 239.872954 
L 352.580727 239.956195 
L 352.885091 239.857747 
L 353.189455 240.302049 
L 353.493818 240.398249 
L 354.102545 240.954032 
L 354.406909 240.470178 
L 355.015636 240.867333 
L 355.32 240.761061 
L 355.624364 240.379708 
L 355.928727 240.232535 
L 356.233091 239.375607 
L 356.537455 239.400818 
L 357.146182 239.220071 
L 357.450545 238.728465 
L 357.754909 238.546815 
L 358.059273 238.589106 
L 358.363636 238.932593 
L 358.668 238.846632 
L 358.972364 238.350023 
L 359.276727 238.501899 
L 360.189818 237.894069 
L 360.494182 238.203499 
L 360.798545 237.324169 
L 361.102909 237.839062 
L 361.407273 237.980254 
L 361.711636 237.622111 
L 362.016 237.505465 
L 362.320364 237.176133 
L 362.624727 237.378149 
L 363.233455 237.403241 
L 363.537818 236.775499 
L 364.146545 236.1438 
L 364.450909 236.433189 
L 364.755273 236.015892 
L 365.059636 235.915757 
L 365.364 235.294722 
L 365.668364 234.354758 
L 366.277091 234.706787 
L 366.581455 235.126102 
L 367.190182 235.373387 
L 367.494545 235.2065 
L 368.103273 235.443364 
L 368.407636 234.951525 
L 368.712 235.399413 
L 369.016364 235.198715 
L 369.320727 235.389401 
L 369.625091 235.053506 
L 369.929455 234.396436 
L 370.233818 234.546503 
L 370.842545 234.241341 
L 371.146909 234.641062 
L 372.364364 234.276724 
L 372.668727 234.229732 
L 372.973091 234.803973 
L 373.277455 234.976662 
L 373.581818 234.711602 
L 373.581818 234.711602 
" style="fill:none;stroke:#1f77b4;stroke-linecap:square;stroke-width:1.5;"/>
   </g>
   <g id="line2d_16">
    <path clip-path="url(#p0438542335)" d="M 69.218182 141.367223 
L 69.522545 142.818698 
L 69.826909 142.463608 
L 70.435636 140.997272 
L 70.74 139.132334 
L 71.044364 145.509465 
L 71.348727 145.672528 
L 71.653091 144.883525 
L 71.957455 148.210378 
L 72.261818 142.819224 
L 72.566182 142.271371 
L 72.870545 136.942728 
L 73.479273 142.934484 
L 73.783636 142.174854 
L 74.088 147.901548 
L 74.392364 147.207142 
L 74.696727 146.890958 
L 75.305455 141.217137 
L 75.609818 142.653967 
L 75.914182 146.38135 
L 76.218545 140.767748 
L 76.827273 147.027951 
L 77.131636 150.562349 
L 77.436 147.047112 
L 77.740364 148.737344 
L 78.044727 151.152127 
L 78.349091 150.721499 
L 78.653455 151.371541 
L 78.957818 153.487596 
L 79.262182 151.185155 
L 80.175273 142.114352 
L 80.479636 140.740061 
L 80.784 146.878919 
L 81.088364 141.432731 
L 81.392727 140.395435 
L 81.697091 138.286543 
L 82.610182 127.500936 
L 82.914545 125.813003 
L 83.218909 128.167246 
L 83.523273 128.039706 
L 84.436364 137.316461 
L 84.740727 137.872694 
L 85.045091 134.151082 
L 85.349455 122.529003 
L 85.653818 121.764814 
L 85.958182 127.235099 
L 86.262545 122.322098 
L 86.566909 123.537027 
L 86.871273 126.179983 
L 87.175636 125.357958 
L 87.48 130.249998 
L 87.784364 129.407195 
L 88.088727 129.744361 
L 88.393091 129.370083 
L 88.697455 127.914472 
L 89.001818 127.653792 
L 89.306182 127.590554 
L 89.610545 126.489516 
L 89.914909 124.866369 
L 90.523636 134.426082 
L 90.828 134.651459 
L 91.132364 139.87997 
L 91.436727 139.575012 
L 92.045455 134.111399 
L 92.654182 141.00393 
L 92.958545 139.871803 
L 93.567273 142.359322 
L 93.871636 140.326512 
L 94.176 143.752258 
L 94.480364 145.10102 
L 95.393455 153.811931 
L 95.697818 151.750133 
L 96.002182 151.589044 
L 96.306545 154.326492 
L 96.610909 155.02607 
L 96.915273 159.950717 
L 97.219636 162.040136 
L 97.524 156.057409 
L 97.828364 156.32565 
L 98.132727 154.157069 
L 98.437091 154.355663 
L 98.741455 153.302027 
L 99.045818 151.272763 
L 99.350182 154.723264 
L 99.654545 154.816524 
L 99.958909 150.061542 
L 100.567636 154.322956 
L 100.872 155.254416 
L 101.176364 154.447936 
L 101.480727 152.860951 
L 101.785091 148.965579 
L 102.089455 147.368849 
L 102.393818 147.570346 
L 102.698182 143.48965 
L 103.002545 141.116914 
L 103.306909 146.269328 
L 103.915636 131.705134 
L 104.22 132.334674 
L 104.524364 130.927872 
L 104.828727 125.938919 
L 105.133091 126.614779 
L 105.437455 123.763878 
L 105.741818 119.352615 
L 106.046182 123.547005 
L 106.350545 125.956618 
L 106.654909 122.340757 
L 106.959273 120.479703 
L 107.263636 116.694474 
L 107.568 117.253535 
L 107.872364 118.46721 
L 108.176727 126.783772 
L 108.481091 131.251018 
L 108.785455 131.074197 
L 109.394182 125.921208 
L 109.698545 126.424608 
L 110.002909 127.487093 
L 110.307273 126.645331 
L 110.611636 126.340112 
L 110.916 120.845321 
L 111.220364 120.246978 
L 111.829091 131.306195 
L 112.133455 125.603091 
L 112.437818 130.212141 
L 112.742182 127.314922 
L 113.350909 129.009858 
L 113.655273 129.523281 
L 113.959636 124.867987 
L 114.264 125.63139 
L 114.568364 125.762487 
L 114.872727 131.779179 
L 115.177091 131.006126 
L 115.481455 129.006965 
L 115.785818 128.09156 
L 116.090182 122.700206 
L 116.394545 122.478017 
L 116.698909 121.271858 
L 117.003273 114.558456 
L 117.307636 121.199829 
L 117.612 123.05718 
L 118.220727 113.400768 
L 119.133818 105.312229 
L 119.438182 97.844231 
L 120.046909 94.857639 
L 120.655636 93.126237 
L 120.96 98.867893 
L 121.264364 95.183385 
L 121.568727 95.822202 
L 121.873091 86.93634 
L 122.177455 87.32656 
L 122.481818 85.160572 
L 122.786182 83.874699 
L 123.090545 87.162016 
L 123.394909 82.051451 
L 123.699273 71.930459 
L 124.003636 72.013695 
L 124.612364 75.685276 
L 124.916727 86.11975 
L 125.221091 87.041538 
L 125.525455 85.747673 
L 126.134182 75.112779 
L 126.742909 78.928135 
L 127.047273 72.846182 
L 127.351636 73.818234 
L 127.656 76.660647 
L 128.264727 63.085492 
L 128.569091 62.974387 
L 128.873455 66.487144 
L 129.177818 78.165838 
L 129.482182 74.960473 
L 129.786545 79.923597 
L 130.090909 90.483031 
L 130.395273 82.485949 
L 130.699636 79.052407 
L 131.308364 91.541979 
L 131.612727 87.176229 
L 131.917091 91.698322 
L 132.221455 85.207698 
L 132.830182 79.142439 
L 133.134545 76.955194 
L 133.438909 75.907223 
L 133.743273 71.058269 
L 134.047636 73.628506 
L 134.352 73.148977 
L 134.960727 65.71807 
L 135.265091 72.68387 
L 135.569455 75.490622 
L 135.873818 74.095108 
L 136.178182 76.365417 
L 136.482545 66.618127 
L 136.786909 68.8987 
L 137.091273 69.827986 
L 137.395636 65.442835 
L 137.7 63.513221 
L 138.004364 64.370182 
L 138.308727 68.812168 
L 138.613091 67.084088 
L 138.917455 61.071888 
L 139.221818 58.208762 
L 139.526182 62.92973 
L 139.830545 52.652605 
L 140.439273 71.110391 
L 140.743636 65.674919 
L 141.048 64.358144 
L 141.352364 67.584904 
L 141.656727 73.923824 
L 141.961091 60.997672 
L 142.265455 60.297649 
L 142.569818 57.092124 
L 142.874182 55.152401 
L 143.482909 49.098014 
L 143.787273 44.443636 
L 144.396 48.75705 
L 144.700364 59.839601 
L 145.004727 64.533194 
L 145.309091 62.942669 
L 145.613455 56.759316 
L 145.917818 53.097695 
L 146.222182 55.219621 
L 146.526545 63.002252 
L 146.830909 79.430519 
L 147.135273 73.216269 
L 147.744 78.972399 
L 148.048364 78.260578 
L 148.352727 85.896363 
L 148.657091 87.712114 
L 148.961455 77.324271 
L 149.570182 72.570125 
L 149.874545 81.451883 
L 150.178909 69.489808 
L 150.483273 77.613843 
L 150.787636 67.13139 
L 151.092 79.365916 
L 151.700727 62.658561 
L 152.005091 67.543957 
L 152.613818 61.903078 
L 152.918182 66.745014 
L 153.526909 82.433524 
L 153.831273 79.565858 
L 154.135636 80.02474 
L 154.44 83.058856 
L 154.744364 77.953527 
L 155.048727 75.188486 
L 155.353091 79.365972 
L 155.657455 85.849578 
L 155.961818 83.132504 
L 156.266182 85.970134 
L 156.570545 85.455384 
L 156.874909 77.25069 
L 157.179273 74.505721 
L 157.483636 79.29242 
L 157.788 78.424861 
L 158.092364 83.59521 
L 158.396727 75.128173 
L 158.701091 78.234609 
L 159.005455 77.108429 
L 159.309818 75.425442 
L 159.614182 74.546027 
L 160.222909 92.946492 
L 160.527273 95.193834 
L 160.831636 93.629551 
L 161.136 94.311082 
L 161.440364 99.025029 
L 161.744727 105.465006 
L 162.353455 109.415841 
L 162.657818 107.135082 
L 162.962182 108.609867 
L 163.266545 105.914059 
L 163.570909 108.624519 
L 164.179636 111.313246 
L 164.484 114.745756 
L 164.788364 112.071001 
L 165.092727 115.621028 
L 165.397091 117.838586 
L 165.701455 118.144299 
L 166.005818 123.556088 
L 166.310182 124.855889 
L 166.614545 127.67201 
L 166.918909 129.174179 
L 167.223273 129.403255 
L 167.527636 132.455152 
L 167.832 133.273564 
L 168.136364 128.44079 
L 168.440727 128.540004 
L 168.745091 124.139241 
L 169.049455 122.759588 
L 169.353818 119.643301 
L 169.658182 122.837108 
L 170.266909 121.874566 
L 170.875636 127.628367 
L 171.18 133.397796 
L 171.484364 127.878589 
L 171.788727 131.635466 
L 172.093091 126.594279 
L 172.397455 128.419424 
L 172.701818 131.736914 
L 173.006182 129.407767 
L 173.310545 131.815853 
L 173.614909 129.69039 
L 173.919273 130.95714 
L 174.223636 129.147791 
L 174.528 132.849517 
L 174.832364 129.768278 
L 175.136727 127.912157 
L 175.441091 131.464249 
L 175.745455 121.552951 
L 176.049818 119.358144 
L 176.658545 102.798935 
L 176.962909 103.67826 
L 177.571636 107.429752 
L 177.876 115.683449 
L 178.180364 118.640151 
L 178.484727 117.614679 
L 178.789091 111.223861 
L 179.093455 114.616458 
L 179.397818 110.838713 
L 179.702182 116.353062 
L 180.310909 120.731018 
L 180.919636 117.31832 
L 181.528364 109.944938 
L 181.832727 108.867554 
L 182.137091 107.1247 
L 182.441455 99.94487 
L 182.745818 102.370155 
L 183.050182 98.752061 
L 183.354545 107.403233 
L 183.658909 105.54771 
L 183.963273 107.755997 
L 184.267636 107.744427 
L 184.572 103.063836 
L 184.876364 102.298537 
L 185.180727 98.162578 
L 185.485091 91.08379 
L 185.789455 89.127795 
L 186.093818 83.168478 
L 186.398182 84.891856 
L 186.702545 84.934735 
L 187.006909 87.663593 
L 187.311273 82.307687 
L 187.615636 80.111108 
L 187.92 82.837005 
L 188.224364 82.019141 
L 188.528727 76.484559 
L 188.833091 76.70009 
L 189.137455 81.902048 
L 189.441818 81.20062 
L 189.746182 91.776017 
L 190.050545 87.928197 
L 190.659273 92.462299 
L 190.963636 88.098306 
L 191.268 95.089933 
L 191.572364 85.548438 
L 192.181091 90.727365 
L 192.789818 81.89616 
L 193.094182 68.861526 
L 193.398545 70.071691 
L 193.702909 70.756986 
L 194.007273 79.144473 
L 194.311636 80.939355 
L 194.616 84.797459 
L 194.920364 87.142645 
L 195.224727 96.128144 
L 195.529091 88.045079 
L 195.833455 95.302542 
L 196.137818 109.015521 
L 196.442182 114.315894 
L 196.746545 116.907808 
L 197.050909 121.747918 
L 197.355273 117.291698 
L 197.659636 117.870386 
L 197.964 117.764275 
L 198.268364 115.210798 
L 198.572727 113.991216 
L 198.877091 109.780778 
L 199.181455 114.702199 
L 199.485818 117.045671 
L 199.790182 114.24457 
L 200.094545 125.129577 
L 200.398909 130.562146 
L 200.703273 128.669078 
L 201.007636 130.512514 
L 201.616364 123.824418 
L 201.920727 128.606847 
L 202.225091 127.045094 
L 202.529455 122.370663 
L 202.833818 121.775371 
L 203.138182 125.740456 
L 203.746909 119.716087 
L 204.355636 114.478193 
L 204.66 127.316863 
L 204.964364 123.897714 
L 205.268727 116.684382 
L 205.573091 114.842864 
L 205.877455 114.018808 
L 206.181818 111.022881 
L 206.486182 109.535865 
L 206.790545 106.639645 
L 207.094909 106.632974 
L 207.703636 114.554755 
L 208.616727 128.767697 
L 208.921091 122.012569 
L 209.225455 118.959238 
L 209.529818 121.550321 
L 209.834182 123.136727 
L 210.138545 122.684983 
L 210.442909 125.325344 
L 210.747273 125.059041 
L 211.051636 121.985437 
L 211.356 122.13019 
L 211.660364 120.770913 
L 211.964727 117.146703 
L 212.269091 118.290437 
L 212.573455 117.1038 
L 212.877818 118.404493 
L 213.182182 118.523262 
L 213.486545 119.873925 
L 213.790909 122.051085 
L 214.095273 121.347938 
L 214.399636 119.04209 
L 214.704 118.435961 
L 215.008364 116.360209 
L 215.312727 119.479994 
L 215.617091 124.450318 
L 215.921455 122.793859 
L 216.225818 120.025624 
L 216.530182 119.82062 
L 217.138909 110.371445 
L 217.443273 98.531036 
L 217.747636 99.49322 
L 218.356364 107.661435 
L 218.660727 110.20777 
L 218.965091 108.102618 
L 219.269455 117.789904 
L 219.573818 112.275025 
L 220.182545 114.384747 
L 220.486909 119.015356 
L 220.791273 119.488682 
L 221.095636 119.434017 
L 221.4 119.937715 
L 221.704364 118.542619 
L 222.008727 120.994737 
L 222.313091 124.650726 
L 222.617455 122.476292 
L 222.921818 122.078234 
L 223.226182 121.280258 
L 223.530545 116.967735 
L 224.139273 124.754143 
L 224.443636 119.77266 
L 225.052364 131.023475 
L 225.356727 127.945005 
L 225.661091 127.025219 
L 225.965455 126.615815 
L 226.269818 126.973601 
L 226.574182 126.851904 
L 226.878545 127.21077 
L 227.182909 121.945396 
L 227.487273 123.558342 
L 227.791636 124.203855 
L 228.096 117.062482 
L 228.400364 116.946789 
L 228.704727 107.551805 
L 229.009091 108.024873 
L 229.313455 101.883365 
L 229.617818 109.639544 
L 229.922182 108.957321 
L 230.226545 116.02699 
L 230.530909 112.447958 
L 230.835273 117.7257 
L 231.139636 116.538249 
L 231.444 117.729711 
L 232.357091 131.058659 
L 232.661455 124.508784 
L 232.965818 125.673937 
L 233.270182 122.066308 
L 233.574545 122.297178 
L 233.878909 118.755204 
L 234.183273 126.340548 
L 234.487636 127.917875 
L 234.792 124.251028 
L 235.096364 124.900491 
L 235.400727 125.242653 
L 235.705091 126.941623 
L 236.009455 122.466943 
L 236.313818 121.266583 
L 236.618182 121.087298 
L 237.226909 116.017041 
L 237.531273 115.115971 
L 237.835636 108.514653 
L 238.14 108.784491 
L 238.444364 107.542217 
L 238.748727 110.439741 
L 239.053091 109.776988 
L 239.357455 102.733804 
L 239.661818 105.730513 
L 239.966182 110.904096 
L 240.270545 106.518077 
L 240.574909 107.193323 
L 240.879273 106.759612 
L 241.183636 106.964036 
L 241.488 106.60602 
L 241.792364 102.747846 
L 242.401091 111.244641 
L 242.705455 110.871672 
L 243.314182 123.67833 
L 243.618545 116.218464 
L 243.922909 113.012689 
L 244.227273 113.05627 
L 244.531636 107.692951 
L 244.836 112.377545 
L 245.140364 113.751581 
L 245.444727 111.064351 
L 245.749091 107.149661 
L 246.053455 104.831788 
L 246.357818 116.501923 
L 246.662182 120.590385 
L 246.966545 118.637282 
L 247.270909 120.116521 
L 247.575273 109.678822 
L 247.879636 105.565807 
L 248.184 103.01588 
L 248.488364 108.209389 
L 248.792727 108.367713 
L 249.097091 107.287002 
L 250.010182 93.111066 
L 250.314545 97.696389 
L 250.618909 90.892723 
L 250.923273 97.84056 
L 251.227636 100.420123 
L 251.532 98.381795 
L 251.836364 99.100715 
L 252.749455 114.669621 
L 253.053818 112.392131 
L 253.358182 106.904594 
L 253.662545 107.359051 
L 253.966909 109.165578 
L 254.271273 115.725152 
L 254.575636 111.846032 
L 254.88 102.181545 
L 255.184364 110.586645 
L 255.488727 115.276721 
L 256.097455 120.526586 
L 256.401818 119.59538 
L 257.010545 108.562592 
L 257.314909 106.201951 
L 257.619273 109.495083 
L 258.228 117.88779 
L 258.532364 111.417747 
L 258.836727 111.688432 
L 259.141091 113.643553 
L 259.445455 114.43621 
L 259.749818 110.899767 
L 260.054182 116.67685 
L 260.358545 110.709296 
L 260.662909 110.019793 
L 260.967273 110.977817 
L 261.271636 109.030203 
L 261.576 108.056254 
L 262.184727 110.724215 
L 262.489091 114.552395 
L 262.793455 111.73982 
L 263.097818 114.066681 
L 263.402182 118.178849 
L 263.706545 117.48716 
L 264.010909 111.915262 
L 264.315273 112.126446 
L 264.619636 114.778755 
L 264.924 113.050989 
L 265.228364 104.6604 
L 265.532727 111.335857 
L 265.837091 109.659277 
L 266.141455 108.748765 
L 266.750182 98.968075 
L 267.054545 99.86012 
L 267.358909 107.860767 
L 267.663273 104.23404 
L 268.272 112.335596 
L 268.576364 107.334518 
L 268.880727 111.445329 
L 269.185091 105.296432 
L 270.098182 100.846933 
L 270.706909 116.524827 
L 271.011273 115.614647 
L 271.315636 113.199867 
L 271.62 112.842353 
L 271.924364 116.406979 
L 272.228727 116.32701 
L 272.533091 116.673915 
L 272.837455 120.711036 
L 273.141818 116.563732 
L 273.446182 123.867755 
L 274.054909 119.956348 
L 274.359273 115.802372 
L 274.663636 120.070304 
L 274.968 119.653479 
L 275.272364 110.700466 
L 275.576727 107.782892 
L 275.881091 107.330379 
L 276.185455 104.896989 
L 276.489818 104.501416 
L 276.794182 94.417263 
L 277.098545 89.576162 
L 277.402909 90.010635 
L 277.707273 88.733589 
L 278.011636 90.727194 
L 278.316 84.631573 
L 278.924727 100.008298 
L 279.229091 93.086939 
L 279.533455 82.399485 
L 279.837818 79.916686 
L 280.142182 79.310134 
L 280.446545 75.761305 
L 280.750909 79.327599 
L 281.055273 78.403087 
L 281.359636 78.191889 
L 281.664 74.786682 
L 281.968364 83.42175 
L 282.272727 86.093492 
L 282.577091 81.712309 
L 282.881455 85.308768 
L 283.185818 90.483856 
L 283.490182 80.179514 
L 283.794545 79.974748 
L 284.098909 83.088373 
L 284.403273 92.0239 
L 285.012 84.804732 
L 285.316364 86.365934 
L 285.620727 92.071345 
L 285.925091 92.193989 
L 286.533818 100.945107 
L 286.838182 101.431777 
L 287.142545 106.373122 
L 287.446909 105.252457 
L 287.751273 102.46846 
L 288.055636 106.387056 
L 288.36 112.603157 
L 288.664364 105.816978 
L 289.273091 113.026282 
L 289.577455 112.103243 
L 289.881818 109.488579 
L 290.186182 110.627918 
L 290.490545 108.596271 
L 290.794909 110.389985 
L 291.099273 114.679195 
L 291.403636 108.573277 
L 292.012364 89.255193 
L 292.316727 88.534124 
L 292.621091 79.169525 
L 292.925455 77.24737 
L 293.229818 79.855547 
L 293.534182 77.345436 
L 293.838545 77.86096 
L 294.447273 87.953694 
L 294.751636 83.84235 
L 295.056 93.547807 
L 295.360364 90.557854 
L 296.273455 117.130749 
L 296.577818 108.863704 
L 296.882182 109.73985 
L 297.186545 109.355672 
L 297.795273 98.698125 
L 298.099636 105.358238 
L 298.404 101.381966 
L 298.708364 100.516057 
L 299.012727 102.131776 
L 299.317091 102.018151 
L 299.621455 96.026997 
L 299.925818 100.342304 
L 300.230182 98.444402 
L 300.534545 98.490702 
L 300.838909 107.104196 
L 301.143273 110.730734 
L 301.447636 109.879482 
L 302.056364 99.508106 
L 302.360727 96.664985 
L 302.665091 100.619528 
L 302.969455 92.107882 
L 303.273818 91.032828 
L 303.578182 96.093501 
L 303.882545 96.983998 
L 304.186909 92.645734 
L 304.491273 92.607816 
L 305.404364 80.421332 
L 305.708727 85.022244 
L 306.013091 84.315342 
L 306.317455 84.078624 
L 306.621818 74.319707 
L 306.926182 83.357468 
L 307.230545 84.068168 
L 307.534909 87.13402 
L 307.839273 85.407571 
L 308.143636 98.098869 
L 308.448 92.741417 
L 308.752364 92.673023 
L 309.056727 101.853724 
L 309.361091 103.546072 
L 309.665455 100.724774 
L 309.969818 108.239872 
L 310.274182 108.225422 
L 310.578545 112.968175 
L 310.882909 115.378374 
L 311.187273 115.264501 
L 311.491636 114.482564 
L 311.796 116.500693 
L 312.100364 115.348592 
L 312.404727 111.864228 
L 312.709091 113.08306 
L 313.317818 100.262296 
L 313.622182 102.292973 
L 313.926545 105.273337 
L 314.230909 112.892484 
L 314.535273 113.441466 
L 314.839636 115.011532 
L 315.144 111.68468 
L 315.448364 118.290346 
L 315.752727 119.446154 
L 316.057091 115.44509 
L 316.665818 121.724165 
L 316.970182 127.596019 
L 317.274545 117.448022 
L 317.578909 120.582432 
L 317.883273 125.906341 
L 318.492 132.024657 
L 318.796364 133.030124 
L 319.100727 129.975758 
L 319.405091 131.108544 
L 319.709455 134.579613 
L 320.013818 139.87931 
L 320.622545 139.65485 
L 320.926909 134.310213 
L 321.231273 133.971844 
L 321.535636 134.335285 
L 321.84 138.179962 
L 322.144364 139.262343 
L 322.753091 142.077435 
L 323.057455 145.352804 
L 323.361818 143.570441 
L 323.970545 144.721701 
L 324.274909 150.430968 
L 324.883636 147.317618 
L 325.188 150.043767 
L 325.492364 146.912435 
L 325.796727 151.363723 
L 326.101091 151.431976 
L 326.405455 152.277783 
L 326.709818 156.350392 
L 327.014182 155.788276 
L 327.318545 150.713058 
L 327.622909 150.500591 
L 327.927273 151.958243 
L 328.231636 150.571559 
L 328.536 150.238977 
L 328.840364 150.151348 
L 329.144727 151.495709 
L 329.449091 147.063896 
L 329.753455 145.57761 
L 330.057818 147.324235 
L 330.362182 147.675093 
L 330.970909 151.996823 
L 331.275273 153.983593 
L 331.579636 157.429614 
L 331.884 155.152961 
L 332.188364 156.026378 
L 332.492727 154.378743 
L 332.797091 156.406201 
L 333.101455 156.584957 
L 333.405818 158.686596 
L 333.710182 156.607285 
L 334.014545 157.341369 
L 334.318909 159.484146 
L 334.623273 164.186053 
L 334.927636 163.43752 
L 335.232 165.377805 
L 335.536364 165.420057 
L 335.840727 166.73609 
L 336.145091 164.222072 
L 336.753818 161.510428 
L 337.058182 163.235546 
L 337.362545 161.955388 
L 337.666909 157.178048 
L 337.971273 159.622151 
L 338.275636 159.129317 
L 338.58 163.871249 
L 338.884364 160.059734 
L 339.188727 161.192128 
L 339.493091 158.993057 
L 339.797455 163.955217 
L 340.101818 159.061138 
L 340.406182 160.088007 
L 340.710545 158.535641 
L 341.014909 158.099168 
L 341.319273 158.842036 
L 341.623636 153.979625 
L 341.928 158.986571 
L 342.232364 158.126342 
L 342.536727 155.479114 
L 342.841091 155.568404 
L 343.449818 156.346222 
L 343.754182 159.984043 
L 344.058545 159.875447 
L 344.362909 158.413347 
L 344.667273 158.214553 
L 344.971636 159.005295 
L 345.276 160.415303 
L 345.580364 161.206997 
L 345.884727 157.673288 
L 346.189091 163.768988 
L 346.493455 163.659651 
L 346.797818 164.555078 
L 347.102182 160.619032 
L 347.406545 160.462091 
L 347.710909 156.255124 
L 348.015273 162.554906 
L 348.319636 161.283264 
L 348.624 160.4971 
L 348.928364 156.559094 
L 349.232727 161.411807 
L 349.537091 161.846386 
L 349.841455 161.662121 
L 350.145818 163.047953 
L 350.450182 159.700729 
L 350.754545 160.668409 
L 351.058909 154.916965 
L 351.667636 148.78959 
L 351.972 146.998584 
L 352.276364 150.46503 
L 352.580727 151.82266 
L 353.189455 147.900683 
L 353.493818 143.67803 
L 353.798182 145.250443 
L 354.102545 148.101122 
L 354.406909 145.331365 
L 354.711273 148.012519 
L 355.015636 145.19451 
L 355.32 141.216281 
L 355.624364 139.646328 
L 355.928727 140.894769 
L 356.233091 140.752957 
L 356.537455 138.701717 
L 356.841818 138.665851 
L 357.146182 130.922629 
L 358.059273 141.765547 
L 358.363636 143.784477 
L 358.668 151.106797 
L 359.276727 155.080345 
L 359.581091 154.844544 
L 359.885455 153.586647 
L 360.189818 157.369973 
L 360.494182 154.732006 
L 360.798545 149.299474 
L 361.102909 149.963094 
L 361.407273 144.980013 
L 361.711636 144.31883 
L 362.016 137.669283 
L 362.320364 133.698582 
L 362.624727 139.452896 
L 362.929091 139.387747 
L 363.233455 135.698088 
L 363.537818 135.587625 
L 363.842182 135.721133 
L 364.146545 131.130305 
L 364.450909 133.799832 
L 364.755273 133.73544 
L 365.059636 132.545052 
L 365.364 133.785396 
L 365.668364 133.859405 
L 365.972727 131.011685 
L 366.277091 129.382302 
L 367.190182 139.405568 
L 367.494545 139.4012 
L 367.798909 139.960848 
L 368.407636 144.884873 
L 368.712 149.940086 
L 369.016364 148.617223 
L 369.320727 148.74559 
L 369.625091 152.781476 
L 369.929455 152.69344 
L 370.233818 148.559798 
L 370.538182 150.934622 
L 370.842545 146.812452 
L 371.146909 147.868462 
L 371.451273 147.229208 
L 371.755636 146.911363 
L 372.06 142.340115 
L 372.364364 141.80046 
L 373.277455 154.883588 
L 373.581818 160.035804 
L 373.581818 160.035804 
" style="fill:none;stroke:#ff7f0e;stroke-linecap:square;stroke-width:1.5;"/>
   </g>
   <g id="line2d_17">
    <path clip-path="url(#p0438542335)" d="M 69.218182 141.367223 
L 69.522545 144.661108 
L 69.826909 144.930436 
L 70.74 151.300306 
L 71.653091 144.917278 
L 71.957455 148.208129 
L 72.566182 143.871403 
L 72.870545 142.949204 
L 73.174909 144.99362 
L 73.479273 142.638595 
L 73.783636 141.202388 
L 74.088 151.931113 
L 74.392364 149.93145 
L 74.696727 155.990598 
L 75.001091 154.016822 
L 75.305455 154.48473 
L 75.609818 150.877471 
L 75.914182 151.185325 
L 76.218545 153.957302 
L 76.522909 154.405082 
L 76.827273 151.199533 
L 77.131636 151.117485 
L 77.436 151.475196 
L 77.740364 149.157311 
L 78.044727 148.486138 
L 78.349091 148.505176 
L 79.262182 136.753243 
L 79.566545 137.777794 
L 80.175273 128.063618 
L 80.479636 125.290367 
L 80.784 130.088208 
L 81.088364 129.554551 
L 81.392727 132.388313 
L 81.697091 132.97998 
L 82.001455 132.091247 
L 82.305818 131.717624 
L 82.610182 133.495775 
L 82.914545 128.803838 
L 83.218909 135.30721 
L 83.523273 132.657677 
L 83.827636 139.553342 
L 84.132 138.216425 
L 84.436364 141.353039 
L 84.740727 138.33396 
L 85.045091 138.028534 
L 85.349455 137.151027 
L 85.653818 140.786567 
L 85.958182 143.048311 
L 86.262545 142.347131 
L 86.566909 140.359514 
L 86.871273 130.199017 
L 87.175636 129.354358 
L 87.48 125.628989 
L 88.088727 136.729971 
L 88.393091 138.00392 
L 88.697455 142.246773 
L 89.001818 137.179436 
L 89.306182 138.643662 
L 89.914909 128.307136 
L 90.219273 128.142436 
L 90.523636 126.207921 
L 90.828 126.427625 
L 91.436727 122.400928 
L 91.741091 122.900067 
L 92.045455 120.869617 
L 92.349818 113.828075 
L 92.654182 110.756534 
L 92.958545 109.321404 
L 93.262909 108.766139 
L 93.871636 117.73351 
L 94.176 116.380485 
L 94.480364 122.169038 
L 94.784727 125.268104 
L 95.089091 120.211199 
L 95.393455 112.351445 
L 95.697818 119.605865 
L 96.002182 112.895767 
L 96.306545 113.812837 
L 96.610909 113.877484 
L 96.915273 114.365863 
L 97.219636 109.729456 
L 97.524 116.863398 
L 97.828364 114.942115 
L 98.132727 118.979153 
L 98.437091 116.613279 
L 98.741455 110.103082 
L 99.045818 110.104929 
L 99.654545 106.61515 
L 99.958909 110.242032 
L 100.872 92.226946 
L 101.176364 91.861186 
L 101.785091 97.260016 
L 102.393818 81.789873 
L 102.698182 82.128612 
L 103.002545 90.518421 
L 103.306909 104.805722 
L 103.611273 109.782037 
L 103.915636 110.361438 
L 104.22 104.17398 
L 104.524364 107.180137 
L 104.828727 104.899361 
L 105.133091 98.917546 
L 105.437455 98.303229 
L 105.741818 98.986801 
L 106.350545 110.745589 
L 106.654909 108.912549 
L 106.959273 109.809251 
L 107.263636 109.265837 
L 107.568 109.476321 
L 107.872364 106.523916 
L 108.176727 110.085449 
L 108.481091 111.570785 
L 108.785455 103.267032 
L 109.089818 106.979466 
L 109.394182 108.253422 
L 109.698545 110.89629 
L 110.002909 108.939019 
L 110.307273 104.376676 
L 110.916 108.627866 
L 111.220364 109.875544 
L 111.524727 107.526895 
L 111.829091 110.859405 
L 112.133455 112.514265 
L 112.437818 122.83179 
L 112.742182 128.390677 
L 113.046545 128.823282 
L 113.350909 125.381209 
L 113.655273 124.217881 
L 114.264 133.968543 
L 114.568364 133.327307 
L 114.872727 139.428126 
L 115.177091 135.699227 
L 115.481455 135.468166 
L 115.785818 141.292282 
L 116.394545 147.029549 
L 116.698909 149.548526 
L 117.003273 154.283881 
L 117.612 158.94816 
L 117.916364 160.997368 
L 118.220727 157.820829 
L 118.525091 157.515083 
L 118.829455 160.421661 
L 119.133818 161.370111 
L 119.438182 163.836744 
L 119.742545 164.654682 
L 120.046909 162.290338 
L 120.351273 161.590211 
L 120.655636 155.196373 
L 120.96 154.068728 
L 121.264364 156.841755 
L 121.873091 151.190245 
L 122.177455 147.76953 
L 122.481818 151.308843 
L 122.786182 151.76985 
L 123.090545 148.252191 
L 123.394909 153.675717 
L 123.699273 155.1978 
L 124.003636 159.478025 
L 124.612364 164.963522 
L 124.916727 161.598528 
L 125.221091 162.254573 
L 125.829818 167.448412 
L 126.134182 167.078351 
L 126.438545 167.107569 
L 126.742909 163.582105 
L 127.047273 162.214833 
L 127.351636 166.191923 
L 127.656 167.859932 
L 127.960364 165.078625 
L 128.264727 166.747554 
L 128.569091 162.178079 
L 128.873455 165.230063 
L 129.177818 163.694119 
L 129.482182 166.046022 
L 129.786545 167.399781 
L 130.090909 164.528387 
L 130.395273 164.872044 
L 130.699636 162.680879 
L 131.004 161.3732 
L 131.308364 159.25913 
L 131.612727 161.809259 
L 131.917091 162.427566 
L 132.221455 161.251977 
L 132.525818 163.636291 
L 132.830182 159.183292 
L 133.134545 161.4167 
L 133.438909 162.257589 
L 133.743273 165.052137 
L 134.047636 170.813278 
L 134.352 166.310589 
L 134.656364 166.851714 
L 134.960727 168.030204 
L 135.265091 168.54563 
L 135.569455 164.885941 
L 135.873818 167.485187 
L 136.178182 165.710817 
L 136.482545 166.841119 
L 136.786909 168.411195 
L 137.091273 166.947196 
L 137.395636 164.35006 
L 137.7 165.742824 
L 138.004364 167.792672 
L 138.308727 170.833845 
L 138.613091 168.069421 
L 138.917455 169.560802 
L 139.221818 174.267561 
L 139.526182 170.888541 
L 139.830545 174.317852 
L 140.134909 172.451076 
L 140.439273 172.000944 
L 140.743636 171.290303 
L 141.048 172.745806 
L 141.352364 171.852055 
L 141.656727 175.976365 
L 141.961091 174.59888 
L 142.265455 170.883741 
L 142.569818 168.67053 
L 142.874182 173.867904 
L 143.178545 176.239048 
L 143.482909 176.6774 
L 143.787273 175.547538 
L 144.091636 175.79882 
L 144.396 176.95695 
L 144.700364 175.580911 
L 145.004727 172.839313 
L 145.309091 173.406509 
L 145.613455 171.639744 
L 145.917818 178.034883 
L 146.222182 180.169982 
L 146.526545 180.879932 
L 146.830909 181.948645 
L 147.135273 181.231913 
L 147.439636 179.025671 
L 147.744 177.887649 
L 148.048364 179.307612 
L 148.352727 182.714302 
L 148.657091 181.52828 
L 148.961455 185.511509 
L 149.265818 184.17867 
L 149.570182 184.571234 
L 149.874545 187.006058 
L 150.178909 186.433346 
L 150.787636 186.512754 
L 151.092 186.681985 
L 151.396364 185.841271 
L 151.700727 183.964156 
L 152.005091 182.926271 
L 152.309455 180.777779 
L 152.613818 180.874475 
L 152.918182 177.3339 
L 153.222545 176.020585 
L 153.526909 177.293435 
L 153.831273 179.810338 
L 154.135636 179.353207 
L 154.744364 184.360524 
L 155.048727 183.863849 
L 155.353091 185.136211 
L 155.657455 187.052172 
L 155.961818 187.120855 
L 156.266182 186.976219 
L 156.570545 187.38679 
L 156.874909 188.134968 
L 157.179273 186.461557 
L 157.483636 185.772956 
L 157.788 186.227118 
L 158.092364 181.253241 
L 158.396727 180.831533 
L 158.701091 178.353598 
L 159.005455 179.625531 
L 159.309818 182.660958 
L 159.614182 184.348292 
L 159.918545 184.905154 
L 160.222909 185.928246 
L 160.527273 183.218314 
L 160.831636 183.472021 
L 161.136 182.500408 
L 161.440364 182.599701 
L 161.744727 183.524501 
L 162.049091 183.444564 
L 162.353455 179.834176 
L 162.657818 181.53942 
L 162.962182 179.877664 
L 163.266545 182.15452 
L 163.570909 183.141403 
L 163.875273 183.133821 
L 164.179636 182.443155 
L 164.484 179.272204 
L 164.788364 179.384304 
L 165.092727 181.269568 
L 165.397091 179.855645 
L 165.701455 180.664043 
L 166.005818 180.14031 
L 166.310182 180.397259 
L 166.614545 184.678134 
L 167.223273 182.401903 
L 167.527636 180.4196 
L 167.832 176.454972 
L 168.136364 179.236429 
L 168.745091 177.148198 
L 169.049455 178.114373 
L 169.658182 176.060073 
L 169.962545 178.911629 
L 170.266909 178.357704 
L 170.875636 181.873957 
L 171.18 185.700332 
L 171.484364 186.663628 
L 171.788727 187.071696 
L 172.093091 185.976575 
L 172.397455 185.974751 
L 172.701818 189.099945 
L 173.006182 187.438147 
L 173.310545 187.672956 
L 173.614909 186.70958 
L 173.919273 184.774715 
L 174.223636 181.838054 
L 174.528 177.607394 
L 174.832364 177.772889 
L 175.136727 177.061751 
L 175.441091 179.550813 
L 175.745455 177.183998 
L 176.049818 179.914362 
L 176.354182 183.918378 
L 176.658545 182.181739 
L 176.962909 183.301446 
L 177.267273 181.660016 
L 177.571636 180.77744 
L 177.876 184.348269 
L 178.180364 189.999136 
L 178.484727 192.081663 
L 178.789091 192.051431 
L 179.093455 194.292381 
L 179.397818 195.443402 
L 179.702182 197.962862 
L 180.310909 197.532617 
L 180.615273 198.332135 
L 181.224 193.489324 
L 181.528364 192.478228 
L 181.832727 195.755031 
L 182.137091 197.651846 
L 182.441455 196.977201 
L 183.050182 198.833465 
L 183.354545 197.377401 
L 183.658909 196.52641 
L 183.963273 194.30199 
L 184.267636 195.058688 
L 184.572 192.667066 
L 184.876364 193.672651 
L 185.180727 190.999198 
L 185.485091 190.801557 
L 185.789455 192.413893 
L 186.093818 195.387137 
L 186.702545 196.347013 
L 187.006909 194.890415 
L 187.311273 195.083329 
L 187.615636 195.835024 
L 187.92 193.988415 
L 188.224364 194.387015 
L 188.528727 195.401383 
L 188.833091 194.408321 
L 189.137455 195.270244 
L 189.441818 194.128944 
L 189.746182 195.184578 
L 190.050545 195.571434 
L 190.354909 195.309254 
L 190.659273 195.956923 
L 190.963636 195.979935 
L 191.268 194.585523 
L 191.876727 193.010718 
L 192.181091 194.156932 
L 193.094182 189.572156 
L 193.398545 190.961385 
L 193.702909 191.283649 
L 194.007273 190.106256 
L 194.311636 191.260378 
L 194.616 191.680782 
L 195.529091 181.725742 
L 195.833455 179.69774 
L 196.137818 181.965403 
L 196.442182 180.861793 
L 196.746545 181.647548 
L 197.050909 183.937423 
L 197.355273 185.001633 
L 197.659636 184.763698 
L 198.268364 187.0113 
L 198.572727 185.43232 
L 198.877091 185.13784 
L 199.181455 184.658597 
L 199.485818 184.42725 
L 199.790182 185.829518 
L 200.094545 188.613051 
L 200.398909 188.009653 
L 200.703273 189.004452 
L 201.007636 192.886324 
L 201.312 193.595996 
L 201.616364 195.545967 
L 202.225091 193.422753 
L 202.529455 192.532913 
L 202.833818 193.742589 
L 203.138182 192.439919 
L 203.442545 191.857552 
L 204.051273 193.435276 
L 204.355636 191.83696 
L 204.66 192.708844 
L 204.964364 192.158198 
L 205.268727 190.265232 
L 205.877455 183.31956 
L 206.181818 181.418554 
L 206.486182 184.687006 
L 207.094909 187.219551 
L 207.399273 183.934789 
L 207.703636 185.396955 
L 208.008 184.607396 
L 208.312364 184.398644 
L 208.616727 186.340133 
L 209.225455 184.758673 
L 209.529818 187.351586 
L 209.834182 184.926869 
L 210.138545 189.223979 
L 210.442909 190.360351 
L 210.747273 188.525611 
L 211.051636 190.847297 
L 211.356 190.191511 
L 211.660364 192.645508 
L 211.964727 192.814383 
L 212.269091 197.002422 
L 212.573455 198.415929 
L 212.877818 200.935383 
L 213.486545 202.196177 
L 213.790909 203.21568 
L 214.095273 202.033867 
L 214.399636 203.380595 
L 214.704 202.444295 
L 215.008364 199.991383 
L 215.312727 199.771231 
L 215.617091 201.134972 
L 215.921455 203.067608 
L 216.225818 204.122215 
L 216.530182 203.098748 
L 216.834545 202.867723 
L 217.443273 200.286413 
L 217.747636 200.06481 
L 218.052 199.316335 
L 218.660727 193.935121 
L 218.965091 194.472376 
L 219.269455 192.732899 
L 219.573818 191.670971 
L 219.878182 189.572966 
L 220.182545 188.288465 
L 220.486909 190.191179 
L 220.791273 193.257243 
L 221.095636 192.22878 
L 221.4 188.749718 
L 221.704364 190.253407 
L 222.008727 190.609091 
L 222.313091 192.556074 
L 222.617455 190.414526 
L 223.226182 198.719848 
L 223.530545 198.111078 
L 223.834909 198.246332 
L 224.443636 199.51788 
L 224.748 198.659739 
L 225.052364 199.332253 
L 225.661091 202.527482 
L 225.965455 201.192405 
L 226.269818 202.003189 
L 226.574182 204.10808 
L 226.878545 203.959624 
L 227.182909 203.223542 
L 227.487273 201.255509 
L 227.791636 200.919259 
L 228.096 201.944284 
L 228.400364 201.22316 
L 228.704727 200.100301 
L 229.313455 200.232122 
L 229.617818 199.822289 
L 229.922182 199.933251 
L 230.226545 199.536838 
L 231.139636 204.193178 
L 231.444 203.261832 
L 231.748364 202.878897 
L 232.052727 201.32709 
L 232.357091 201.614753 
L 232.661455 203.366532 
L 232.965818 201.676759 
L 233.270182 201.705469 
L 233.574545 199.743212 
L 233.878909 198.791916 
L 234.183273 195.244118 
L 234.487636 195.625032 
L 235.096364 192.49685 
L 235.400727 193.507229 
L 235.705091 193.815651 
L 236.313818 199.042222 
L 236.618182 198.838053 
L 237.226909 196.494496 
L 237.531273 195.918606 
L 237.835636 194.441221 
L 238.14 195.478265 
L 238.444364 195.948604 
L 238.748727 194.686753 
L 239.053091 193.928432 
L 239.357455 194.301479 
L 239.661818 191.972891 
L 239.966182 194.345855 
L 240.270545 195.259569 
L 240.574909 195.750619 
L 240.879273 194.348469 
L 241.183636 194.344267 
L 241.488 196.566597 
L 241.792364 195.697214 
L 242.401091 192.513365 
L 242.705455 191.386772 
L 243.009818 194.863984 
L 243.314182 196.434496 
L 243.618545 195.617095 
L 243.922909 195.711581 
L 244.227273 194.813602 
L 244.531636 197.025683 
L 244.836 197.128802 
L 245.444727 202.580762 
L 245.749091 202.136736 
L 246.053455 200.860005 
L 246.357818 200.477918 
L 246.662182 200.529647 
L 246.966545 202.97587 
L 247.270909 201.478065 
L 247.575273 201.545721 
L 247.879636 198.539874 
L 248.184 197.004852 
L 248.488364 200.368517 
L 248.792727 199.182209 
L 249.097091 201.428786 
L 249.401455 202.596614 
L 249.705818 202.972926 
L 250.010182 203.112967 
L 250.314545 202.52283 
L 250.923273 205.733814 
L 251.227636 204.892066 
L 251.532 204.910989 
L 251.836364 204.662068 
L 252.140727 207.810861 
L 252.445091 208.047484 
L 253.053818 210.419125 
L 253.358182 209.26363 
L 253.966909 212.037769 
L 254.271273 212.435693 
L 254.575636 211.900045 
L 254.88 212.966614 
L 255.488727 209.752528 
L 255.793091 210.875858 
L 256.097455 211.179488 
L 256.401818 212.136708 
L 256.706182 214.157518 
L 257.010545 213.813565 
L 257.314909 212.972869 
L 257.619273 210.613796 
L 257.923636 211.733028 
L 258.532364 208.418413 
L 258.836727 208.157919 
L 259.141091 207.360147 
L 259.445455 206.181167 
L 259.749818 203.442394 
L 260.054182 202.738124 
L 260.358545 202.828104 
L 260.662909 204.121628 
L 260.967273 203.678155 
L 261.271636 202.176213 
L 261.576 201.805872 
L 261.880364 202.99581 
L 262.184727 202.863258 
L 262.489091 203.05599 
L 262.793455 202.662541 
L 263.097818 205.153022 
L 264.010909 202.856097 
L 264.315273 202.861713 
L 264.619636 205.556753 
L 264.924 205.583942 
L 265.228364 204.092324 
L 265.532727 205.342442 
L 266.141455 210.196159 
L 266.750182 209.325729 
L 267.054545 208.184261 
L 267.358909 208.257424 
L 267.663273 210.240402 
L 267.967636 211.270889 
L 268.272 210.266663 
L 268.576364 210.089897 
L 269.185091 208.707922 
L 269.793818 209.201928 
L 270.098182 206.802872 
L 270.402545 206.235725 
L 270.706909 206.413899 
L 271.011273 205.785423 
L 271.315636 205.473384 
L 271.62 208.514685 
L 271.924364 207.660759 
L 272.228727 205.219674 
L 272.533091 206.325922 
L 272.837455 204.315317 
L 273.141818 204.686842 
L 273.446182 204.265826 
L 273.750545 202.716029 
L 274.054909 203.793821 
L 274.359273 201.976242 
L 274.968 205.101677 
L 275.272364 205.94536 
L 275.576727 205.021988 
L 275.881091 205.507397 
L 276.185455 207.648523 
L 276.489818 207.938882 
L 276.794182 208.983284 
L 277.098545 208.033522 
L 277.402909 208.489605 
L 277.707273 208.396583 
L 278.011636 208.93071 
L 278.316 208.366413 
L 278.620364 208.608432 
L 278.924727 208.182228 
L 279.229091 211.616065 
L 279.533455 211.497858 
L 279.837818 210.993204 
L 280.142182 211.239352 
L 280.750909 209.491984 
L 281.055273 207.819127 
L 281.359636 207.679146 
L 282.272727 214.991585 
L 282.577091 215.033614 
L 282.881455 215.207816 
L 283.185818 214.903426 
L 283.794545 216.400852 
L 284.403273 215.099911 
L 284.707636 215.38359 
L 285.012 215.425774 
L 285.620727 214.423721 
L 285.925091 215.712645 
L 286.229455 216.494059 
L 286.533818 217.799952 
L 286.838182 218.316964 
L 287.446909 216.939404 
L 287.751273 218.089275 
L 288.055636 217.571483 
L 288.36 217.483309 
L 288.664364 217.992027 
L 288.968727 219.417981 
L 289.273091 219.587344 
L 289.577455 218.932278 
L 289.881818 221.061041 
L 290.186182 221.424211 
L 290.490545 219.383351 
L 290.794909 218.730985 
L 291.099273 218.473623 
L 291.708 219.871409 
L 292.012364 219.950902 
L 292.316727 218.425111 
L 292.621091 217.959445 
L 292.925455 218.844591 
L 293.229818 217.683219 
L 293.534182 217.982726 
L 293.838545 216.261355 
L 294.142909 216.866821 
L 294.447273 217.91969 
L 294.751636 217.742241 
L 295.360364 215.645592 
L 295.664727 215.472381 
L 295.969091 216.552903 
L 296.273455 217.088246 
L 296.577818 219.192185 
L 296.882182 220.083308 
L 297.186545 220.252436 
L 297.490909 219.885848 
L 297.795273 220.209678 
L 298.099636 220.263451 
L 298.404 220.636671 
L 298.708364 219.938045 
L 299.012727 220.79429 
L 299.317091 220.019353 
L 299.621455 218.157004 
L 299.925818 217.680128 
L 300.534545 218.759566 
L 300.838909 217.562325 
L 302.056364 221.967257 
L 302.360727 222.895213 
L 302.665091 222.216836 
L 302.969455 221.246541 
L 303.273818 221.881535 
L 303.578182 221.696829 
L 303.882545 221.01609 
L 304.186909 220.923748 
L 304.491273 221.803395 
L 304.795636 223.116956 
L 305.1 222.256277 
L 305.708727 221.30502 
L 306.013091 222.311976 
L 306.317455 222.105842 
L 306.621818 221.54995 
L 306.926182 221.266896 
L 307.230545 221.945091 
L 307.534909 221.04534 
L 307.839273 222.446646 
L 308.448 220.664389 
L 308.752364 219.203139 
L 309.056727 219.537261 
L 309.361091 220.501707 
L 309.665455 219.759828 
L 309.969818 220.429647 
L 310.274182 220.388433 
L 310.578545 220.686237 
L 310.882909 221.523957 
L 311.187273 221.234361 
L 311.491636 222.502945 
L 311.796 221.987008 
L 312.100364 222.845187 
L 312.404727 224.335151 
L 312.709091 224.375902 
L 313.317818 223.550566 
L 313.622182 222.864717 
L 313.926545 224.888312 
L 314.230909 225.688187 
L 314.535273 225.606012 
L 314.839636 224.431694 
L 315.144 223.796688 
L 315.448364 222.218003 
L 315.752727 222.680067 
L 316.057091 222.442529 
L 316.361455 223.402939 
L 316.665818 223.743708 
L 317.274545 224.870655 
L 317.578909 225.183974 
L 318.187636 225.164367 
L 318.492 224.736641 
L 318.796364 224.62457 
L 319.709455 225.557116 
L 320.013818 225.904954 
L 320.318182 225.530033 
L 320.622545 224.858829 
L 320.926909 223.843781 
L 321.231273 224.504926 
L 321.535636 224.125718 
L 321.84 225.269211 
L 322.144364 224.97674 
L 322.448727 224.118198 
L 322.753091 224.240881 
L 323.057455 223.365338 
L 323.666182 225.049185 
L 323.970545 225.156569 
L 324.274909 224.351785 
L 324.883636 225.054807 
L 325.188 225.838705 
L 325.492364 225.683354 
L 325.796727 224.722601 
L 326.405455 223.590946 
L 326.709818 223.764143 
L 327.014182 224.232439 
L 327.318545 223.679454 
L 327.622909 223.706068 
L 327.927273 223.850712 
L 328.231636 223.106437 
L 328.536 223.274977 
L 328.840364 223.984405 
L 329.144727 223.234902 
L 329.449091 223.166446 
L 330.057818 224.963358 
L 330.362182 224.887657 
L 330.666545 223.027543 
L 331.275273 223.647074 
L 331.579636 222.374676 
L 331.884 222.424813 
L 332.492727 225.001499 
L 332.797091 224.029734 
L 333.405818 222.7872 
L 333.710182 222.836999 
L 334.014545 223.462443 
L 334.318909 223.645049 
L 334.623273 223.53145 
L 334.927636 224.234532 
L 335.232 223.776133 
L 335.536364 224.822796 
L 336.145091 225.249344 
L 336.449455 225.791355 
L 336.753818 227.483471 
L 337.058182 227.16382 
L 337.362545 227.71085 
L 337.666909 226.774205 
L 338.275636 227.420162 
L 338.58 227.354658 
L 338.884364 226.598512 
L 339.188727 227.016391 
L 339.493091 226.27717 
L 341.014909 220.651192 
L 341.319273 219.159538 
L 341.623636 218.956266 
L 341.928 219.378351 
L 342.232364 221.572775 
L 342.536727 222.764065 
L 343.145455 223.475663 
L 343.449818 223.60408 
L 343.754182 224.441108 
L 344.058545 225.733564 
L 344.667273 225.978785 
L 345.580364 227.825235 
L 345.884727 228.103954 
L 346.189091 228.698308 
L 346.493455 227.847517 
L 346.797818 227.678288 
L 347.102182 228.366256 
L 347.406545 228.558586 
L 347.710909 229.360846 
L 348.015273 228.698537 
L 348.624 226.881335 
L 348.928364 227.720115 
L 349.232727 227.784571 
L 349.537091 228.067354 
L 349.841455 227.676614 
L 350.450182 228.85284 
L 350.754545 229.129865 
L 351.058909 229.028442 
L 351.363273 228.566945 
L 351.667636 228.790299 
L 352.276364 227.779496 
L 352.580727 227.929674 
L 353.189455 229.588236 
L 353.493818 229.205297 
L 353.798182 229.519255 
L 354.102545 230.63133 
L 354.406909 230.254872 
L 354.711273 230.173761 
L 355.015636 231.057609 
L 355.624364 229.827839 
L 355.928727 229.739101 
L 356.537455 231.42224 
L 356.841818 231.603153 
L 357.146182 232.603117 
L 357.450545 232.379587 
L 357.754909 233.168076 
L 358.059273 233.080021 
L 358.363636 233.234672 
L 358.668 232.856112 
L 358.972364 233.366183 
L 359.276727 233.22174 
L 359.581091 233.96415 
L 359.885455 233.559392 
L 360.189818 233.619354 
L 360.494182 233.361669 
L 360.798545 234.058682 
L 361.407273 233.648933 
L 362.016 233.296223 
L 362.320364 233.39874 
L 362.624727 232.745 
L 362.929091 232.830328 
L 363.233455 233.232903 
L 363.537818 233.26414 
L 363.842182 233.768783 
L 364.146545 234.00772 
L 365.059636 234.189762 
L 365.364 233.213684 
L 365.668364 232.909648 
L 365.972727 232.328328 
L 366.885818 233.13917 
L 367.190182 232.682988 
L 367.494545 233.862931 
L 367.798909 234.39189 
L 368.103273 234.341208 
L 368.407636 234.452549 
L 368.712 233.481803 
L 369.016364 233.247203 
L 369.320727 233.599124 
L 369.625091 234.419986 
L 369.929455 234.588346 
L 370.233818 235.225671 
L 370.538182 235.006819 
L 371.146909 234.777115 
L 371.451273 233.772728 
L 371.755636 234.23992 
L 372.06 234.336133 
L 372.364364 234.938771 
L 372.668727 234.977293 
L 372.973091 234.217717 
L 373.277455 233.932925 
L 373.581818 233.991286 
L 373.581818 233.991286 
" style="fill:none;stroke:#2ca02c;stroke-linecap:square;stroke-width:1.5;"/>
   </g>
   <g id="patch_3">
    <path d="M 54 252 
L 54 34.56 
" style="fill:none;stroke:#000000;stroke-linecap:square;stroke-linejoin:miter;stroke-width:0.8;"/>
   </g>
   <g id="patch_4">
    <path d="M 388.8 252 
L 388.8 34.56 
" style="fill:none;stroke:#000000;stroke-linecap:square;stroke-linejoin:miter;stroke-width:0.8;"/>
   </g>
   <g id="patch_5">
    <path d="M 54 252 
L 388.8 252 
" style="fill:none;stroke:#000000;stroke-linecap:square;stroke-linejoin:miter;stroke-width:0.8;"/>
   </g>
   <g id="patch_6">
    <path d="M 54 34.56 
L 388.8 34.56 
" style="fill:none;stroke:#000000;stroke-linecap:square;stroke-linejoin:miter;stroke-width:0.8;"/>
   </g>
   <g id="text_17">
    <!-- Simulated Geometric Brownian Motion Paths -->
    <defs>
     <path d="M 53.515625 70.515625 
L 53.515625 60.890625 
Q 47.90625 63.578125 42.921875 64.890625 
Q 37.9375 66.21875 33.296875 66.21875 
Q 25.25 66.21875 20.875 63.09375 
Q 16.5 59.96875 16.5 54.203125 
Q 16.5 49.359375 19.40625 46.890625 
Q 22.3125 44.4375 30.421875 42.921875 
L 36.375 41.703125 
Q 47.40625 39.59375 52.65625 34.296875 
Q 57.90625 29 57.90625 20.125 
Q 57.90625 9.515625 50.796875 4.046875 
Q 43.703125 -1.421875 29.984375 -1.421875 
Q 24.8125 -1.421875 18.96875 -0.25 
Q 13.140625 0.921875 6.890625 3.21875 
L 6.890625 13.375 
Q 12.890625 10.015625 18.65625 8.296875 
Q 24.421875 6.59375 29.984375 6.59375 
Q 38.421875 6.59375 43.015625 9.90625 
Q 47.609375 13.234375 47.609375 19.390625 
Q 47.609375 24.75 44.3125 27.78125 
Q 41.015625 30.8125 33.5 32.328125 
L 27.484375 33.5 
Q 16.453125 35.6875 11.515625 40.375 
Q 6.59375 45.0625 6.59375 53.421875 
Q 6.59375 63.09375 13.40625 68.65625 
Q 20.21875 74.21875 32.171875 74.21875 
Q 37.3125 74.21875 42.625 73.28125 
Q 47.953125 72.359375 53.515625 70.515625 
z
" id="DejaVuSans-53"/>
     <path d="M 9.421875 54.6875 
L 18.40625 54.6875 
L 18.40625 0 
L 9.421875 0 
z
M 9.421875 75.984375 
L 18.40625 75.984375 
L 18.40625 64.59375 
L 9.421875 64.59375 
z
" id="DejaVuSans-69"/>
     <path d="M 52 44.1875 
Q 55.375 50.25 60.0625 53.125 
Q 64.75 56 71.09375 56 
Q 79.640625 56 84.28125 50.015625 
Q 88.921875 44.046875 88.921875 33.015625 
L 88.921875 0 
L 79.890625 0 
L 79.890625 32.71875 
Q 79.890625 40.578125 77.09375 44.375 
Q 74.3125 48.1875 68.609375 48.1875 
Q 61.625 48.1875 57.5625 43.546875 
Q 53.515625 38.921875 53.515625 30.90625 
L 53.515625 0 
L 44.484375 0 
L 44.484375 32.71875 
Q 44.484375 40.625 41.703125 44.40625 
Q 38.921875 48.1875 33.109375 48.1875 
Q 26.21875 48.1875 22.15625 43.53125 
Q 18.109375 38.875 18.109375 30.90625 
L 18.109375 0 
L 9.078125 0 
L 9.078125 54.6875 
L 18.109375 54.6875 
L 18.109375 46.1875 
Q 21.1875 51.21875 25.484375 53.609375 
Q 29.78125 56 35.6875 56 
Q 41.65625 56 45.828125 52.96875 
Q 50 49.953125 52 44.1875 
z
" id="DejaVuSans-6d"/>
     <path d="M 8.5 21.578125 
L 8.5 54.6875 
L 17.484375 54.6875 
L 17.484375 21.921875 
Q 17.484375 14.15625 20.5 10.265625 
Q 23.53125 6.390625 29.59375 6.390625 
Q 36.859375 6.390625 41.078125 11.03125 
Q 45.3125 15.671875 45.3125 23.6875 
L 45.3125 54.6875 
L 54.296875 54.6875 
L 54.296875 0 
L 45.3125 0 
L 45.3125 8.40625 
Q 42.046875 3.421875 37.71875 1 
Q 33.40625 -1.421875 27.6875 -1.421875 
Q 18.265625 -1.421875 13.375 4.4375 
Q 8.5 10.296875 8.5 21.578125 
z
M 31.109375 56 
z
" id="DejaVuSans-75"/>
     <path d="M 9.421875 75.984375 
L 18.40625 75.984375 
L 18.40625 0 
L 9.421875 0 
z
" id="DejaVuSans-6c"/>
     <path d="M 34.28125 27.484375 
Q 23.390625 27.484375 19.1875 25 
Q 14.984375 22.515625 14.984375 16.5 
Q 14.984375 11.71875 18.140625 8.90625 
Q 21.296875 6.109375 26.703125 6.109375 
Q 34.1875 6.109375 38.703125 11.40625 
Q 43.21875 16.703125 43.21875 25.484375 
L 43.21875 27.484375 
z
M 52.203125 31.203125 
L 52.203125 0 
L 43.21875 0 
L 43.21875 8.296875 
Q 40.140625 3.328125 35.546875 0.953125 
Q 30.953125 -1.421875 24.3125 -1.421875 
Q 15.921875 -1.421875 10.953125 3.296875 
Q 6 8.015625 6 15.921875 
Q 6 25.140625 12.171875 29.828125 
Q 18.359375 34.515625 30.609375 34.515625 
L 43.21875 34.515625 
L 43.21875 35.40625 
Q 43.21875 41.609375 39.140625 45 
Q 35.0625 48.390625 27.6875 48.390625 
Q 23 48.390625 18.546875 47.265625 
Q 14.109375 46.140625 10.015625 43.890625 
L 10.015625 52.203125 
Q 14.9375 54.109375 19.578125 55.046875 
Q 24.21875 56 28.609375 56 
Q 40.484375 56 46.34375 49.84375 
Q 52.203125 43.703125 52.203125 31.203125 
z
" id="DejaVuSans-61"/>
     <path d="M 18.3125 70.21875 
L 18.3125 54.6875 
L 36.8125 54.6875 
L 36.8125 47.703125 
L 18.3125 47.703125 
L 18.3125 18.015625 
Q 18.3125 11.328125 20.140625 9.421875 
Q 21.96875 7.515625 27.59375 7.515625 
L 36.8125 7.515625 
L 36.8125 0 
L 27.59375 0 
Q 17.1875 0 13.234375 3.875 
Q 9.28125 7.765625 9.28125 18.015625 
L 9.28125 47.703125 
L 2.6875 47.703125 
L 2.6875 54.6875 
L 9.28125 54.6875 
L 9.28125 70.21875 
z
" id="DejaVuSans-74"/>
     <path d="M 56.203125 29.59375 
L 56.203125 25.203125 
L 14.890625 25.203125 
Q 15.484375 15.921875 20.484375 11.0625 
Q 25.484375 6.203125 34.421875 6.203125 
Q 39.59375 6.203125 44.453125 7.46875 
Q 49.3125 8.734375 54.109375 11.28125 
L 54.109375 2.78125 
Q 49.265625 0.734375 44.1875 -0.34375 
Q 39.109375 -1.421875 33.890625 -1.421875 
Q 20.796875 -1.421875 13.15625 6.1875 
Q 5.515625 13.8125 5.515625 26.8125 
Q 5.515625 40.234375 12.765625 48.109375 
Q 20.015625 56 32.328125 56 
Q 43.359375 56 49.78125 48.890625 
Q 56.203125 41.796875 56.203125 29.59375 
z
M 47.21875 32.234375 
Q 47.125 39.59375 43.09375 43.984375 
Q 39.0625 48.390625 32.421875 48.390625 
Q 24.90625 48.390625 20.390625 44.140625 
Q 15.875 39.890625 15.1875 32.171875 
z
" id="DejaVuSans-65"/>
     <path d="M 45.40625 46.390625 
L 45.40625 75.984375 
L 54.390625 75.984375 
L 54.390625 0 
L 45.40625 0 
L 45.40625 8.203125 
Q 42.578125 3.328125 38.25 0.953125 
Q 33.9375 -1.421875 27.875 -1.421875 
Q 17.96875 -1.421875 11.734375 6.484375 
Q 5.515625 14.40625 5.515625 27.296875 
Q 5.515625 40.1875 11.734375 48.09375 
Q 17.96875 56 27.875 56 
Q 33.9375 56 38.25 53.625 
Q 42.578125 51.265625 45.40625 46.390625 
z
M 14.796875 27.296875 
Q 14.796875 17.390625 18.875 11.75 
Q 22.953125 6.109375 30.078125 6.109375 
Q 37.203125 6.109375 41.296875 11.75 
Q 45.40625 17.390625 45.40625 27.296875 
Q 45.40625 37.203125 41.296875 42.84375 
Q 37.203125 48.484375 30.078125 48.484375 
Q 22.953125 48.484375 18.875 42.84375 
Q 14.796875 37.203125 14.796875 27.296875 
z
" id="DejaVuSans-64"/>
     <path id="DejaVuSans-20"/>
     <path d="M 59.515625 10.40625 
L 59.515625 29.984375 
L 43.40625 29.984375 
L 43.40625 38.09375 
L 69.28125 38.09375 
L 69.28125 6.78125 
Q 63.578125 2.734375 56.6875 0.65625 
Q 49.8125 -1.421875 42 -1.421875 
Q 24.90625 -1.421875 15.25 8.5625 
Q 5.609375 18.5625 5.609375 36.375 
Q 5.609375 54.25 15.25 64.234375 
Q 24.90625 74.21875 42 74.21875 
Q 49.125 74.21875 55.546875 72.453125 
Q 61.96875 70.703125 67.390625 67.28125 
L 67.390625 56.78125 
Q 61.921875 61.421875 55.765625 63.765625 
Q 49.609375 66.109375 42.828125 66.109375 
Q 29.4375 66.109375 22.71875 58.640625 
Q 16.015625 51.171875 16.015625 36.375 
Q 16.015625 21.625 22.71875 14.15625 
Q 29.4375 6.6875 42.828125 6.6875 
Q 48.046875 6.6875 52.140625 7.59375 
Q 56.25 8.5 59.515625 10.40625 
z
" id="DejaVuSans-47"/>
     <path d="M 30.609375 48.390625 
Q 23.390625 48.390625 19.1875 42.75 
Q 14.984375 37.109375 14.984375 27.296875 
Q 14.984375 17.484375 19.15625 11.84375 
Q 23.34375 6.203125 30.609375 6.203125 
Q 37.796875 6.203125 41.984375 11.859375 
Q 46.1875 17.53125 46.1875 27.296875 
Q 46.1875 37.015625 41.984375 42.703125 
Q 37.796875 48.390625 30.609375 48.390625 
z
M 30.609375 56 
Q 42.328125 56 49.015625 48.375 
Q 55.71875 40.765625 55.71875 27.296875 
Q 55.71875 13.875 49.015625 6.21875 
Q 42.328125 -1.421875 30.609375 -1.421875 
Q 18.84375 -1.421875 12.171875 6.21875 
Q 5.515625 13.875 5.515625 27.296875 
Q 5.515625 40.765625 12.171875 48.375 
Q 18.84375 56 30.609375 56 
z
" id="DejaVuSans-6f"/>
     <path d="M 41.109375 46.296875 
Q 39.59375 47.171875 37.8125 47.578125 
Q 36.03125 48 33.890625 48 
Q 26.265625 48 22.1875 43.046875 
Q 18.109375 38.09375 18.109375 28.8125 
L 18.109375 0 
L 9.078125 0 
L 9.078125 54.6875 
L 18.109375 54.6875 
L 18.109375 46.1875 
Q 20.953125 51.171875 25.484375 53.578125 
Q 30.03125 56 36.53125 56 
Q 37.453125 56 38.578125 55.875 
Q 39.703125 55.765625 41.0625 55.515625 
z
" id="DejaVuSans-72"/>
     <path d="M 48.78125 52.59375 
L 48.78125 44.1875 
Q 44.96875 46.296875 41.140625 47.34375 
Q 37.3125 48.390625 33.40625 48.390625 
Q 24.65625 48.390625 19.8125 42.84375 
Q 14.984375 37.3125 14.984375 27.296875 
Q 14.984375 17.28125 19.8125 11.734375 
Q 24.65625 6.203125 33.40625 6.203125 
Q 37.3125 6.203125 41.140625 7.25 
Q 44.96875 8.296875 48.78125 10.40625 
L 48.78125 2.09375 
Q 45.015625 0.34375 40.984375 -0.53125 
Q 36.96875 -1.421875 32.421875 -1.421875 
Q 20.0625 -1.421875 12.78125 6.34375 
Q 5.515625 14.109375 5.515625 27.296875 
Q 5.515625 40.671875 12.859375 48.328125 
Q 20.21875 56 33.015625 56 
Q 37.15625 56 41.109375 55.140625 
Q 45.0625 54.296875 48.78125 52.59375 
z
" id="DejaVuSans-63"/>
     <path d="M 19.671875 34.8125 
L 19.671875 8.109375 
L 35.5 8.109375 
Q 43.453125 8.109375 47.28125 11.40625 
Q 51.125 14.703125 51.125 21.484375 
Q 51.125 28.328125 47.28125 31.5625 
Q 43.453125 34.8125 35.5 34.8125 
z
M 19.671875 64.796875 
L 19.671875 42.828125 
L 34.28125 42.828125 
Q 41.5 42.828125 45.03125 45.53125 
Q 48.578125 48.25 48.578125 53.8125 
Q 48.578125 59.328125 45.03125 62.0625 
Q 41.5 64.796875 34.28125 64.796875 
z
M 9.8125 72.90625 
L 35.015625 72.90625 
Q 46.296875 72.90625 52.390625 68.21875 
Q 58.5 63.53125 58.5 54.890625 
Q 58.5 48.1875 55.375 44.234375 
Q 52.25 40.28125 46.1875 39.3125 
Q 53.46875 37.75 57.5 32.78125 
Q 61.53125 27.828125 61.53125 20.40625 
Q 61.53125 10.640625 54.890625 5.3125 
Q 48.25 0 35.984375 0 
L 9.8125 0 
z
" id="DejaVuSans-42"/>
     <path d="M 4.203125 54.6875 
L 13.1875 54.6875 
L 24.421875 12.015625 
L 35.59375 54.6875 
L 46.1875 54.6875 
L 57.421875 12.015625 
L 68.609375 54.6875 
L 77.59375 54.6875 
L 63.28125 0 
L 52.6875 0 
L 40.921875 44.828125 
L 29.109375 0 
L 18.5 0 
z
" id="DejaVuSans-77"/>
     <path d="M 54.890625 33.015625 
L 54.890625 0 
L 45.90625 0 
L 45.90625 32.71875 
Q 45.90625 40.484375 42.875 44.328125 
Q 39.84375 48.1875 33.796875 48.1875 
Q 26.515625 48.1875 22.3125 43.546875 
Q 18.109375 38.921875 18.109375 30.90625 
L 18.109375 0 
L 9.078125 0 
L 9.078125 54.6875 
L 18.109375 54.6875 
L 18.109375 46.1875 
Q 21.34375 51.125 25.703125 53.5625 
Q 30.078125 56 35.796875 56 
Q 45.21875 56 50.046875 50.171875 
Q 54.890625 44.34375 54.890625 33.015625 
z
" id="DejaVuSans-6e"/>
     <path d="M 9.8125 72.90625 
L 24.515625 72.90625 
L 43.109375 23.296875 
L 61.8125 72.90625 
L 76.515625 72.90625 
L 76.515625 0 
L 66.890625 0 
L 66.890625 64.015625 
L 48.09375 14.015625 
L 38.1875 14.015625 
L 19.390625 64.015625 
L 19.390625 0 
L 9.8125 0 
z
" id="DejaVuSans-4d"/>
     <path d="M 19.671875 64.796875 
L 19.671875 37.40625 
L 32.078125 37.40625 
Q 38.96875 37.40625 42.71875 40.96875 
Q 46.484375 44.53125 46.484375 51.125 
Q 46.484375 57.671875 42.71875 61.234375 
Q 38.96875 64.796875 32.078125 64.796875 
z
M 9.8125 72.90625 
L 32.078125 72.90625 
Q 44.34375 72.90625 50.609375 67.359375 
Q 56.890625 61.8125 56.890625 51.125 
Q 56.890625 40.328125 50.609375 34.8125 
Q 44.34375 29.296875 32.078125 29.296875 
L 19.671875 29.296875 
L 19.671875 0 
L 9.8125 0 
z
" id="DejaVuSans-50"/>
     <path d="M 54.890625 33.015625 
L 54.890625 0 
L 45.90625 0 
L 45.90625 32.71875 
Q 45.90625 40.484375 42.875 44.328125 
Q 39.84375 48.1875 33.796875 48.1875 
Q 26.515625 48.1875 22.3125 43.546875 
Q 18.109375 38.921875 18.109375 30.90625 
L 18.109375 0 
L 9.078125 0 
L 9.078125 75.984375 
L 18.109375 75.984375 
L 18.109375 46.1875 
Q 21.34375 51.125 25.703125 53.5625 
Q 30.078125 56 35.796875 56 
Q 45.21875 56 50.046875 50.171875 
Q 54.890625 44.34375 54.890625 33.015625 
z
" id="DejaVuSans-68"/>
     <path d="M 44.28125 53.078125 
L 44.28125 44.578125 
Q 40.484375 46.53125 36.375 47.5 
Q 32.28125 48.484375 27.875 48.484375 
Q 21.1875 48.484375 17.84375 46.4375 
Q 14.5 44.390625 14.5 40.28125 
Q 14.5 37.15625 16.890625 35.375 
Q 19.28125 33.59375 26.515625 31.984375 
L 29.59375 31.296875 
Q 39.15625 29.25 43.1875 25.515625 
Q 47.21875 21.78125 47.21875 15.09375 
Q 47.21875 7.46875 41.1875 3.015625 
Q 35.15625 -1.421875 24.609375 -1.421875 
Q 20.21875 -1.421875 15.453125 -0.5625 
Q 10.6875 0.296875 5.421875 2 
L 5.421875 11.28125 
Q 10.40625 8.6875 15.234375 7.390625 
Q 20.0625 6.109375 24.8125 6.109375 
Q 31.15625 6.109375 34.5625 8.28125 
Q 37.984375 10.453125 37.984375 14.40625 
Q 37.984375 18.0625 35.515625 20.015625 
Q 33.0625 21.96875 24.703125 23.78125 
L 21.578125 24.515625 
Q 13.234375 26.265625 9.515625 29.90625 
Q 5.8125 33.546875 5.8125 39.890625 
Q 5.8125 47.609375 11.28125 51.796875 
Q 16.75 56 26.8125 56 
Q 31.78125 56 36.171875 55.265625 
Q 40.578125 54.546875 44.28125 53.078125 
z
" id="DejaVuSans-73"/>
    </defs>
    <g transform="translate(87.099375 28.56)scale(0.12 -0.12)">
     <use xlink:href="#DejaVuSans-53"/>
     <use x="63.476562" xlink:href="#DejaVuSans-69"/>
     <use x="91.259766" xlink:href="#DejaVuSans-6d"/>
     <use x="188.671875" xlink:href="#DejaVuSans-75"/>
     <use x="252.050781" xlink:href="#DejaVuSans-6c"/>
     <use x="279.833984" xlink:href="#DejaVuSans-61"/>
     <use x="341.113281" xlink:href="#DejaVuSans-74"/>
     <use x="380.322266" xlink:href="#DejaVuSans-65"/>
     <use x="441.845703" xlink:href="#DejaVuSans-64"/>
     <use x="505.322266" xlink:href="#DejaVuSans-20"/>
     <use x="537.109375" xlink:href="#DejaVuSans-47"/>
     <use x="614.599609" xlink:href="#DejaVuSans-65"/>
     <use x="676.123047" xlink:href="#DejaVuSans-6f"/>
     <use x="737.304688" xlink:href="#DejaVuSans-6d"/>
     <use x="834.716797" xlink:href="#DejaVuSans-65"/>
     <use x="896.240234" xlink:href="#DejaVuSans-74"/>
     <use x="935.449219" xlink:href="#DejaVuSans-72"/>
     <use x="976.5625" xlink:href="#DejaVuSans-69"/>
     <use x="1004.345703" xlink:href="#DejaVuSans-63"/>
     <use x="1059.326172" xlink:href="#DejaVuSans-20"/>
     <use x="1091.113281" xlink:href="#DejaVuSans-42"/>
     <use x="1159.716797" xlink:href="#DejaVuSans-72"/>
     <use x="1200.798828" xlink:href="#DejaVuSans-6f"/>
     <use x="1261.980469" xlink:href="#DejaVuSans-77"/>
     <use x="1343.767578" xlink:href="#DejaVuSans-6e"/>
     <use x="1407.146484" xlink:href="#DejaVuSans-69"/>
     <use x="1434.929688" xlink:href="#DejaVuSans-61"/>
     <use x="1496.208984" xlink:href="#DejaVuSans-6e"/>
     <use x="1559.587891" xlink:href="#DejaVuSans-20"/>
     <use x="1591.375" xlink:href="#DejaVuSans-4d"/>
     <use x="1677.654297" xlink:href="#DejaVuSans-6f"/>
     <use x="1738.835938" xlink:href="#DejaVuSans-74"/>
     <use x="1778.044922" xlink:href="#DejaVuSans-69"/>
     <use x="1805.828125" xlink:href="#DejaVuSans-6f"/>
     <use x="1867.009766" xlink:href="#DejaVuSans-6e"/>
     <use x="1930.388672" xlink:href="#DejaVuSans-20"/>
     <use x="1962.175781" xlink:href="#DejaVuSans-50"/>
     <use x="2022.416016" xlink:href="#DejaVuSans-61"/>
     <use x="2083.695312" xlink:href="#DejaVuSans-74"/>
     <use x="2122.904297" xlink:href="#DejaVuSans-68"/>
     <use x="2186.283203" xlink:href="#DejaVuSans-73"/>
    </g>
   </g>
  </g>
 </g>
 <defs>
  <clipPath id="p0438542335">
   <rect height="217.44" width="334.8" x="54" y="34.56"/>
  </clipPath>
 </defs>
</svg>
