<?xml version="1.0" encoding="utf-8" standalone="no"?>
<!DOCTYPE svg PUBLIC "-//W3C//DTD SVG 1.1//EN"
  "http://www.w3.org/Graphics/SVG/1.1/DTD/svg11.dtd">
<!-- Created with matplotlib (http://matplotlib.org/) -->
<svg height="288pt" version="1.1" viewBox="0 0 432 288" width="432pt" xmlns="http://www.w3.org/2000/svg" xmlns:xlink="http://www.w3.org/1999/xlink">
 <defs>
  <style type="text/css">
*{stroke-linecap:butt;stroke-linejoin:round;}
  </style>
 </defs>
 <g id="figure_1">
  <g id="patch_1">
   <path d="M 0 288 
L 432 288 
L 432 0 
L 0 0 
z
" style="fill:#ffffff;"/>
  </g>
  <g id="axes_1">
   <g id="patch_2">
    <path d="M 54 252 
L 388.8 252 
L 388.8 34.56 
L 54 34.56 
z
" style="fill:#ffffff;"/>
   </g>
   <g id="matplotlib.axis_1">
    <g id="xtick_1">
     <g id="line2d_1">
      <defs>
       <path d="M 0 0 
L 0 3.5 
" id="m223eb8667f" style="stroke:#000000;stroke-width:0.8;"/>
      </defs>
      <g>
       <use style="stroke:#000000;stroke-width:0.8;" x="54" xlink:href="#m223eb8667f" y="252"/>
      </g>
     </g>
     <g id="text_1">
      <!-- 0.0 -->
      <defs>
       <path d="M 31.78125 66.40625 
Q 24.171875 66.40625 20.328125 58.90625 
Q 16.5 51.421875 16.5 36.375 
Q 16.5 21.390625 20.328125 13.890625 
Q 24.171875 6.390625 31.78125 6.390625 
Q 39.453125 6.390625 43.28125 13.890625 
Q 47.125 21.390625 47.125 36.375 
Q 47.125 51.421875 43.28125 58.90625 
Q 39.453125 66.40625 31.78125 66.40625 
z
M 31.78125 74.21875 
Q 44.046875 74.21875 50.515625 64.515625 
Q 56.984375 54.828125 56.984375 36.375 
Q 56.984375 17.96875 50.515625 8.265625 
Q 44.046875 -1.421875 31.78125 -1.421875 
Q 19.53125 -1.421875 13.0625 8.265625 
Q 6.59375 17.96875 6.59375 36.375 
Q 6.59375 54.828125 13.0625 64.515625 
Q 19.53125 74.21875 31.78125 74.21875 
z
" id="DejaVuSans-30"/>
       <path d="M 10.6875 12.40625 
L 21 12.40625 
L 21 0 
L 10.6875 0 
z
" id="DejaVuSans-2e"/>
      </defs>
      <g transform="translate(46.048437 266.598437)scale(0.1 -0.1)">
       <use xlink:href="#DejaVuSans-30"/>
       <use x="63.623047" xlink:href="#DejaVuSans-2e"/>
       <use x="95.410156" xlink:href="#DejaVuSans-30"/>
      </g>
     </g>
    </g>
    <g id="xtick_2">
     <g id="line2d_2">
      <g>
       <use style="stroke:#000000;stroke-width:0.8;" x="120.96" xlink:href="#m223eb8667f" y="252"/>
      </g>
     </g>
     <g id="text_2">
      <!-- 0.2 -->
      <defs>
       <path d="M 19.1875 8.296875 
L 53.609375 8.296875 
L 53.609375 0 
L 7.328125 0 
L 7.328125 8.296875 
Q 12.9375 14.109375 22.625 23.890625 
Q 32.328125 33.6875 34.8125 36.53125 
Q 39.546875 41.84375 41.421875 45.53125 
Q 43.3125 49.21875 43.3125 52.78125 
Q 43.3125 58.59375 39.234375 62.25 
Q 35.15625 65.921875 28.609375 65.921875 
Q 23.96875 65.921875 18.8125 64.3125 
Q 13.671875 62.703125 7.8125 59.421875 
L 7.8125 69.390625 
Q 13.765625 71.78125 18.9375 73 
Q 24.125 74.21875 28.421875 74.21875 
Q 39.75 74.21875 46.484375 68.546875 
Q 53.21875 62.890625 53.21875 53.421875 
Q 53.21875 48.921875 51.53125 44.890625 
Q 49.859375 40.875 45.40625 35.40625 
Q 44.1875 33.984375 37.640625 27.21875 
Q 31.109375 20.453125 19.1875 8.296875 
z
" id="DejaVuSans-32"/>
      </defs>
      <g transform="translate(113.008438 266.598437)scale(0.1 -0.1)">
       <use xlink:href="#DejaVuSans-30"/>
       <use x="63.623047" xlink:href="#DejaVuSans-2e"/>
       <use x="95.410156" xlink:href="#DejaVuSans-32"/>
      </g>
     </g>
    </g>
    <g id="xtick_3">
     <g id="line2d_3">
      <g>
       <use style="stroke:#000000;stroke-width:0.8;" x="187.92" xlink:href="#m223eb8667f" y="252"/>
      </g>
     </g>
     <g id="text_3">
      <!-- 0.4 -->
      <defs>
       <path d="M 37.796875 64.3125 
L 12.890625 25.390625 
L 37.796875 25.390625 
z
M 35.203125 72.90625 
L 47.609375 72.90625 
L 47.609375 25.390625 
L 58.015625 25.390625 
L 58.015625 17.1875 
L 47.609375 17.1875 
L 47.609375 0 
L 37.796875 0 
L 37.796875 17.1875 
L 4.890625 17.1875 
L 4.890625 26.703125 
z
" id="DejaVuSans-34"/>
      </defs>
      <g transform="translate(179.968438 266.598437)scale(0.1 -0.1)">
       <use xlink:href="#DejaVuSans-30"/>
       <use x="63.623047" xlink:href="#DejaVuSans-2e"/>
       <use x="95.410156" xlink:href="#DejaVuSans-34"/>
      </g>
     </g>
    </g>
    <g id="xtick_4">
     <g id="line2d_4">
      <g>
       <use style="stroke:#000000;stroke-width:0.8;" x="254.88" xlink:href="#m223eb8667f" y="252"/>
      </g>
     </g>
     <g id="text_4">
      <!-- 0.6 -->
      <defs>
       <path d="M 33.015625 40.375 
Q 26.375 40.375 22.484375 35.828125 
Q 18.609375 31.296875 18.609375 23.390625 
Q 18.609375 15.53125 22.484375 10.953125 
Q 26.375 6.390625 33.015625 6.390625 
Q 39.65625 6.390625 43.53125 10.953125 
Q 47.40625 15.53125 47.40625 23.390625 
Q 47.40625 31.296875 43.53125 35.828125 
Q 39.65625 40.375 33.015625 40.375 
z
M 52.59375 71.296875 
L 52.59375 62.3125 
Q 48.875 64.0625 45.09375 64.984375 
Q 41.3125 65.921875 37.59375 65.921875 
Q 27.828125 65.921875 22.671875 59.328125 
Q 17.53125 52.734375 16.796875 39.40625 
Q 19.671875 43.65625 24.015625 45.921875 
Q 28.375 48.1875 33.59375 48.1875 
Q 44.578125 48.1875 50.953125 41.515625 
Q 57.328125 34.859375 57.328125 23.390625 
Q 57.328125 12.15625 50.6875 5.359375 
Q 44.046875 -1.421875 33.015625 -1.421875 
Q 20.359375 -1.421875 13.671875 8.265625 
Q 6.984375 17.96875 6.984375 36.375 
Q 6.984375 53.65625 15.1875 63.9375 
Q 23.390625 74.21875 37.203125 74.21875 
Q 40.921875 74.21875 44.703125 73.484375 
Q 48.484375 72.75 52.59375 71.296875 
z
" id="DejaVuSans-36"/>
      </defs>
      <g transform="translate(246.928438 266.598437)scale(0.1 -0.1)">
       <use xlink:href="#DejaVuSans-30"/>
       <use x="63.623047" xlink:href="#DejaVuSans-2e"/>
       <use x="95.410156" xlink:href="#DejaVuSans-36"/>
      </g>
     </g>
    </g>
    <g id="xtick_5">
     <g id="line2d_5">
      <g>
       <use style="stroke:#000000;stroke-width:0.8;" x="321.84" xlink:href="#m223eb8667f" y="252"/>
      </g>
     </g>
     <g id="text_5">
      <!-- 0.8 -->
      <defs>
       <path d="M 31.78125 34.625 
Q 24.75 34.625 20.71875 30.859375 
Q 16.703125 27.09375 16.703125 20.515625 
Q 16.703125 13.921875 20.71875 10.15625 
Q 24.75 6.390625 31.78125 6.390625 
Q 38.8125 6.390625 42.859375 10.171875 
Q 46.921875 13.96875 46.921875 20.515625 
Q 46.921875 27.09375 42.890625 30.859375 
Q 38.875 34.625 31.78125 34.625 
z
M 21.921875 38.8125 
Q 15.578125 40.375 12.03125 44.71875 
Q 8.5 49.078125 8.5 55.328125 
Q 8.5 64.0625 14.71875 69.140625 
Q 20.953125 74.21875 31.78125 74.21875 
Q 42.671875 74.21875 48.875 69.140625 
Q 55.078125 64.0625 55.078125 55.328125 
Q 55.078125 49.078125 51.53125 44.71875 
Q 48 40.375 41.703125 38.8125 
Q 48.828125 37.15625 52.796875 32.3125 
Q 56.78125 27.484375 56.78125 20.515625 
Q 56.78125 9.90625 50.3125 4.234375 
Q 43.84375 -1.421875 31.78125 -1.421875 
Q 19.734375 -1.421875 13.25 4.234375 
Q 6.78125 9.90625 6.78125 20.515625 
Q 6.78125 27.484375 10.78125 32.3125 
Q 14.796875 37.15625 21.921875 38.8125 
z
M 18.3125 54.390625 
Q 18.3125 48.734375 21.84375 45.5625 
Q 25.390625 42.390625 31.78125 42.390625 
Q 38.140625 42.390625 41.71875 45.5625 
Q 45.3125 48.734375 45.3125 54.390625 
Q 45.3125 60.0625 41.71875 63.234375 
Q 38.140625 66.40625 31.78125 66.40625 
Q 25.390625 66.40625 21.84375 63.234375 
Q 18.3125 60.0625 18.3125 54.390625 
z
" id="DejaVuSans-38"/>
      </defs>
      <g transform="translate(313.888438 266.598437)scale(0.1 -0.1)">
       <use xlink:href="#DejaVuSans-30"/>
       <use x="63.623047" xlink:href="#DejaVuSans-2e"/>
       <use x="95.410156" xlink:href="#DejaVuSans-38"/>
      </g>
     </g>
    </g>
    <g id="xtick_6">
     <g id="line2d_6">
      <g>
       <use style="stroke:#000000;stroke-width:0.8;" x="388.8" xlink:href="#m223eb8667f" y="252"/>
      </g>
     </g>
     <g id="text_6">
      <!-- 1.0 -->
      <defs>
       <path d="M 12.40625 8.296875 
L 28.515625 8.296875 
L 28.515625 63.921875 
L 10.984375 60.40625 
L 10.984375 69.390625 
L 28.421875 72.90625 
L 38.28125 72.90625 
L 38.28125 8.296875 
L 54.390625 8.296875 
L 54.390625 0 
L 12.40625 0 
z
" id="DejaVuSans-31"/>
      </defs>
      <g transform="translate(380.848437 266.598437)scale(0.1 -0.1)">
       <use xlink:href="#DejaVuSans-31"/>
       <use x="63.623047" xlink:href="#DejaVuSans-2e"/>
       <use x="95.410156" xlink:href="#DejaVuSans-30"/>
      </g>
     </g>
    </g>
    <g id="text_7">
     <!-- $t$ -->
     <defs>
      <path d="M 42.28125 54.6875 
L 40.921875 47.703125 
L 23 47.703125 
L 17.1875 18.015625 
Q 16.890625 16.359375 16.75 15.234375 
Q 16.609375 14.109375 16.609375 13.484375 
Q 16.609375 10.359375 18.484375 8.9375 
Q 20.359375 7.515625 24.515625 7.515625 
L 33.59375 7.515625 
L 32.078125 0 
L 23.484375 0 
Q 15.484375 0 11.546875 3.125 
Q 7.625 6.25 7.625 12.59375 
Q 7.625 13.71875 7.765625 15.0625 
Q 7.90625 16.40625 8.203125 18.015625 
L 14.015625 47.703125 
L 6.390625 47.703125 
L 7.8125 54.6875 
L 15.28125 54.6875 
L 18.3125 70.21875 
L 27.296875 70.21875 
L 24.3125 54.6875 
z
" id="DejaVuSans-Oblique-74"/>
     </defs>
     <g transform="translate(219.4 280.276563)scale(0.1 -0.1)">
      <use transform="translate(0 0.78125)" xlink:href="#DejaVuSans-Oblique-74"/>
     </g>
    </g>
   </g>
   <g id="matplotlib.axis_2">
    <g id="ytick_1">
     <g id="line2d_7">
      <defs>
       <path d="M 0 0 
L -3.5 0 
" id="me75163b3e2" style="stroke:#000000;stroke-width:0.8;"/>
      </defs>
      <g>
       <use style="stroke:#000000;stroke-width:0.8;" x="54" xlink:href="#me75163b3e2" y="251.029018"/>
      </g>
     </g>
     <g id="text_8">
      <!-- 0.0 -->
      <g transform="translate(31.096875 254.828237)scale(0.1 -0.1)">
       <use xlink:href="#DejaVuSans-30"/>
       <use x="63.623047" xlink:href="#DejaVuSans-2e"/>
       <use x="95.410156" xlink:href="#DejaVuSans-30"/>
      </g>
     </g>
    </g>
    <g id="ytick_2">
     <g id="line2d_8">
      <g>
       <use style="stroke:#000000;stroke-width:0.8;" x="54" xlink:href="#me75163b3e2" y="226.506198"/>
      </g>
     </g>
     <g id="text_9">
      <!-- 0.2 -->
      <g transform="translate(31.096875 230.305417)scale(0.1 -0.1)">
       <use xlink:href="#DejaVuSans-30"/>
       <use x="63.623047" xlink:href="#DejaVuSans-2e"/>
       <use x="95.410156" xlink:href="#DejaVuSans-32"/>
      </g>
     </g>
    </g>
    <g id="ytick_3">
     <g id="line2d_9">
      <g>
       <use style="stroke:#000000;stroke-width:0.8;" x="54" xlink:href="#me75163b3e2" y="201.983377"/>
      </g>
     </g>
     <g id="text_10">
      <!-- 0.4 -->
      <g transform="translate(31.096875 205.782596)scale(0.1 -0.1)">
       <use xlink:href="#DejaVuSans-30"/>
       <use x="63.623047" xlink:href="#DejaVuSans-2e"/>
       <use x="95.410156" xlink:href="#DejaVuSans-34"/>
      </g>
     </g>
    </g>
    <g id="ytick_4">
     <g id="line2d_10">
      <g>
       <use style="stroke:#000000;stroke-width:0.8;" x="54" xlink:href="#me75163b3e2" y="177.460557"/>
      </g>
     </g>
     <g id="text_11">
      <!-- 0.6 -->
      <g transform="translate(31.096875 181.259775)scale(0.1 -0.1)">
       <use xlink:href="#DejaVuSans-30"/>
       <use x="63.623047" xlink:href="#DejaVuSans-2e"/>
       <use x="95.410156" xlink:href="#DejaVuSans-36"/>
      </g>
     </g>
    </g>
    <g id="ytick_5">
     <g id="line2d_11">
      <g>
       <use style="stroke:#000000;stroke-width:0.8;" x="54" xlink:href="#me75163b3e2" y="152.937736"/>
      </g>
     </g>
     <g id="text_12">
      <!-- 0.8 -->
      <g transform="translate(31.096875 156.736955)scale(0.1 -0.1)">
       <use xlink:href="#DejaVuSans-30"/>
       <use x="63.623047" xlink:href="#DejaVuSans-2e"/>
       <use x="95.410156" xlink:href="#DejaVuSans-38"/>
      </g>
     </g>
    </g>
    <g id="ytick_6">
     <g id="line2d_12">
      <g>
       <use style="stroke:#000000;stroke-width:0.8;" x="54" xlink:href="#me75163b3e2" y="128.414915"/>
      </g>
     </g>
     <g id="text_13">
      <!-- 1.0 -->
      <g transform="translate(31.096875 132.214134)scale(0.1 -0.1)">
       <use xlink:href="#DejaVuSans-31"/>
       <use x="63.623047" xlink:href="#DejaVuSans-2e"/>
       <use x="95.410156" xlink:href="#DejaVuSans-30"/>
      </g>
     </g>
    </g>
    <g id="ytick_7">
     <g id="line2d_13">
      <g>
       <use style="stroke:#000000;stroke-width:0.8;" x="54" xlink:href="#me75163b3e2" y="103.892095"/>
      </g>
     </g>
     <g id="text_14">
      <!-- 1.2 -->
      <g transform="translate(31.096875 107.691313)scale(0.1 -0.1)">
       <use xlink:href="#DejaVuSans-31"/>
       <use x="63.623047" xlink:href="#DejaVuSans-2e"/>
       <use x="95.410156" xlink:href="#DejaVuSans-32"/>
      </g>
     </g>
    </g>
    <g id="ytick_8">
     <g id="line2d_14">
      <g>
       <use style="stroke:#000000;stroke-width:0.8;" x="54" xlink:href="#me75163b3e2" y="79.369274"/>
      </g>
     </g>
     <g id="text_15">
      <!-- 1.4 -->
      <g transform="translate(31.096875 83.168493)scale(0.1 -0.1)">
       <use xlink:href="#DejaVuSans-31"/>
       <use x="63.623047" xlink:href="#DejaVuSans-2e"/>
       <use x="95.410156" xlink:href="#DejaVuSans-34"/>
      </g>
     </g>
    </g>
    <g id="ytick_9">
     <g id="line2d_15">
      <g>
       <use style="stroke:#000000;stroke-width:0.8;" x="54" xlink:href="#me75163b3e2" y="54.846453"/>
      </g>
     </g>
     <g id="text_16">
      <!-- 1.6 -->
      <g transform="translate(31.096875 58.645672)scale(0.1 -0.1)">
       <use xlink:href="#DejaVuSans-31"/>
       <use x="63.623047" xlink:href="#DejaVuSans-2e"/>
       <use x="95.410156" xlink:href="#DejaVuSans-36"/>
      </g>
     </g>
    </g>
    <g id="text_17">
     <!-- $S_t$ -->
     <defs>
      <path d="M 60.296875 70.515625 
L 58.40625 60.890625 
Q 53.46875 63.53125 48.609375 64.875 
Q 43.75 66.21875 39.203125 66.21875 
Q 30.375 66.21875 25.140625 62.359375 
Q 19.921875 58.5 19.921875 52.09375 
Q 19.921875 48.578125 21.84375 46.703125 
Q 23.78125 44.828125 31.78125 42.671875 
L 37.703125 41.21875 
Q 47.703125 38.625 51.609375 34.640625 
Q 55.515625 30.671875 55.515625 23.484375 
Q 55.515625 12.453125 46.84375 5.515625 
Q 38.1875 -1.421875 24.03125 -1.421875 
Q 18.21875 -1.421875 12.359375 -0.265625 
Q 6.5 0.875 0.59375 3.21875 
L 2.59375 13.375 
Q 8.015625 10.015625 13.453125 8.296875 
Q 18.890625 6.59375 24.3125 6.59375 
Q 33.546875 6.59375 39.109375 10.6875 
Q 44.671875 14.796875 44.671875 21.390625 
Q 44.671875 25.78125 42.453125 28.046875 
Q 40.234375 30.328125 32.90625 32.171875 
L 27 33.6875 
Q 16.890625 36.328125 13.203125 39.765625 
Q 9.515625 43.21875 9.515625 49.421875 
Q 9.515625 60.296875 17.890625 67.25 
Q 26.265625 74.21875 39.703125 74.21875 
Q 44.921875 74.21875 50.046875 73.28125 
Q 55.171875 72.359375 60.296875 70.515625 
z
" id="DejaVuSans-Oblique-53"/>
     </defs>
     <g transform="translate(25.017187 147.98)rotate(-90)scale(0.1 -0.1)">
      <use transform="translate(0 0.78125)" xlink:href="#DejaVuSans-Oblique-53"/>
      <use transform="translate(63.476562 -15.625)scale(0.7)" xlink:href="#DejaVuSans-Oblique-74"/>
     </g>
    </g>
   </g>
   <g id="line2d_16">
    <path clip-path="url(#p93e2e39415)" d="M 54 128.414915 
L 54.3348 126.863346 
L 54.6696 123.020368 
L 55.3392 105.853686 
L 55.674 110.34022 
L 56.0088 106.113304 
L 56.6784 107.27767 
L 57.0132 105.411165 
L 57.348 104.747867 
L 57.6828 98.020665 
L 58.0176 94.338347 
L 58.3524 93.735448 
L 59.022 89.844634 
L 59.3568 82.229166 
L 59.6916 83.324285 
L 60.0264 81.663996 
L 60.3612 86.238356 
L 60.696 99.542339 
L 61.0308 96.411225 
L 61.3656 92.184613 
L 61.7004 95.912583 
L 62.0352 84.778954 
L 62.37 92.424974 
L 62.7048 92.195472 
L 63.0396 93.135651 
L 63.7092 77.790289 
L 64.044 76.941442 
L 64.3788 74.859607 
L 64.7136 79.805431 
L 65.0484 90.530583 
L 65.3832 92.296378 
L 65.718 91.511574 
L 66.3876 79.004278 
L 67.0572 82.735652 
L 67.7268 95.622565 
L 68.0616 104.007831 
L 68.3964 94.938251 
L 69.066 99.581401 
L 69.4008 105.581282 
L 69.7356 102.005245 
L 70.0704 109.610812 
L 70.4052 110.562194 
L 70.74 114.539813 
L 71.0748 112.869877 
L 71.4096 115.101572 
L 71.7444 120.176405 
L 72.0792 120.293021 
L 72.414 118.522196 
L 72.7488 118.243474 
L 73.0836 116.97338 
L 73.4184 119.662405 
L 73.7532 121.169296 
L 74.088 123.930772 
L 74.4228 125.375888 
L 74.7576 128.606925 
L 75.0924 135.289929 
L 75.4272 134.640551 
L 75.762 136.119316 
L 76.0968 142.043072 
L 76.4316 140.448121 
L 76.7664 143.62083 
L 77.1012 143.444396 
L 77.436 140.963939 
L 77.7708 140.515005 
L 78.1056 136.533074 
L 78.4404 141.003982 
L 78.7752 139.604116 
L 79.7796 146.95945 
L 80.1144 147.984759 
L 80.4492 147.801742 
L 80.784 151.605179 
L 81.1188 148.772929 
L 81.4536 147.267152 
L 81.7884 152.307934 
L 82.1232 147.661857 
L 82.458 141.464656 
L 82.7928 137.380504 
L 83.1276 138.027133 
L 83.4624 141.853396 
L 83.7972 138.212968 
L 84.132 139.651325 
L 84.4668 135.345786 
L 84.8016 134.583869 
L 85.1364 130.987572 
L 85.4712 129.63479 
L 85.806 126.922381 
L 86.1408 126.881173 
L 86.4756 119.870024 
L 86.8104 119.343642 
L 87.1452 117.669655 
L 87.48 109.728044 
L 88.1496 121.18527 
L 88.4844 117.204908 
L 88.8192 122.169437 
L 89.154 114.249379 
L 89.4888 116.038427 
L 89.8236 119.229145 
L 90.828 96.025067 
L 91.1628 91.583949 
L 91.4976 95.926331 
L 91.8324 86.557887 
L 92.1672 87.951782 
L 92.8368 78.804655 
L 93.1716 79.648873 
L 93.5064 76.32086 
L 93.8412 71.225892 
L 94.176 69.085584 
L 94.5108 75.411049 
L 94.8456 73.754775 
L 95.1804 66.319183 
L 95.5152 70.37618 
L 95.85 71.231004 
L 96.1848 73.705162 
L 96.5196 63.335466 
L 96.8544 59.345133 
L 97.1892 56.875272 
L 97.524 61.602311 
L 97.8588 58.372101 
L 98.1936 62.48037 
L 98.5284 62.290582 
L 98.8632 66.085587 
L 99.5328 58.685237 
L 99.8676 59.952203 
L 100.2024 57.55938 
L 100.872 73.055004 
L 101.2068 70.582093 
L 101.5416 69.631015 
L 101.8764 65.988279 
L 102.2112 52.043302 
L 102.546 46.100183 
L 102.8808 52.015654 
L 103.2156 44.985873 
L 103.5504 53.559874 
L 103.8852 56.442249 
L 104.22 56.862166 
L 104.5548 46.342078 
L 105.2244 56.386067 
L 105.5592 56.992057 
L 105.894 61.063152 
L 106.2288 54.29517 
L 106.8984 67.908639 
L 107.568 73.288021 
L 107.9028 62.44277 
L 108.2376 56.780784 
L 108.5724 56.242986 
L 108.9072 63.791271 
L 109.242 58.791816 
L 109.5768 64.8722 
L 109.9116 73.965951 
L 110.2464 67.313904 
L 110.5812 65.4726 
L 110.916 60.069176 
L 111.2508 58.144482 
L 111.5856 52.918205 
L 111.9204 56.996759 
L 112.2552 63.342707 
L 112.59 59.297333 
L 113.2596 68.24306 
L 113.5944 70.876129 
L 113.9292 70.776551 
L 114.264 72.794346 
L 114.5988 80.54395 
L 114.9336 84.013833 
L 115.2684 95.756701 
L 115.6032 92.686725 
L 115.938 100.708585 
L 116.2728 105.958326 
L 116.6076 105.719017 
L 116.9424 109.117387 
L 117.2772 102.192893 
L 117.612 108.277869 
L 117.9468 107.072351 
L 118.2816 107.251178 
L 118.6164 112.562096 
L 118.9512 110.27082 
L 119.286 111.034401 
L 119.9556 103.883025 
L 120.2904 93.817131 
L 120.6252 87.172614 
L 120.96 89.085565 
L 121.2948 90.31145 
L 121.6296 84.722611 
L 122.2992 77.840278 
L 122.634 86.695875 
L 122.9688 86.82229 
L 123.3036 90.654643 
L 123.6384 89.23501 
L 123.9732 89.737185 
L 124.308 85.094821 
L 124.6428 83.430282 
L 124.9776 79.262793 
L 125.3124 81.796253 
L 125.6472 86.850561 
L 125.982 88.979448 
L 126.3168 89.066669 
L 126.6516 87.124768 
L 126.9864 75.414526 
L 127.3212 75.649198 
L 127.656 80.950866 
L 128.3256 85.277773 
L 128.6604 82.754081 
L 128.9952 90.953156 
L 129.33 90.632921 
L 129.6648 89.839094 
L 129.9996 88.655603 
L 130.3344 91.722641 
L 130.6692 92.921222 
L 131.004 100.041252 
L 131.6736 104.948223 
L 132.0084 103.026288 
L 132.3432 108.437519 
L 132.678 104.914988 
L 133.0128 98.009676 
L 133.3476 108.026119 
L 133.6824 106.098514 
L 134.0172 102.996173 
L 134.352 105.980149 
L 134.6868 107.802375 
L 135.0216 108.404221 
L 135.6912 111.127898 
L 136.026 118.542643 
L 136.6956 109.02687 
L 137.0304 112.679284 
L 137.3652 119.094894 
L 137.7 116.920947 
L 138.0348 119.362789 
L 138.3696 118.771745 
L 138.7044 120.107286 
L 139.374 114.305003 
L 139.7088 117.44219 
L 140.3784 129.680472 
L 140.7132 127.338216 
L 141.048 131.988375 
L 141.7176 136.105018 
L 142.0524 136.296059 
L 142.3872 143.32122 
L 142.722 142.678237 
L 143.0568 140.883201 
L 143.3916 140.575217 
L 143.7264 141.661097 
L 144.0612 141.324237 
L 144.396 139.939878 
L 144.7308 149.679849 
L 145.0656 143.411264 
L 145.4004 142.083709 
L 145.7352 144.331356 
L 146.07 145.650463 
L 146.4048 144.005136 
L 146.7396 144.398078 
L 147.0744 151.245477 
L 147.4092 144.731109 
L 147.744 145.102684 
L 148.0788 141.685427 
L 148.4136 144.078361 
L 148.7484 138.882216 
L 149.0832 137.866729 
L 149.418 135.687978 
L 149.7528 139.500439 
L 150.0876 135.228919 
L 150.4224 132.70286 
L 150.7572 127.83161 
L 151.4268 132.115326 
L 151.7616 123.451721 
L 152.0964 127.728194 
L 152.4312 128.258278 
L 152.766 123.844466 
L 153.1008 123.451423 
L 153.4356 121.099579 
L 153.7704 122.740807 
L 154.1052 121.239554 
L 154.44 126.601936 
L 154.7748 120.07764 
L 155.1096 120.566963 
L 155.4444 123.373087 
L 155.7792 120.683008 
L 156.114 122.582051 
L 156.7836 133.24097 
L 157.1184 130.656814 
L 157.788 131.770598 
L 158.1228 127.706122 
L 158.4576 132.100531 
L 158.7924 134.8485 
L 159.1272 136.262529 
L 159.462 135.920105 
L 159.7968 136.073612 
L 160.1316 137.116507 
L 160.4664 137.338499 
L 160.8012 137.724284 
L 161.4708 143.149309 
L 161.8056 142.212809 
L 162.4752 149.148851 
L 162.81 150.154973 
L 163.1448 150.657918 
L 163.4796 143.495049 
L 163.8144 145.891398 
L 164.484 140.196988 
L 164.8188 144.364022 
L 165.1536 141.755806 
L 165.4884 145.846732 
L 165.8232 154.691554 
L 166.158 152.844427 
L 166.4928 158.296238 
L 166.8276 156.973887 
L 167.1624 159.00833 
L 167.832 150.906637 
L 168.1668 152.342123 
L 168.5016 154.488695 
L 168.8364 158.195119 
L 169.1712 159.489521 
L 169.8408 161.347406 
L 170.1756 160.902997 
L 170.5104 159.25419 
L 170.8452 158.239432 
L 171.18 160.481632 
L 171.5148 164.598546 
L 171.8496 160.869047 
L 172.5192 164.653954 
L 172.854 166.077541 
L 173.1888 171.028766 
L 173.8584 173.433065 
L 174.528 170.163335 
L 174.8628 170.153692 
L 175.1976 167.770488 
L 175.5324 166.875405 
L 175.8672 166.917138 
L 176.202 166.489093 
L 176.5368 166.998784 
L 177.2064 168.750562 
L 177.5412 171.685505 
L 177.876 170.981859 
L 178.2108 173.495766 
L 178.5456 171.432241 
L 178.8804 172.060146 
L 179.2152 171.936546 
L 179.8848 169.067263 
L 180.2196 173.138096 
L 180.5544 173.647726 
L 180.8892 171.493919 
L 181.224 175.76486 
L 181.5588 174.843108 
L 181.8936 180.277236 
L 182.2284 182.56496 
L 182.5632 182.481324 
L 182.898 186.072533 
L 183.2328 188.096875 
L 183.5676 191.025958 
L 183.9024 187.898682 
L 184.2372 187.570825 
L 184.572 186.43243 
L 184.9068 186.887294 
L 185.2416 187.604173 
L 185.5764 190.846286 
L 185.9112 191.401695 
L 186.246 192.837551 
L 186.5808 191.25882 
L 187.5852 184.483033 
L 187.92 185.742821 
L 188.2548 188.046625 
L 188.5896 186.519679 
L 188.9244 185.792854 
L 189.2592 189.441258 
L 189.594 188.74893 
L 189.9288 187.144759 
L 190.2636 187.025717 
L 190.5984 187.400259 
L 190.9332 189.025343 
L 191.268 191.861605 
L 191.6028 190.364217 
L 192.2724 191.400721 
L 192.6072 188.13348 
L 192.942 186.772054 
L 193.2768 186.018544 
L 193.6116 185.726492 
L 194.616 176.744783 
L 194.9508 175.377095 
L 195.2856 180.388064 
L 195.6204 180.111686 
L 195.9552 180.403464 
L 196.29 180.193631 
L 196.6248 178.081197 
L 196.9596 184.401119 
L 197.2944 185.600636 
L 197.6292 185.042197 
L 197.964 186.016357 
L 198.2988 188.929347 
L 198.6336 187.222908 
L 198.9684 186.664256 
L 199.3032 188.640835 
L 199.638 188.019736 
L 199.9728 186.382703 
L 200.3076 186.371884 
L 200.6424 184.735018 
L 200.9772 184.570954 
L 201.312 185.401562 
L 201.6468 187.807734 
L 201.9816 187.979529 
L 202.3164 187.592148 
L 202.6512 185.835184 
L 202.986 186.07249 
L 203.3208 185.13291 
L 203.9904 188.724096 
L 204.3252 188.941591 
L 204.66 191.012224 
L 204.9948 189.455477 
L 205.3296 188.553704 
L 205.9992 187.326848 
L 206.334 183.255578 
L 206.6688 184.26044 
L 207.0036 188.90858 
L 207.3384 188.517071 
L 207.6732 188.617104 
L 208.008 189.638499 
L 208.3428 191.53874 
L 208.6776 192.364964 
L 209.0124 192.028559 
L 209.3472 192.966694 
L 209.682 188.537207 
L 210.3516 191.955046 
L 210.6864 196.230379 
L 211.0212 195.794585 
L 211.356 199.316574 
L 211.6908 200.19874 
L 212.0256 200.641851 
L 212.3604 201.772719 
L 212.6952 199.064214 
L 213.03 197.430154 
L 213.3648 195.19429 
L 213.6996 196.752332 
L 214.0344 194.815236 
L 214.3692 193.933527 
L 214.704 192.54074 
L 215.0388 190.636729 
L 215.3736 192.37226 
L 215.7084 193.159322 
L 216.0432 191.580771 
L 216.378 196.573119 
L 216.7128 193.967097 
L 217.0476 192.968994 
L 217.3824 193.052908 
L 217.7172 192.648637 
L 218.052 194.550051 
L 218.3868 195.175058 
L 219.0564 190.859262 
L 219.3912 185.729062 
L 219.726 185.881714 
L 220.7304 190.295991 
L 221.0652 190.445515 
L 221.4 189.712269 
L 221.7348 189.778665 
L 222.0696 187.655144 
L 222.4044 188.124526 
L 222.7392 188.81568 
L 223.074 189.959243 
L 223.7436 195.983533 
L 224.0784 198.036083 
L 225.0828 191.82628 
L 225.4176 194.320387 
L 225.7524 197.850691 
L 226.0872 198.960672 
L 226.422 198.671178 
L 226.7568 197.845496 
L 227.0916 196.083006 
L 227.4264 195.589057 
L 227.7612 192.53387 
L 228.096 192.945641 
L 228.4308 194.622747 
L 228.7656 197.621574 
L 229.1004 199.12295 
L 229.4352 198.725535 
L 229.77 200.195461 
L 230.1048 198.689649 
L 230.4396 196.352083 
L 230.7744 200.449185 
L 231.1092 199.067155 
L 231.444 202.747224 
L 231.7788 202.134214 
L 232.1136 200.240332 
L 232.4484 200.136168 
L 232.7832 202.195665 
L 233.118 203.099715 
L 233.7876 203.770216 
L 234.4572 204.236597 
L 234.792 203.920709 
L 235.1268 205.721116 
L 235.4616 206.067873 
L 235.7964 203.909215 
L 236.466 205.135657 
L 236.8008 203.570895 
L 237.1356 207.411611 
L 237.4704 205.782131 
L 237.8052 206.68628 
L 238.4748 206.320647 
L 238.8096 204.988182 
L 239.1444 205.377784 
L 239.4792 206.356595 
L 239.814 204.523172 
L 240.1488 208.00003 
L 240.4836 207.972362 
L 240.8184 209.807658 
L 241.1532 210.800394 
L 241.488 208.241793 
L 241.8228 208.302133 
L 242.1576 208.038566 
L 242.4924 210.46056 
L 242.8272 211.395842 
L 243.162 211.149495 
L 243.4968 210.702109 
L 243.8316 209.915426 
L 244.1664 209.904208 
L 244.836 208.61888 
L 245.1708 211.072793 
L 245.5056 211.026035 
L 246.1752 209.290313 
L 246.51 209.770568 
L 246.8448 210.821675 
L 247.1796 212.243572 
L 247.5144 212.404311 
L 247.8492 211.020344 
L 248.184 213.489738 
L 248.5188 214.273093 
L 248.8536 215.597913 
L 249.1884 214.718423 
L 249.858 215.885838 
L 250.1928 216.126939 
L 250.5276 215.635358 
L 250.8624 216.074538 
L 251.1972 219.441616 
L 251.8668 218.452825 
L 252.2016 218.678985 
L 252.5364 219.787952 
L 253.206 219.061593 
L 253.5408 219.536748 
L 253.8756 219.752585 
L 254.2104 220.672555 
L 254.5452 220.843992 
L 254.88 222.32393 
L 255.2148 221.945116 
L 255.5496 222.813664 
L 255.8844 222.601217 
L 256.2192 223.86513 
L 256.554 224.371988 
L 256.8888 224.465127 
L 257.2236 225.860155 
L 257.5584 225.768508 
L 257.8932 226.071374 
L 258.5628 228.41838 
L 258.8976 227.985713 
L 259.2324 227.333127 
L 259.5672 227.43197 
L 260.2368 226.960764 
L 260.5716 226.709886 
L 260.9064 225.720915 
L 261.2412 226.926985 
L 261.576 226.411405 
L 262.2456 226.881261 
L 262.9152 227.395796 
L 263.25 228.312192 
L 263.5848 228.180487 
L 263.9196 226.973173 
L 264.5892 227.016926 
L 264.924 227.538812 
L 265.2588 227.626075 
L 265.5936 227.281082 
L 266.2632 227.89593 
L 266.598 227.600929 
L 266.9328 228.281043 
L 267.2676 228.099409 
L 267.6024 227.504595 
L 267.9372 226.492919 
L 268.272 226.563047 
L 268.9416 224.670046 
L 269.6112 226.483656 
L 269.946 226.720367 
L 270.2808 225.929417 
L 270.6156 225.986792 
L 270.9504 226.462456 
L 271.2852 225.256576 
L 271.62 225.02275 
L 271.9548 226.931184 
L 272.2896 226.689495 
L 272.6244 226.289228 
L 272.9592 226.112726 
L 273.294 225.758387 
L 273.6288 225.812149 
L 273.9636 226.863474 
L 274.2984 227.146759 
L 275.3028 229.442353 
L 275.6376 229.13347 
L 275.9724 229.065687 
L 276.642 229.821557 
L 276.9768 229.837266 
L 277.3116 229.114052 
L 277.6464 230.502998 
L 277.9812 230.258371 
L 278.316 230.616809 
L 278.9856 233.014376 
L 279.3204 233.534364 
L 279.99 233.193962 
L 280.3248 233.723542 
L 280.6596 233.16698 
L 280.9944 232.363212 
L 281.3292 232.129416 
L 281.664 232.482872 
L 282.3336 231.364644 
L 282.6684 230.825254 
L 283.0032 231.244668 
L 283.338 233.018068 
L 283.6728 231.812436 
L 284.0076 232.791337 
L 284.3424 232.811966 
L 284.6772 231.440481 
L 285.012 231.235707 
L 285.3468 230.641555 
L 286.0164 232.701789 
L 286.3512 233.010521 
L 286.686 232.389017 
L 287.0208 232.593114 
L 287.3556 233.056382 
L 287.6904 232.943868 
L 288.0252 232.325107 
L 288.6948 233.863028 
L 289.0296 234.291147 
L 289.3644 233.711757 
L 289.6992 233.583164 
L 290.034 232.406884 
L 290.3688 231.855426 
L 290.7036 231.876705 
L 291.0384 231.110512 
L 291.3732 230.977294 
L 291.708 231.424279 
L 292.0428 231.002724 
L 292.3776 231.443699 
L 292.7124 231.623554 
L 293.0472 230.808754 
L 293.382 230.873515 
L 293.7168 231.385416 
L 294.0516 231.673856 
L 294.3864 231.048454 
L 295.3908 231.950657 
L 295.7256 231.839692 
L 296.0604 232.073615 
L 296.3952 233.033792 
L 297.0648 234.05457 
L 297.7344 232.933804 
L 298.0692 232.597762 
L 298.404 232.892309 
L 299.4084 234.222054 
L 299.7432 232.894834 
L 300.078 234.182421 
L 300.4128 233.881954 
L 300.7476 234.578487 
L 301.0824 234.632767 
L 302.0868 236.287947 
L 302.4216 235.469853 
L 302.7564 235.535287 
L 303.0912 235.910446 
L 303.426 235.644729 
L 303.7608 235.639695 
L 304.0956 235.289288 
L 304.4304 236.197282 
L 304.7652 236.054886 
L 305.1 235.688997 
L 305.4348 236.495028 
L 305.7696 236.289035 
L 306.1044 235.498412 
L 306.4392 235.505709 
L 307.1088 234.764763 
L 307.4436 235.128648 
L 307.7784 235.108652 
L 308.1132 235.89755 
L 308.448 236.113498 
L 308.7828 235.988181 
L 309.1176 235.64425 
L 309.4524 235.632276 
L 309.7872 235.281725 
L 310.122 235.830943 
L 310.7916 235.870583 
L 311.1264 234.983978 
L 311.4612 235.092644 
L 311.796 235.344124 
L 312.1308 235.333534 
L 312.4656 235.789722 
L 312.8004 235.696832 
L 313.1352 235.873828 
L 313.47 236.73232 
L 313.8048 236.758807 
L 314.1396 236.902103 
L 314.4744 237.631359 
L 314.8092 237.659802 
L 315.144 237.030144 
L 315.8136 236.524016 
L 316.1484 237.139345 
L 316.4832 236.929877 
L 316.818 236.863691 
L 317.4876 236.434224 
L 317.8224 237.061801 
L 318.1572 237.080087 
L 318.492 237.414387 
L 318.8268 237.435949 
L 319.1616 237.821698 
L 319.4964 237.273542 
L 320.166 238.027589 
L 320.5008 237.996923 
L 320.8356 238.440808 
L 321.1704 238.609855 
L 321.5052 238.935806 
L 321.84 238.396144 
L 322.1748 238.082226 
L 322.5096 238.105755 
L 322.8444 238.265633 
L 323.1792 237.885866 
L 323.8488 237.5078 
L 324.1836 237.518999 
L 324.5184 238.240252 
L 324.8532 238.285735 
L 325.188 238.500317 
L 325.5228 238.244751 
L 325.8576 237.835689 
L 326.1924 238.110193 
L 326.5272 237.918844 
L 326.862 237.199183 
L 327.1968 237.491199 
L 327.5316 236.771162 
L 327.8664 237.15557 
L 328.8708 237.145344 
L 329.5404 237.765796 
L 329.8752 238.045851 
L 330.5448 237.774711 
L 331.2144 236.226651 
L 331.5492 236.465304 
L 331.884 236.315687 
L 332.2188 235.851751 
L 333.2232 235.845798 
L 333.558 235.429388 
L 333.8928 235.847867 
L 334.2276 236.004212 
L 334.8972 235.630519 
L 335.232 235.513855 
L 335.5668 235.695292 
L 335.9016 235.223714 
L 336.2364 234.15719 
L 336.5712 233.940354 
L 336.906 234.044745 
L 337.2408 233.638844 
L 337.9104 234.340572 
L 338.2452 234.323258 
L 338.58 235.687704 
L 338.9148 236.247526 
L 339.2496 236.410175 
L 339.9192 237.492779 
L 340.254 237.67973 
L 340.5888 238.373294 
L 341.5932 238.73741 
L 341.928 238.288785 
L 343.2672 238.077977 
L 343.602 238.49438 
L 343.9368 238.539875 
L 344.2716 238.417936 
L 344.6064 238.964592 
L 345.276 238.210486 
L 345.6108 238.466419 
L 345.9456 238.562294 
L 346.2804 238.908505 
L 346.6152 238.640444 
L 346.95 239.056189 
L 347.2848 239.140422 
L 347.6196 239.463333 
L 347.9544 239.444697 
L 348.2892 240.101975 
L 348.624 239.643624 
L 348.9588 239.990919 
L 349.6284 240.044335 
L 350.298 240.610021 
L 350.6328 240.301499 
L 350.9676 240.479814 
L 351.3024 240.389353 
L 351.972 240.87125 
L 352.3068 240.719556 
L 352.6416 240.41623 
L 352.9764 240.475067 
L 353.3112 240.949626 
L 353.646 240.312801 
L 353.9808 240.603065 
L 354.3156 241.111323 
L 354.6504 240.297647 
L 354.9852 240.434757 
L 355.32 240.924467 
L 355.6548 241.142849 
L 356.3244 240.967756 
L 356.6592 241.238746 
L 356.994 240.674439 
L 357.3288 240.845226 
L 357.6636 241.226742 
L 358.3332 240.504458 
L 358.668 240.776533 
L 359.0028 241.230867 
L 359.3376 240.911591 
L 359.6724 241.566614 
L 360.0072 241.933653 
L 360.342 241.655395 
L 361.6812 241.691704 
L 362.016 242.075169 
L 362.6856 241.323543 
L 363.3552 241.246581 
L 363.69 240.522824 
L 364.3596 240.700151 
L 364.6944 240.581101 
L 365.364 239.544265 
L 365.6988 239.638173 
L 366.0336 239.527109 
L 366.3684 240.028349 
L 366.7032 240.136876 
L 367.3728 240.763884 
L 367.7076 240.218024 
L 368.3772 240.666074 
L 368.712 240.546184 
L 369.0468 240.115959 
L 369.3816 239.949926 
L 369.7164 238.983181 
L 370.0512 239.011624 
L 370.7208 238.807714 
L 371.0556 238.253108 
L 371.3904 238.048179 
L 371.7252 238.09589 
L 372.06 238.483395 
L 372.3948 238.386418 
L 372.7296 237.826168 
L 373.0644 237.997507 
L 374.0688 237.311783 
L 374.4036 237.660866 
L 374.7384 236.668849 
L 375.0732 237.249727 
L 375.408 237.409012 
L 375.7428 237.004973 
L 376.0776 236.873378 
L 376.4124 236.501843 
L 376.7472 236.729747 
L 377.4168 236.758055 
L 377.7516 236.049867 
L 378.4212 235.337215 
L 378.756 235.66369 
L 379.0908 235.192915 
L 379.4256 235.079948 
L 379.7604 234.379327 
L 380.0952 233.318905 
L 380.7648 233.716047 
L 381.0996 234.189098 
L 381.4344 234.265558 
L 381.7692 234.468072 
L 382.104 234.279799 
L 382.4388 234.356369 
L 382.7736 234.547017 
L 383.1084 233.992149 
L 383.4432 234.497434 
L 383.778 234.271017 
L 384.1128 234.486139 
L 384.4476 234.107199 
L 384.7824 233.365925 
L 385.1172 233.535222 
L 385.452 233.291242 
L 385.7868 233.190954 
L 386.1216 233.641899 
L 386.7912 233.34933 
L 387.126 233.118502 
L 387.4608 233.230871 
L 387.7956 233.177857 
L 388.1304 233.825687 
L 388.4652 234.020507 
L 388.8 233.721479 
L 388.8 233.721479 
" style="fill:none;stroke:#1f77b4;stroke-linecap:square;stroke-width:1.5;"/>
   </g>
   <g id="line2d_17">
    <path clip-path="url(#p93e2e39415)" d="M 54 128.414915 
L 54.3348 126.91556 
L 54.6696 123.078125 
L 55.3392 105.472103 
L 55.674 109.972177 
L 56.0088 105.742559 
L 56.6784 107.051528 
L 57.0132 105.242808 
L 57.348 104.650436 
L 57.6828 97.838179 
L 58.0176 94.18519 
L 58.3524 93.659244 
L 59.022 89.903096 
L 59.3568 82.192126 
L 59.6916 83.367791 
L 60.0264 81.784333 
L 60.3612 86.376611 
L 60.696 99.222925 
L 61.0308 96.130027 
L 61.3656 91.916898 
L 61.7004 95.685363 
L 62.0352 84.20896 
L 62.37 91.787082 
L 62.7048 91.636207 
L 63.0396 92.656116 
L 63.7092 77.058068 
L 64.044 76.290933 
L 64.3788 74.277172 
L 64.7136 79.256248 
L 65.0484 89.766399 
L 65.3832 91.610607 
L 65.718 90.900544 
L 66.3876 78.268862 
L 67.0572 82.164581 
L 67.7268 95.001376 
L 68.0616 103.270962 
L 68.3964 93.947465 
L 69.066 98.737682 
L 69.4008 104.72621 
L 69.7356 101.159519 
L 70.0704 108.687536 
L 70.4052 109.712591 
L 70.74 113.726809 
L 71.0748 112.106086 
L 71.4096 114.400424 
L 71.7444 119.47318 
L 72.0792 119.656073 
L 72.414 117.931081 
L 72.7488 117.717492 
L 73.0836 116.503529 
L 73.4184 119.241006 
L 73.7532 120.80922 
L 74.088 123.612841 
L 74.4228 125.116339 
L 74.7576 128.37412 
L 75.0924 134.948409 
L 75.4272 134.353637 
L 75.762 135.884257 
L 76.0968 141.724391 
L 76.4316 140.168458 
L 76.7664 143.357844 
L 77.1012 143.234742 
L 77.436 140.77572 
L 77.7708 140.380439 
L 78.1056 136.378304 
L 78.4404 140.82409 
L 78.7752 139.468771 
L 79.7796 146.906598 
L 80.1144 147.97893 
L 80.4492 147.847343 
L 80.784 151.629626 
L 81.1188 148.808479 
L 81.4536 147.343944 
L 81.7884 152.309974 
L 82.1232 147.604656 
L 82.458 141.269275 
L 82.7928 137.157576 
L 83.1276 137.860232 
L 83.4624 141.682685 
L 83.7972 138.031607 
L 84.132 139.5189 
L 84.4668 135.181777 
L 84.8016 134.474553 
L 85.1364 130.878808 
L 85.4712 129.577883 
L 85.806 126.89574 
L 86.1408 126.916588 
L 86.4756 119.771388 
L 86.8104 119.309428 
L 87.1452 117.691004 
L 87.48 109.580217 
L 88.1496 120.950055 
L 88.4844 116.967781 
L 88.8192 121.914562 
L 89.154 113.798522 
L 89.4888 115.649485 
L 89.8236 118.877967 
L 90.828 95.142274 
L 91.1628 90.69145 
L 91.4976 95.077209 
L 91.8324 85.449988 
L 92.1672 86.929413 
L 92.8368 77.767134 
L 93.1716 78.700545 
L 93.5064 75.409245 
L 93.8412 70.302668 
L 94.176 68.229937 
L 94.5108 74.5642 
L 94.8456 72.981113 
L 95.1804 65.447052 
L 95.5152 69.569519 
L 95.85 70.51641 
L 96.1848 73.072389 
L 96.5196 62.449698 
L 96.8544 58.493905 
L 97.1892 56.094516 
L 97.524 60.878353 
L 97.8588 57.704679 
L 98.1936 61.878135 
L 98.5284 61.782293 
L 98.8632 65.642233 
L 99.5328 58.341756 
L 99.8676 59.7025 
L 100.2024 57.38833 
L 100.872 72.762277 
L 101.2068 70.358368 
L 101.5416 69.494387 
L 101.8764 65.904643 
L 102.2112 51.513992 
L 102.546 45.56794 
L 102.8808 51.513775 
L 103.2156 44.443636 
L 103.5504 52.962851 
L 103.8852 55.930517 
L 104.22 56.448398 
L 104.5548 45.717746 
L 105.2244 55.864725 
L 105.5592 56.568648 
L 105.894 60.70131 
L 106.2288 53.896788 
L 106.8984 67.488006 
L 107.568 73.018277 
L 107.9028 61.91293 
L 108.2376 56.246358 
L 108.5724 55.80397 
L 108.9072 63.318437 
L 109.242 58.335215 
L 109.5768 64.427985 
L 109.9116 73.413203 
L 110.2464 66.705645 
L 110.5812 64.942023 
L 110.916 59.539246 
L 111.2508 57.696142 
L 111.5856 52.485401 
L 111.9204 56.628302 
L 112.2552 62.977503 
L 112.59 58.97631 
L 113.2596 68.015809 
L 113.5944 70.723429 
L 113.9292 70.713919 
L 114.264 72.810291 
L 114.5988 80.478453 
L 114.9336 83.998119 
L 115.2684 95.416565 
L 115.6032 92.388588 
L 115.938 100.300748 
L 116.2728 105.546633 
L 116.6076 105.37929 
L 116.9424 108.817206 
L 117.2772 101.780624 
L 117.612 107.831021 
L 117.9468 106.688798 
L 118.2816 106.940053 
L 118.6164 112.234776 
L 118.9512 109.989514 
L 119.286 110.82267 
L 119.9556 103.715528 
L 120.2904 93.364349 
L 120.6252 86.640087 
L 120.96 88.629315 
L 121.2948 89.93458 
L 121.6296 84.317471 
L 122.2992 77.520091 
L 122.634 86.251464 
L 122.9688 86.460477 
L 123.3036 90.337167 
L 123.6384 88.98945 
L 123.9732 89.572355 
L 124.308 84.940788 
L 124.6428 83.35018 
L 124.9776 79.214357 
L 125.3124 81.814562 
L 125.6472 86.875699 
L 125.982 89.071518 
L 126.3168 89.23958 
L 126.6516 87.369927 
L 126.9864 75.337244 
L 127.3212 75.659569 
L 127.656 80.966648 
L 128.3256 85.430854 
L 128.6604 82.974248 
L 128.9952 91.046322 
L 129.33 90.806085 
L 129.6648 90.091638 
L 129.9996 88.986695 
L 130.3344 92.098238 
L 130.6692 93.368355 
L 131.004 100.386099 
L 131.6736 105.387925 
L 132.0084 103.532881 
L 132.3432 108.89928 
L 132.678 105.417253 
L 133.0128 98.446784 
L 133.3476 108.186176 
L 133.6824 106.320066 
L 134.0172 103.262978 
L 134.352 106.284147 
L 134.6868 108.16263 
L 135.0216 108.832818 
L 135.6912 111.674807 
L 136.026 118.93432 
L 136.6956 109.415798 
L 137.0304 113.080756 
L 137.3652 119.397526 
L 137.7 117.27749 
L 138.0348 119.756455 
L 138.3696 119.231769 
L 138.7044 120.621187 
L 139.374 114.913357 
L 139.7088 118.067524 
L 140.3784 130.093578 
L 140.7132 127.798252 
L 141.048 132.404439 
L 141.7176 136.5857 
L 142.0524 136.832896 
L 142.3872 143.669112 
L 142.722 143.080276 
L 143.0568 141.331868 
L 143.3916 141.079697 
L 143.7264 142.209746 
L 144.0612 141.928622 
L 144.396 140.598396 
L 144.7308 149.918881 
L 145.0656 143.521394 
L 145.4004 142.241391 
L 145.7352 144.516062 
L 146.07 145.877367 
L 146.4048 144.276089 
L 146.7396 144.720485 
L 147.0744 151.382443 
L 147.4092 144.713137 
L 147.744 145.137085 
L 148.0788 141.719905 
L 148.4136 144.139557 
L 148.7484 138.874254 
L 149.0832 137.910656 
L 149.418 135.769294 
L 149.7528 139.572534 
L 150.0876 135.278865 
L 150.4224 132.785291 
L 150.7572 127.877436 
L 151.4268 132.240745 
L 151.7616 123.327081 
L 152.0964 127.598513 
L 152.4312 128.18945 
L 152.766 123.756469 
L 153.1008 123.426363 
L 153.4356 121.117214 
L 153.7704 122.812023 
L 154.1052 121.367636 
L 154.44 126.67776 
L 154.7748 120.048973 
L 155.1096 120.602719 
L 155.4444 123.441928 
L 155.7792 120.789908 
L 156.114 122.737798 
L 156.7836 133.283823 
L 157.1184 130.732225 
L 157.788 131.961848 
L 158.1228 127.895529 
L 158.4576 132.265333 
L 158.7924 135.036044 
L 159.1272 136.496515 
L 159.462 136.211701 
L 159.7968 136.422035 
L 160.1316 137.513839 
L 160.4664 137.791474 
L 160.8012 138.231484 
L 161.4708 143.675264 
L 161.8056 142.793404 
L 162.4752 149.683215 
L 162.81 150.729297 
L 163.1448 151.278021 
L 163.4796 143.952799 
L 163.8144 146.364901 
L 164.484 140.728014 
L 164.8188 144.851193 
L 165.1536 142.277276 
L 165.4884 146.325774 
L 165.8232 154.818404 
L 166.158 153.004935 
L 166.4928 158.345834 
L 166.8276 157.061717 
L 167.1624 159.118402 
L 167.832 150.937457 
L 168.1668 152.411585 
L 168.5016 154.58172 
L 168.8364 158.260789 
L 169.1712 159.591029 
L 169.8408 161.526856 
L 170.1756 161.127197 
L 170.5104 159.513125 
L 170.8452 158.54187 
L 171.18 160.795104 
L 171.5148 164.848996 
L 171.8496 161.093885 
L 172.5192 164.916134 
L 172.854 166.36611 
L 173.1888 171.199399 
L 173.8584 173.658044 
L 174.528 170.443714 
L 174.8628 170.474392 
L 175.1976 168.106788 
L 175.5324 167.252411 
L 175.8672 167.335804 
L 176.202 166.950853 
L 176.5368 167.498011 
L 177.2064 169.311762 
L 177.5412 172.214727 
L 177.876 171.552414 
L 178.2108 174.048117 
L 178.5456 172.011302 
L 178.8804 172.671376 
L 179.2152 172.587867 
L 179.8848 169.797075 
L 180.2196 173.771744 
L 180.5544 174.313945 
L 180.8892 172.188117 
L 181.224 176.347467 
L 181.5588 175.465019 
L 181.8936 180.702231 
L 182.2284 182.973878 
L 182.5632 182.924751 
L 182.898 186.433183 
L 183.2328 188.446539 
L 183.5676 191.322461 
L 183.9024 188.159562 
L 184.2372 187.863801 
L 184.572 186.752583 
L 184.9068 187.235507 
L 185.2416 187.97606 
L 185.5764 191.148119 
L 185.9112 191.727858 
L 186.246 193.167741 
L 186.5808 191.606199 
L 186.9156 189.453577 
L 187.2504 186.56286 
L 187.5852 184.834314 
L 187.92 186.108134 
L 188.2548 188.390424 
L 188.5896 186.885334 
L 188.9244 186.19097 
L 189.2592 189.748223 
L 189.594 189.086439 
L 189.9288 187.502006 
L 190.2636 187.415335 
L 190.5984 187.818123 
L 190.9332 189.442894 
L 191.268 192.226002 
L 191.6028 190.748993 
L 192.2724 191.833676 
L 192.6072 188.530908 
L 192.942 187.195262 
L 193.2768 186.474593 
L 193.6116 186.216352 
L 194.616 177.193549 
L 194.9508 175.859125 
L 195.2856 180.712016 
L 195.6204 180.471654 
L 195.9552 180.79648 
L 196.29 180.622716 
L 196.6248 178.527717 
L 196.9596 184.577787 
L 197.2944 185.796044 
L 197.6292 185.269777 
L 197.964 186.265837 
L 198.2988 189.134554 
L 198.6336 187.441971 
L 198.9684 186.914858 
L 199.3032 188.884897 
L 199.638 188.294513 
L 199.9728 186.675446 
L 200.3076 186.696849 
L 200.6424 185.080402 
L 200.9772 184.950038 
L 201.312 185.80339 
L 201.6468 188.182951 
L 201.9816 188.384825 
L 202.3164 188.030256 
L 202.6512 186.293415 
L 202.986 186.560867 
L 203.3208 185.65427 
L 203.9904 189.230249 
L 204.3252 189.476385 
L 204.66 191.525088 
L 204.9948 189.99198 
L 205.3296 189.122447 
L 205.9992 187.963812 
L 206.334 183.835269 
L 206.6688 184.857282 
L 207.0036 189.338037 
L 207.3384 188.979039 
L 207.6732 189.109221 
L 208.008 190.144766 
L 208.3428 192.029974 
L 208.6776 192.872798 
L 209.0124 192.567585 
L 209.3472 193.51856 
L 209.682 188.99051 
L 210.3516 192.395829 
L 210.6864 196.516608 
L 211.0212 196.108829 
L 211.356 199.527224 
L 211.6908 200.423654 
L 212.0256 200.887964 
L 212.3604 202.025281 
L 212.6952 199.281083 
L 213.03 197.654681 
L 213.3648 195.408909 
L 213.6996 196.966545 
L 214.0344 195.030257 
L 214.3692 194.173431 
L 214.704 192.798564 
L 215.0388 190.901825 
L 215.3736 192.63435 
L 215.7084 193.441463 
L 216.0432 191.87857 
L 216.378 196.67024 
L 216.7128 194.03412 
L 217.0476 193.057413 
L 217.3824 193.170075 
L 217.7172 192.794335 
L 218.052 194.688628 
L 218.3868 195.336517 
L 219.0564 191.008492 
L 219.3912 185.699191 
L 219.726 185.884315 
L 220.7304 190.335864 
L 221.0652 190.51537 
L 221.4 189.809137 
L 221.7348 189.905962 
L 222.0696 187.781323 
L 222.4044 188.279423 
L 222.7392 188.996125 
L 223.074 190.1564 
L 223.7436 196.070546 
L 224.0784 198.108581 
L 225.0828 191.869638 
L 225.4176 194.338502 
L 225.7524 197.786699 
L 226.0872 198.912563 
L 226.422 198.648191 
L 226.7568 197.842199 
L 227.0916 196.077551 
L 227.4264 195.609043 
L 227.7612 192.49851 
L 228.096 192.938136 
L 228.4308 194.619686 
L 228.7656 197.567087 
L 229.1004 199.075051 
L 229.4352 198.701912 
L 229.77 200.177462 
L 230.1048 198.674768 
L 230.4396 196.310902 
L 230.7744 200.286614 
L 231.1092 198.907094 
L 231.444 202.495087 
L 231.7788 201.899518 
L 232.1136 199.984739 
L 232.4484 199.905511 
L 232.7832 201.957583 
L 233.118 202.881763 
L 233.7876 203.600339 
L 234.4572 204.11408 
L 234.792 203.819905 
L 235.1268 205.612835 
L 235.4616 205.981623 
L 235.7964 203.789689 
L 236.466 205.05723 
L 236.8008 203.486544 
L 237.1356 207.204432 
L 237.4704 205.558987 
L 237.8052 206.480856 
L 238.4748 206.157613 
L 238.8096 204.823271 
L 239.1444 205.235521 
L 239.4792 206.229336 
L 239.814 204.375771 
L 240.1488 207.758099 
L 240.4836 207.75191 
L 240.8184 209.578571 
L 241.1532 210.585127 
L 241.488 207.950816 
L 241.8228 208.033027 
L 242.1576 207.788606 
L 242.4924 210.177762 
L 242.8272 211.128746 
L 243.162 210.900035 
L 243.4968 210.467602 
L 243.8316 209.689251 
L 244.1664 209.69864 
L 244.836 208.439296 
L 245.1708 210.853754 
L 245.5056 210.826819 
L 246.1752 209.105014 
L 246.51 209.605354 
L 247.1796 212.089406 
L 247.5144 212.269833 
L 247.8492 210.875949 
L 248.184 213.298192 
L 248.5188 214.095857 
L 248.8536 215.421169 
L 249.1884 214.544477 
L 249.858 215.743348 
L 250.1928 216.002116 
L 250.5276 215.523044 
L 250.8624 215.978425 
L 251.1972 219.213154 
L 251.8668 218.242092 
L 252.2016 218.485203 
L 252.5364 219.597628 
L 253.206 218.894724 
L 253.5408 219.384653 
L 253.8756 219.616502 
L 254.2104 220.542264 
L 254.5452 220.729106 
L 254.88 222.193268 
L 255.2148 221.824813 
L 255.5496 222.698229 
L 255.8844 222.498377 
L 256.2192 223.752718 
L 256.554 224.270337 
L 256.8888 224.376998 
L 257.2236 225.753178 
L 257.5584 225.673654 
L 257.8932 225.988366 
L 258.5628 228.310274 
L 258.8976 227.882928 
L 259.2324 227.229964 
L 259.5672 227.340877 
L 260.2368 226.889439 
L 260.5716 226.648695 
L 260.9064 225.649493 
L 261.2412 226.842696 
L 261.576 226.33209 
L 262.2456 226.825283 
L 262.9152 227.36192 
L 263.25 228.273445 
L 263.5848 228.152573 
L 263.9196 226.923335 
L 264.5892 226.99119 
L 264.924 227.519757 
L 265.2588 227.618637 
L 265.5936 227.282853 
L 266.2632 227.916776 
L 266.598 227.631855 
L 266.9328 228.312669 
L 267.2676 228.142007 
L 267.6024 227.552272 
L 267.9372 226.532873 
L 268.272 226.614997 
L 268.9416 224.714633 
L 269.6112 226.518603 
L 269.946 226.765975 
L 270.2808 225.976054 
L 270.6156 226.045752 
L 270.9504 226.528071 
L 271.2852 225.308269 
L 271.62 225.086825 
L 271.9548 226.934434 
L 272.2896 226.703727 
L 272.6244 226.312748 
L 272.9592 226.148226 
L 273.294 225.80448 
L 273.6288 225.870669 
L 273.9636 226.910053 
L 274.2984 227.203057 
L 275.3028 229.488512 
L 275.6376 229.188996 
L 275.9724 229.132232 
L 276.642 229.900287 
L 276.9768 229.926485 
L 277.3116 229.204801 
L 277.6464 230.555314 
L 277.9812 230.320208 
L 278.316 230.684687 
L 278.9856 233.023506 
L 279.3204 233.544546 
L 279.99 233.220366 
L 280.3248 233.75003 
L 280.6596 233.194207 
L 280.9944 232.382658 
L 281.3292 232.157075 
L 281.664 232.515994 
L 282.3336 231.401757 
L 282.6684 230.866017 
L 283.0032 231.290142 
L 283.338 232.991506 
L 283.6728 231.752408 
L 284.0076 232.718934 
L 284.3424 232.748774 
L 284.6772 231.329254 
L 285.012 231.132188 
L 285.3468 230.536123 
L 286.0164 232.573683 
L 286.3512 232.89104 
L 286.686 232.263885 
L 287.0208 232.477509 
L 287.3556 232.946917 
L 287.6904 232.842459 
L 288.0252 232.218868 
L 288.6948 233.751211 
L 289.0296 234.185213 
L 289.3644 233.600664 
L 289.6992 233.479541 
L 290.034 232.264856 
L 290.3688 231.710545 
L 290.7036 231.741619 
L 291.0384 230.964414 
L 291.3732 230.839867 
L 291.708 231.294806 
L 292.0428 230.875951 
L 292.3776 231.324721 
L 292.7124 231.514601 
L 293.0472 230.687954 
L 293.382 230.763133 
L 293.7168 231.281232 
L 294.0516 231.578811 
L 294.3864 230.950117 
L 295.3908 231.878574 
L 295.7256 231.776495 
L 296.0604 232.019271 
L 296.3952 232.967251 
L 297.0648 233.994447 
L 297.7344 232.868297 
L 298.0692 232.537135 
L 298.404 232.839399 
L 299.4084 234.180867 
L 299.7432 232.805566 
L 300.078 234.063108 
L 300.4128 233.766431 
L 300.7476 234.461891 
L 301.0824 234.52472 
L 302.0868 236.185231 
L 302.4216 235.345993 
L 302.7564 235.419616 
L 303.0912 235.800653 
L 303.426 235.538388 
L 303.7608 235.541063 
L 304.0956 235.192285 
L 304.4304 236.087496 
L 304.7652 235.950896 
L 305.1 235.585651 
L 305.4348 236.383487 
L 305.7696 236.181861 
L 306.1044 235.371575 
L 306.4392 235.386753 
L 307.1088 234.647447 
L 307.4436 235.017895 
L 307.7784 235.005761 
L 308.1132 235.788028 
L 308.448 236.011505 
L 308.7828 235.89237 
L 309.1176 235.550002 
L 309.4524 235.545694 
L 309.7872 235.197046 
L 310.122 235.747341 
L 310.7916 235.802352 
L 311.1264 234.893266 
L 311.4612 235.010188 
L 311.796 235.268868 
L 312.1308 235.266107 
L 312.4656 235.725314 
L 312.8004 235.639444 
L 313.1352 235.823685 
L 313.47 236.668258 
L 313.8048 236.702005 
L 314.1396 236.852241 
L 314.4744 237.572233 
L 314.8092 237.607483 
L 315.144 236.967272 
L 315.8136 236.468786 
L 316.1484 237.080516 
L 316.4832 236.875645 
L 316.818 236.816156 
L 317.4876 236.396564 
L 317.8224 237.019431 
L 318.1572 237.044754 
L 318.492 237.382742 
L 318.8268 237.411148 
L 319.1616 237.798785 
L 319.4964 237.245018 
L 320.166 238.003395 
L 320.5008 237.979163 
L 320.8356 238.422473 
L 321.1704 238.596852 
L 321.5052 238.924953 
L 321.84 238.3789 
L 322.1748 238.067098 
L 322.5096 238.097101 
L 322.8444 238.262485 
L 323.1792 237.883491 
L 323.8488 237.516115 
L 324.1836 237.534052 
L 324.5184 238.242003 
L 324.8532 238.293768 
L 325.188 238.512679 
L 325.5228 238.261129 
L 325.8576 237.852575 
L 326.1924 238.130346 
L 326.5272 237.944417 
L 326.862 237.21299 
L 327.1968 237.508418 
L 327.5316 236.776958 
L 327.8664 237.163011 
L 328.8708 237.173583 
L 329.5404 237.798939 
L 329.8752 238.08184 
L 330.5448 237.823247 
L 331.2144 236.247185 
L 331.5492 236.490867 
L 331.884 236.348085 
L 332.2188 235.88537 
L 333.2232 235.902073 
L 333.558 235.489237 
L 333.8928 235.908131 
L 334.2276 236.070537 
L 334.8972 235.7114 
L 335.232 235.602624 
L 335.5668 235.789593 
L 335.9016 235.32149 
L 336.2364 234.233385 
L 336.5712 234.024639 
L 336.906 234.136646 
L 337.2408 233.736728 
L 337.9104 234.44392 
L 338.2452 234.435003 
L 338.58 235.744096 
L 338.9148 236.299172 
L 339.2496 236.467646 
L 339.9192 237.539414 
L 340.254 237.731092 
L 340.5888 238.410657 
L 341.5932 238.789272 
L 341.928 238.340633 
L 343.2672 238.155866 
L 343.602 238.569413 
L 343.9368 238.620759 
L 344.2716 238.50528 
L 344.6064 239.042546 
L 345.276 238.294082 
L 345.6108 238.552064 
L 345.9456 238.653112 
L 346.2804 238.99809 
L 346.6152 238.735194 
L 346.95 239.146857 
L 347.2848 239.236056 
L 347.6196 239.557796 
L 347.9544 239.545041 
L 348.2892 240.183908 
L 348.624 239.724973 
L 348.9588 240.070061 
L 349.6284 240.133728 
L 350.298 240.697943 
L 350.6328 240.392769 
L 350.9676 240.573335 
L 351.3024 240.488562 
L 351.972 240.970603 
L 352.3068 240.82437 
L 352.6416 240.52492 
L 352.9764 240.588216 
L 353.3112 241.052278 
L 353.646 240.406912 
L 353.9808 240.695934 
L 354.3156 241.192502 
L 354.6504 240.356794 
L 354.9852 240.497549 
L 355.32 240.978303 
L 355.6548 241.198108 
L 356.3244 241.033143 
L 356.6592 241.303643 
L 356.994 240.731756 
L 357.3288 240.905267 
L 357.6636 241.282392 
L 358.3332 240.560949 
L 358.668 240.833194 
L 359.0028 241.280028 
L 359.3376 240.962156 
L 359.6724 241.597972 
L 360.0072 241.961326 
L 360.342 241.684301 
L 361.6812 241.738074 
L 362.016 242.116364 
L 362.6856 241.361943 
L 363.3552 241.294811 
L 363.69 240.552549 
L 364.3596 240.738925 
L 364.6944 240.62484 
L 365.364 239.577726 
L 365.6988 239.676656 
L 366.0336 239.571157 
L 366.3684 240.065236 
L 366.7032 240.178295 
L 367.3728 240.804173 
L 367.7076 240.251129 
L 368.3772 240.703363 
L 368.712 240.588432 
L 369.0468 240.156465 
L 369.3816 239.995301 
L 369.7164 238.99528 
L 370.0512 239.029662 
L 370.7208 238.837389 
L 371.0556 238.277761 
L 371.3904 238.078055 
L 371.7252 238.132019 
L 372.06 238.518967 
L 372.3948 238.428192 
L 372.7296 237.86382 
L 373.0644 238.040063 
L 374.0688 237.36977 
L 374.4036 237.719648 
L 374.7384 236.70159 
L 375.0732 237.276456 
L 375.408 237.441312 
L 375.7428 237.03919 
L 376.0776 236.914357 
L 376.4124 236.546236 
L 376.7472 236.778798 
L 377.4168 236.821182 
L 377.7516 236.105804 
L 378.4212 235.402892 
L 378.756 235.732292 
L 379.0908 235.26425 
L 379.4256 235.159327 
L 379.7604 234.454943 
L 380.0952 233.373826 
L 380.7648 233.784735 
L 381.0996 234.257918 
L 381.4344 234.342238 
L 381.7692 234.550855 
L 382.104 234.370784 
L 382.7736 234.651685 
L 383.1084 234.099422 
L 383.4432 234.602369 
L 383.778 234.384165 
L 384.1128 234.604683 
L 384.4476 234.232517 
L 384.7824 233.489151 
L 385.1172 233.665148 
L 385.452 233.430085 
L 385.7868 233.339147 
L 386.1216 233.789363 
L 386.7912 233.515563 
L 387.126 233.294276 
L 387.4608 233.414004 
L 387.7956 233.370289 
L 388.1304 234.008159 
L 388.4652 234.208238 
L 388.8 233.918453 
L 388.8 233.918453 
" style="fill:none;stroke:#ff7f0e;stroke-dasharray:1.5,2.475;stroke-dashoffset:0;stroke-width:1.5;"/>
   </g>
   <g id="patch_3">
    <path d="M 54 252 
L 54 34.56 
" style="fill:none;stroke:#000000;stroke-linecap:square;stroke-linejoin:miter;stroke-width:0.8;"/>
   </g>
   <g id="patch_4">
    <path d="M 388.8 252 
L 388.8 34.56 
" style="fill:none;stroke:#000000;stroke-linecap:square;stroke-linejoin:miter;stroke-width:0.8;"/>
   </g>
   <g id="patch_5">
    <path d="M 54 252 
L 388.8 252 
" style="fill:none;stroke:#000000;stroke-linecap:square;stroke-linejoin:miter;stroke-width:0.8;"/>
   </g>
   <g id="patch_6">
    <path d="M 54 34.56 
L 388.8 34.56 
" style="fill:none;stroke:#000000;stroke-linecap:square;stroke-linejoin:miter;stroke-width:0.8;"/>
   </g>
   <g id="text_18">
    <!-- Euler Scheme vs. Exact, N=1000 -->
    <defs>
     <path d="M 9.8125 72.90625 
L 55.90625 72.90625 
L 55.90625 64.59375 
L 19.671875 64.59375 
L 19.671875 43.015625 
L 54.390625 43.015625 
L 54.390625 34.71875 
L 19.671875 34.71875 
L 19.671875 8.296875 
L 56.78125 8.296875 
L 56.78125 0 
L 9.8125 0 
z
" id="DejaVuSans-45"/>
     <path d="M 8.5 21.578125 
L 8.5 54.6875 
L 17.484375 54.6875 
L 17.484375 21.921875 
Q 17.484375 14.15625 20.5 10.265625 
Q 23.53125 6.390625 29.59375 6.390625 
Q 36.859375 6.390625 41.078125 11.03125 
Q 45.3125 15.671875 45.3125 23.6875 
L 45.3125 54.6875 
L 54.296875 54.6875 
L 54.296875 0 
L 45.3125 0 
L 45.3125 8.40625 
Q 42.046875 3.421875 37.71875 1 
Q 33.40625 -1.421875 27.6875 -1.421875 
Q 18.265625 -1.421875 13.375 4.4375 
Q 8.5 10.296875 8.5 21.578125 
z
M 31.109375 56 
z
" id="DejaVuSans-75"/>
     <path d="M 9.421875 75.984375 
L 18.40625 75.984375 
L 18.40625 0 
L 9.421875 0 
z
" id="DejaVuSans-6c"/>
     <path d="M 56.203125 29.59375 
L 56.203125 25.203125 
L 14.890625 25.203125 
Q 15.484375 15.921875 20.484375 11.0625 
Q 25.484375 6.203125 34.421875 6.203125 
Q 39.59375 6.203125 44.453125 7.46875 
Q 49.3125 8.734375 54.109375 11.28125 
L 54.109375 2.78125 
Q 49.265625 0.734375 44.1875 -0.34375 
Q 39.109375 -1.421875 33.890625 -1.421875 
Q 20.796875 -1.421875 13.15625 6.1875 
Q 5.515625 13.8125 5.515625 26.8125 
Q 5.515625 40.234375 12.765625 48.109375 
Q 20.015625 56 32.328125 56 
Q 43.359375 56 49.78125 48.890625 
Q 56.203125 41.796875 56.203125 29.59375 
z
M 47.21875 32.234375 
Q 47.125 39.59375 43.09375 43.984375 
Q 39.0625 48.390625 32.421875 48.390625 
Q 24.90625 48.390625 20.390625 44.140625 
Q 15.875 39.890625 15.1875 32.171875 
z
" id="DejaVuSans-65"/>
     <path d="M 41.109375 46.296875 
Q 39.59375 47.171875 37.8125 47.578125 
Q 36.03125 48 33.890625 48 
Q 26.265625 48 22.1875 43.046875 
Q 18.109375 38.09375 18.109375 28.8125 
L 18.109375 0 
L 9.078125 0 
L 9.078125 54.6875 
L 18.109375 54.6875 
L 18.109375 46.1875 
Q 20.953125 51.171875 25.484375 53.578125 
Q 30.03125 56 36.53125 56 
Q 37.453125 56 38.578125 55.875 
Q 39.703125 55.765625 41.0625 55.515625 
z
" id="DejaVuSans-72"/>
     <path id="DejaVuSans-20"/>
     <path d="M 53.515625 70.515625 
L 53.515625 60.890625 
Q 47.90625 63.578125 42.921875 64.890625 
Q 37.9375 66.21875 33.296875 66.21875 
Q 25.25 66.21875 20.875 63.09375 
Q 16.5 59.96875 16.5 54.203125 
Q 16.5 49.359375 19.40625 46.890625 
Q 22.3125 44.4375 30.421875 42.921875 
L 36.375 41.703125 
Q 47.40625 39.59375 52.65625 34.296875 
Q 57.90625 29 57.90625 20.125 
Q 57.90625 9.515625 50.796875 4.046875 
Q 43.703125 -1.421875 29.984375 -1.421875 
Q 24.8125 -1.421875 18.96875 -0.25 
Q 13.140625 0.921875 6.890625 3.21875 
L 6.890625 13.375 
Q 12.890625 10.015625 18.65625 8.296875 
Q 24.421875 6.59375 29.984375 6.59375 
Q 38.421875 6.59375 43.015625 9.90625 
Q 47.609375 13.234375 47.609375 19.390625 
Q 47.609375 24.75 44.3125 27.78125 
Q 41.015625 30.8125 33.5 32.328125 
L 27.484375 33.5 
Q 16.453125 35.6875 11.515625 40.375 
Q 6.59375 45.0625 6.59375 53.421875 
Q 6.59375 63.09375 13.40625 68.65625 
Q 20.21875 74.21875 32.171875 74.21875 
Q 37.3125 74.21875 42.625 73.28125 
Q 47.953125 72.359375 53.515625 70.515625 
z
" id="DejaVuSans-53"/>
     <path d="M 48.78125 52.59375 
L 48.78125 44.1875 
Q 44.96875 46.296875 41.140625 47.34375 
Q 37.3125 48.390625 33.40625 48.390625 
Q 24.65625 48.390625 19.8125 42.84375 
Q 14.984375 37.3125 14.984375 27.296875 
Q 14.984375 17.28125 19.8125 11.734375 
Q 24.65625 6.203125 33.40625 6.203125 
Q 37.3125 6.203125 41.140625 7.25 
Q 44.96875 8.296875 48.78125 10.40625 
L 48.78125 2.09375 
Q 45.015625 0.34375 40.984375 -0.53125 
Q 36.96875 -1.421875 32.421875 -1.421875 
Q 20.0625 -1.421875 12.78125 6.34375 
Q 5.515625 14.109375 5.515625 27.296875 
Q 5.515625 40.671875 12.859375 48.328125 
Q 20.21875 56 33.015625 56 
Q 37.15625 56 41.109375 55.140625 
Q 45.0625 54.296875 48.78125 52.59375 
z
" id="DejaVuSans-63"/>
     <path d="M 54.890625 33.015625 
L 54.890625 0 
L 45.90625 0 
L 45.90625 32.71875 
Q 45.90625 40.484375 42.875 44.328125 
Q 39.84375 48.1875 33.796875 48.1875 
Q 26.515625 48.1875 22.3125 43.546875 
Q 18.109375 38.921875 18.109375 30.90625 
L 18.109375 0 
L 9.078125 0 
L 9.078125 75.984375 
L 18.109375 75.984375 
L 18.109375 46.1875 
Q 21.34375 51.125 25.703125 53.5625 
Q 30.078125 56 35.796875 56 
Q 45.21875 56 50.046875 50.171875 
Q 54.890625 44.34375 54.890625 33.015625 
z
" id="DejaVuSans-68"/>
     <path d="M 52 44.1875 
Q 55.375 50.25 60.0625 53.125 
Q 64.75 56 71.09375 56 
Q 79.640625 56 84.28125 50.015625 
Q 88.921875 44.046875 88.921875 33.015625 
L 88.921875 0 
L 79.890625 0 
L 79.890625 32.71875 
Q 79.890625 40.578125 77.09375 44.375 
Q 74.3125 48.1875 68.609375 48.1875 
Q 61.625 48.1875 57.5625 43.546875 
Q 53.515625 38.921875 53.515625 30.90625 
L 53.515625 0 
L 44.484375 0 
L 44.484375 32.71875 
Q 44.484375 40.625 41.703125 44.40625 
Q 38.921875 48.1875 33.109375 48.1875 
Q 26.21875 48.1875 22.15625 43.53125 
Q 18.109375 38.875 18.109375 30.90625 
L 18.109375 0 
L 9.078125 0 
L 9.078125 54.6875 
L 18.109375 54.6875 
L 18.109375 46.1875 
Q 21.1875 51.21875 25.484375 53.609375 
Q 29.78125 56 35.6875 56 
Q 41.65625 56 45.828125 52.96875 
Q 50 49.953125 52 44.1875 
z
" id="DejaVuSans-6d"/>
     <path d="M 2.984375 54.6875 
L 12.5 54.6875 
L 29.59375 8.796875 
L 46.6875 54.6875 
L 56.203125 54.6875 
L 35.6875 0 
L 23.484375 0 
z
" id="DejaVuSans-76"/>
     <path d="M 44.28125 53.078125 
L 44.28125 44.578125 
Q 40.484375 46.53125 36.375 47.5 
Q 32.28125 48.484375 27.875 48.484375 
Q 21.1875 48.484375 17.84375 46.4375 
Q 14.5 44.390625 14.5 40.28125 
Q 14.5 37.15625 16.890625 35.375 
Q 19.28125 33.59375 26.515625 31.984375 
L 29.59375 31.296875 
Q 39.15625 29.25 43.1875 25.515625 
Q 47.21875 21.78125 47.21875 15.09375 
Q 47.21875 7.46875 41.1875 3.015625 
Q 35.15625 -1.421875 24.609375 -1.421875 
Q 20.21875 -1.421875 15.453125 -0.5625 
Q 10.6875 0.296875 5.421875 2 
L 5.421875 11.28125 
Q 10.40625 8.6875 15.234375 7.390625 
Q 20.0625 6.109375 24.8125 6.109375 
Q 31.15625 6.109375 34.5625 8.28125 
Q 37.984375 10.453125 37.984375 14.40625 
Q 37.984375 18.0625 35.515625 20.015625 
Q 33.0625 21.96875 24.703125 23.78125 
L 21.578125 24.515625 
Q 13.234375 26.265625 9.515625 29.90625 
Q 5.8125 33.546875 5.8125 39.890625 
Q 5.8125 47.609375 11.28125 51.796875 
Q 16.75 56 26.8125 56 
Q 31.78125 56 36.171875 55.265625 
Q 40.578125 54.546875 44.28125 53.078125 
z
" id="DejaVuSans-73"/>
     <path d="M 54.890625 54.6875 
L 35.109375 28.078125 
L 55.90625 0 
L 45.3125 0 
L 29.390625 21.484375 
L 13.484375 0 
L 2.875 0 
L 24.125 28.609375 
L 4.6875 54.6875 
L 15.28125 54.6875 
L 29.78125 35.203125 
L 44.28125 54.6875 
z
" id="DejaVuSans-78"/>
     <path d="M 34.28125 27.484375 
Q 23.390625 27.484375 19.1875 25 
Q 14.984375 22.515625 14.984375 16.5 
Q 14.984375 11.71875 18.140625 8.90625 
Q 21.296875 6.109375 26.703125 6.109375 
Q 34.1875 6.109375 38.703125 11.40625 
Q 43.21875 16.703125 43.21875 25.484375 
L 43.21875 27.484375 
z
M 52.203125 31.203125 
L 52.203125 0 
L 43.21875 0 
L 43.21875 8.296875 
Q 40.140625 3.328125 35.546875 0.953125 
Q 30.953125 -1.421875 24.3125 -1.421875 
Q 15.921875 -1.421875 10.953125 3.296875 
Q 6 8.015625 6 15.921875 
Q 6 25.140625 12.171875 29.828125 
Q 18.359375 34.515625 30.609375 34.515625 
L 43.21875 34.515625 
L 43.21875 35.40625 
Q 43.21875 41.609375 39.140625 45 
Q 35.0625 48.390625 27.6875 48.390625 
Q 23 48.390625 18.546875 47.265625 
Q 14.109375 46.140625 10.015625 43.890625 
L 10.015625 52.203125 
Q 14.9375 54.109375 19.578125 55.046875 
Q 24.21875 56 28.609375 56 
Q 40.484375 56 46.34375 49.84375 
Q 52.203125 43.703125 52.203125 31.203125 
z
" id="DejaVuSans-61"/>
     <path d="M 18.3125 70.21875 
L 18.3125 54.6875 
L 36.8125 54.6875 
L 36.8125 47.703125 
L 18.3125 47.703125 
L 18.3125 18.015625 
Q 18.3125 11.328125 20.140625 9.421875 
Q 21.96875 7.515625 27.59375 7.515625 
L 36.8125 7.515625 
L 36.8125 0 
L 27.59375 0 
Q 17.1875 0 13.234375 3.875 
Q 9.28125 7.765625 9.28125 18.015625 
L 9.28125 47.703125 
L 2.6875 47.703125 
L 2.6875 54.6875 
L 9.28125 54.6875 
L 9.28125 70.21875 
z
" id="DejaVuSans-74"/>
     <path d="M 11.71875 12.40625 
L 22.015625 12.40625 
L 22.015625 4 
L 14.015625 -11.625 
L 7.71875 -11.625 
L 11.71875 4 
z
" id="DejaVuSans-2c"/>
     <path d="M 9.8125 72.90625 
L 23.09375 72.90625 
L 55.421875 11.921875 
L 55.421875 72.90625 
L 64.984375 72.90625 
L 64.984375 0 
L 51.703125 0 
L 19.390625 60.984375 
L 19.390625 0 
L 9.8125 0 
z
" id="DejaVuSans-4e"/>
     <path d="M 10.59375 45.40625 
L 73.1875 45.40625 
L 73.1875 37.203125 
L 10.59375 37.203125 
z
M 10.59375 25.484375 
L 73.1875 25.484375 
L 73.1875 17.1875 
L 10.59375 17.1875 
z
" id="DejaVuSans-3d"/>
    </defs>
    <g transform="translate(122.266875 28.56)scale(0.12 -0.12)">
     <use xlink:href="#DejaVuSans-45"/>
     <use x="63.183594" xlink:href="#DejaVuSans-75"/>
     <use x="126.5625" xlink:href="#DejaVuSans-6c"/>
     <use x="154.345703" xlink:href="#DejaVuSans-65"/>
     <use x="215.869141" xlink:href="#DejaVuSans-72"/>
     <use x="256.982422" xlink:href="#DejaVuSans-20"/>
     <use x="288.769531" xlink:href="#DejaVuSans-53"/>
     <use x="352.246094" xlink:href="#DejaVuSans-63"/>
     <use x="407.226562" xlink:href="#DejaVuSans-68"/>
     <use x="470.605469" xlink:href="#DejaVuSans-65"/>
     <use x="532.128906" xlink:href="#DejaVuSans-6d"/>
     <use x="629.541016" xlink:href="#DejaVuSans-65"/>
     <use x="691.064453" xlink:href="#DejaVuSans-20"/>
     <use x="722.851562" xlink:href="#DejaVuSans-76"/>
     <use x="782.03125" xlink:href="#DejaVuSans-73"/>
     <use x="834.130859" xlink:href="#DejaVuSans-2e"/>
     <use x="865.917969" xlink:href="#DejaVuSans-20"/>
     <use x="897.705078" xlink:href="#DejaVuSans-45"/>
     <use x="960.888672" xlink:href="#DejaVuSans-78"/>
     <use x="1020.068359" xlink:href="#DejaVuSans-61"/>
     <use x="1081.347656" xlink:href="#DejaVuSans-63"/>
     <use x="1136.328125" xlink:href="#DejaVuSans-74"/>
     <use x="1175.537109" xlink:href="#DejaVuSans-2c"/>
     <use x="1207.324219" xlink:href="#DejaVuSans-20"/>
     <use x="1239.111328" xlink:href="#DejaVuSans-4e"/>
     <use x="1313.916016" xlink:href="#DejaVuSans-3d"/>
     <use x="1397.705078" xlink:href="#DejaVuSans-31"/>
     <use x="1461.328125" xlink:href="#DejaVuSans-30"/>
     <use x="1524.951172" xlink:href="#DejaVuSans-30"/>
     <use x="1588.574219" xlink:href="#DejaVuSans-30"/>
    </g>
   </g>
   <g id="legend_1">
    <g id="patch_7">
     <path d="M 322.015625 71.91625 
L 381.8 71.91625 
Q 383.8 71.91625 383.8 69.91625 
L 383.8 41.56 
Q 383.8 39.56 381.8 39.56 
L 322.015625 39.56 
Q 320.015625 39.56 320.015625 41.56 
L 320.015625 69.91625 
Q 320.015625 71.91625 322.015625 71.91625 
z
" style="fill:#ffffff;opacity:0.8;stroke:#cccccc;stroke-linejoin:miter;"/>
    </g>
    <g id="line2d_18">
     <path d="M 324.015625 47.658437 
L 344.015625 47.658437 
" style="fill:none;stroke:#1f77b4;stroke-linecap:square;stroke-width:1.5;"/>
    </g>
    <g id="line2d_19"/>
    <g id="text_19">
     <!-- Euler -->
     <g transform="translate(352.015625 51.158437)scale(0.1 -0.1)">
      <use xlink:href="#DejaVuSans-45"/>
      <use x="63.183594" xlink:href="#DejaVuSans-75"/>
      <use x="126.5625" xlink:href="#DejaVuSans-6c"/>
      <use x="154.345703" xlink:href="#DejaVuSans-65"/>
      <use x="215.869141" xlink:href="#DejaVuSans-72"/>
     </g>
    </g>
    <g id="line2d_20">
     <path d="M 324.015625 62.336562 
L 344.015625 62.336562 
" style="fill:none;stroke:#ff7f0e;stroke-dasharray:1.5,2.475;stroke-dashoffset:0;stroke-width:1.5;"/>
    </g>
    <g id="line2d_21"/>
    <g id="text_20">
     <!-- Exact -->
     <g transform="translate(352.015625 65.836562)scale(0.1 -0.1)">
      <use xlink:href="#DejaVuSans-45"/>
      <use x="63.183594" xlink:href="#DejaVuSans-78"/>
      <use x="122.363281" xlink:href="#DejaVuSans-61"/>
      <use x="183.642578" xlink:href="#DejaVuSans-63"/>
      <use x="238.623047" xlink:href="#DejaVuSans-74"/>
     </g>
    </g>
   </g>
  </g>
 </g>
 <defs>
  <clipPath id="p93e2e39415">
   <rect height="217.44" width="334.8" x="54" y="34.56"/>
  </clipPath>
 </defs>
</svg>
