<?xml version="1.0" encoding="utf-8" standalone="no"?>
<!DOCTYPE svg PUBLIC "-//W3C//DTD SVG 1.1//EN"
  "http://www.w3.org/Graphics/SVG/1.1/DTD/svg11.dtd">
<!-- Created with matplotlib (http://matplotlib.org/) -->
<svg height="288pt" version="1.1" viewBox="0 0 864 288" width="864pt" xmlns="http://www.w3.org/2000/svg" xmlns:xlink="http://www.w3.org/1999/xlink">
 <defs>
  <style type="text/css">
*{stroke-linecap:butt;stroke-linejoin:round;}
  </style>
 </defs>
 <g id="figure_1">
  <g id="patch_1">
   <path d="M 0 288 
L 864 288 
L 864 0 
L 0 0 
z
" style="fill:#ffffff;"/>
  </g>
  <g id="axes_1">
   <g id="patch_2">
    <path d="M 108 230.4 
L 412.363636 230.4 
L 412.363636 34.56 
L 108 34.56 
z
" style="fill:#ffffff;"/>
   </g>
   <g id="patch_3">
    <path clip-path="url(#p7565c759ce)" d="M 130.363251 230.4 
L 135.555994 230.4 
L 135.555994 230.077311 
L 130.363251 230.077311 
z
" style="fill:#1f77b4;opacity:0.4;"/>
   </g>
   <g id="patch_4">
    <path clip-path="url(#p7565c759ce)" d="M 135.555994 230.4 
L 140.748737 230.4 
L 140.748737 230.4 
L 135.555994 230.4 
z
" style="fill:#1f77b4;opacity:0.4;"/>
   </g>
   <g id="patch_5">
    <path clip-path="url(#p7565c759ce)" d="M 140.748737 230.4 
L 145.941479 230.4 
L 145.941479 230.4 
L 140.748737 230.4 
z
" style="fill:#1f77b4;opacity:0.4;"/>
   </g>
   <g id="patch_6">
    <path clip-path="url(#p7565c759ce)" d="M 145.941479 230.4 
L 151.134222 230.4 
L 151.134222 230.4 
L 145.941479 230.4 
z
" style="fill:#1f77b4;opacity:0.4;"/>
   </g>
   <g id="patch_7">
    <path clip-path="url(#p7565c759ce)" d="M 151.134222 230.4 
L 156.326965 230.4 
L 156.326965 230.4 
L 151.134222 230.4 
z
" style="fill:#1f77b4;opacity:0.4;"/>
   </g>
   <g id="patch_8">
    <path clip-path="url(#p7565c759ce)" d="M 156.326965 230.4 
L 161.519707 230.4 
L 161.519707 230.4 
L 156.326965 230.4 
z
" style="fill:#1f77b4;opacity:0.4;"/>
   </g>
   <g id="patch_9">
    <path clip-path="url(#p7565c759ce)" d="M 161.519707 230.4 
L 166.71245 230.4 
L 166.71245 230.077311 
L 161.519707 230.077311 
z
" style="fill:#1f77b4;opacity:0.4;"/>
   </g>
   <g id="patch_10">
    <path clip-path="url(#p7565c759ce)" d="M 166.71245 230.4 
L 171.905193 230.4 
L 171.905193 230.4 
L 166.71245 230.4 
z
" style="fill:#1f77b4;opacity:0.4;"/>
   </g>
   <g id="patch_11">
    <path clip-path="url(#p7565c759ce)" d="M 171.905193 230.4 
L 177.097935 230.4 
L 177.097935 230.4 
L 171.905193 230.4 
z
" style="fill:#1f77b4;opacity:0.4;"/>
   </g>
   <g id="patch_12">
    <path clip-path="url(#p7565c759ce)" d="M 177.097935 230.4 
L 182.290678 230.4 
L 182.290678 230.4 
L 177.097935 230.4 
z
" style="fill:#1f77b4;opacity:0.4;"/>
   </g>
   <g id="patch_13">
    <path clip-path="url(#p7565c759ce)" d="M 182.290678 230.4 
L 187.483421 230.4 
L 187.483421 230.4 
L 182.290678 230.4 
z
" style="fill:#1f77b4;opacity:0.4;"/>
   </g>
   <g id="patch_14">
    <path clip-path="url(#p7565c759ce)" d="M 187.483421 230.4 
L 192.676163 230.4 
L 192.676163 230.077311 
L 187.483421 230.077311 
z
" style="fill:#1f77b4;opacity:0.4;"/>
   </g>
   <g id="patch_15">
    <path clip-path="url(#p7565c759ce)" d="M 192.676163 230.4 
L 197.868906 230.4 
L 197.868906 230.4 
L 192.676163 230.4 
z
" style="fill:#1f77b4;opacity:0.4;"/>
   </g>
   <g id="patch_16">
    <path clip-path="url(#p7565c759ce)" d="M 197.868906 230.4 
L 203.061649 230.4 
L 203.061649 230.4 
L 197.868906 230.4 
z
" style="fill:#1f77b4;opacity:0.4;"/>
   </g>
   <g id="patch_17">
    <path clip-path="url(#p7565c759ce)" d="M 203.061649 230.4 
L 208.254391 230.4 
L 208.254391 230.4 
L 203.061649 230.4 
z
" style="fill:#1f77b4;opacity:0.4;"/>
   </g>
   <g id="patch_18">
    <path clip-path="url(#p7565c759ce)" d="M 208.254391 230.4 
L 213.447134 230.4 
L 213.447134 230.077311 
L 208.254391 230.077311 
z
" style="fill:#1f77b4;opacity:0.4;"/>
   </g>
   <g id="patch_19">
    <path clip-path="url(#p7565c759ce)" d="M 213.447134 230.4 
L 218.639877 230.4 
L 218.639877 230.4 
L 213.447134 230.4 
z
" style="fill:#1f77b4;opacity:0.4;"/>
   </g>
   <g id="patch_20">
    <path clip-path="url(#p7565c759ce)" d="M 218.639877 230.4 
L 223.832619 230.4 
L 223.832619 229.754622 
L 218.639877 229.754622 
z
" style="fill:#1f77b4;opacity:0.4;"/>
   </g>
   <g id="patch_21">
    <path clip-path="url(#p7565c759ce)" d="M 223.832619 230.4 
L 229.025362 230.4 
L 229.025362 229.754622 
L 223.832619 229.754622 
z
" style="fill:#1f77b4;opacity:0.4;"/>
   </g>
   <g id="patch_22">
    <path clip-path="url(#p7565c759ce)" d="M 229.025362 230.4 
L 234.218105 230.4 
L 234.218105 229.754622 
L 229.025362 229.754622 
z
" style="fill:#1f77b4;opacity:0.4;"/>
   </g>
   <g id="patch_23">
    <path clip-path="url(#p7565c759ce)" d="M 234.218105 230.4 
L 239.410847 230.4 
L 239.410847 229.431933 
L 234.218105 229.431933 
z
" style="fill:#1f77b4;opacity:0.4;"/>
   </g>
   <g id="patch_24">
    <path clip-path="url(#p7565c759ce)" d="M 239.410847 230.4 
L 244.60359 230.4 
L 244.60359 228.141176 
L 239.410847 228.141176 
z
" style="fill:#1f77b4;opacity:0.4;"/>
   </g>
   <g id="patch_25">
    <path clip-path="url(#p7565c759ce)" d="M 244.60359 230.4 
L 249.796333 230.4 
L 249.796333 227.173109 
L 244.60359 227.173109 
z
" style="fill:#1f77b4;opacity:0.4;"/>
   </g>
   <g id="patch_26">
    <path clip-path="url(#p7565c759ce)" d="M 249.796333 230.4 
L 254.989076 230.4 
L 254.989076 225.882353 
L 249.796333 225.882353 
z
" style="fill:#1f77b4;opacity:0.4;"/>
   </g>
   <g id="patch_27">
    <path clip-path="url(#p7565c759ce)" d="M 254.989076 230.4 
L 260.181818 230.4 
L 260.181818 223.30084 
L 254.989076 223.30084 
z
" style="fill:#1f77b4;opacity:0.4;"/>
   </g>
   <g id="patch_28">
    <path clip-path="url(#p7565c759ce)" d="M 260.181818 230.4 
L 265.374561 230.4 
L 265.374561 217.492437 
L 260.181818 217.492437 
z
" style="fill:#1f77b4;opacity:0.4;"/>
   </g>
   <g id="patch_29">
    <path clip-path="url(#p7565c759ce)" d="M 265.374561 230.4 
L 270.567304 230.4 
L 270.567304 208.457143 
L 265.374561 208.457143 
z
" style="fill:#1f77b4;opacity:0.4;"/>
   </g>
   <g id="patch_30">
    <path clip-path="url(#p7565c759ce)" d="M 270.567304 230.4 
L 275.760046 230.4 
L 275.760046 184.578151 
L 270.567304 184.578151 
z
" style="fill:#1f77b4;opacity:0.4;"/>
   </g>
   <g id="patch_31">
    <path clip-path="url(#p7565c759ce)" d="M 275.760046 230.4 
L 280.952789 230.4 
L 280.952789 122.944538 
L 275.760046 122.944538 
z
" style="fill:#1f77b4;opacity:0.4;"/>
   </g>
   <g id="patch_32">
    <path clip-path="url(#p7565c759ce)" d="M 280.952789 230.4 
L 286.145532 230.4 
L 286.145532 43.885714 
L 280.952789 43.885714 
z
" style="fill:#1f77b4;opacity:0.4;"/>
   </g>
   <g id="patch_33">
    <path clip-path="url(#p7565c759ce)" d="M 286.145532 230.4 
L 291.338274 230.4 
L 291.338274 110.359664 
L 286.145532 110.359664 
z
" style="fill:#1f77b4;opacity:0.4;"/>
   </g>
   <g id="patch_34">
    <path clip-path="url(#p7565c759ce)" d="M 291.338274 230.4 
L 296.531017 230.4 
L 296.531017 168.121008 
L 291.338274 168.121008 
z
" style="fill:#1f77b4;opacity:0.4;"/>
   </g>
   <g id="patch_35">
    <path clip-path="url(#p7565c759ce)" d="M 296.531017 230.4 
L 301.72376 230.4 
L 301.72376 199.744538 
L 296.531017 199.744538 
z
" style="fill:#1f77b4;opacity:0.4;"/>
   </g>
   <g id="patch_36">
    <path clip-path="url(#p7565c759ce)" d="M 301.72376 230.4 
L 306.916502 230.4 
L 306.916502 221.042017 
L 301.72376 221.042017 
z
" style="fill:#1f77b4;opacity:0.4;"/>
   </g>
   <g id="patch_37">
    <path clip-path="url(#p7565c759ce)" d="M 306.916502 230.4 
L 312.109245 230.4 
L 312.109245 225.882353 
L 306.916502 225.882353 
z
" style="fill:#1f77b4;opacity:0.4;"/>
   </g>
   <g id="patch_38">
    <path clip-path="url(#p7565c759ce)" d="M 312.109245 230.4 
L 317.301988 230.4 
L 317.301988 228.786555 
L 312.109245 228.786555 
z
" style="fill:#1f77b4;opacity:0.4;"/>
   </g>
   <g id="patch_39">
    <path clip-path="url(#p7565c759ce)" d="M 317.301988 230.4 
L 322.49473 230.4 
L 322.49473 229.431933 
L 317.301988 229.431933 
z
" style="fill:#1f77b4;opacity:0.4;"/>
   </g>
   <g id="patch_40">
    <path clip-path="url(#p7565c759ce)" d="M 322.49473 230.4 
L 327.687473 230.4 
L 327.687473 229.754622 
L 322.49473 229.754622 
z
" style="fill:#1f77b4;opacity:0.4;"/>
   </g>
   <g id="patch_41">
    <path clip-path="url(#p7565c759ce)" d="M 327.687473 230.4 
L 332.880216 230.4 
L 332.880216 229.754622 
L 327.687473 229.754622 
z
" style="fill:#1f77b4;opacity:0.4;"/>
   </g>
   <g id="patch_42">
    <path clip-path="url(#p7565c759ce)" d="M 332.880216 230.4 
L 338.072958 230.4 
L 338.072958 230.077311 
L 332.880216 230.077311 
z
" style="fill:#1f77b4;opacity:0.4;"/>
   </g>
   <g id="patch_43">
    <path clip-path="url(#p7565c759ce)" d="M 338.072958 230.4 
L 343.265701 230.4 
L 343.265701 229.754622 
L 338.072958 229.754622 
z
" style="fill:#1f77b4;opacity:0.4;"/>
   </g>
   <g id="patch_44">
    <path clip-path="url(#p7565c759ce)" d="M 343.265701 230.4 
L 348.458444 230.4 
L 348.458444 230.4 
L 343.265701 230.4 
z
" style="fill:#1f77b4;opacity:0.4;"/>
   </g>
   <g id="patch_45">
    <path clip-path="url(#p7565c759ce)" d="M 348.458444 230.4 
L 353.651186 230.4 
L 353.651186 230.077311 
L 348.458444 230.077311 
z
" style="fill:#1f77b4;opacity:0.4;"/>
   </g>
   <g id="patch_46">
    <path clip-path="url(#p7565c759ce)" d="M 353.651186 230.4 
L 358.843929 230.4 
L 358.843929 230.077311 
L 353.651186 230.077311 
z
" style="fill:#1f77b4;opacity:0.4;"/>
   </g>
   <g id="patch_47">
    <path clip-path="url(#p7565c759ce)" d="M 358.843929 230.4 
L 364.036672 230.4 
L 364.036672 230.4 
L 358.843929 230.4 
z
" style="fill:#1f77b4;opacity:0.4;"/>
   </g>
   <g id="patch_48">
    <path clip-path="url(#p7565c759ce)" d="M 364.036672 230.4 
L 369.229414 230.4 
L 369.229414 230.077311 
L 364.036672 230.077311 
z
" style="fill:#1f77b4;opacity:0.4;"/>
   </g>
   <g id="patch_49">
    <path clip-path="url(#p7565c759ce)" d="M 369.229414 230.4 
L 374.422157 230.4 
L 374.422157 230.4 
L 369.229414 230.4 
z
" style="fill:#1f77b4;opacity:0.4;"/>
   </g>
   <g id="patch_50">
    <path clip-path="url(#p7565c759ce)" d="M 374.422157 230.4 
L 379.6149 230.4 
L 379.6149 230.4 
L 374.422157 230.4 
z
" style="fill:#1f77b4;opacity:0.4;"/>
   </g>
   <g id="patch_51">
    <path clip-path="url(#p7565c759ce)" d="M 379.6149 230.4 
L 384.807642 230.4 
L 384.807642 230.4 
L 379.6149 230.4 
z
" style="fill:#1f77b4;opacity:0.4;"/>
   </g>
   <g id="patch_52">
    <path clip-path="url(#p7565c759ce)" d="M 384.807642 230.4 
L 390.000385 230.4 
L 390.000385 229.754622 
L 384.807642 229.754622 
z
" style="fill:#1f77b4;opacity:0.4;"/>
   </g>
   <g id="matplotlib.axis_1">
    <g id="xtick_1">
     <g id="line2d_1">
      <defs>
       <path d="M 0 0 
L 0 3.5 
" id="md9871cc811" style="stroke:#000000;stroke-width:0.8;"/>
      </defs>
      <g>
       <use style="stroke:#000000;stroke-width:0.8;" x="163.397566" xlink:href="#md9871cc811" y="230.4"/>
      </g>
     </g>
     <g id="text_1">
      <!-- −0.10 -->
      <defs>
       <path d="M 10.59375 35.5 
L 73.1875 35.5 
L 73.1875 27.203125 
L 10.59375 27.203125 
z
" id="DejaVuSans-2212"/>
       <path d="M 31.78125 66.40625 
Q 24.171875 66.40625 20.328125 58.90625 
Q 16.5 51.421875 16.5 36.375 
Q 16.5 21.390625 20.328125 13.890625 
Q 24.171875 6.390625 31.78125 6.390625 
Q 39.453125 6.390625 43.28125 13.890625 
Q 47.125 21.390625 47.125 36.375 
Q 47.125 51.421875 43.28125 58.90625 
Q 39.453125 66.40625 31.78125 66.40625 
z
M 31.78125 74.21875 
Q 44.046875 74.21875 50.515625 64.515625 
Q 56.984375 54.828125 56.984375 36.375 
Q 56.984375 17.96875 50.515625 8.265625 
Q 44.046875 -1.421875 31.78125 -1.421875 
Q 19.53125 -1.421875 13.0625 8.265625 
Q 6.59375 17.96875 6.59375 36.375 
Q 6.59375 54.828125 13.0625 64.515625 
Q 19.53125 74.21875 31.78125 74.21875 
z
" id="DejaVuSans-30"/>
       <path d="M 10.6875 12.40625 
L 21 12.40625 
L 21 0 
L 10.6875 0 
z
" id="DejaVuSans-2e"/>
       <path d="M 12.40625 8.296875 
L 28.515625 8.296875 
L 28.515625 63.921875 
L 10.984375 60.40625 
L 10.984375 69.390625 
L 28.421875 72.90625 
L 38.28125 72.90625 
L 38.28125 8.296875 
L 54.390625 8.296875 
L 54.390625 0 
L 12.40625 0 
z
" id="DejaVuSans-31"/>
      </defs>
      <g transform="translate(148.07491 244.998437)scale(0.1 -0.1)">
       <use xlink:href="#DejaVuSans-2212"/>
       <use x="83.789062" xlink:href="#DejaVuSans-30"/>
       <use x="147.412109" xlink:href="#DejaVuSans-2e"/>
       <use x="179.199219" xlink:href="#DejaVuSans-31"/>
       <use x="242.822266" xlink:href="#DejaVuSans-30"/>
      </g>
     </g>
    </g>
    <g id="xtick_2">
     <g id="line2d_2">
      <g>
       <use style="stroke:#000000;stroke-width:0.8;" x="223.129496" xlink:href="#md9871cc811" y="230.4"/>
      </g>
     </g>
     <g id="text_2">
      <!-- −0.05 -->
      <defs>
       <path d="M 10.796875 72.90625 
L 49.515625 72.90625 
L 49.515625 64.59375 
L 19.828125 64.59375 
L 19.828125 46.734375 
Q 21.96875 47.46875 24.109375 47.828125 
Q 26.265625 48.1875 28.421875 48.1875 
Q 40.625 48.1875 47.75 41.5 
Q 54.890625 34.8125 54.890625 23.390625 
Q 54.890625 11.625 47.5625 5.09375 
Q 40.234375 -1.421875 26.90625 -1.421875 
Q 22.3125 -1.421875 17.546875 -0.640625 
Q 12.796875 0.140625 7.71875 1.703125 
L 7.71875 11.625 
Q 12.109375 9.234375 16.796875 8.0625 
Q 21.484375 6.890625 26.703125 6.890625 
Q 35.15625 6.890625 40.078125 11.328125 
Q 45.015625 15.765625 45.015625 23.390625 
Q 45.015625 31 40.078125 35.4375 
Q 35.15625 39.890625 26.703125 39.890625 
Q 22.75 39.890625 18.8125 39.015625 
Q 14.890625 38.140625 10.796875 36.28125 
z
" id="DejaVuSans-35"/>
      </defs>
      <g transform="translate(207.806839 244.998437)scale(0.1 -0.1)">
       <use xlink:href="#DejaVuSans-2212"/>
       <use x="83.789062" xlink:href="#DejaVuSans-30"/>
       <use x="147.412109" xlink:href="#DejaVuSans-2e"/>
       <use x="179.199219" xlink:href="#DejaVuSans-30"/>
       <use x="242.822266" xlink:href="#DejaVuSans-35"/>
      </g>
     </g>
    </g>
    <g id="xtick_3">
     <g id="line2d_3">
      <g>
       <use style="stroke:#000000;stroke-width:0.8;" x="282.861425" xlink:href="#md9871cc811" y="230.4"/>
      </g>
     </g>
     <g id="text_3">
      <!-- 0.00 -->
      <g transform="translate(271.728613 244.998437)scale(0.1 -0.1)">
       <use xlink:href="#DejaVuSans-30"/>
       <use x="63.623047" xlink:href="#DejaVuSans-2e"/>
       <use x="95.410156" xlink:href="#DejaVuSans-30"/>
       <use x="159.033203" xlink:href="#DejaVuSans-30"/>
      </g>
     </g>
    </g>
    <g id="xtick_4">
     <g id="line2d_4">
      <g>
       <use style="stroke:#000000;stroke-width:0.8;" x="342.593355" xlink:href="#md9871cc811" y="230.4"/>
      </g>
     </g>
     <g id="text_4">
      <!-- 0.05 -->
      <g transform="translate(331.460542 244.998437)scale(0.1 -0.1)">
       <use xlink:href="#DejaVuSans-30"/>
       <use x="63.623047" xlink:href="#DejaVuSans-2e"/>
       <use x="95.410156" xlink:href="#DejaVuSans-30"/>
       <use x="159.033203" xlink:href="#DejaVuSans-35"/>
      </g>
     </g>
    </g>
    <g id="xtick_5">
     <g id="line2d_5">
      <g>
       <use style="stroke:#000000;stroke-width:0.8;" x="402.325284" xlink:href="#md9871cc811" y="230.4"/>
      </g>
     </g>
     <g id="text_5">
      <!-- 0.10 -->
      <g transform="translate(391.192471 244.998437)scale(0.1 -0.1)">
       <use xlink:href="#DejaVuSans-30"/>
       <use x="63.623047" xlink:href="#DejaVuSans-2e"/>
       <use x="95.410156" xlink:href="#DejaVuSans-31"/>
       <use x="159.033203" xlink:href="#DejaVuSans-30"/>
      </g>
     </g>
    </g>
    <g id="text_6">
     <!-- Return -->
     <defs>
      <path d="M 44.390625 34.1875 
Q 47.5625 33.109375 50.5625 29.59375 
Q 53.5625 26.078125 56.59375 19.921875 
L 66.609375 0 
L 56 0 
L 46.6875 18.703125 
Q 43.0625 26.03125 39.671875 28.421875 
Q 36.28125 30.8125 30.421875 30.8125 
L 19.671875 30.8125 
L 19.671875 0 
L 9.8125 0 
L 9.8125 72.90625 
L 32.078125 72.90625 
Q 44.578125 72.90625 50.734375 67.671875 
Q 56.890625 62.453125 56.890625 51.90625 
Q 56.890625 45.015625 53.6875 40.46875 
Q 50.484375 35.9375 44.390625 34.1875 
z
M 19.671875 64.796875 
L 19.671875 38.921875 
L 32.078125 38.921875 
Q 39.203125 38.921875 42.84375 42.21875 
Q 46.484375 45.515625 46.484375 51.90625 
Q 46.484375 58.296875 42.84375 61.546875 
Q 39.203125 64.796875 32.078125 64.796875 
z
" id="DejaVuSans-52"/>
      <path d="M 56.203125 29.59375 
L 56.203125 25.203125 
L 14.890625 25.203125 
Q 15.484375 15.921875 20.484375 11.0625 
Q 25.484375 6.203125 34.421875 6.203125 
Q 39.59375 6.203125 44.453125 7.46875 
Q 49.3125 8.734375 54.109375 11.28125 
L 54.109375 2.78125 
Q 49.265625 0.734375 44.1875 -0.34375 
Q 39.109375 -1.421875 33.890625 -1.421875 
Q 20.796875 -1.421875 13.15625 6.1875 
Q 5.515625 13.8125 5.515625 26.8125 
Q 5.515625 40.234375 12.765625 48.109375 
Q 20.015625 56 32.328125 56 
Q 43.359375 56 49.78125 48.890625 
Q 56.203125 41.796875 56.203125 29.59375 
z
M 47.21875 32.234375 
Q 47.125 39.59375 43.09375 43.984375 
Q 39.0625 48.390625 32.421875 48.390625 
Q 24.90625 48.390625 20.390625 44.140625 
Q 15.875 39.890625 15.1875 32.171875 
z
" id="DejaVuSans-65"/>
      <path d="M 18.3125 70.21875 
L 18.3125 54.6875 
L 36.8125 54.6875 
L 36.8125 47.703125 
L 18.3125 47.703125 
L 18.3125 18.015625 
Q 18.3125 11.328125 20.140625 9.421875 
Q 21.96875 7.515625 27.59375 7.515625 
L 36.8125 7.515625 
L 36.8125 0 
L 27.59375 0 
Q 17.1875 0 13.234375 3.875 
Q 9.28125 7.765625 9.28125 18.015625 
L 9.28125 47.703125 
L 2.6875 47.703125 
L 2.6875 54.6875 
L 9.28125 54.6875 
L 9.28125 70.21875 
z
" id="DejaVuSans-74"/>
      <path d="M 8.5 21.578125 
L 8.5 54.6875 
L 17.484375 54.6875 
L 17.484375 21.921875 
Q 17.484375 14.15625 20.5 10.265625 
Q 23.53125 6.390625 29.59375 6.390625 
Q 36.859375 6.390625 41.078125 11.03125 
Q 45.3125 15.671875 45.3125 23.6875 
L 45.3125 54.6875 
L 54.296875 54.6875 
L 54.296875 0 
L 45.3125 0 
L 45.3125 8.40625 
Q 42.046875 3.421875 37.71875 1 
Q 33.40625 -1.421875 27.6875 -1.421875 
Q 18.265625 -1.421875 13.375 4.4375 
Q 8.5 10.296875 8.5 21.578125 
z
M 31.109375 56 
z
" id="DejaVuSans-75"/>
      <path d="M 41.109375 46.296875 
Q 39.59375 47.171875 37.8125 47.578125 
Q 36.03125 48 33.890625 48 
Q 26.265625 48 22.1875 43.046875 
Q 18.109375 38.09375 18.109375 28.8125 
L 18.109375 0 
L 9.078125 0 
L 9.078125 54.6875 
L 18.109375 54.6875 
L 18.109375 46.1875 
Q 20.953125 51.171875 25.484375 53.578125 
Q 30.03125 56 36.53125 56 
Q 37.453125 56 38.578125 55.875 
Q 39.703125 55.765625 41.0625 55.515625 
z
" id="DejaVuSans-72"/>
      <path d="M 54.890625 33.015625 
L 54.890625 0 
L 45.90625 0 
L 45.90625 32.71875 
Q 45.90625 40.484375 42.875 44.328125 
Q 39.84375 48.1875 33.796875 48.1875 
Q 26.515625 48.1875 22.3125 43.546875 
Q 18.109375 38.921875 18.109375 30.90625 
L 18.109375 0 
L 9.078125 0 
L 9.078125 54.6875 
L 18.109375 54.6875 
L 18.109375 46.1875 
Q 21.34375 51.125 25.703125 53.5625 
Q 30.078125 56 35.796875 56 
Q 45.21875 56 50.046875 50.171875 
Q 54.890625 44.34375 54.890625 33.015625 
z
" id="DejaVuSans-6e"/>
     </defs>
     <g transform="translate(243.281818 258.676562)scale(0.1 -0.1)">
      <use xlink:href="#DejaVuSans-52"/>
      <use x="69.419922" xlink:href="#DejaVuSans-65"/>
      <use x="130.943359" xlink:href="#DejaVuSans-74"/>
      <use x="170.152344" xlink:href="#DejaVuSans-75"/>
      <use x="233.53125" xlink:href="#DejaVuSans-72"/>
      <use x="274.628906" xlink:href="#DejaVuSans-6e"/>
     </g>
    </g>
   </g>
   <g id="matplotlib.axis_2">
    <g id="ytick_1">
     <g id="line2d_6">
      <defs>
       <path d="M 0 0 
L -3.5 0 
" id="mdf357f6f79" style="stroke:#000000;stroke-width:0.8;"/>
      </defs>
      <g>
       <use style="stroke:#000000;stroke-width:0.8;" x="108" xlink:href="#mdf357f6f79" y="230.4"/>
      </g>
     </g>
     <g id="text_7">
      <!-- 0 -->
      <g transform="translate(94.6375 234.199219)scale(0.1 -0.1)">
       <use xlink:href="#DejaVuSans-30"/>
      </g>
     </g>
    </g>
    <g id="ytick_2">
     <g id="line2d_7">
      <g>
       <use style="stroke:#000000;stroke-width:0.8;" x="108" xlink:href="#mdf357f6f79" y="203.048627"/>
      </g>
     </g>
     <g id="text_8">
      <!-- 10 -->
      <g transform="translate(88.275 206.847845)scale(0.1 -0.1)">
       <use xlink:href="#DejaVuSans-31"/>
       <use x="63.623047" xlink:href="#DejaVuSans-30"/>
      </g>
     </g>
    </g>
    <g id="ytick_3">
     <g id="line2d_8">
      <g>
       <use style="stroke:#000000;stroke-width:0.8;" x="108" xlink:href="#mdf357f6f79" y="175.697253"/>
      </g>
     </g>
     <g id="text_9">
      <!-- 20 -->
      <defs>
       <path d="M 19.1875 8.296875 
L 53.609375 8.296875 
L 53.609375 0 
L 7.328125 0 
L 7.328125 8.296875 
Q 12.9375 14.109375 22.625 23.890625 
Q 32.328125 33.6875 34.8125 36.53125 
Q 39.546875 41.84375 41.421875 45.53125 
Q 43.3125 49.21875 43.3125 52.78125 
Q 43.3125 58.59375 39.234375 62.25 
Q 35.15625 65.921875 28.609375 65.921875 
Q 23.96875 65.921875 18.8125 64.3125 
Q 13.671875 62.703125 7.8125 59.421875 
L 7.8125 69.390625 
Q 13.765625 71.78125 18.9375 73 
Q 24.125 74.21875 28.421875 74.21875 
Q 39.75 74.21875 46.484375 68.546875 
Q 53.21875 62.890625 53.21875 53.421875 
Q 53.21875 48.921875 51.53125 44.890625 
Q 49.859375 40.875 45.40625 35.40625 
Q 44.1875 33.984375 37.640625 27.21875 
Q 31.109375 20.453125 19.1875 8.296875 
z
" id="DejaVuSans-32"/>
      </defs>
      <g transform="translate(88.275 179.496472)scale(0.1 -0.1)">
       <use xlink:href="#DejaVuSans-32"/>
       <use x="63.623047" xlink:href="#DejaVuSans-30"/>
      </g>
     </g>
    </g>
    <g id="ytick_4">
     <g id="line2d_9">
      <g>
       <use style="stroke:#000000;stroke-width:0.8;" x="108" xlink:href="#mdf357f6f79" y="148.34588"/>
      </g>
     </g>
     <g id="text_10">
      <!-- 30 -->
      <defs>
       <path d="M 40.578125 39.3125 
Q 47.65625 37.796875 51.625 33 
Q 55.609375 28.21875 55.609375 21.1875 
Q 55.609375 10.40625 48.1875 4.484375 
Q 40.765625 -1.421875 27.09375 -1.421875 
Q 22.515625 -1.421875 17.65625 -0.515625 
Q 12.796875 0.390625 7.625 2.203125 
L 7.625 11.71875 
Q 11.71875 9.328125 16.59375 8.109375 
Q 21.484375 6.890625 26.8125 6.890625 
Q 36.078125 6.890625 40.9375 10.546875 
Q 45.796875 14.203125 45.796875 21.1875 
Q 45.796875 27.640625 41.28125 31.265625 
Q 36.765625 34.90625 28.71875 34.90625 
L 20.21875 34.90625 
L 20.21875 43.015625 
L 29.109375 43.015625 
Q 36.375 43.015625 40.234375 45.921875 
Q 44.09375 48.828125 44.09375 54.296875 
Q 44.09375 59.90625 40.109375 62.90625 
Q 36.140625 65.921875 28.71875 65.921875 
Q 24.65625 65.921875 20.015625 65.03125 
Q 15.375 64.15625 9.8125 62.3125 
L 9.8125 71.09375 
Q 15.4375 72.65625 20.34375 73.4375 
Q 25.25 74.21875 29.59375 74.21875 
Q 40.828125 74.21875 47.359375 69.109375 
Q 53.90625 64.015625 53.90625 55.328125 
Q 53.90625 49.265625 50.4375 45.09375 
Q 46.96875 40.921875 40.578125 39.3125 
z
" id="DejaVuSans-33"/>
      </defs>
      <g transform="translate(88.275 152.145099)scale(0.1 -0.1)">
       <use xlink:href="#DejaVuSans-33"/>
       <use x="63.623047" xlink:href="#DejaVuSans-30"/>
      </g>
     </g>
    </g>
    <g id="ytick_5">
     <g id="line2d_10">
      <g>
       <use style="stroke:#000000;stroke-width:0.8;" x="108" xlink:href="#mdf357f6f79" y="120.994507"/>
      </g>
     </g>
     <g id="text_11">
      <!-- 40 -->
      <defs>
       <path d="M 37.796875 64.3125 
L 12.890625 25.390625 
L 37.796875 25.390625 
z
M 35.203125 72.90625 
L 47.609375 72.90625 
L 47.609375 25.390625 
L 58.015625 25.390625 
L 58.015625 17.1875 
L 47.609375 17.1875 
L 47.609375 0 
L 37.796875 0 
L 37.796875 17.1875 
L 4.890625 17.1875 
L 4.890625 26.703125 
z
" id="DejaVuSans-34"/>
      </defs>
      <g transform="translate(88.275 124.793725)scale(0.1 -0.1)">
       <use xlink:href="#DejaVuSans-34"/>
       <use x="63.623047" xlink:href="#DejaVuSans-30"/>
      </g>
     </g>
    </g>
    <g id="ytick_6">
     <g id="line2d_11">
      <g>
       <use style="stroke:#000000;stroke-width:0.8;" x="108" xlink:href="#mdf357f6f79" y="93.643133"/>
      </g>
     </g>
     <g id="text_12">
      <!-- 50 -->
      <g transform="translate(88.275 97.442352)scale(0.1 -0.1)">
       <use xlink:href="#DejaVuSans-35"/>
       <use x="63.623047" xlink:href="#DejaVuSans-30"/>
      </g>
     </g>
    </g>
    <g id="ytick_7">
     <g id="line2d_12">
      <g>
       <use style="stroke:#000000;stroke-width:0.8;" x="108" xlink:href="#mdf357f6f79" y="66.29176"/>
      </g>
     </g>
     <g id="text_13">
      <!-- 60 -->
      <defs>
       <path d="M 33.015625 40.375 
Q 26.375 40.375 22.484375 35.828125 
Q 18.609375 31.296875 18.609375 23.390625 
Q 18.609375 15.53125 22.484375 10.953125 
Q 26.375 6.390625 33.015625 6.390625 
Q 39.65625 6.390625 43.53125 10.953125 
Q 47.40625 15.53125 47.40625 23.390625 
Q 47.40625 31.296875 43.53125 35.828125 
Q 39.65625 40.375 33.015625 40.375 
z
M 52.59375 71.296875 
L 52.59375 62.3125 
Q 48.875 64.0625 45.09375 64.984375 
Q 41.3125 65.921875 37.59375 65.921875 
Q 27.828125 65.921875 22.671875 59.328125 
Q 17.53125 52.734375 16.796875 39.40625 
Q 19.671875 43.65625 24.015625 45.921875 
Q 28.375 48.1875 33.59375 48.1875 
Q 44.578125 48.1875 50.953125 41.515625 
Q 57.328125 34.859375 57.328125 23.390625 
Q 57.328125 12.15625 50.6875 5.359375 
Q 44.046875 -1.421875 33.015625 -1.421875 
Q 20.359375 -1.421875 13.671875 8.265625 
Q 6.984375 17.96875 6.984375 36.375 
Q 6.984375 53.65625 15.1875 63.9375 
Q 23.390625 74.21875 37.203125 74.21875 
Q 40.921875 74.21875 44.703125 73.484375 
Q 48.484375 72.75 52.59375 71.296875 
z
" id="DejaVuSans-36"/>
      </defs>
      <g transform="translate(88.275 70.090979)scale(0.1 -0.1)">
       <use xlink:href="#DejaVuSans-36"/>
       <use x="63.623047" xlink:href="#DejaVuSans-30"/>
      </g>
     </g>
    </g>
    <g id="ytick_8">
     <g id="line2d_13">
      <g>
       <use style="stroke:#000000;stroke-width:0.8;" x="108" xlink:href="#mdf357f6f79" y="38.940387"/>
      </g>
     </g>
     <g id="text_14">
      <!-- 70 -->
      <defs>
       <path d="M 8.203125 72.90625 
L 55.078125 72.90625 
L 55.078125 68.703125 
L 28.609375 0 
L 18.3125 0 
L 43.21875 64.59375 
L 8.203125 64.59375 
z
" id="DejaVuSans-37"/>
      </defs>
      <g transform="translate(88.275 42.739606)scale(0.1 -0.1)">
       <use xlink:href="#DejaVuSans-37"/>
       <use x="63.623047" xlink:href="#DejaVuSans-30"/>
      </g>
     </g>
    </g>
   </g>
   <g id="line2d_14">
    <path clip-path="url(#p7565c759ce)" d="M 121.834711 230.4 
L 234.458989 230.321153 
L 238.630259 230.146446 
L 241.411105 229.878619 
L 244.191951 229.37634 
L 245.582375 228.990305 
L 246.972798 228.481007 
L 248.363221 227.817736 
L 249.753644 226.965155 
L 251.144067 225.883596 
L 252.534491 224.529738 
L 253.924914 222.857744 
L 255.315337 220.820911 
L 256.70576 218.373859 
L 258.096183 215.475237 
L 259.486607 212.090869 
L 260.87703 208.197232 
L 262.267453 203.785051 
L 263.657876 198.862791 
L 266.438723 187.628365 
L 269.219569 175.013375 
L 273.390838 155.562059 
L 274.781262 149.555148 
L 276.171685 144.069943 
L 277.562108 139.272219 
L 278.952531 135.31354 
L 280.342954 132.323338 
L 281.733378 130.401891 
L 283.123801 129.614741 
L 284.514224 129.988985 
L 285.904647 131.511723 
L 287.29507 134.130796 
L 288.685494 137.757756 
L 290.075917 142.272822 
L 291.46634 147.531443 
L 294.247186 159.623848 
L 299.808879 185.460249 
L 302.589725 196.989944 
L 303.980149 202.088092 
L 305.370572 206.684068 
L 306.760995 210.762311 
L 308.151418 214.326159 
L 309.541841 217.39447 
L 310.932265 219.99803 
L 312.322688 222.176017 
L 313.713111 223.972709 
L 315.103534 225.434616 
L 316.493957 226.608101 
L 317.884381 227.537537 
L 319.274804 228.263996 
L 320.665227 228.824409 
L 323.446073 229.571937 
L 326.22692 229.984472 
L 330.398189 230.26456 
L 337.350305 230.383408 
L 366.549192 230.4 
L 398.528926 230.4 
L 398.528926 230.4 
" style="fill:none;stroke:#282828;stroke-linecap:square;stroke-width:1.5;"/>
   </g>
   <g id="patch_53">
    <path d="M 108 230.4 
L 108 34.56 
" style="fill:none;stroke:#000000;stroke-linecap:square;stroke-linejoin:miter;stroke-width:0.8;"/>
   </g>
   <g id="patch_54">
    <path d="M 412.363636 230.4 
L 412.363636 34.56 
" style="fill:none;stroke:#000000;stroke-linecap:square;stroke-linejoin:miter;stroke-width:0.8;"/>
   </g>
   <g id="patch_55">
    <path d="M 108 230.4 
L 412.363636 230.4 
" style="fill:none;stroke:#000000;stroke-linecap:square;stroke-linejoin:miter;stroke-width:0.8;"/>
   </g>
   <g id="patch_56">
    <path d="M 108 34.56 
L 412.363636 34.56 
" style="fill:none;stroke:#000000;stroke-linecap:square;stroke-linejoin:miter;stroke-width:0.8;"/>
   </g>
  </g>
  <g id="axes_2">
   <g id="patch_57">
    <path d="M 473.236364 230.4 
L 777.6 230.4 
L 777.6 34.56 
L 473.236364 34.56 
z
" style="fill:#ffffff;"/>
   </g>
   <g id="matplotlib.axis_3">
    <g id="xtick_6">
     <g id="line2d_15">
      <g>
       <use style="stroke:#000000;stroke-width:0.8;" x="486.875323" xlink:href="#md9871cc811" y="230.4"/>
      </g>
     </g>
     <g id="text_15">
      <!-- 2013 -->
      <g transform="translate(463.795133 256.70544)rotate(-30)scale(0.1 -0.1)">
       <use xlink:href="#DejaVuSans-32"/>
       <use x="63.623047" xlink:href="#DejaVuSans-30"/>
       <use x="127.246094" xlink:href="#DejaVuSans-31"/>
       <use x="190.869141" xlink:href="#DejaVuSans-33"/>
      </g>
     </g>
    </g>
    <g id="xtick_7">
     <g id="line2d_16">
      <g>
       <use style="stroke:#000000;stroke-width:0.8;" x="522.599904" xlink:href="#md9871cc811" y="230.4"/>
      </g>
     </g>
     <g id="text_16">
      <!-- 2014 -->
      <g transform="translate(499.519713 256.70544)rotate(-30)scale(0.1 -0.1)">
       <use xlink:href="#DejaVuSans-32"/>
       <use x="63.623047" xlink:href="#DejaVuSans-30"/>
       <use x="127.246094" xlink:href="#DejaVuSans-31"/>
       <use x="190.869141" xlink:href="#DejaVuSans-34"/>
      </g>
     </g>
    </g>
    <g id="xtick_8">
     <g id="line2d_17">
      <g>
       <use style="stroke:#000000;stroke-width:0.8;" x="558.324484" xlink:href="#md9871cc811" y="230.4"/>
      </g>
     </g>
     <g id="text_17">
      <!-- 2015 -->
      <g transform="translate(535.244294 256.70544)rotate(-30)scale(0.1 -0.1)">
       <use xlink:href="#DejaVuSans-32"/>
       <use x="63.623047" xlink:href="#DejaVuSans-30"/>
       <use x="127.246094" xlink:href="#DejaVuSans-31"/>
       <use x="190.869141" xlink:href="#DejaVuSans-35"/>
      </g>
     </g>
    </g>
    <g id="xtick_9">
     <g id="line2d_18">
      <g>
       <use style="stroke:#000000;stroke-width:0.8;" x="594.049064" xlink:href="#md9871cc811" y="230.4"/>
      </g>
     </g>
     <g id="text_18">
      <!-- 2016 -->
      <g transform="translate(570.968874 256.70544)rotate(-30)scale(0.1 -0.1)">
       <use xlink:href="#DejaVuSans-32"/>
       <use x="63.623047" xlink:href="#DejaVuSans-30"/>
       <use x="127.246094" xlink:href="#DejaVuSans-31"/>
       <use x="190.869141" xlink:href="#DejaVuSans-36"/>
      </g>
     </g>
    </g>
    <g id="xtick_10">
     <g id="line2d_19">
      <g>
       <use style="stroke:#000000;stroke-width:0.8;" x="629.87152" xlink:href="#md9871cc811" y="230.4"/>
      </g>
     </g>
     <g id="text_19">
      <!-- 2017 -->
      <g transform="translate(606.79133 256.70544)rotate(-30)scale(0.1 -0.1)">
       <use xlink:href="#DejaVuSans-32"/>
       <use x="63.623047" xlink:href="#DejaVuSans-30"/>
       <use x="127.246094" xlink:href="#DejaVuSans-31"/>
       <use x="190.869141" xlink:href="#DejaVuSans-37"/>
      </g>
     </g>
    </g>
    <g id="xtick_11">
     <g id="line2d_20">
      <g>
       <use style="stroke:#000000;stroke-width:0.8;" x="665.5961" xlink:href="#md9871cc811" y="230.4"/>
      </g>
     </g>
     <g id="text_20">
      <!-- 2018 -->
      <defs>
       <path d="M 31.78125 34.625 
Q 24.75 34.625 20.71875 30.859375 
Q 16.703125 27.09375 16.703125 20.515625 
Q 16.703125 13.921875 20.71875 10.15625 
Q 24.75 6.390625 31.78125 6.390625 
Q 38.8125 6.390625 42.859375 10.171875 
Q 46.921875 13.96875 46.921875 20.515625 
Q 46.921875 27.09375 42.890625 30.859375 
Q 38.875 34.625 31.78125 34.625 
z
M 21.921875 38.8125 
Q 15.578125 40.375 12.03125 44.71875 
Q 8.5 49.078125 8.5 55.328125 
Q 8.5 64.0625 14.71875 69.140625 
Q 20.953125 74.21875 31.78125 74.21875 
Q 42.671875 74.21875 48.875 69.140625 
Q 55.078125 64.0625 55.078125 55.328125 
Q 55.078125 49.078125 51.53125 44.71875 
Q 48 40.375 41.703125 38.8125 
Q 48.828125 37.15625 52.796875 32.3125 
Q 56.78125 27.484375 56.78125 20.515625 
Q 56.78125 9.90625 50.3125 4.234375 
Q 43.84375 -1.421875 31.78125 -1.421875 
Q 19.734375 -1.421875 13.25 4.234375 
Q 6.78125 9.90625 6.78125 20.515625 
Q 6.78125 27.484375 10.78125 32.3125 
Q 14.796875 37.15625 21.921875 38.8125 
z
M 18.3125 54.390625 
Q 18.3125 48.734375 21.84375 45.5625 
Q 25.390625 42.390625 31.78125 42.390625 
Q 38.140625 42.390625 41.71875 45.5625 
Q 45.3125 48.734375 45.3125 54.390625 
Q 45.3125 60.0625 41.71875 63.234375 
Q 38.140625 66.40625 31.78125 66.40625 
Q 25.390625 66.40625 21.84375 63.234375 
Q 18.3125 60.0625 18.3125 54.390625 
z
" id="DejaVuSans-38"/>
      </defs>
      <g transform="translate(642.51591 256.70544)rotate(-30)scale(0.1 -0.1)">
       <use xlink:href="#DejaVuSans-32"/>
       <use x="63.623047" xlink:href="#DejaVuSans-30"/>
       <use x="127.246094" xlink:href="#DejaVuSans-31"/>
       <use x="190.869141" xlink:href="#DejaVuSans-38"/>
      </g>
     </g>
    </g>
    <g id="xtick_12">
     <g id="line2d_21">
      <g>
       <use style="stroke:#000000;stroke-width:0.8;" x="701.32068" xlink:href="#md9871cc811" y="230.4"/>
      </g>
     </g>
     <g id="text_21">
      <!-- 2019 -->
      <defs>
       <path d="M 10.984375 1.515625 
L 10.984375 10.5 
Q 14.703125 8.734375 18.5 7.8125 
Q 22.3125 6.890625 25.984375 6.890625 
Q 35.75 6.890625 40.890625 13.453125 
Q 46.046875 20.015625 46.78125 33.40625 
Q 43.953125 29.203125 39.59375 26.953125 
Q 35.25 24.703125 29.984375 24.703125 
Q 19.046875 24.703125 12.671875 31.3125 
Q 6.296875 37.9375 6.296875 49.421875 
Q 6.296875 60.640625 12.9375 67.421875 
Q 19.578125 74.21875 30.609375 74.21875 
Q 43.265625 74.21875 49.921875 64.515625 
Q 56.59375 54.828125 56.59375 36.375 
Q 56.59375 19.140625 48.40625 8.859375 
Q 40.234375 -1.421875 26.421875 -1.421875 
Q 22.703125 -1.421875 18.890625 -0.6875 
Q 15.09375 0.046875 10.984375 1.515625 
z
M 30.609375 32.421875 
Q 37.25 32.421875 41.125 36.953125 
Q 45.015625 41.5 45.015625 49.421875 
Q 45.015625 57.28125 41.125 61.84375 
Q 37.25 66.40625 30.609375 66.40625 
Q 23.96875 66.40625 20.09375 61.84375 
Q 16.21875 57.28125 16.21875 49.421875 
Q 16.21875 41.5 20.09375 36.953125 
Q 23.96875 32.421875 30.609375 32.421875 
z
" id="DejaVuSans-39"/>
      </defs>
      <g transform="translate(678.24049 256.70544)rotate(-30)scale(0.1 -0.1)">
       <use xlink:href="#DejaVuSans-32"/>
       <use x="63.623047" xlink:href="#DejaVuSans-30"/>
       <use x="127.246094" xlink:href="#DejaVuSans-31"/>
       <use x="190.869141" xlink:href="#DejaVuSans-39"/>
      </g>
     </g>
    </g>
    <g id="xtick_13">
     <g id="line2d_22">
      <g>
       <use style="stroke:#000000;stroke-width:0.8;" x="737.045261" xlink:href="#md9871cc811" y="230.4"/>
      </g>
     </g>
     <g id="text_22">
      <!-- 2020 -->
      <g transform="translate(713.96507 256.70544)rotate(-30)scale(0.1 -0.1)">
       <use xlink:href="#DejaVuSans-32"/>
       <use x="63.623047" xlink:href="#DejaVuSans-30"/>
       <use x="127.246094" xlink:href="#DejaVuSans-32"/>
       <use x="190.869141" xlink:href="#DejaVuSans-30"/>
      </g>
     </g>
    </g>
    <g id="xtick_14">
     <g id="line2d_23">
      <g>
       <use style="stroke:#000000;stroke-width:0.8;" x="772.867717" xlink:href="#md9871cc811" y="230.4"/>
      </g>
     </g>
     <g id="text_23">
      <!-- 2021 -->
      <g transform="translate(749.787526 256.70544)rotate(-30)scale(0.1 -0.1)">
       <use xlink:href="#DejaVuSans-32"/>
       <use x="63.623047" xlink:href="#DejaVuSans-30"/>
       <use x="127.246094" xlink:href="#DejaVuSans-32"/>
       <use x="190.869141" xlink:href="#DejaVuSans-31"/>
      </g>
     </g>
    </g>
    <g id="text_24">
     <!-- DATE -->
     <defs>
      <path d="M 19.671875 64.796875 
L 19.671875 8.109375 
L 31.59375 8.109375 
Q 46.6875 8.109375 53.6875 14.9375 
Q 60.6875 21.78125 60.6875 36.53125 
Q 60.6875 51.171875 53.6875 57.984375 
Q 46.6875 64.796875 31.59375 64.796875 
z
M 9.8125 72.90625 
L 30.078125 72.90625 
Q 51.265625 72.90625 61.171875 64.09375 
Q 71.09375 55.28125 71.09375 36.53125 
Q 71.09375 17.671875 61.125 8.828125 
Q 51.171875 0 30.078125 0 
L 9.8125 0 
z
" id="DejaVuSans-44"/>
      <path d="M 34.1875 63.1875 
L 20.796875 26.90625 
L 47.609375 26.90625 
z
M 28.609375 72.90625 
L 39.796875 72.90625 
L 67.578125 0 
L 57.328125 0 
L 50.6875 18.703125 
L 17.828125 18.703125 
L 11.1875 0 
L 0.78125 0 
z
" id="DejaVuSans-41"/>
      <path d="M -0.296875 72.90625 
L 61.375 72.90625 
L 61.375 64.59375 
L 35.5 64.59375 
L 35.5 0 
L 25.59375 0 
L 25.59375 64.59375 
L -0.296875 64.59375 
z
" id="DejaVuSans-54"/>
      <path d="M 9.8125 72.90625 
L 55.90625 72.90625 
L 55.90625 64.59375 
L 19.671875 64.59375 
L 19.671875 43.015625 
L 54.390625 43.015625 
L 54.390625 34.71875 
L 19.671875 34.71875 
L 19.671875 8.296875 
L 56.78125 8.296875 
L 56.78125 0 
L 9.8125 0 
z
" id="DejaVuSans-45"/>
     </defs>
     <g transform="translate(611.940838 270.10494)scale(0.1 -0.1)">
      <use xlink:href="#DejaVuSans-44"/>
      <use x="76.986328" xlink:href="#DejaVuSans-41"/>
      <use x="145.285156" xlink:href="#DejaVuSans-54"/>
      <use x="206.369141" xlink:href="#DejaVuSans-45"/>
     </g>
    </g>
   </g>
   <g id="matplotlib.axis_4">
    <g id="ytick_9">
     <g id="line2d_24">
      <g>
       <use style="stroke:#000000;stroke-width:0.8;" x="473.236364" xlink:href="#mdf357f6f79" y="198.846147"/>
      </g>
     </g>
     <g id="text_25">
      <!-- −0.10 -->
      <g transform="translate(435.591051 202.645366)scale(0.1 -0.1)">
       <use xlink:href="#DejaVuSans-2212"/>
       <use x="83.789062" xlink:href="#DejaVuSans-30"/>
       <use x="147.412109" xlink:href="#DejaVuSans-2e"/>
       <use x="179.199219" xlink:href="#DejaVuSans-31"/>
       <use x="242.822266" xlink:href="#DejaVuSans-30"/>
      </g>
     </g>
    </g>
    <g id="ytick_10">
     <g id="line2d_25">
      <g>
       <use style="stroke:#000000;stroke-width:0.8;" x="473.236364" xlink:href="#mdf357f6f79" y="157.887232"/>
      </g>
     </g>
     <g id="text_26">
      <!-- −0.05 -->
      <g transform="translate(435.591051 161.68645)scale(0.1 -0.1)">
       <use xlink:href="#DejaVuSans-2212"/>
       <use x="83.789062" xlink:href="#DejaVuSans-30"/>
       <use x="147.412109" xlink:href="#DejaVuSans-2e"/>
       <use x="179.199219" xlink:href="#DejaVuSans-30"/>
       <use x="242.822266" xlink:href="#DejaVuSans-35"/>
      </g>
     </g>
    </g>
    <g id="ytick_11">
     <g id="line2d_26">
      <g>
       <use style="stroke:#000000;stroke-width:0.8;" x="473.236364" xlink:href="#mdf357f6f79" y="116.928316"/>
      </g>
     </g>
     <g id="text_27">
      <!-- 0.00 -->
      <g transform="translate(443.970739 120.727534)scale(0.1 -0.1)">
       <use xlink:href="#DejaVuSans-30"/>
       <use x="63.623047" xlink:href="#DejaVuSans-2e"/>
       <use x="95.410156" xlink:href="#DejaVuSans-30"/>
       <use x="159.033203" xlink:href="#DejaVuSans-30"/>
      </g>
     </g>
    </g>
    <g id="ytick_12">
     <g id="line2d_27">
      <g>
       <use style="stroke:#000000;stroke-width:0.8;" x="473.236364" xlink:href="#mdf357f6f79" y="75.9694"/>
      </g>
     </g>
     <g id="text_28">
      <!-- 0.05 -->
      <g transform="translate(443.970739 79.768619)scale(0.1 -0.1)">
       <use xlink:href="#DejaVuSans-30"/>
       <use x="63.623047" xlink:href="#DejaVuSans-2e"/>
       <use x="95.410156" xlink:href="#DejaVuSans-30"/>
       <use x="159.033203" xlink:href="#DejaVuSans-35"/>
      </g>
     </g>
    </g>
    <g id="ytick_13">
     <g id="line2d_28">
      <g>
       <use style="stroke:#000000;stroke-width:0.8;" x="473.236364" xlink:href="#mdf357f6f79" y="35.010484"/>
      </g>
     </g>
     <g id="text_29">
      <!-- 0.10 -->
      <g transform="translate(443.970739 38.809703)scale(0.1 -0.1)">
       <use xlink:href="#DejaVuSans-30"/>
       <use x="63.623047" xlink:href="#DejaVuSans-2e"/>
       <use x="95.410156" xlink:href="#DejaVuSans-31"/>
       <use x="159.033203" xlink:href="#DejaVuSans-30"/>
      </g>
     </g>
    </g>
   </g>
   <g id="line2d_29">
    <path clip-path="url(#p34821f2d69)" d="M 487.071074 118.638565 
L 487.16895 112.952584 
L 487.560452 119.588717 
L 487.756203 110.728187 
L 487.854079 116.967269 
L 488.147706 117.691059 
L 488.245581 116.004206 
L 488.343457 116.766982 
L 488.441332 112.318715 
L 488.539208 114.145185 
L 488.93071 113.308957 
L 489.126461 116.922836 
L 489.224337 112.479605 
L 489.517963 118.444939 
L 489.615839 112.75619 
L 489.713715 120.129043 
L 489.81159 119.030825 
L 489.909466 108.734506 
L 490.203092 126.435517 
L 490.300968 108.439515 
L 490.496719 118.408607 
L 490.594595 112.306537 
L 490.888221 117.424961 
L 490.986097 115.622568 
L 491.279724 117.78489 
L 491.671226 110.94032 
L 491.769101 127.153068 
L 491.866977 122.108035 
L 491.964852 109.7734 
L 492.258479 132.066137 
L 492.45423 106.56926 
L 492.552106 117.636492 
L 492.649981 115.026817 
L 492.943608 113.159992 
L 493.041484 109.129333 
L 493.139359 116.040346 
L 493.237235 115.441661 
L 493.33511 113.265687 
L 493.628737 114.271006 
L 493.726613 118.899383 
L 493.922364 112.351257 
L 494.020239 118.255184 
L 494.313866 121.454756 
L 494.411742 118.915203 
L 494.509617 111.460164 
L 494.607493 123.741406 
L 494.705368 111.072284 
L 494.998995 119.668944 
L 495.09687 110.575659 
L 495.194746 117.410398 
L 495.292622 113.611884 
L 495.684124 120.601251 
L 495.781999 112.702206 
L 495.879875 125.613322 
L 495.977751 113.618627 
L 496.075626 120.454204 
L 496.369253 111.781409 
L 496.467128 114.030029 
L 496.565004 107.003605 
L 497.054382 135.961212 
L 497.152257 105.291179 
L 497.250133 128.750168 
L 497.445884 109.712191 
L 497.739511 113.118483 
L 497.837386 108.437291 
L 497.935262 116.923127 
L 498.033137 113.629798 
L 498.131013 118.438704 
L 498.42464 111.062738 
L 498.522515 114.895245 
L 498.620391 124.588842 
L 498.816142 108.343724 
L 499.109769 115.366971 
L 499.207644 112.654938 
L 499.30552 113.544658 
L 499.403395 119.954345 
L 499.501271 113.395691 
L 499.794897 116.893217 
L 499.892773 108.661906 
L 500.088524 121.042472 
L 500.1864 108.533858 
L 500.480026 117.50822 
L 500.577902 115.518585 
L 500.675778 123.734081 
L 500.871529 117.38009 
L 501.263031 111.750362 
L 501.360906 122.722276 
L 501.458782 113.927178 
L 501.556658 128.733126 
L 501.850284 112.080085 
L 502.046035 128.294879 
L 502.241787 106.483835 
L 502.535413 117.212494 
L 502.633289 125.28822 
L 502.731164 123.813334 
L 502.82904 104.905981 
L 502.926915 121.763432 
L 503.318418 110.570712 
L 503.514169 137.676755 
L 503.612044 114.744265 
L 503.905671 126.938112 
L 504.101422 109.109421 
L 504.199298 111.865198 
L 504.297173 120.44983 
L 504.5908 112.513565 
L 504.688676 117.374812 
L 504.786551 116.253592 
L 504.982302 108.613608 
L 505.275929 112.637592 
L 505.373805 111.027225 
L 505.47168 116.779597 
L 505.569556 105.899556 
L 505.667431 114.403791 
L 505.961058 115.802846 
L 506.058933 119.972105 
L 506.254685 112.815742 
L 506.35256 115.610444 
L 506.646187 115.264626 
L 506.841938 120.056315 
L 506.939814 114.83681 
L 507.331316 119.994495 
L 507.624942 106.719241 
L 507.722818 115.585612 
L 508.016445 118.141448 
L 508.11432 121.629958 
L 508.212196 120.051964 
L 508.310071 113.751581 
L 508.407947 119.858013 
L 508.701574 117.873273 
L 508.799449 114.657412 
L 508.9952 128.711806 
L 509.093076 119.639856 
L 509.386703 121.776082 
L 509.484578 113.804 
L 509.582454 121.676612 
L 509.680329 109.897722 
L 509.778205 113.701393 
L 510.071832 120.244232 
L 510.169707 130.036405 
L 510.267583 114.680581 
L 510.365458 115.321558 
L 510.463334 119.532748 
L 510.854836 113.524183 
L 510.952712 110.305893 
L 511.148463 116.883772 
L 511.442089 108.782954 
L 511.637841 114.431767 
L 511.735716 119.702189 
L 511.833592 114.707496 
L 512.127218 112.277827 
L 512.225094 113.480517 
L 512.322969 107.012886 
L 512.518721 122.861701 
L 512.812347 120.803618 
L 513.105974 114.078106 
L 513.20385 120.27228 
L 513.497476 121.882304 
L 513.595352 110.402124 
L 513.791103 124.317301 
L 513.888978 111.170732 
L 514.280481 127.093273 
L 514.476232 99.237666 
L 514.574107 111.794805 
L 514.867734 113.597206 
L 514.96561 122.73532 
L 515.063485 105.678691 
L 515.259236 111.581195 
L 515.552863 116.853187 
L 515.650739 112.241706 
L 515.748614 120.807724 
L 515.944365 113.336077 
L 516.237992 115.839762 
L 516.335868 112.366573 
L 516.433743 120.932386 
L 516.531619 120.079498 
L 516.629494 114.553331 
L 516.923121 114.008619 
L 517.020996 119.229784 
L 517.118872 113.441518 
L 517.216748 127.799185 
L 517.314623 106.001926 
L 517.706125 118.87236 
L 517.804001 110.323511 
L 517.999752 113.477024 
L 518.293379 119.963403 
L 518.391254 118.603565 
L 518.48913 119.911956 
L 518.587005 110.29648 
L 518.978508 117.963859 
L 519.174259 114.895107 
L 519.37001 117.572224 
L 519.761512 119.548012 
L 519.859388 117.996821 
L 519.957263 120.490922 
L 520.055139 107.773809 
L 520.446641 119.537173 
L 520.544517 126.251699 
L 520.740268 117.011368 
L 521.033895 111.76741 
L 521.13177 119.472507 
L 521.229646 103.402951 
L 521.327521 117.403497 
L 521.425397 112.990385 
L 521.719023 112.58339 
L 521.816899 114.543255 
L 522.01265 113.050109 
L 522.110526 117.204087 
L 522.404152 117.075135 
L 522.502028 113.691058 
L 522.697779 124.220158 
L 522.795655 117.201125 
L 523.089281 118.988501 
L 523.187157 111.961348 
L 523.285032 117.102165 
L 523.382908 116.643045 
L 523.480784 115.0409 
L 523.77441 127.295789 
L 523.872286 108.114083 
L 524.165913 120.12536 
L 524.557415 114.659307 
L 524.65529 116.457506 
L 524.851041 134.210082 
L 525.242544 111.913381 
L 525.340419 125.334459 
L 525.438295 107.750201 
L 525.53617 122.241755 
L 525.829797 135.848576 
L 525.927673 110.692665 
L 526.025548 118.591509 
L 526.221299 106.103519 
L 526.514926 115.643816 
L 526.612802 107.916243 
L 526.710677 117.148924 
L 526.808553 112.182618 
L 527.297931 115.97987 
L 527.395806 122.290539 
L 527.493682 112.00233 
L 527.591557 118.501589 
L 527.885184 111.876063 
L 527.983059 118.033056 
L 528.080935 116.910557 
L 528.178811 112.884951 
L 528.276686 114.651924 
L 528.570313 122.995054 
L 528.668188 104.515885 
L 528.766064 116.972032 
L 528.86394 115.521828 
L 528.961815 116.487647 
L 529.255442 117.307887 
L 529.353317 121.102092 
L 529.451193 116.678341 
L 529.549068 126.570126 
L 529.646944 119.24314 
L 529.940571 109.090627 
L 530.038446 111.035427 
L 530.136322 121.966701 
L 530.234197 111.994946 
L 530.332073 119.33423 
L 530.6257 120.923071 
L 530.723575 113.328648 
L 530.821451 122.68302 
L 531.017202 113.135919 
L 531.310829 110.462634 
L 531.408704 111.182059 
L 531.604455 117.851597 
L 531.702331 127.263491 
L 531.995958 125.782283 
L 532.191709 108.032867 
L 532.289584 134.217824 
L 532.38746 124.736766 
L 532.681086 110.224419 
L 532.778962 111.411492 
L 532.876838 108.381152 
L 532.974713 115.811802 
L 533.464091 113.582979 
L 533.561967 118.743409 
L 533.659842 115.523012 
L 533.757718 123.587716 
L 534.14922 113.037618 
L 534.442847 118.033661 
L 534.736473 115.396897 
L 534.834349 124.324675 
L 534.932224 112.340295 
L 535.0301 118.054352 
L 535.421602 109.042714 
L 535.715229 124.633405 
L 535.813104 113.864624 
L 536.106731 113.784777 
L 536.204607 122.269034 
L 536.302482 110.30665 
L 536.400358 114.995493 
L 536.498233 113.455514 
L 536.889736 112.037864 
L 536.987611 117.841446 
L 537.085487 112.543452 
L 537.183362 115.41937 
L 537.476989 116.332324 
L 537.574865 117.239029 
L 537.770616 111.600294 
L 537.868491 113.146093 
L 538.259994 117.129853 
L 538.455745 122.756052 
L 538.55362 114.364587 
L 538.847247 116.243189 
L 538.945122 115.150508 
L 539.042998 110.62945 
L 539.140874 115.882501 
L 539.238749 115.51232 
L 539.532376 117.036831 
L 539.630251 122.217016 
L 539.728127 112.926193 
L 539.826003 117.894577 
L 539.923878 115.364463 
L 540.217505 117.233325 
L 540.31538 111.476201 
L 540.413256 116.388828 
L 540.511131 112.451853 
L 541.000509 122.722962 
L 541.098385 113.132637 
L 541.19626 120.31945 
L 541.294136 115.724208 
L 541.587763 112.970172 
L 541.685638 118.5126 
L 541.783514 113.494052 
L 541.881389 126.680331 
L 541.979265 108.562358 
L 542.272892 118.831237 
L 542.370767 112.829476 
L 542.664394 120.910291 
L 542.958021 116.692328 
L 543.055896 120.645769 
L 543.153772 116.878417 
L 543.251647 133.477341 
L 543.349523 119.273792 
L 543.643149 111.060269 
L 543.741025 124.901103 
L 543.838901 116.915518 
L 543.936776 121.492853 
L 544.034652 107.536099 
L 544.426154 118.270097 
L 544.52403 111.452287 
L 544.719781 116.978595 
L 545.013407 109.968971 
L 545.209158 114.90107 
L 545.307034 114.515381 
L 545.40491 118.56224 
L 545.698536 113.015638 
L 545.894287 116.887358 
L 545.992163 118.313815 
L 546.090039 114.212812 
L 546.677292 118.186267 
L 546.775167 112.813354 
L 547.16667 122.307428 
L 547.264545 113.946963 
L 547.362421 116.2062 
L 547.460296 121.82737 
L 547.753923 117.510249 
L 547.851799 110.820097 
L 547.949674 115.867625 
L 548.04755 112.93135 
L 548.145425 117.319394 
L 548.439052 123.519105 
L 548.536928 121.674013 
L 548.634803 110.537117 
L 548.732679 130.281646 
L 548.830554 109.933132 
L 549.319932 127.853782 
L 549.515683 107.83245 
L 549.80931 118.211433 
L 549.907185 129.413931 
L 550.005061 102.747579 
L 550.102937 134.030974 
L 550.200812 126.362877 
L 550.494439 130.530792 
L 550.592314 115.635947 
L 550.69019 123.590956 
L 550.885941 106.441348 
L 551.179568 109.472879 
L 551.277443 101.048248 
L 551.375319 122.92968 
L 551.473194 106.911136 
L 551.57107 111.170569 
L 551.864697 118.159313 
L 551.962572 107.206027 
L 552.060448 118.063956 
L 552.256199 107.374155 
L 552.647701 119.249713 
L 552.745577 112.27184 
L 552.941328 116.642026 
L 553.234955 114.376294 
L 553.430706 117.502835 
L 553.528581 116.494376 
L 553.626457 116.731511 
L 553.920083 116.326147 
L 554.017959 112.733468 
L 554.115835 118.158925 
L 554.311586 112.649573 
L 554.605212 114.585488 
L 554.703088 117.870984 
L 554.800964 114.632954 
L 554.996715 119.013661 
L 555.290341 122.541926 
L 555.388217 111.714971 
L 555.583968 117.880608 
L 555.681844 115.565418 
L 555.97547 122.894387 
L 556.073346 117.123163 
L 556.171221 130.433367 
L 556.269097 113.221155 
L 556.366973 130.318986 
L 556.660599 122.140592 
L 556.758475 123.912018 
L 556.954226 97.488074 
L 557.052101 113.193128 
L 557.345728 113.812852 
L 557.541479 117.042417 
L 557.73723 114.221714 
L 558.030857 116.222692 
L 558.226608 125.418517 
L 558.422359 117.206873 
L 558.715986 132.039875 
L 558.813862 124.246256 
L 559.009613 102.404094 
L 559.107488 123.841692 
L 559.401115 123.585444 
L 559.498991 119.043348 
L 559.694742 124.539232 
L 559.792617 106.00466 
L 560.184119 115.659613 
L 560.281995 113.061391 
L 560.379871 104.514194 
L 560.477746 121.439315 
L 560.771373 114.826993 
L 560.967124 128.058898 
L 561.065 109.154695 
L 561.162875 127.640788 
L 561.554377 105.184402 
L 561.652253 120.339945 
L 561.750128 108.540908 
L 561.848004 119.733185 
L 562.141631 120.414942 
L 562.239506 108.229517 
L 562.337382 116.952077 
L 562.435257 109.065581 
L 562.533133 113.597164 
L 562.924635 115.6207 
L 563.120386 117.7988 
L 563.218262 111.924941 
L 563.511889 117.176789 
L 563.609764 114.671529 
L 563.805515 118.138294 
L 563.903391 119.353647 
L 564.197018 111.926176 
L 564.294893 120.654706 
L 564.392769 120.531194 
L 564.490644 115.949102 
L 564.58852 128.622367 
L 564.882146 113.703456 
L 564.980022 130.941893 
L 565.175773 106.669974 
L 565.273649 121.919744 
L 565.567275 105.916192 
L 565.665151 119.65269 
L 565.763027 107.028451 
L 565.860902 120.929591 
L 565.958778 109.578365 
L 566.35028 121.973129 
L 566.448155 128.942344 
L 566.643907 114.990382 
L 566.937533 106.965144 
L 567.035409 124.16546 
L 567.23116 114.041988 
L 567.622662 111.53239 
L 567.720538 118.619111 
L 567.916289 113.28497 
L 568.014164 112.67734 
L 568.307791 120.689775 
L 568.503542 112.721764 
L 568.699293 126.247023 
L 568.99292 109.397804 
L 569.090796 118.142148 
L 569.188671 112.771297 
L 569.384422 115.08495 
L 569.678049 120.327827 
L 569.775925 114.66299 
L 569.971676 125.26797 
L 570.069551 108.028957 
L 570.363178 114.522834 
L 570.461054 126.683082 
L 570.75468 105.977457 
L 571.048307 121.108212 
L 571.244058 117.178113 
L 571.341934 108.145455 
L 571.439809 116.299044 
L 571.733436 114.435289 
L 571.929187 117.690937 
L 572.027063 115.015403 
L 572.124938 118.76031 
L 572.51644 125.39465 
L 572.614316 109.456668 
L 572.810067 122.120633 
L 573.103694 115.243019 
L 573.201569 117.754998 
L 573.299445 115.194407 
L 573.39732 124.022868 
L 573.495196 118.105647 
L 573.788823 122.249319 
L 573.984574 107.122368 
L 574.180325 122.678026 
L 574.473952 120.723737 
L 574.571827 112.280561 
L 574.669703 115.308201 
L 574.767578 108.856152 
L 574.865454 121.284391 
L 575.159081 111.950728 
L 575.354832 122.974282 
L 575.550583 117.247896 
L 575.844209 134.202265 
L 576.039961 111.266003 
L 576.137836 117.180722 
L 576.529338 120.0979 
L 576.627214 111.962028 
L 576.72509 130.684735 
L 576.920841 106.882766 
L 577.214467 107.91303 
L 577.410218 117.530603 
L 577.508094 110.389087 
L 577.60597 116.022599 
L 577.899596 116.296834 
L 577.997472 120.426833 
L 578.095347 118.886592 
L 578.291099 125.74351 
L 578.584725 121.672792 
L 578.682601 106.844213 
L 578.976227 118.791292 
L 579.269854 119.189797 
L 579.36773 118.773313 
L 579.465605 114.380811 
L 579.563481 123.30413 
L 579.954983 106.502714 
L 580.052859 124.794992 
L 580.150734 116.150413 
L 580.24861 117.973547 
L 580.346485 113.730029 
L 580.640112 112.670277 
L 581.031614 143.444511 
L 581.325241 149.868636 
L 581.520992 85.560924 
L 581.618868 97.262103 
L 581.716743 116.429788 
L 582.01037 123.83162 
L 582.108245 141.522187 
L 582.206121 102.078525 
L 582.401872 129.583221 
L 582.793374 96.634316 
L 582.89125 128.392748 
L 582.989126 112.616099 
L 583.087001 113.260853 
L 583.380628 120.285334 
L 583.478503 106.484022 
L 583.576379 109.827929 
L 583.77213 130.277867 
L 584.065757 113.196613 
L 584.163632 127.081982 
L 584.261508 118.608249 
L 584.359383 119.687834 
L 584.457259 117.309962 
L 584.750886 138.227967 
L 584.946637 101.449233 
L 585.044512 115.312911 
L 585.142388 105.284701 
L 585.436015 102.081068 
L 585.53389 119.873005 
L 585.729641 109.73615 
L 585.827517 116.33452 
L 586.121144 115.884116 
L 586.219019 122.538715 
L 586.316895 120.800945 
L 586.41477 104.850716 
L 586.512646 113.192812 
L 586.904148 118.093264 
L 587.002024 121.714292 
L 587.099899 103.419399 
L 587.491401 118.496999 
L 587.589277 119.023255 
L 587.687153 107.286268 
L 587.882904 120.878046 
L 588.17653 107.258813 
L 588.372281 119.837772 
L 588.568033 117.213137 
L 588.861659 125.014713 
L 588.959535 115.69176 
L 589.05741 119.576982 
L 589.155286 128.469841 
L 589.253162 126.161008 
L 589.546788 104.809924 
L 589.644664 118.026242 
L 589.742539 103.794296 
L 589.840415 117.848825 
L 589.93829 113.81299 
L 590.231917 117.940577 
L 590.329793 115.927818 
L 590.427668 117.034193 
L 590.623419 116.442177 
L 590.917046 120.738893 
L 591.014922 108.225404 
L 591.210673 128.78828 
L 591.308548 100.284299 
L 591.602175 122.674118 
L 591.700051 122.262037 
L 591.797926 123.292546 
L 591.895802 115.086095 
L 591.993677 132.995577 
L 592.483055 105.123449 
L 592.678806 131.63872 
L 593.070308 109.737468 
L 593.168184 106.818375 
L 593.26606 118.238912 
L 593.657562 118.714895 
L 593.755437 108.266642 
L 593.951189 124.674797 
L 594.342691 129.561755 
L 594.440566 115.28157 
L 594.636317 136.576958 
L 594.734193 125.855369 
L 595.125695 110.561245 
L 595.223571 137.639079 
L 595.321446 103.364284 
L 595.419322 134.815703 
L 595.810824 116.492775 
L 595.9087 126.564118 
L 596.104451 100.478634 
L 596.398078 129.839802 
L 596.495953 105.422783 
L 596.593829 125.876113 
L 596.78958 96.892321 
L 597.083207 117.291492 
L 597.181082 132.427974 
L 597.278958 112.849119 
L 597.376833 115.67857 
L 597.474709 132.20944 
L 597.768335 128.605703 
L 597.964087 117.083125 
L 598.061962 127.067639 
L 598.159838 101.093619 
L 598.649216 103.537932 
L 598.747091 120.759315 
L 599.138593 105.172495 
L 599.236469 127.19474 
L 599.43222 107.684366 
L 599.530096 118.461748 
L 599.823722 123.607974 
L 599.921598 97.60522 
L 600.117349 114.067256 
L 600.215225 114.224653 
L 600.508851 116.20366 
L 600.606727 126.188108 
L 600.704602 112.799925 
L 600.802478 116.800667 
L 600.900353 103.606389 
L 601.291856 118.434498 
L 601.487607 111.543377 
L 601.585482 113.32728 
L 601.976985 117.647349 
L 602.07486 122.176354 
L 602.172736 117.238073 
L 602.564238 116.481819 
L 602.662114 109.737543 
L 602.857865 118.600964 
L 602.95574 111.75853 
L 603.249367 119.560671 
L 603.347242 125.280966 
L 603.445118 108.365558 
L 603.542994 126.797885 
L 603.640869 114.648763 
L 603.934496 119.175775 
L 604.130247 108.744648 
L 604.325998 117.734998 
L 604.619625 111.58754 
L 604.913251 121.194269 
L 605.011127 116.889149 
L 605.304754 118.414036 
L 605.402629 115.395598 
L 605.500505 115.578296 
L 605.59838 124.525139 
L 605.989883 110.555384 
L 606.087758 124.067118 
L 606.283509 117.124036 
L 606.381385 114.331844 
L 606.675012 116.311319 
L 606.772887 106.765271 
L 606.870763 124.798617 
L 606.968638 117.067208 
L 607.066514 123.903107 
L 607.360141 108.942137 
L 607.458016 124.674373 
L 607.555892 116.760273 
L 607.653767 119.970426 
L 607.751643 112.012062 
L 608.045269 118.638451 
L 608.143145 105.796806 
L 608.338896 117.100748 
L 608.436772 113.424105 
L 608.828274 117.748271 
L 609.024025 114.617636 
L 609.121901 119.317041 
L 609.415527 112.926372 
L 609.513403 115.872698 
L 609.611278 114.221758 
L 609.80703 124.479153 
L 610.100656 123.603222 
L 610.198532 118.403254 
L 610.296407 118.43755 
L 610.394283 114.365846 
L 610.492159 119.60152 
L 610.785785 112.184152 
L 610.981536 118.282378 
L 611.079412 106.053305 
L 611.177287 146.894495 
L 611.470914 131.888354 
L 611.56879 102.499179 
L 611.666665 103.093036 
L 611.764541 105.890853 
L 611.862416 115.333555 
L 612.253919 122.556952 
L 612.351794 112.554952 
L 612.44967 117.642574 
L 612.547545 104.527442 
L 612.841172 114.140804 
L 612.939048 111.206477 
L 613.036923 116.817939 
L 613.134799 112.631405 
L 613.232674 117.689639 
L 613.526301 114.979075 
L 613.624177 118.104875 
L 613.722052 113.437623 
L 613.819928 119.892942 
L 613.917803 113.206316 
L 614.21143 119.398954 
L 614.309305 116.663922 
L 614.407181 117.91078 
L 614.602932 115.593086 
L 614.896559 117.969155 
L 614.994434 122.156241 
L 615.09231 114.365075 
L 615.190186 116.754185 
L 615.288061 109.910707 
L 615.581688 117.671699 
L 615.679563 116.609104 
L 615.777439 119.278372 
L 615.875314 113.059015 
L 615.97319 117.580683 
L 616.266817 114.643559 
L 616.364692 121.428998 
L 616.560443 115.128434 
L 616.658319 118.109042 
L 616.951946 117.389824 
L 617.049821 115.331031 
L 617.147697 121.232338 
L 617.245572 118.047456 
L 617.343448 118.222696 
L 617.637075 112.65671 
L 617.832826 118.876825 
L 618.028577 113.494074 
L 618.420079 114.489423 
L 618.61583 118.751439 
L 618.713706 137.266668 
L 619.007332 104.992563 
L 619.105208 129.168265 
L 619.300959 108.688593 
L 619.398835 120.024304 
L 619.790337 116.683264 
L 619.888213 108.033718 
L 619.986088 111.620993 
L 620.083964 121.641292 
L 620.37759 123.993665 
L 620.475466 111.666265 
L 620.573341 112.601014 
L 620.671217 124.599936 
L 620.769093 110.427047 
L 621.160595 120.997912 
L 621.25847 113.416096 
L 621.454222 119.597833 
L 621.747848 113.163891 
L 621.845724 127.188204 
L 621.943599 115.989574 
L 622.041475 119.471153 
L 622.13935 116.763156 
L 622.432977 119.42077 
L 622.530853 111.897365 
L 622.726604 118.056074 
L 623.118106 113.046625 
L 623.215982 120.045191 
L 623.313857 118.355273 
L 623.509608 119.478484 
L 623.803235 117.028484 
L 623.901111 122.506962 
L 623.998986 122.29137 
L 624.194737 118.29432 
L 624.488364 98.922647 
L 624.58624 113.844224 
L 624.684115 107.90413 
L 624.879866 118.074276 
L 625.173493 117.022939 
L 625.271368 110.822995 
L 625.369244 118.225516 
L 625.46712 113.10653 
L 625.564995 118.885786 
L 625.858622 110.838799 
L 626.054373 116.266678 
L 626.250124 113.728041 
L 626.543751 121.244019 
L 626.641626 115.83518 
L 626.837377 119.813242 
L 626.935253 116.603114 
L 627.22888 112.173459 
L 627.326755 114.138952 
L 627.424631 106.21567 
L 627.522506 115.161279 
L 627.620382 112.07765 
L 627.914009 117.860583 
L 628.011884 111.588519 
L 628.10976 123.604882 
L 628.207635 113.75342 
L 628.305511 118.363659 
L 628.697013 113.953944 
L 628.794889 118.943782 
L 628.892764 118.455857 
L 628.99064 115.903607 
L 629.382142 115.088509 
L 629.480018 123.80258 
L 629.577893 117.168652 
L 629.675769 120.735746 
L 630.067271 110.005631 
L 630.165147 112.254086 
L 630.263022 117.559876 
L 630.360898 114.052346 
L 630.654524 119.840389 
L 630.850276 114.613671 
L 630.948151 118.687138 
L 631.046027 115.414349 
L 631.437529 119.362843 
L 631.535404 115.484759 
L 631.63328 119.890349 
L 631.731156 114.17544 
L 632.024782 119.134938 
L 632.220533 110.379778 
L 632.416285 117.638415 
L 632.709911 121.866041 
L 632.905662 116.683915 
L 633.003538 116.461281 
L 633.101413 110.998633 
L 633.39504 118.663054 
L 633.688667 112.229526 
L 633.786542 114.012274 
L 634.080169 112.642231 
L 634.178045 113.652181 
L 634.27592 112.848872 
L 634.373796 117.636478 
L 634.471671 115.554411 
L 634.863174 111.988783 
L 634.961049 117.815375 
L 635.1568 115.705907 
L 635.450427 116.0948 
L 635.548303 119.043156 
L 635.646178 105.802906 
L 635.744054 121.742709 
L 635.841929 116.515721 
L 636.135556 119.617349 
L 636.331307 118.801666 
L 636.527058 114.255052 
L 636.820685 116.627989 
L 636.91856 119.701022 
L 637.016436 110.096488 
L 637.114312 118.261923 
L 637.212187 118.005722 
L 637.505814 118.576424 
L 637.603689 127.156261 
L 637.701565 115.381599 
L 637.79944 117.79733 
L 637.897316 117.619998 
L 638.190943 117.764003 
L 638.288818 111.009492 
L 638.386694 116.039659 
L 638.484569 114.52752 
L 638.582445 118.777657 
L 638.876072 118.274656 
L 638.973947 116.470034 
L 639.071823 119.434635 
L 639.169698 115.34924 
L 639.267574 117.60618 
L 639.561201 116.365127 
L 639.854827 122.52988 
L 640.24633 109.902682 
L 640.344205 119.310137 
L 640.442081 118.335514 
L 640.539956 110.760903 
L 640.637832 119.418311 
L 640.931458 108.096138 
L 641.12721 117.326237 
L 641.225085 116.475524 
L 641.322961 118.497002 
L 641.616587 115.510532 
L 641.714463 115.954797 
L 641.812339 117.970436 
L 642.00809 113.58578 
L 642.399592 117.768621 
L 642.497467 116.002661 
L 642.595343 118.701981 
L 642.693219 118.140306 
L 642.986845 113.024871 
L 643.084721 117.49115 
L 643.182596 131.956562 
L 643.378348 111.403205 
L 643.671974 112.71213 
L 643.76985 115.424119 
L 643.867725 114.891801 
L 643.965601 113.297685 
L 644.063476 116.673959 
L 644.454979 117.91566 
L 644.552854 117.305245 
L 644.65073 110.749588 
L 644.748605 113.896643 
L 645.140108 119.208008 
L 645.237983 115.644577 
L 645.433734 117.608501 
L 645.727361 117.730447 
L 645.825237 113.240969 
L 646.020988 118.765017 
L 646.41249 110.118848 
L 646.510366 122.432529 
L 646.706117 117.301731 
L 646.803992 115.650661 
L 647.097619 116.669665 
L 647.195494 123.568174 
L 647.29337 109.74455 
L 647.391246 124.00374 
L 647.489121 115.673274 
L 647.782748 115.037548 
L 647.978499 115.738695 
L 648.076375 124.639218 
L 648.17425 111.699713 
L 648.565752 117.569755 
L 648.663628 110.965465 
L 648.761503 115.394161 
L 648.859379 113.108782 
L 649.153006 116.97162 
L 649.250881 116.438782 
L 649.348757 112.538937 
L 649.544508 117.229753 
L 649.838135 117.800126 
L 649.93601 114.5372 
L 650.131761 117.725457 
L 650.229637 118.027724 
L 650.523264 117.524998 
L 650.621139 114.924523 
L 650.81689 118.719022 
L 650.914766 115.382318 
L 651.208393 115.580021 
L 651.306268 118.908561 
L 651.404144 117.226263 
L 651.502019 128.872095 
L 651.599895 115.884098 
L 651.893521 108.74174 
L 651.991397 117.337037 
L 652.089273 115.765823 
L 652.187148 129.672521 
L 652.285024 118.433203 
L 652.57865 115.976473 
L 652.676526 108.825217 
L 652.774402 119.76233 
L 652.872277 118.629412 
L 652.970153 115.559109 
L 653.263779 116.529394 
L 653.361655 116.238205 
L 653.557406 112.255109 
L 653.655282 115.305918 
L 654.046784 123.13726 
L 654.144659 114.369312 
L 654.340411 118.148804 
L 654.634037 108.096833 
L 654.829788 116.308378 
L 654.927664 117.830496 
L 655.025539 115.416496 
L 655.319166 115.736569 
L 655.514917 116.408865 
L 655.612793 119.427308 
L 655.710668 116.397787 
L 656.004295 118.750577 
L 656.200046 113.588655 
L 656.297922 115.942121 
L 656.395797 113.898795 
L 656.689424 113.76095 
L 656.885175 115.907637 
L 656.983051 112.315626 
L 657.080926 117.808289 
L 657.374553 118.407773 
L 657.472429 115.028023 
L 657.570304 115.452284 
L 657.66818 118.311215 
L 657.766055 116.209302 
L 658.059682 115.495381 
L 658.157557 116.377608 
L 658.255433 116.320405 
L 658.353309 116.659699 
L 658.451184 112.747353 
L 658.744811 120.188975 
L 658.842686 115.604 
L 658.940562 120.757125 
L 659.136313 110.341675 
L 659.42994 119.547705 
L 659.625691 115.625162 
L 659.723566 116.772712 
L 659.821442 114.395176 
L 660.115069 115.887531 
L 660.212944 117.083242 
L 660.31082 115.746555 
L 660.408695 120.015858 
L 660.506571 117.663955 
L 660.800198 116.122952 
L 660.995949 121.467382 
L 661.093824 110.241576 
L 661.1917 119.082342 
L 661.485327 115.883905 
L 661.583202 111.587448 
L 661.681078 117.543159 
L 661.876829 115.245687 
L 662.170455 117.243152 
L 662.268331 108.900133 
L 662.366207 117.230842 
L 662.464082 110.2458 
L 662.561958 118.588415 
L 662.855584 117.790664 
L 662.95346 119.997317 
L 663.247087 112.430048 
L 663.540713 114.309529 
L 663.736464 117.315841 
L 663.83434 120.269854 
L 663.932216 109.609535 
L 664.225842 112.546913 
L 664.323718 119.578783 
L 664.519469 115.303343 
L 664.617345 117.303728 
L 665.008847 117.795779 
L 665.204598 115.427296 
L 665.302473 121.185305 
L 665.693976 110.154451 
L 665.889727 113.634754 
L 665.987602 111.186549 
L 666.47698 117.839917 
L 666.574856 111.186697 
L 666.672731 111.417743 
L 667.064234 119.820579 
L 667.162109 109.251831 
L 667.259985 118.25349 
L 667.35786 113.343885 
L 667.651487 110.346716 
L 667.847238 117.387209 
L 667.945114 116.434799 
L 668.042989 107.285278 
L 668.434491 125.90537 
L 668.532367 116.527884 
L 668.630243 117.459365 
L 668.728118 134.48875 
L 669.021745 151.204835 
L 669.11962 102.764238 
L 669.315372 148.269329 
L 669.413247 104.783484 
L 669.706874 105.608349 
L 669.804749 114.790634 
L 669.902625 106.022217 
L 670.0005 107.100768 
L 670.098376 116.622441 
L 670.489878 121.727498 
L 670.587754 121.443372 
L 670.685629 116.131156 
L 670.783505 103.90236 
L 671.077132 107.353414 
L 671.175007 127.404203 
L 671.272883 126.068563 
L 671.370758 127.916698 
L 671.468634 112.784292 
L 671.762261 107.940587 
L 671.958012 117.324771 
L 672.055887 113.28037 
L 672.153763 102.814273 
L 672.545265 122.157888 
L 672.643141 121.631171 
L 672.838892 115.534056 
L 673.132518 128.647487 
L 673.230394 115.715357 
L 673.32827 118.440264 
L 673.426145 137.804985 
L 673.524021 134.286568 
L 673.817647 94.978411 
L 673.915523 131.204392 
L 674.111274 105.725452 
L 674.502776 135.434039 
L 674.600652 106.65915 
L 674.698527 107.507678 
L 674.796403 111.325655 
L 674.894279 135.084603 
L 675.285781 103.339359 
L 675.383656 121.467071 
L 675.481532 110.197226 
L 675.579408 119.296414 
L 675.97091 108.240812 
L 676.264536 123.951279 
L 676.558163 116.882298 
L 676.656039 127.963381 
L 676.85179 108.425139 
L 676.949665 116.016557 
L 677.243292 123.66298 
L 677.341168 114.84285 
L 677.439043 122.852534 
L 677.536919 118.776578 
L 677.634794 106.500313 
L 678.026297 117.145964 
L 678.124172 109.035038 
L 678.222048 109.287839 
L 678.319923 115.530654 
L 678.61355 116.204873 
L 678.711426 122.552532 
L 678.809301 113.60873 
L 679.005052 119.087422 
L 679.298679 110.899499 
L 679.396554 119.501079 
L 679.49443 114.271631 
L 679.690181 118.8616 
L 680.081683 126.456657 
L 680.179559 106.593634 
L 680.277435 122.58338 
L 680.37531 108.088756 
L 680.766812 116.352948 
L 680.864688 109.940001 
L 680.962563 117.513578 
L 681.060439 114.37161 
L 681.354066 116.053312 
L 681.451941 115.501445 
L 681.549817 120.233026 
L 681.647692 114.906205 
L 681.745568 117.761905 
L 682.039195 118.671874 
L 682.13707 120.230874 
L 682.234946 115.52695 
L 682.332821 122.142965 
L 682.430697 115.40444 
L 682.724324 128.249189 
L 682.822199 115.124359 
L 682.920075 124.007263 
L 683.01795 111.882493 
L 683.115826 116.307301 
L 683.409453 114.418912 
L 683.507328 120.991139 
L 683.703079 109.896647 
L 683.800955 110.009919 
L 684.094581 109.732372 
L 684.290333 122.760425 
L 684.388208 109.792466 
L 684.486084 116.04471 
L 684.77971 117.770938 
L 684.877586 113.679633 
L 684.975462 115.1604 
L 685.073337 120.172902 
L 685.171213 117.705658 
L 685.464839 115.423979 
L 685.66059 109.506252 
L 685.856342 122.321687 
L 686.149968 121.65563 
L 686.247844 112.936576 
L 686.345719 117.781013 
L 686.443595 112.902547 
L 686.541471 113.132745 
L 686.932973 114.618082 
L 687.226599 122.776672 
L 687.520226 120.2165 
L 687.618102 111.711035 
L 687.715977 123.179682 
L 687.813853 110.46641 
L 687.911728 114.210588 
L 688.303231 115.235541 
L 688.498982 118.314909 
L 688.596857 111.866024 
L 688.890484 110.668872 
L 688.98836 116.707767 
L 689.086235 112.271094 
L 689.184111 120.565564 
L 689.281986 116.818201 
L 689.673489 118.284609 
L 689.86924 119.925668 
L 690.358617 113.870436 
L 690.456493 116.636198 
L 690.554369 112.612599 
L 690.652244 116.702692 
L 690.945871 121.503684 
L 691.043746 112.541903 
L 691.141622 115.902274 
L 691.239498 110.530535 
L 691.337373 117.230244 
L 691.631 119.81342 
L 691.728875 117.998104 
L 691.826751 119.627238 
L 691.924626 114.667821 
L 692.022502 116.933938 
L 692.316129 113.951049 
L 692.414004 117.253296 
L 692.51188 116.345683 
L 692.609755 123.648092 
L 693.001258 117.252012 
L 693.099133 118.0907 
L 693.197009 144.302252 
L 693.294884 133.957106 
L 693.39276 105.372724 
L 693.686387 121.779931 
L 693.784262 99.506138 
L 693.980013 128.803547 
L 694.077889 117.224232 
L 694.469391 121.455994 
L 694.567267 142.610238 
L 694.665142 101.811421 
L 694.763018 131.246808 
L 695.056644 122.319517 
L 695.15452 104.193888 
L 695.350271 108.324934 
L 695.448147 122.119203 
L 695.839649 111.816785 
L 695.937525 99.736139 
L 696.133276 124.498803 
L 696.426902 133.228438 
L 696.524778 118.143161 
L 696.622653 123.150993 
L 696.720529 108.295749 
L 697.112031 130.676706 
L 697.209907 131.933993 
L 697.307782 114.439116 
L 697.503534 122.315616 
L 697.79716 104.302307 
L 697.895036 114.260747 
L 697.992911 98.321493 
L 698.090787 118.730597 
L 698.188662 110.250207 
L 698.482289 108.014073 
L 698.580165 143.879453 
L 698.775916 118.176209 
L 698.873791 136.257961 
L 699.167418 115.486034 
L 699.265294 117.220297 
L 699.363169 112.500775 
L 699.461045 117.092102 
L 699.55892 132.714847 
L 699.852547 134.124737 
L 699.950423 116.857532 
L 700.146174 129.951443 
L 700.244049 133.969847 
L 700.537676 139.444715 
L 700.733427 77.277432 
L 700.929178 117.945996 
L 701.222805 110.000866 
L 701.418556 115.889827 
L 701.516432 137.463704 
L 701.614307 89.273365 
L 701.907934 111.205556 
L 702.005809 109.024393 
L 702.103685 113.578161 
L 702.201561 113.235241 
L 702.299436 117.048205 
L 702.593063 121.246559 
L 702.690938 108.192072 
L 702.788814 115.110148 
L 702.984565 106.199609 
L 703.376067 128.608532 
L 703.473943 115.125737 
L 703.571818 115.802165 
L 703.669694 110.003889 
L 703.963321 123.381646 
L 704.061196 118.122081 
L 704.159072 104.288729 
L 704.354823 116.192504 
L 704.64845 111.396119 
L 704.746325 113.080282 
L 704.942076 124.629552 
L 705.039952 116.374523 
L 705.333579 116.34769 
L 705.431454 106.43638 
L 705.627205 119.103353 
L 705.725081 108.064837 
L 706.312334 119.822182 
L 706.41021 111.693255 
L 706.997463 119.246218 
L 707.095339 111.299189 
L 707.388965 120.113403 
L 707.486841 117.855722 
L 707.682592 123.611913 
L 708.074094 105.001454 
L 708.17197 114.512578 
L 708.269845 111.255029 
L 708.367721 117.639707 
L 708.465597 112.854936 
L 708.759223 113.898085 
L 708.954974 119.343799 
L 709.05285 108.086064 
L 709.150725 132.621195 
L 709.542228 111.06537 
L 709.640103 120.741754 
L 709.835854 111.43022 
L 710.129481 107.505978 
L 710.227357 116.91403 
L 710.520983 113.139056 
L 710.81461 116.070717 
L 710.912486 121.913796 
L 711.010361 114.084264 
L 711.108237 116.897117 
L 711.206112 111.53187 
L 711.499739 117.44409 
L 711.597615 116.511161 
L 711.69549 118.793064 
L 711.793366 115.6358 
L 712.184868 116.099696 
L 712.282743 109.71761 
L 712.380619 118.72575 
L 712.478495 117.230605 
L 712.57637 113.099179 
L 712.967872 116.14932 
L 713.065748 123.097066 
L 713.163624 118.6701 
L 713.261499 109.070618 
L 713.555126 120.599086 
L 713.653001 130.567237 
L 713.750877 118.244466 
L 713.848752 119.407162 
L 713.946628 113.886364 
L 714.240255 136.938011 
L 714.33813 110.387947 
L 714.436006 112.159078 
L 714.533881 109.673738 
L 714.631757 121.724133 
L 714.925384 122.475989 
L 715.023259 109.998145 
L 715.21901 126.746726 
L 715.316886 115.820279 
L 715.708388 123.818335 
L 715.806264 122.6101 
L 715.904139 115.21112 
L 716.002015 127.809615 
L 716.295641 119.196646 
L 716.393517 99.5569 
L 716.589268 111.917558 
L 716.687144 108.373681 
L 716.98077 113.119745 
L 717.176522 118.599192 
L 717.274397 113.578632 
L 717.372273 118.249521 
L 717.665899 116.165386 
L 717.763775 109.006482 
L 717.86165 114.486566 
L 717.959526 109.205418 
L 718.057402 117.960502 
L 718.351028 118.348308 
L 718.448904 124.744671 
L 718.644655 113.802395 
L 718.742531 112.225485 
L 719.036157 110.667339 
L 719.134033 114.533145 
L 719.231908 110.667273 
L 719.427659 118.408966 
L 719.721286 120.899025 
L 719.917037 113.241616 
L 720.014913 115.058401 
L 720.112788 113.152314 
L 720.406415 116.784268 
L 720.602166 122.296085 
L 720.700042 113.999314 
L 720.797917 122.003854 
L 721.18942 111.338108 
L 721.287295 113.096885 
L 721.385171 121.250506 
L 721.483046 110.898775 
L 721.972424 125.894378 
L 722.0703 124.333349 
L 722.168175 122.916006 
L 722.461802 141.692209 
L 722.559677 106.333871 
L 722.657553 116.300337 
L 722.755429 101.70108 
L 722.853304 122.366455 
L 723.146931 126.782744 
L 723.244806 104.92397 
L 723.342682 141.282785 
L 723.538433 105.19513 
L 723.83206 107.070991 
L 723.929935 123.437713 
L 724.027811 110.200399 
L 724.125686 117.342992 
L 724.223562 138.463642 
L 724.517189 107.980274 
L 724.615064 119.556512 
L 724.810815 106.600578 
L 724.908691 116.401895 
L 725.300193 122.599511 
L 725.495944 106.33968 
L 725.59382 116.182696 
L 725.887447 117.005322 
L 725.985322 116.664323 
L 726.083198 111.027234 
L 726.278949 117.521907 
L 726.572576 119.500974 
L 726.670451 114.816123 
L 726.964078 120.948523 
L 727.257704 117.007717 
L 727.35558 123.852021 
L 727.453456 111.898824 
L 727.649207 121.294953 
L 727.942833 112.803813 
L 728.138585 131.727134 
L 728.334336 105.364187 
L 728.725838 129.775626 
L 728.823713 109.503816 
L 728.921589 111.689499 
L 729.019465 108.016038 
L 729.313091 118.06537 
L 729.410967 108.813179 
L 729.508842 118.56794 
L 729.606718 114.668187 
L 729.704594 120.145266 
L 729.99822 111.318495 
L 730.096096 119.856924 
L 730.193971 114.599315 
L 730.291847 115.356642 
L 730.389722 113.598826 
L 730.683349 112.368882 
L 730.781225 117.61048 
L 730.8791 114.267586 
L 730.976976 119.408338 
L 731.074851 109.051115 
L 731.368478 113.899641 
L 731.466354 117.900217 
L 731.662105 114.694902 
L 731.75998 114.833385 
L 732.053607 118.537488 
L 732.151483 115.647614 
L 732.249358 116.345636 
L 732.347234 116.242874 
L 732.445109 110.648492 
L 732.934487 120.011101 
L 733.423865 110.801436 
L 733.52174 115.131757 
L 733.619616 113.5158 
L 733.815367 120.220853 
L 734.108994 124.029386 
L 734.206869 122.384184 
L 734.304745 111.764512 
L 734.402621 115.700243 
L 734.500496 109.478502 
L 734.794123 119.523349 
L 734.989874 114.549437 
L 735.087749 109.933673 
L 735.185625 116.868855 
L 735.479252 111.093807 
L 735.675003 117.282491 
L 735.870754 112.887603 
L 736.262256 117.088406 
L 736.458007 112.738175 
L 736.555883 116.900504 
L 736.84951 121.677586 
L 736.947385 114.518544 
L 737.143136 110.093195 
L 737.241012 122.73212 
L 737.534639 114.038938 
L 737.632514 119.227868 
L 737.828265 111.494506 
L 737.926141 119.270598 
L 738.219767 111.233339 
L 738.317643 118.169933 
L 738.513394 110.103134 
L 738.61127 113.770624 
L 739.002772 119.103625 
L 739.198523 115.994195 
L 739.296399 124.369133 
L 739.590025 129.916982 
L 739.687901 108.733788 
L 739.785776 117.638726 
L 739.883652 114.364735 
L 739.981528 131.562507 
L 740.37303 104.747736 
L 740.470905 107.763494 
L 740.666657 121.364552 
L 740.960283 110.948599 
L 741.058159 115.546301 
L 741.156034 111.651277 
L 741.25391 118.265029 
L 741.351785 115.419516 
L 741.743288 119.323799 
L 741.841163 113.082447 
L 742.330541 144.852504 
L 742.428417 142.116349 
L 742.526292 120.029459 
L 742.624168 153.929105 
L 742.722043 123.704927 
L 743.01567 80.056391 
L 743.113546 140.283524 
L 743.211421 83.066473 
L 743.309297 145.198754 
L 743.407172 131.019004 
L 743.700799 181.651918 
L 743.798675 77.431567 
L 743.994426 198.800971 
L 744.092301 44.178436 
L 744.385928 221.498182 
L 744.483803 69.230604 
L 744.581679 160.5269 
L 744.679555 113.080761 
L 744.77743 153.240553 
L 745.071057 141.283709 
L 745.168932 43.461818 
L 745.266808 107.533161 
L 745.364684 67.332124 
L 745.462559 144.999761 
L 745.756186 89.922779 
L 745.951937 153.911209 
L 746.049812 98.437253 
L 746.147688 129.423128 
L 746.441315 61.250215 
L 746.53919 118.242549 
L 746.637066 89.49457 
L 746.734941 105.145715 
L 747.126444 125.247885 
L 747.224319 92.259173 
L 747.322195 135.176947 
L 747.517946 95.26848 
L 747.909448 142.449954 
L 748.007324 98.356477 
L 748.105199 117.370315 
L 748.203075 105.605542 
L 748.496702 104.962683 
L 748.594577 121.234031 
L 748.692453 95.43581 
L 748.888204 140.242311 
L 749.279706 109.55575 
L 749.377582 122.665737 
L 749.573333 103.222841 
L 749.866959 116.782936 
L 749.964835 133.932648 
L 750.062711 131.359744 
L 750.160586 107.541419 
L 750.258462 113.718208 
L 750.552088 91.521319 
L 750.649964 125.562256 
L 750.747839 103.400459 
L 750.845715 123.32113 
L 750.943591 115.002456 
L 751.432968 104.871246 
L 751.530844 118.656922 
L 751.62872 112.995631 
L 751.922346 113.861114 
L 752.118097 105.822998 
L 752.215973 119.692537 
L 752.313848 95.732842 
L 752.607475 107.123023 
L 752.901102 166.695659 
L 752.998977 106.298412 
L 753.292604 110.147279 
L 753.39048 101.540146 
L 753.488355 119.882925 
L 753.586231 116.441714 
L 753.684106 121.569356 
L 753.977733 111.62491 
L 754.075609 113.407331 
L 754.173484 138.38692 
L 754.27136 107.999395 
L 754.369235 137.018842 
L 754.760738 104.401168 
L 754.956489 113.216617 
L 755.347991 104.02057 
L 755.445866 125.838935 
L 755.543742 110.541161 
L 755.641618 121.564558 
L 755.739493 108.399184 
L 756.03312 124.634018 
L 756.130995 106.019084 
L 756.228871 109.522088 
L 756.326747 119.723285 
L 756.424622 114.598089 
L 756.718249 110.070348 
L 756.816124 115.554028 
L 756.914 112.2339 
L 757.011875 127.083133 
L 757.403378 110.892676 
L 757.501253 122.248424 
L 757.599129 106.810003 
L 757.697004 120.006223 
L 757.79488 110.668817 
L 758.088507 111.066795 
L 758.186382 113.974807 
L 758.382133 111.679711 
L 758.480009 116.409944 
L 758.773636 114.68501 
L 758.871511 123.4826 
L 758.969387 105.542183 
L 759.067262 118.606995 
L 759.165138 117.069171 
L 759.458765 114.711448 
L 759.55664 115.043608 
L 759.654516 120.544286 
L 759.850267 114.114251 
L 760.143893 108.741791 
L 760.241769 113.987569 
L 760.339645 108.618537 
L 760.43752 115.558956 
L 760.535396 111.431618 
L 760.829022 118.728369 
L 761.024774 104.436667 
L 761.122649 146.220155 
L 761.220525 123.617933 
L 761.612027 139.987257 
L 761.709902 100.589969 
L 761.807778 131.461555 
L 761.905654 116.491758 
L 762.19928 106.556441 
L 762.590783 126.140439 
L 762.884409 126.462397 
L 762.982285 108.357242 
L 763.08016 136.594571 
L 763.275911 103.943948 
L 763.569538 103.836084 
L 763.667414 120.880232 
L 763.765289 110.194806 
L 763.765289 110.194806 
" style="fill:none;stroke:#1f77b4;stroke-linecap:square;stroke-width:1.5;"/>
   </g>
   <g id="patch_58">
    <path d="M 473.236364 230.4 
L 473.236364 34.56 
" style="fill:none;stroke:#000000;stroke-linecap:square;stroke-linejoin:miter;stroke-width:0.8;"/>
   </g>
   <g id="patch_59">
    <path d="M 777.6 230.4 
L 777.6 34.56 
" style="fill:none;stroke:#000000;stroke-linecap:square;stroke-linejoin:miter;stroke-width:0.8;"/>
   </g>
   <g id="patch_60">
    <path d="M 473.236364 230.4 
L 777.6 230.4 
" style="fill:none;stroke:#000000;stroke-linecap:square;stroke-linejoin:miter;stroke-width:0.8;"/>
   </g>
   <g id="patch_61">
    <path d="M 473.236364 34.56 
L 777.6 34.56 
" style="fill:none;stroke:#000000;stroke-linecap:square;stroke-linejoin:miter;stroke-width:0.8;"/>
   </g>
  </g>
 </g>
 <defs>
  <clipPath id="p7565c759ce">
   <rect height="195.84" width="304.363636" x="108" y="34.56"/>
  </clipPath>
  <clipPath id="p34821f2d69">
   <rect height="195.84" width="304.363636" x="473.236364" y="34.56"/>
  </clipPath>
 </defs>
</svg>
