<?xml version="1.0" encoding="utf-8" standalone="no"?>
<!DOCTYPE svg PUBLIC "-//W3C//DTD SVG 1.1//EN"
  "http://www.w3.org/Graphics/SVG/1.1/DTD/svg11.dtd">
<!-- Created with matplotlib (http://matplotlib.org/) -->
<svg height="432pt" version="1.1" viewBox="0 0 792 432" width="792pt" xmlns="http://www.w3.org/2000/svg" xmlns:xlink="http://www.w3.org/1999/xlink">
 <defs>
  <style type="text/css">
*{stroke-linecap:butt;stroke-linejoin:round;}
  </style>
 </defs>
 <g id="figure_1">
  <g id="patch_1">
   <path d="M 0 432 
L 792 432 
L 792 0 
L 0 0 
z
" style="fill:#ffffff;"/>
  </g>
  <g id="axes_1">
   <g id="patch_2">
    <path d="M 99 378 
L 712.8 378 
L 712.8 51.84 
L 99 51.84 
z
" style="fill:#ffffff;"/>
   </g>
   <g id="patch_3">
    <path clip-path="url(#p09e5a8b3fb)" d="M 144.099223 378 
L 151.579246 378 
L 151.579246 377.255354 
L 144.099223 377.255354 
z
" style="fill:#1f77b4;opacity:0.4;"/>
   </g>
   <g id="patch_4">
    <path clip-path="url(#p09e5a8b3fb)" d="M 151.579246 378 
L 159.059268 378 
L 159.059268 378 
L 151.579246 378 
z
" style="fill:#1f77b4;opacity:0.4;"/>
   </g>
   <g id="patch_5">
    <path clip-path="url(#p09e5a8b3fb)" d="M 159.059268 378 
L 166.53929 378 
L 166.53929 378 
L 159.059268 378 
z
" style="fill:#1f77b4;opacity:0.4;"/>
   </g>
   <g id="patch_6">
    <path clip-path="url(#p09e5a8b3fb)" d="M 166.53929 378 
L 174.019312 378 
L 174.019312 378 
L 166.53929 378 
z
" style="fill:#1f77b4;opacity:0.4;"/>
   </g>
   <g id="patch_7">
    <path clip-path="url(#p09e5a8b3fb)" d="M 174.019312 378 
L 181.499334 378 
L 181.499334 378 
L 174.019312 378 
z
" style="fill:#1f77b4;opacity:0.4;"/>
   </g>
   <g id="patch_8">
    <path clip-path="url(#p09e5a8b3fb)" d="M 181.499334 378 
L 188.979356 378 
L 188.979356 378 
L 181.499334 378 
z
" style="fill:#1f77b4;opacity:0.4;"/>
   </g>
   <g id="patch_9">
    <path clip-path="url(#p09e5a8b3fb)" d="M 188.979356 378 
L 196.459379 378 
L 196.459379 378 
L 188.979356 378 
z
" style="fill:#1f77b4;opacity:0.4;"/>
   </g>
   <g id="patch_10">
    <path clip-path="url(#p09e5a8b3fb)" d="M 196.459379 378 
L 203.939401 378 
L 203.939401 378 
L 196.459379 378 
z
" style="fill:#1f77b4;opacity:0.4;"/>
   </g>
   <g id="patch_11">
    <path clip-path="url(#p09e5a8b3fb)" d="M 203.939401 378 
L 211.419423 378 
L 211.419423 377.255354 
L 203.939401 377.255354 
z
" style="fill:#1f77b4;opacity:0.4;"/>
   </g>
   <g id="patch_12">
    <path clip-path="url(#p09e5a8b3fb)" d="M 211.419423 378 
L 218.899445 378 
L 218.899445 378 
L 211.419423 378 
z
" style="fill:#1f77b4;opacity:0.4;"/>
   </g>
   <g id="patch_13">
    <path clip-path="url(#p09e5a8b3fb)" d="M 218.899445 378 
L 226.379467 378 
L 226.379467 378 
L 218.899445 378 
z
" style="fill:#1f77b4;opacity:0.4;"/>
   </g>
   <g id="patch_14">
    <path clip-path="url(#p09e5a8b3fb)" d="M 226.379467 378 
L 233.85949 378 
L 233.85949 378 
L 226.379467 378 
z
" style="fill:#1f77b4;opacity:0.4;"/>
   </g>
   <g id="patch_15">
    <path clip-path="url(#p09e5a8b3fb)" d="M 233.85949 378 
L 241.339512 378 
L 241.339512 378 
L 233.85949 378 
z
" style="fill:#1f77b4;opacity:0.4;"/>
   </g>
   <g id="patch_16">
    <path clip-path="url(#p09e5a8b3fb)" d="M 241.339512 378 
L 248.819534 378 
L 248.819534 378 
L 241.339512 378 
z
" style="fill:#1f77b4;opacity:0.4;"/>
   </g>
   <g id="patch_17">
    <path clip-path="url(#p09e5a8b3fb)" d="M 248.819534 378 
L 256.299556 378 
L 256.299556 378 
L 248.819534 378 
z
" style="fill:#1f77b4;opacity:0.4;"/>
   </g>
   <g id="patch_18">
    <path clip-path="url(#p09e5a8b3fb)" d="M 256.299556 378 
L 263.779578 378 
L 263.779578 377.255354 
L 256.299556 377.255354 
z
" style="fill:#1f77b4;opacity:0.4;"/>
   </g>
   <g id="patch_19">
    <path clip-path="url(#p09e5a8b3fb)" d="M 263.779578 378 
L 271.259601 378 
L 271.259601 378 
L 263.779578 378 
z
" style="fill:#1f77b4;opacity:0.4;"/>
   </g>
   <g id="patch_20">
    <path clip-path="url(#p09e5a8b3fb)" d="M 271.259601 378 
L 278.739623 378 
L 278.739623 378 
L 271.259601 378 
z
" style="fill:#1f77b4;opacity:0.4;"/>
   </g>
   <g id="patch_21">
    <path clip-path="url(#p09e5a8b3fb)" d="M 278.739623 378 
L 286.219645 378 
L 286.219645 378 
L 278.739623 378 
z
" style="fill:#1f77b4;opacity:0.4;"/>
   </g>
   <g id="patch_22">
    <path clip-path="url(#p09e5a8b3fb)" d="M 286.219645 378 
L 293.699667 378 
L 293.699667 378 
L 286.219645 378 
z
" style="fill:#1f77b4;opacity:0.4;"/>
   </g>
   <g id="patch_23">
    <path clip-path="url(#p09e5a8b3fb)" d="M 293.699667 378 
L 301.179689 378 
L 301.179689 378 
L 293.699667 378 
z
" style="fill:#1f77b4;opacity:0.4;"/>
   </g>
   <g id="patch_24">
    <path clip-path="url(#p09e5a8b3fb)" d="M 301.179689 378 
L 308.659712 378 
L 308.659712 377.255354 
L 301.179689 377.255354 
z
" style="fill:#1f77b4;opacity:0.4;"/>
   </g>
   <g id="patch_25">
    <path clip-path="url(#p09e5a8b3fb)" d="M 308.659712 378 
L 316.139734 378 
L 316.139734 378 
L 308.659712 378 
z
" style="fill:#1f77b4;opacity:0.4;"/>
   </g>
   <g id="patch_26">
    <path clip-path="url(#p09e5a8b3fb)" d="M 316.139734 378 
L 323.619756 378 
L 323.619756 377.255354 
L 316.139734 377.255354 
z
" style="fill:#1f77b4;opacity:0.4;"/>
   </g>
   <g id="patch_27">
    <path clip-path="url(#p09e5a8b3fb)" d="M 323.619756 378 
L 331.099778 378 
L 331.099778 377.255354 
L 323.619756 377.255354 
z
" style="fill:#1f77b4;opacity:0.4;"/>
   </g>
   <g id="patch_28">
    <path clip-path="url(#p09e5a8b3fb)" d="M 331.099778 378 
L 338.5798 378 
L 338.5798 378 
L 331.099778 378 
z
" style="fill:#1f77b4;opacity:0.4;"/>
   </g>
   <g id="patch_29">
    <path clip-path="url(#p09e5a8b3fb)" d="M 338.5798 378 
L 346.059822 378 
L 346.059822 375.766063 
L 338.5798 375.766063 
z
" style="fill:#1f77b4;opacity:0.4;"/>
   </g>
   <g id="patch_30">
    <path clip-path="url(#p09e5a8b3fb)" d="M 346.059822 378 
L 353.539845 378 
L 353.539845 377.255354 
L 346.059822 377.255354 
z
" style="fill:#1f77b4;opacity:0.4;"/>
   </g>
   <g id="patch_31">
    <path clip-path="url(#p09e5a8b3fb)" d="M 353.539845 378 
L 361.019867 378 
L 361.019867 376.510709 
L 353.539845 376.510709 
z
" style="fill:#1f77b4;opacity:0.4;"/>
   </g>
   <g id="patch_32">
    <path clip-path="url(#p09e5a8b3fb)" d="M 361.019867 378 
L 368.499889 378 
L 368.499889 375.766063 
L 361.019867 375.766063 
z
" style="fill:#1f77b4;opacity:0.4;"/>
   </g>
   <g id="patch_33">
    <path clip-path="url(#p09e5a8b3fb)" d="M 368.499889 378 
L 375.979911 378 
L 375.979911 374.276772 
L 368.499889 374.276772 
z
" style="fill:#1f77b4;opacity:0.4;"/>
   </g>
   <g id="patch_34">
    <path clip-path="url(#p09e5a8b3fb)" d="M 375.979911 378 
L 383.459933 378 
L 383.459933 371.29819 
L 375.979911 371.29819 
z
" style="fill:#1f77b4;opacity:0.4;"/>
   </g>
   <g id="patch_35">
    <path clip-path="url(#p09e5a8b3fb)" d="M 383.459933 378 
L 390.939956 378 
L 390.939956 372.042835 
L 383.459933 372.042835 
z
" style="fill:#1f77b4;opacity:0.4;"/>
   </g>
   <g id="patch_36">
    <path clip-path="url(#p09e5a8b3fb)" d="M 390.939956 378 
L 398.419978 378 
L 398.419978 369.064253 
L 390.939956 369.064253 
z
" style="fill:#1f77b4;opacity:0.4;"/>
   </g>
   <g id="patch_37">
    <path clip-path="url(#p09e5a8b3fb)" d="M 398.419978 378 
L 405.9 378 
L 405.9 365.341025 
L 398.419978 365.341025 
z
" style="fill:#1f77b4;opacity:0.4;"/>
   </g>
   <g id="patch_38">
    <path clip-path="url(#p09e5a8b3fb)" d="M 405.9 378 
L 413.380022 378 
L 413.380022 357.149924 
L 405.9 357.149924 
z
" style="fill:#1f77b4;opacity:0.4;"/>
   </g>
   <g id="patch_39">
    <path clip-path="url(#p09e5a8b3fb)" d="M 413.380022 378 
L 420.860044 378 
L 420.860044 349.703469 
L 413.380022 349.703469 
z
" style="fill:#1f77b4;opacity:0.4;"/>
   </g>
   <g id="patch_40">
    <path clip-path="url(#p09e5a8b3fb)" d="M 420.860044 378 
L 428.340067 378 
L 428.340067 341.512367 
L 420.860044 341.512367 
z
" style="fill:#1f77b4;opacity:0.4;"/>
   </g>
   <g id="patch_41">
    <path clip-path="url(#p09e5a8b3fb)" d="M 428.340067 378 
L 435.820089 378 
L 435.820089 298.322925 
L 428.340067 298.322925 
z
" style="fill:#1f77b4;opacity:0.4;"/>
   </g>
   <g id="patch_42">
    <path clip-path="url(#p09e5a8b3fb)" d="M 435.820089 378 
L 443.300111 378 
L 443.300111 251.410254 
L 435.820089 251.410254 
z
" style="fill:#1f77b4;opacity:0.4;"/>
   </g>
   <g id="patch_43">
    <path clip-path="url(#p09e5a8b3fb)" d="M 443.300111 378 
L 450.780133 378 
L 450.780133 108.438306 
L 443.300111 108.438306 
z
" style="fill:#1f77b4;opacity:0.4;"/>
   </g>
   <g id="patch_44">
    <path clip-path="url(#p09e5a8b3fb)" d="M 450.780133 378 
L 458.260155 378 
L 458.260155 74.929255 
L 450.780133 74.929255 
z
" style="fill:#1f77b4;opacity:0.4;"/>
   </g>
   <g id="patch_45">
    <path clip-path="url(#p09e5a8b3fb)" d="M 458.260155 378 
L 465.740178 378 
L 465.740178 159.074204 
L 458.260155 159.074204 
z
" style="fill:#1f77b4;opacity:0.4;"/>
   </g>
   <g id="patch_46">
    <path clip-path="url(#p09e5a8b3fb)" d="M 465.740178 378 
L 473.2202 378 
L 473.2202 241.729862 
L 465.740178 241.729862 
z
" style="fill:#1f77b4;opacity:0.4;"/>
   </g>
   <g id="patch_47">
    <path clip-path="url(#p09e5a8b3fb)" d="M 473.2202 378 
L 480.700222 378 
L 480.700222 300.556861 
L 473.2202 300.556861 
z
" style="fill:#1f77b4;opacity:0.4;"/>
   </g>
   <g id="patch_48">
    <path clip-path="url(#p09e5a8b3fb)" d="M 480.700222 378 
L 488.180244 378 
L 488.180244 323.640874 
L 480.700222 323.640874 
z
" style="fill:#1f77b4;opacity:0.4;"/>
   </g>
   <g id="patch_49">
    <path clip-path="url(#p09e5a8b3fb)" d="M 488.180244 378 
L 495.660266 378 
L 495.660266 357.89457 
L 488.180244 357.89457 
z
" style="fill:#1f77b4;opacity:0.4;"/>
   </g>
   <g id="patch_50">
    <path clip-path="url(#p09e5a8b3fb)" d="M 495.660266 378 
L 503.140288 378 
L 503.140288 368.319608 
L 495.660266 368.319608 
z
" style="fill:#1f77b4;opacity:0.4;"/>
   </g>
   <g id="patch_51">
    <path clip-path="url(#p09e5a8b3fb)" d="M 503.140288 378 
L 510.620311 378 
L 510.620311 371.29819 
L 503.140288 371.29819 
z
" style="fill:#1f77b4;opacity:0.4;"/>
   </g>
   <g id="patch_52">
    <path clip-path="url(#p09e5a8b3fb)" d="M 510.620311 378 
L 518.100333 378 
L 518.100333 374.276772 
L 510.620311 374.276772 
z
" style="fill:#1f77b4;opacity:0.4;"/>
   </g>
   <g id="patch_53">
    <path clip-path="url(#p09e5a8b3fb)" d="M 518.100333 378 
L 525.580355 378 
L 525.580355 377.255354 
L 518.100333 377.255354 
z
" style="fill:#1f77b4;opacity:0.4;"/>
   </g>
   <g id="patch_54">
    <path clip-path="url(#p09e5a8b3fb)" d="M 525.580355 378 
L 533.060377 378 
L 533.060377 375.021418 
L 525.580355 375.021418 
z
" style="fill:#1f77b4;opacity:0.4;"/>
   </g>
   <g id="patch_55">
    <path clip-path="url(#p09e5a8b3fb)" d="M 533.060377 378 
L 540.540399 378 
L 540.540399 378 
L 533.060377 378 
z
" style="fill:#1f77b4;opacity:0.4;"/>
   </g>
   <g id="patch_56">
    <path clip-path="url(#p09e5a8b3fb)" d="M 540.540399 378 
L 548.020422 378 
L 548.020422 377.255354 
L 540.540399 377.255354 
z
" style="fill:#1f77b4;opacity:0.4;"/>
   </g>
   <g id="patch_57">
    <path clip-path="url(#p09e5a8b3fb)" d="M 548.020422 378 
L 555.500444 378 
L 555.500444 377.255354 
L 548.020422 377.255354 
z
" style="fill:#1f77b4;opacity:0.4;"/>
   </g>
   <g id="patch_58">
    <path clip-path="url(#p09e5a8b3fb)" d="M 555.500444 378 
L 562.980466 378 
L 562.980466 377.255354 
L 555.500444 377.255354 
z
" style="fill:#1f77b4;opacity:0.4;"/>
   </g>
   <g id="patch_59">
    <path clip-path="url(#p09e5a8b3fb)" d="M 562.980466 378 
L 570.460488 378 
L 570.460488 376.510709 
L 562.980466 376.510709 
z
" style="fill:#1f77b4;opacity:0.4;"/>
   </g>
   <g id="patch_60">
    <path clip-path="url(#p09e5a8b3fb)" d="M 570.460488 378 
L 577.94051 378 
L 577.94051 378 
L 570.460488 378 
z
" style="fill:#1f77b4;opacity:0.4;"/>
   </g>
   <g id="patch_61">
    <path clip-path="url(#p09e5a8b3fb)" d="M 577.94051 378 
L 585.420533 378 
L 585.420533 378 
L 577.94051 378 
z
" style="fill:#1f77b4;opacity:0.4;"/>
   </g>
   <g id="patch_62">
    <path clip-path="url(#p09e5a8b3fb)" d="M 585.420533 378 
L 592.900555 378 
L 592.900555 377.255354 
L 585.420533 377.255354 
z
" style="fill:#1f77b4;opacity:0.4;"/>
   </g>
   <g id="patch_63">
    <path clip-path="url(#p09e5a8b3fb)" d="M 592.900555 378 
L 600.380577 378 
L 600.380577 377.255354 
L 592.900555 377.255354 
z
" style="fill:#1f77b4;opacity:0.4;"/>
   </g>
   <g id="patch_64">
    <path clip-path="url(#p09e5a8b3fb)" d="M 600.380577 378 
L 607.860599 378 
L 607.860599 378 
L 600.380577 378 
z
" style="fill:#1f77b4;opacity:0.4;"/>
   </g>
   <g id="patch_65">
    <path clip-path="url(#p09e5a8b3fb)" d="M 607.860599 378 
L 615.340621 378 
L 615.340621 378 
L 607.860599 378 
z
" style="fill:#1f77b4;opacity:0.4;"/>
   </g>
   <g id="patch_66">
    <path clip-path="url(#p09e5a8b3fb)" d="M 615.340621 378 
L 622.820644 378 
L 622.820644 377.255354 
L 615.340621 377.255354 
z
" style="fill:#1f77b4;opacity:0.4;"/>
   </g>
   <g id="patch_67">
    <path clip-path="url(#p09e5a8b3fb)" d="M 622.820644 378 
L 630.300666 378 
L 630.300666 378 
L 622.820644 378 
z
" style="fill:#1f77b4;opacity:0.4;"/>
   </g>
   <g id="patch_68">
    <path clip-path="url(#p09e5a8b3fb)" d="M 630.300666 378 
L 637.780688 378 
L 637.780688 378 
L 630.300666 378 
z
" style="fill:#1f77b4;opacity:0.4;"/>
   </g>
   <g id="patch_69">
    <path clip-path="url(#p09e5a8b3fb)" d="M 637.780688 378 
L 645.26071 378 
L 645.26071 378 
L 637.780688 378 
z
" style="fill:#1f77b4;opacity:0.4;"/>
   </g>
   <g id="patch_70">
    <path clip-path="url(#p09e5a8b3fb)" d="M 645.26071 378 
L 652.740732 378 
L 652.740732 378 
L 645.26071 378 
z
" style="fill:#1f77b4;opacity:0.4;"/>
   </g>
   <g id="patch_71">
    <path clip-path="url(#p09e5a8b3fb)" d="M 652.740732 378 
L 660.220754 378 
L 660.220754 378 
L 652.740732 378 
z
" style="fill:#1f77b4;opacity:0.4;"/>
   </g>
   <g id="patch_72">
    <path clip-path="url(#p09e5a8b3fb)" d="M 660.220754 378 
L 667.700777 378 
L 667.700777 376.510709 
L 660.220754 376.510709 
z
" style="fill:#1f77b4;opacity:0.4;"/>
   </g>
   <g id="matplotlib.axis_1">
    <g id="xtick_1">
     <g id="line2d_1">
      <defs>
       <path d="M 0 0 
L 0 3.5 
" id="m50f4898278" style="stroke:#000000;stroke-width:0.8;"/>
      </defs>
      <g>
       <use style="stroke:#000000;stroke-width:0.8;" x="210.718425" xlink:href="#m50f4898278" y="378"/>
      </g>
     </g>
     <g id="text_1">
      <!-- −0.10 -->
      <defs>
       <path d="M 10.59375 35.5 
L 73.1875 35.5 
L 73.1875 27.203125 
L 10.59375 27.203125 
z
" id="DejaVuSans-2212"/>
       <path d="M 31.78125 66.40625 
Q 24.171875 66.40625 20.328125 58.90625 
Q 16.5 51.421875 16.5 36.375 
Q 16.5 21.390625 20.328125 13.890625 
Q 24.171875 6.390625 31.78125 6.390625 
Q 39.453125 6.390625 43.28125 13.890625 
Q 47.125 21.390625 47.125 36.375 
Q 47.125 51.421875 43.28125 58.90625 
Q 39.453125 66.40625 31.78125 66.40625 
z
M 31.78125 74.21875 
Q 44.046875 74.21875 50.515625 64.515625 
Q 56.984375 54.828125 56.984375 36.375 
Q 56.984375 17.96875 50.515625 8.265625 
Q 44.046875 -1.421875 31.78125 -1.421875 
Q 19.53125 -1.421875 13.0625 8.265625 
Q 6.59375 17.96875 6.59375 36.375 
Q 6.59375 54.828125 13.0625 64.515625 
Q 19.53125 74.21875 31.78125 74.21875 
z
" id="DejaVuSans-30"/>
       <path d="M 10.6875 12.40625 
L 21 12.40625 
L 21 0 
L 10.6875 0 
z
" id="DejaVuSans-2e"/>
       <path d="M 12.40625 8.296875 
L 28.515625 8.296875 
L 28.515625 63.921875 
L 10.984375 60.40625 
L 10.984375 69.390625 
L 28.421875 72.90625 
L 38.28125 72.90625 
L 38.28125 8.296875 
L 54.390625 8.296875 
L 54.390625 0 
L 12.40625 0 
z
" id="DejaVuSans-31"/>
      </defs>
      <g transform="translate(195.395769 392.598437)scale(0.1 -0.1)">
       <use xlink:href="#DejaVuSans-2212"/>
       <use x="83.789062" xlink:href="#DejaVuSans-30"/>
       <use x="147.412109" xlink:href="#DejaVuSans-2e"/>
       <use x="179.199219" xlink:href="#DejaVuSans-31"/>
       <use x="242.822266" xlink:href="#DejaVuSans-30"/>
      </g>
     </g>
    </g>
    <g id="xtick_2">
     <g id="line2d_2">
      <g>
       <use style="stroke:#000000;stroke-width:0.8;" x="331.177816" xlink:href="#m50f4898278" y="378"/>
      </g>
     </g>
     <g id="text_2">
      <!-- −0.05 -->
      <defs>
       <path d="M 10.796875 72.90625 
L 49.515625 72.90625 
L 49.515625 64.59375 
L 19.828125 64.59375 
L 19.828125 46.734375 
Q 21.96875 47.46875 24.109375 47.828125 
Q 26.265625 48.1875 28.421875 48.1875 
Q 40.625 48.1875 47.75 41.5 
Q 54.890625 34.8125 54.890625 23.390625 
Q 54.890625 11.625 47.5625 5.09375 
Q 40.234375 -1.421875 26.90625 -1.421875 
Q 22.3125 -1.421875 17.546875 -0.640625 
Q 12.796875 0.140625 7.71875 1.703125 
L 7.71875 11.625 
Q 12.109375 9.234375 16.796875 8.0625 
Q 21.484375 6.890625 26.703125 6.890625 
Q 35.15625 6.890625 40.078125 11.328125 
Q 45.015625 15.765625 45.015625 23.390625 
Q 45.015625 31 40.078125 35.4375 
Q 35.15625 39.890625 26.703125 39.890625 
Q 22.75 39.890625 18.8125 39.015625 
Q 14.890625 38.140625 10.796875 36.28125 
z
" id="DejaVuSans-35"/>
      </defs>
      <g transform="translate(315.85516 392.598437)scale(0.1 -0.1)">
       <use xlink:href="#DejaVuSans-2212"/>
       <use x="83.789062" xlink:href="#DejaVuSans-30"/>
       <use x="147.412109" xlink:href="#DejaVuSans-2e"/>
       <use x="179.199219" xlink:href="#DejaVuSans-30"/>
       <use x="242.822266" xlink:href="#DejaVuSans-35"/>
      </g>
     </g>
    </g>
    <g id="xtick_3">
     <g id="line2d_3">
      <g>
       <use style="stroke:#000000;stroke-width:0.8;" x="451.637207" xlink:href="#m50f4898278" y="378"/>
      </g>
     </g>
     <g id="text_3">
      <!-- 0.00 -->
      <g transform="translate(440.504395 392.598437)scale(0.1 -0.1)">
       <use xlink:href="#DejaVuSans-30"/>
       <use x="63.623047" xlink:href="#DejaVuSans-2e"/>
       <use x="95.410156" xlink:href="#DejaVuSans-30"/>
       <use x="159.033203" xlink:href="#DejaVuSans-30"/>
      </g>
     </g>
    </g>
    <g id="xtick_4">
     <g id="line2d_4">
      <g>
       <use style="stroke:#000000;stroke-width:0.8;" x="572.096598" xlink:href="#m50f4898278" y="378"/>
      </g>
     </g>
     <g id="text_4">
      <!-- 0.05 -->
      <g transform="translate(560.963786 392.598437)scale(0.1 -0.1)">
       <use xlink:href="#DejaVuSans-30"/>
       <use x="63.623047" xlink:href="#DejaVuSans-2e"/>
       <use x="95.410156" xlink:href="#DejaVuSans-30"/>
       <use x="159.033203" xlink:href="#DejaVuSans-35"/>
      </g>
     </g>
    </g>
    <g id="xtick_5">
     <g id="line2d_5">
      <g>
       <use style="stroke:#000000;stroke-width:0.8;" x="692.555989" xlink:href="#m50f4898278" y="378"/>
      </g>
     </g>
     <g id="text_5">
      <!-- 0.10 -->
      <g transform="translate(681.423177 392.598437)scale(0.1 -0.1)">
       <use xlink:href="#DejaVuSans-30"/>
       <use x="63.623047" xlink:href="#DejaVuSans-2e"/>
       <use x="95.410156" xlink:href="#DejaVuSans-31"/>
       <use x="159.033203" xlink:href="#DejaVuSans-30"/>
      </g>
     </g>
    </g>
    <g id="text_6">
     <!-- Return -->
     <defs>
      <path d="M 44.390625 34.1875 
Q 47.5625 33.109375 50.5625 29.59375 
Q 53.5625 26.078125 56.59375 19.921875 
L 66.609375 0 
L 56 0 
L 46.6875 18.703125 
Q 43.0625 26.03125 39.671875 28.421875 
Q 36.28125 30.8125 30.421875 30.8125 
L 19.671875 30.8125 
L 19.671875 0 
L 9.8125 0 
L 9.8125 72.90625 
L 32.078125 72.90625 
Q 44.578125 72.90625 50.734375 67.671875 
Q 56.890625 62.453125 56.890625 51.90625 
Q 56.890625 45.015625 53.6875 40.46875 
Q 50.484375 35.9375 44.390625 34.1875 
z
M 19.671875 64.796875 
L 19.671875 38.921875 
L 32.078125 38.921875 
Q 39.203125 38.921875 42.84375 42.21875 
Q 46.484375 45.515625 46.484375 51.90625 
Q 46.484375 58.296875 42.84375 61.546875 
Q 39.203125 64.796875 32.078125 64.796875 
z
" id="DejaVuSans-52"/>
      <path d="M 56.203125 29.59375 
L 56.203125 25.203125 
L 14.890625 25.203125 
Q 15.484375 15.921875 20.484375 11.0625 
Q 25.484375 6.203125 34.421875 6.203125 
Q 39.59375 6.203125 44.453125 7.46875 
Q 49.3125 8.734375 54.109375 11.28125 
L 54.109375 2.78125 
Q 49.265625 0.734375 44.1875 -0.34375 
Q 39.109375 -1.421875 33.890625 -1.421875 
Q 20.796875 -1.421875 13.15625 6.1875 
Q 5.515625 13.8125 5.515625 26.8125 
Q 5.515625 40.234375 12.765625 48.109375 
Q 20.015625 56 32.328125 56 
Q 43.359375 56 49.78125 48.890625 
Q 56.203125 41.796875 56.203125 29.59375 
z
M 47.21875 32.234375 
Q 47.125 39.59375 43.09375 43.984375 
Q 39.0625 48.390625 32.421875 48.390625 
Q 24.90625 48.390625 20.390625 44.140625 
Q 15.875 39.890625 15.1875 32.171875 
z
" id="DejaVuSans-65"/>
      <path d="M 18.3125 70.21875 
L 18.3125 54.6875 
L 36.8125 54.6875 
L 36.8125 47.703125 
L 18.3125 47.703125 
L 18.3125 18.015625 
Q 18.3125 11.328125 20.140625 9.421875 
Q 21.96875 7.515625 27.59375 7.515625 
L 36.8125 7.515625 
L 36.8125 0 
L 27.59375 0 
Q 17.1875 0 13.234375 3.875 
Q 9.28125 7.765625 9.28125 18.015625 
L 9.28125 47.703125 
L 2.6875 47.703125 
L 2.6875 54.6875 
L 9.28125 54.6875 
L 9.28125 70.21875 
z
" id="DejaVuSans-74"/>
      <path d="M 8.5 21.578125 
L 8.5 54.6875 
L 17.484375 54.6875 
L 17.484375 21.921875 
Q 17.484375 14.15625 20.5 10.265625 
Q 23.53125 6.390625 29.59375 6.390625 
Q 36.859375 6.390625 41.078125 11.03125 
Q 45.3125 15.671875 45.3125 23.6875 
L 45.3125 54.6875 
L 54.296875 54.6875 
L 54.296875 0 
L 45.3125 0 
L 45.3125 8.40625 
Q 42.046875 3.421875 37.71875 1 
Q 33.40625 -1.421875 27.6875 -1.421875 
Q 18.265625 -1.421875 13.375 4.4375 
Q 8.5 10.296875 8.5 21.578125 
z
M 31.109375 56 
z
" id="DejaVuSans-75"/>
      <path d="M 41.109375 46.296875 
Q 39.59375 47.171875 37.8125 47.578125 
Q 36.03125 48 33.890625 48 
Q 26.265625 48 22.1875 43.046875 
Q 18.109375 38.09375 18.109375 28.8125 
L 18.109375 0 
L 9.078125 0 
L 9.078125 54.6875 
L 18.109375 54.6875 
L 18.109375 46.1875 
Q 20.953125 51.171875 25.484375 53.578125 
Q 30.03125 56 36.53125 56 
Q 37.453125 56 38.578125 55.875 
Q 39.703125 55.765625 41.0625 55.515625 
z
" id="DejaVuSans-72"/>
      <path d="M 54.890625 33.015625 
L 54.890625 0 
L 45.90625 0 
L 45.90625 32.71875 
Q 45.90625 40.484375 42.875 44.328125 
Q 39.84375 48.1875 33.796875 48.1875 
Q 26.515625 48.1875 22.3125 43.546875 
Q 18.109375 38.921875 18.109375 30.90625 
L 18.109375 0 
L 9.078125 0 
L 9.078125 54.6875 
L 18.109375 54.6875 
L 18.109375 46.1875 
Q 21.34375 51.125 25.703125 53.5625 
Q 30.078125 56 35.796875 56 
Q 45.21875 56 50.046875 50.171875 
Q 54.890625 44.34375 54.890625 33.015625 
z
" id="DejaVuSans-6e"/>
     </defs>
     <g transform="translate(389 406.276563)scale(0.1 -0.1)">
      <use xlink:href="#DejaVuSans-52"/>
      <use x="69.419922" xlink:href="#DejaVuSans-65"/>
      <use x="130.943359" xlink:href="#DejaVuSans-74"/>
      <use x="170.152344" xlink:href="#DejaVuSans-75"/>
      <use x="233.53125" xlink:href="#DejaVuSans-72"/>
      <use x="274.628906" xlink:href="#DejaVuSans-6e"/>
     </g>
    </g>
   </g>
   <g id="matplotlib.axis_2">
    <g id="ytick_1">
     <g id="line2d_6">
      <defs>
       <path d="M 0 0 
L -3.5 0 
" id="m3165bd6079" style="stroke:#000000;stroke-width:0.8;"/>
      </defs>
      <g>
       <use style="stroke:#000000;stroke-width:0.8;" x="99" xlink:href="#m3165bd6079" y="378"/>
      </g>
     </g>
     <g id="text_7">
      <!-- 0 -->
      <g transform="translate(85.6375 381.799219)scale(0.1 -0.1)">
       <use xlink:href="#DejaVuSans-30"/>
      </g>
     </g>
    </g>
    <g id="ytick_2">
     <g id="line2d_7">
      <g>
       <use style="stroke:#000000;stroke-width:0.8;" x="99" xlink:href="#m3165bd6079" y="332.916622"/>
      </g>
     </g>
     <g id="text_8">
      <!-- 10 -->
      <g transform="translate(79.275 336.715841)scale(0.1 -0.1)">
       <use xlink:href="#DejaVuSans-31"/>
       <use x="63.623047" xlink:href="#DejaVuSans-30"/>
      </g>
     </g>
    </g>
    <g id="ytick_3">
     <g id="line2d_8">
      <g>
       <use style="stroke:#000000;stroke-width:0.8;" x="99" xlink:href="#m3165bd6079" y="287.833245"/>
      </g>
     </g>
     <g id="text_9">
      <!-- 20 -->
      <defs>
       <path d="M 19.1875 8.296875 
L 53.609375 8.296875 
L 53.609375 0 
L 7.328125 0 
L 7.328125 8.296875 
Q 12.9375 14.109375 22.625 23.890625 
Q 32.328125 33.6875 34.8125 36.53125 
Q 39.546875 41.84375 41.421875 45.53125 
Q 43.3125 49.21875 43.3125 52.78125 
Q 43.3125 58.59375 39.234375 62.25 
Q 35.15625 65.921875 28.609375 65.921875 
Q 23.96875 65.921875 18.8125 64.3125 
Q 13.671875 62.703125 7.8125 59.421875 
L 7.8125 69.390625 
Q 13.765625 71.78125 18.9375 73 
Q 24.125 74.21875 28.421875 74.21875 
Q 39.75 74.21875 46.484375 68.546875 
Q 53.21875 62.890625 53.21875 53.421875 
Q 53.21875 48.921875 51.53125 44.890625 
Q 49.859375 40.875 45.40625 35.40625 
Q 44.1875 33.984375 37.640625 27.21875 
Q 31.109375 20.453125 19.1875 8.296875 
z
" id="DejaVuSans-32"/>
      </defs>
      <g transform="translate(79.275 291.632464)scale(0.1 -0.1)">
       <use xlink:href="#DejaVuSans-32"/>
       <use x="63.623047" xlink:href="#DejaVuSans-30"/>
      </g>
     </g>
    </g>
    <g id="ytick_4">
     <g id="line2d_9">
      <g>
       <use style="stroke:#000000;stroke-width:0.8;" x="99" xlink:href="#m3165bd6079" y="242.749867"/>
      </g>
     </g>
     <g id="text_10">
      <!-- 30 -->
      <defs>
       <path d="M 40.578125 39.3125 
Q 47.65625 37.796875 51.625 33 
Q 55.609375 28.21875 55.609375 21.1875 
Q 55.609375 10.40625 48.1875 4.484375 
Q 40.765625 -1.421875 27.09375 -1.421875 
Q 22.515625 -1.421875 17.65625 -0.515625 
Q 12.796875 0.390625 7.625 2.203125 
L 7.625 11.71875 
Q 11.71875 9.328125 16.59375 8.109375 
Q 21.484375 6.890625 26.8125 6.890625 
Q 36.078125 6.890625 40.9375 10.546875 
Q 45.796875 14.203125 45.796875 21.1875 
Q 45.796875 27.640625 41.28125 31.265625 
Q 36.765625 34.90625 28.71875 34.90625 
L 20.21875 34.90625 
L 20.21875 43.015625 
L 29.109375 43.015625 
Q 36.375 43.015625 40.234375 45.921875 
Q 44.09375 48.828125 44.09375 54.296875 
Q 44.09375 59.90625 40.109375 62.90625 
Q 36.140625 65.921875 28.71875 65.921875 
Q 24.65625 65.921875 20.015625 65.03125 
Q 15.375 64.15625 9.8125 62.3125 
L 9.8125 71.09375 
Q 15.4375 72.65625 20.34375 73.4375 
Q 25.25 74.21875 29.59375 74.21875 
Q 40.828125 74.21875 47.359375 69.109375 
Q 53.90625 64.015625 53.90625 55.328125 
Q 53.90625 49.265625 50.4375 45.09375 
Q 46.96875 40.921875 40.578125 39.3125 
z
" id="DejaVuSans-33"/>
      </defs>
      <g transform="translate(79.275 246.549086)scale(0.1 -0.1)">
       <use xlink:href="#DejaVuSans-33"/>
       <use x="63.623047" xlink:href="#DejaVuSans-30"/>
      </g>
     </g>
    </g>
    <g id="ytick_5">
     <g id="line2d_10">
      <g>
       <use style="stroke:#000000;stroke-width:0.8;" x="99" xlink:href="#m3165bd6079" y="197.66649"/>
      </g>
     </g>
     <g id="text_11">
      <!-- 40 -->
      <defs>
       <path d="M 37.796875 64.3125 
L 12.890625 25.390625 
L 37.796875 25.390625 
z
M 35.203125 72.90625 
L 47.609375 72.90625 
L 47.609375 25.390625 
L 58.015625 25.390625 
L 58.015625 17.1875 
L 47.609375 17.1875 
L 47.609375 0 
L 37.796875 0 
L 37.796875 17.1875 
L 4.890625 17.1875 
L 4.890625 26.703125 
z
" id="DejaVuSans-34"/>
      </defs>
      <g transform="translate(79.275 201.465708)scale(0.1 -0.1)">
       <use xlink:href="#DejaVuSans-34"/>
       <use x="63.623047" xlink:href="#DejaVuSans-30"/>
      </g>
     </g>
    </g>
    <g id="ytick_6">
     <g id="line2d_11">
      <g>
       <use style="stroke:#000000;stroke-width:0.8;" x="99" xlink:href="#m3165bd6079" y="152.583112"/>
      </g>
     </g>
     <g id="text_12">
      <!-- 50 -->
      <g transform="translate(79.275 156.382331)scale(0.1 -0.1)">
       <use xlink:href="#DejaVuSans-35"/>
       <use x="63.623047" xlink:href="#DejaVuSans-30"/>
      </g>
     </g>
    </g>
    <g id="ytick_7">
     <g id="line2d_12">
      <g>
       <use style="stroke:#000000;stroke-width:0.8;" x="99" xlink:href="#m3165bd6079" y="107.499734"/>
      </g>
     </g>
     <g id="text_13">
      <!-- 60 -->
      <defs>
       <path d="M 33.015625 40.375 
Q 26.375 40.375 22.484375 35.828125 
Q 18.609375 31.296875 18.609375 23.390625 
Q 18.609375 15.53125 22.484375 10.953125 
Q 26.375 6.390625 33.015625 6.390625 
Q 39.65625 6.390625 43.53125 10.953125 
Q 47.40625 15.53125 47.40625 23.390625 
Q 47.40625 31.296875 43.53125 35.828125 
Q 39.65625 40.375 33.015625 40.375 
z
M 52.59375 71.296875 
L 52.59375 62.3125 
Q 48.875 64.0625 45.09375 64.984375 
Q 41.3125 65.921875 37.59375 65.921875 
Q 27.828125 65.921875 22.671875 59.328125 
Q 17.53125 52.734375 16.796875 39.40625 
Q 19.671875 43.65625 24.015625 45.921875 
Q 28.375 48.1875 33.59375 48.1875 
Q 44.578125 48.1875 50.953125 41.515625 
Q 57.328125 34.859375 57.328125 23.390625 
Q 57.328125 12.15625 50.6875 5.359375 
Q 44.046875 -1.421875 33.015625 -1.421875 
Q 20.359375 -1.421875 13.671875 8.265625 
Q 6.984375 17.96875 6.984375 36.375 
Q 6.984375 53.65625 15.1875 63.9375 
Q 23.390625 74.21875 37.203125 74.21875 
Q 40.921875 74.21875 44.703125 73.484375 
Q 48.484375 72.75 52.59375 71.296875 
z
" id="DejaVuSans-36"/>
      </defs>
      <g transform="translate(79.275 111.298953)scale(0.1 -0.1)">
       <use xlink:href="#DejaVuSans-36"/>
       <use x="63.623047" xlink:href="#DejaVuSans-30"/>
      </g>
     </g>
    </g>
    <g id="ytick_8">
     <g id="line2d_13">
      <g>
       <use style="stroke:#000000;stroke-width:0.8;" x="99" xlink:href="#m3165bd6079" y="62.416357"/>
      </g>
     </g>
     <g id="text_14">
      <!-- 70 -->
      <defs>
       <path d="M 8.203125 72.90625 
L 55.078125 72.90625 
L 55.078125 68.703125 
L 28.609375 0 
L 18.3125 0 
L 43.21875 64.59375 
L 8.203125 64.59375 
z
" id="DejaVuSans-37"/>
      </defs>
      <g transform="translate(79.275 66.215575)scale(0.1 -0.1)">
       <use xlink:href="#DejaVuSans-37"/>
       <use x="63.623047" xlink:href="#DejaVuSans-30"/>
      </g>
     </g>
    </g>
   </g>
   <g id="line2d_14">
    <path clip-path="url(#p09e5a8b3fb)" d="M 126.9 378 
L 351.221608 377.913962 
L 359.633668 377.71356 
L 365.241709 377.397218 
L 370.849749 376.788835 
L 373.653769 376.312696 
L 376.457789 375.676395 
L 379.261809 374.836917 
L 382.065829 373.743644 
L 384.869849 372.338331 
L 387.673869 370.555594 
L 390.477889 368.324024 
L 393.28191 365.568069 
L 396.08593 362.210749 
L 398.88995 358.177264 
L 401.69397 353.399453 
L 404.49799 347.820987 
L 407.30201 341.403089 
L 410.10603 334.130474 
L 412.91005 326.017093 
L 415.71407 317.111215 
L 418.51809 307.499344 
L 424.126131 286.706006 
L 432.538191 254.644323 
L 435.342211 244.743108 
L 438.146231 235.701823 
L 440.950251 227.793715 
L 443.754271 221.268609 
L 446.558291 216.339847 
L 449.362312 213.172718 
L 452.166332 211.875257 
L 454.970352 212.492125 
L 457.774372 215.002059 
L 460.578392 219.319088 
L 463.382412 225.297421 
L 466.186432 232.739621 
L 468.990452 241.407427 
L 471.794472 251.034387 
L 477.402513 272.040107 
L 483.010553 293.566777 
L 485.814573 303.92563 
L 488.618593 313.76057 
L 491.422613 322.930072 
L 494.226633 331.333369 
L 497.030653 338.908934 
L 499.834673 345.631119 
L 502.638693 351.505424 
L 505.442714 356.562933 
L 508.246734 360.854392 
L 511.050754 364.444376 
L 513.854774 367.405871 
L 516.658794 369.815538 
L 519.462814 371.749797 
L 522.266834 373.281791 
L 525.070854 374.479216 
L 527.874874 375.402948 
L 530.678894 376.106344 
L 533.482915 376.635101 
L 539.090955 377.315084 
L 544.698995 377.671837 
L 553.111055 377.900204 
L 567.131156 377.989109 
L 648.447739 378 
L 684.9 378 
L 684.9 378 
" style="fill:none;opacity:0.95;stroke:#ff7f0e;stroke-linecap:square;stroke-width:1.5;"/>
   </g>
   <g id="line2d_15">
    <path clip-path="url(#p09e5a8b3fb)" d="M 133.896321 377.991423 
L 138.179844 377.838954 
L 142.463366 377.428525 
L 146.746889 377.550511 
L 151.030411 377.895225 
L 159.597456 377.999211 
L 202.432681 377.978916 
L 206.716204 377.729032 
L 210.999726 377.249993 
L 215.283249 377.755265 
L 219.566771 377.987548 
L 249.551429 377.997433 
L 253.834951 377.923874 
L 262.401996 377.365455 
L 266.685519 377.810302 
L 270.969041 377.989652 
L 296.670176 377.986738 
L 300.953699 377.749358 
L 305.237221 377.236101 
L 309.520744 377.742213 
L 313.804266 377.976125 
L 318.087789 377.803756 
L 322.371311 377.345106 
L 326.654834 377.366677 
L 330.938356 377.155076 
L 335.221879 377.603918 
L 339.505401 377.053397 
L 343.788924 375.947733 
L 348.072446 376.657705 
L 356.639491 376.728797 
L 360.923014 376.42994 
L 365.206536 375.307404 
L 369.490059 373.865818 
L 373.773581 373.526214 
L 378.057104 372.537452 
L 382.340626 372.772475 
L 386.624149 372.381714 
L 390.907671 369.438736 
L 395.191194 368.340303 
L 399.474716 365.738181 
L 403.758239 364.186678 
L 412.325284 354.467289 
L 416.608806 348.839693 
L 420.892329 343.854823 
L 425.175851 335.711138 
L 429.459374 316.376099 
L 433.742896 291.324624 
L 438.026419 259.173242 
L 442.309941 205.26049 
L 446.593464 125.089675 
L 450.876986 67.371429 
L 455.160509 85.534907 
L 459.444031 138.30173 
L 463.727554 181.731617 
L 468.011076 228.363503 
L 472.294599 264.881673 
L 476.578121 291.747209 
L 480.861644 312.132299 
L 489.428689 346.957286 
L 493.712211 360.230541 
L 497.995734 367.067414 
L 502.279256 369.741035 
L 515.129824 374.200238 
L 519.413346 376.510331 
L 523.696869 376.616825 
L 527.980391 376.250247 
L 532.263914 375.723226 
L 536.547436 377.128639 
L 540.830959 377.510579 
L 545.114481 377.229492 
L 557.965049 377.349791 
L 562.248571 377.152041 
L 566.532094 376.688089 
L 570.815616 377.131807 
L 575.099139 377.80449 
L 579.382661 377.991525 
L 583.666184 377.96665 
L 587.949706 377.700744 
L 592.233229 377.070712 
L 596.516751 377.116384 
L 600.800274 377.615308 
L 605.083796 377.925713 
L 609.367319 377.839485 
L 613.650841 377.441738 
L 617.934364 377.537395 
L 622.217886 377.890795 
L 630.784931 378 
L 656.486066 377.984402 
L 660.769589 377.672231 
L 665.053111 376.847709 
L 669.336634 377.110436 
L 673.620156 377.795899 
L 677.903679 377.989765 
L 677.903679 377.989765 
" style="fill:none;stroke:#1f77b4;stroke-dasharray:5.55,2.4;stroke-dashoffset:0;stroke-width:1.5;"/>
   </g>
   <g id="patch_73">
    <path d="M 99 378 
L 99 51.84 
" style="fill:none;stroke:#000000;stroke-linecap:square;stroke-linejoin:miter;stroke-width:0.8;"/>
   </g>
   <g id="patch_74">
    <path d="M 712.8 378 
L 712.8 51.84 
" style="fill:none;stroke:#000000;stroke-linecap:square;stroke-linejoin:miter;stroke-width:0.8;"/>
   </g>
   <g id="patch_75">
    <path d="M 99 378 
L 712.8 378 
" style="fill:none;stroke:#000000;stroke-linecap:square;stroke-linejoin:miter;stroke-width:0.8;"/>
   </g>
   <g id="patch_76">
    <path d="M 99 51.84 
L 712.8 51.84 
" style="fill:none;stroke:#000000;stroke-linecap:square;stroke-linejoin:miter;stroke-width:0.8;"/>
   </g>
   <g id="legend_1">
    <g id="patch_77">
     <path d="M 572.621875 89.19625 
L 705.8 89.19625 
Q 707.8 89.19625 707.8 87.19625 
L 707.8 58.84 
Q 707.8 56.84 705.8 56.84 
L 572.621875 56.84 
Q 570.621875 56.84 570.621875 58.84 
L 570.621875 87.19625 
Q 570.621875 89.19625 572.621875 89.19625 
z
" style="fill:#ffffff;opacity:0.8;stroke:#cccccc;stroke-linejoin:miter;"/>
    </g>
    <g id="line2d_16">
     <path d="M 574.621875 64.938437 
L 594.621875 64.938437 
" style="fill:none;opacity:0.95;stroke:#ff7f0e;stroke-linecap:square;stroke-width:1.5;"/>
    </g>
    <g id="line2d_17"/>
    <g id="text_15">
     <!-- Fitted Normal PDF -->
     <defs>
      <path d="M 9.8125 72.90625 
L 51.703125 72.90625 
L 51.703125 64.59375 
L 19.671875 64.59375 
L 19.671875 43.109375 
L 48.578125 43.109375 
L 48.578125 34.8125 
L 19.671875 34.8125 
L 19.671875 0 
L 9.8125 0 
z
" id="DejaVuSans-46"/>
      <path d="M 9.421875 54.6875 
L 18.40625 54.6875 
L 18.40625 0 
L 9.421875 0 
z
M 9.421875 75.984375 
L 18.40625 75.984375 
L 18.40625 64.59375 
L 9.421875 64.59375 
z
" id="DejaVuSans-69"/>
      <path d="M 45.40625 46.390625 
L 45.40625 75.984375 
L 54.390625 75.984375 
L 54.390625 0 
L 45.40625 0 
L 45.40625 8.203125 
Q 42.578125 3.328125 38.25 0.953125 
Q 33.9375 -1.421875 27.875 -1.421875 
Q 17.96875 -1.421875 11.734375 6.484375 
Q 5.515625 14.40625 5.515625 27.296875 
Q 5.515625 40.1875 11.734375 48.09375 
Q 17.96875 56 27.875 56 
Q 33.9375 56 38.25 53.625 
Q 42.578125 51.265625 45.40625 46.390625 
z
M 14.796875 27.296875 
Q 14.796875 17.390625 18.875 11.75 
Q 22.953125 6.109375 30.078125 6.109375 
Q 37.203125 6.109375 41.296875 11.75 
Q 45.40625 17.390625 45.40625 27.296875 
Q 45.40625 37.203125 41.296875 42.84375 
Q 37.203125 48.484375 30.078125 48.484375 
Q 22.953125 48.484375 18.875 42.84375 
Q 14.796875 37.203125 14.796875 27.296875 
z
" id="DejaVuSans-64"/>
      <path id="DejaVuSans-20"/>
      <path d="M 9.8125 72.90625 
L 23.09375 72.90625 
L 55.421875 11.921875 
L 55.421875 72.90625 
L 64.984375 72.90625 
L 64.984375 0 
L 51.703125 0 
L 19.390625 60.984375 
L 19.390625 0 
L 9.8125 0 
z
" id="DejaVuSans-4e"/>
      <path d="M 30.609375 48.390625 
Q 23.390625 48.390625 19.1875 42.75 
Q 14.984375 37.109375 14.984375 27.296875 
Q 14.984375 17.484375 19.15625 11.84375 
Q 23.34375 6.203125 30.609375 6.203125 
Q 37.796875 6.203125 41.984375 11.859375 
Q 46.1875 17.53125 46.1875 27.296875 
Q 46.1875 37.015625 41.984375 42.703125 
Q 37.796875 48.390625 30.609375 48.390625 
z
M 30.609375 56 
Q 42.328125 56 49.015625 48.375 
Q 55.71875 40.765625 55.71875 27.296875 
Q 55.71875 13.875 49.015625 6.21875 
Q 42.328125 -1.421875 30.609375 -1.421875 
Q 18.84375 -1.421875 12.171875 6.21875 
Q 5.515625 13.875 5.515625 27.296875 
Q 5.515625 40.765625 12.171875 48.375 
Q 18.84375 56 30.609375 56 
z
" id="DejaVuSans-6f"/>
      <path d="M 52 44.1875 
Q 55.375 50.25 60.0625 53.125 
Q 64.75 56 71.09375 56 
Q 79.640625 56 84.28125 50.015625 
Q 88.921875 44.046875 88.921875 33.015625 
L 88.921875 0 
L 79.890625 0 
L 79.890625 32.71875 
Q 79.890625 40.578125 77.09375 44.375 
Q 74.3125 48.1875 68.609375 48.1875 
Q 61.625 48.1875 57.5625 43.546875 
Q 53.515625 38.921875 53.515625 30.90625 
L 53.515625 0 
L 44.484375 0 
L 44.484375 32.71875 
Q 44.484375 40.625 41.703125 44.40625 
Q 38.921875 48.1875 33.109375 48.1875 
Q 26.21875 48.1875 22.15625 43.53125 
Q 18.109375 38.875 18.109375 30.90625 
L 18.109375 0 
L 9.078125 0 
L 9.078125 54.6875 
L 18.109375 54.6875 
L 18.109375 46.1875 
Q 21.1875 51.21875 25.484375 53.609375 
Q 29.78125 56 35.6875 56 
Q 41.65625 56 45.828125 52.96875 
Q 50 49.953125 52 44.1875 
z
" id="DejaVuSans-6d"/>
      <path d="M 34.28125 27.484375 
Q 23.390625 27.484375 19.1875 25 
Q 14.984375 22.515625 14.984375 16.5 
Q 14.984375 11.71875 18.140625 8.90625 
Q 21.296875 6.109375 26.703125 6.109375 
Q 34.1875 6.109375 38.703125 11.40625 
Q 43.21875 16.703125 43.21875 25.484375 
L 43.21875 27.484375 
z
M 52.203125 31.203125 
L 52.203125 0 
L 43.21875 0 
L 43.21875 8.296875 
Q 40.140625 3.328125 35.546875 0.953125 
Q 30.953125 -1.421875 24.3125 -1.421875 
Q 15.921875 -1.421875 10.953125 3.296875 
Q 6 8.015625 6 15.921875 
Q 6 25.140625 12.171875 29.828125 
Q 18.359375 34.515625 30.609375 34.515625 
L 43.21875 34.515625 
L 43.21875 35.40625 
Q 43.21875 41.609375 39.140625 45 
Q 35.0625 48.390625 27.6875 48.390625 
Q 23 48.390625 18.546875 47.265625 
Q 14.109375 46.140625 10.015625 43.890625 
L 10.015625 52.203125 
Q 14.9375 54.109375 19.578125 55.046875 
Q 24.21875 56 28.609375 56 
Q 40.484375 56 46.34375 49.84375 
Q 52.203125 43.703125 52.203125 31.203125 
z
" id="DejaVuSans-61"/>
      <path d="M 9.421875 75.984375 
L 18.40625 75.984375 
L 18.40625 0 
L 9.421875 0 
z
" id="DejaVuSans-6c"/>
      <path d="M 19.671875 64.796875 
L 19.671875 37.40625 
L 32.078125 37.40625 
Q 38.96875 37.40625 42.71875 40.96875 
Q 46.484375 44.53125 46.484375 51.125 
Q 46.484375 57.671875 42.71875 61.234375 
Q 38.96875 64.796875 32.078125 64.796875 
z
M 9.8125 72.90625 
L 32.078125 72.90625 
Q 44.34375 72.90625 50.609375 67.359375 
Q 56.890625 61.8125 56.890625 51.125 
Q 56.890625 40.328125 50.609375 34.8125 
Q 44.34375 29.296875 32.078125 29.296875 
L 19.671875 29.296875 
L 19.671875 0 
L 9.8125 0 
z
" id="DejaVuSans-50"/>
      <path d="M 19.671875 64.796875 
L 19.671875 8.109375 
L 31.59375 8.109375 
Q 46.6875 8.109375 53.6875 14.9375 
Q 60.6875 21.78125 60.6875 36.53125 
Q 60.6875 51.171875 53.6875 57.984375 
Q 46.6875 64.796875 31.59375 64.796875 
z
M 9.8125 72.90625 
L 30.078125 72.90625 
Q 51.265625 72.90625 61.171875 64.09375 
Q 71.09375 55.28125 71.09375 36.53125 
Q 71.09375 17.671875 61.125 8.828125 
Q 51.171875 0 30.078125 0 
L 9.8125 0 
z
" id="DejaVuSans-44"/>
     </defs>
     <g transform="translate(602.621875 68.438437)scale(0.1 -0.1)">
      <use xlink:href="#DejaVuSans-46"/>
      <use x="57.410156" xlink:href="#DejaVuSans-69"/>
      <use x="85.193359" xlink:href="#DejaVuSans-74"/>
      <use x="124.402344" xlink:href="#DejaVuSans-74"/>
      <use x="163.611328" xlink:href="#DejaVuSans-65"/>
      <use x="225.134766" xlink:href="#DejaVuSans-64"/>
      <use x="288.611328" xlink:href="#DejaVuSans-20"/>
      <use x="320.398438" xlink:href="#DejaVuSans-4e"/>
      <use x="395.203125" xlink:href="#DejaVuSans-6f"/>
      <use x="456.384766" xlink:href="#DejaVuSans-72"/>
      <use x="497.482422" xlink:href="#DejaVuSans-6d"/>
      <use x="594.894531" xlink:href="#DejaVuSans-61"/>
      <use x="656.173828" xlink:href="#DejaVuSans-6c"/>
      <use x="683.957031" xlink:href="#DejaVuSans-20"/>
      <use x="715.744141" xlink:href="#DejaVuSans-50"/>
      <use x="776.046875" xlink:href="#DejaVuSans-44"/>
      <use x="853.048828" xlink:href="#DejaVuSans-46"/>
     </g>
    </g>
    <g id="line2d_18">
     <path d="M 574.621875 79.616562 
L 594.621875 79.616562 
" style="fill:none;stroke:#1f77b4;stroke-dasharray:5.55,2.4;stroke-dashoffset:0;stroke-width:1.5;"/>
    </g>
    <g id="line2d_19"/>
    <g id="text_16">
     <!-- Fitted Empirical PDF -->
     <defs>
      <path d="M 9.8125 72.90625 
L 55.90625 72.90625 
L 55.90625 64.59375 
L 19.671875 64.59375 
L 19.671875 43.015625 
L 54.390625 43.015625 
L 54.390625 34.71875 
L 19.671875 34.71875 
L 19.671875 8.296875 
L 56.78125 8.296875 
L 56.78125 0 
L 9.8125 0 
z
" id="DejaVuSans-45"/>
      <path d="M 18.109375 8.203125 
L 18.109375 -20.796875 
L 9.078125 -20.796875 
L 9.078125 54.6875 
L 18.109375 54.6875 
L 18.109375 46.390625 
Q 20.953125 51.265625 25.265625 53.625 
Q 29.59375 56 35.59375 56 
Q 45.5625 56 51.78125 48.09375 
Q 58.015625 40.1875 58.015625 27.296875 
Q 58.015625 14.40625 51.78125 6.484375 
Q 45.5625 -1.421875 35.59375 -1.421875 
Q 29.59375 -1.421875 25.265625 0.953125 
Q 20.953125 3.328125 18.109375 8.203125 
z
M 48.6875 27.296875 
Q 48.6875 37.203125 44.609375 42.84375 
Q 40.53125 48.484375 33.40625 48.484375 
Q 26.265625 48.484375 22.1875 42.84375 
Q 18.109375 37.203125 18.109375 27.296875 
Q 18.109375 17.390625 22.1875 11.75 
Q 26.265625 6.109375 33.40625 6.109375 
Q 40.53125 6.109375 44.609375 11.75 
Q 48.6875 17.390625 48.6875 27.296875 
z
" id="DejaVuSans-70"/>
      <path d="M 48.78125 52.59375 
L 48.78125 44.1875 
Q 44.96875 46.296875 41.140625 47.34375 
Q 37.3125 48.390625 33.40625 48.390625 
Q 24.65625 48.390625 19.8125 42.84375 
Q 14.984375 37.3125 14.984375 27.296875 
Q 14.984375 17.28125 19.8125 11.734375 
Q 24.65625 6.203125 33.40625 6.203125 
Q 37.3125 6.203125 41.140625 7.25 
Q 44.96875 8.296875 48.78125 10.40625 
L 48.78125 2.09375 
Q 45.015625 0.34375 40.984375 -0.53125 
Q 36.96875 -1.421875 32.421875 -1.421875 
Q 20.0625 -1.421875 12.78125 6.34375 
Q 5.515625 14.109375 5.515625 27.296875 
Q 5.515625 40.671875 12.859375 48.328125 
Q 20.21875 56 33.015625 56 
Q 37.15625 56 41.109375 55.140625 
Q 45.0625 54.296875 48.78125 52.59375 
z
" id="DejaVuSans-63"/>
     </defs>
     <g transform="translate(602.621875 83.116562)scale(0.1 -0.1)">
      <use xlink:href="#DejaVuSans-46"/>
      <use x="57.410156" xlink:href="#DejaVuSans-69"/>
      <use x="85.193359" xlink:href="#DejaVuSans-74"/>
      <use x="124.402344" xlink:href="#DejaVuSans-74"/>
      <use x="163.611328" xlink:href="#DejaVuSans-65"/>
      <use x="225.134766" xlink:href="#DejaVuSans-64"/>
      <use x="288.611328" xlink:href="#DejaVuSans-20"/>
      <use x="320.398438" xlink:href="#DejaVuSans-45"/>
      <use x="383.582031" xlink:href="#DejaVuSans-6d"/>
      <use x="480.994141" xlink:href="#DejaVuSans-70"/>
      <use x="544.470703" xlink:href="#DejaVuSans-69"/>
      <use x="572.253906" xlink:href="#DejaVuSans-72"/>
      <use x="613.367188" xlink:href="#DejaVuSans-69"/>
      <use x="641.150391" xlink:href="#DejaVuSans-63"/>
      <use x="696.130859" xlink:href="#DejaVuSans-61"/>
      <use x="757.410156" xlink:href="#DejaVuSans-6c"/>
      <use x="785.193359" xlink:href="#DejaVuSans-20"/>
      <use x="816.980469" xlink:href="#DejaVuSans-50"/>
      <use x="877.283203" xlink:href="#DejaVuSans-44"/>
      <use x="954.285156" xlink:href="#DejaVuSans-46"/>
     </g>
    </g>
   </g>
  </g>
  <g id="axes_2">
   <g id="patch_78">
    <path d="M 138.6 237.6 
L 336.6 237.6 
L 336.6 86.4 
L 138.6 86.4 
z
" style="fill:#ffffff;"/>
   </g>
   <g id="patch_79">
    <path clip-path="url(#p8ed4f8467c)" d="M -69.902479 237.6 
L -57.607511 237.6 
L -57.607511 212.626181 
L -69.902479 212.626181 
z
" style="fill:#1f77b4;opacity:0.4;"/>
   </g>
   <g id="patch_80">
    <path clip-path="url(#p8ed4f8467c)" d="M -57.607511 237.6 
L -45.312542 237.6 
L -45.312542 237.6 
L -57.607511 237.6 
z
" style="fill:#1f77b4;opacity:0.4;"/>
   </g>
   <g id="patch_81">
    <path clip-path="url(#p8ed4f8467c)" d="M -45.312542 237.6 
L -33.017574 237.6 
L -33.017574 237.6 
L -45.312542 237.6 
z
" style="fill:#1f77b4;opacity:0.4;"/>
   </g>
   <g id="patch_82">
    <path clip-path="url(#p8ed4f8467c)" d="M -33.017574 237.6 
L -20.722606 237.6 
L -20.722606 237.6 
L -33.017574 237.6 
z
" style="fill:#1f77b4;opacity:0.4;"/>
   </g>
   <g id="patch_83">
    <path clip-path="url(#p8ed4f8467c)" d="M -20.722606 237.6 
L -8.427638 237.6 
L -8.427638 237.6 
L -20.722606 237.6 
z
" style="fill:#1f77b4;opacity:0.4;"/>
   </g>
   <g id="patch_84">
    <path clip-path="url(#p8ed4f8467c)" d="M -8.427638 237.6 
L 3.867331 237.6 
L 3.867331 237.6 
L -8.427638 237.6 
z
" style="fill:#1f77b4;opacity:0.4;"/>
   </g>
   <g id="patch_85">
    <path clip-path="url(#p8ed4f8467c)" d="M 3.867331 237.6 
L 16.162299 237.6 
L 16.162299 237.6 
L 3.867331 237.6 
z
" style="fill:#1f77b4;opacity:0.4;"/>
   </g>
   <g id="patch_86">
    <path clip-path="url(#p8ed4f8467c)" d="M 16.162299 237.6 
L 28.457267 237.6 
L 28.457267 237.6 
L 16.162299 237.6 
z
" style="fill:#1f77b4;opacity:0.4;"/>
   </g>
   <g id="patch_87">
    <path clip-path="url(#p8ed4f8467c)" d="M 28.457267 237.6 
L 40.752236 237.6 
L 40.752236 212.626181 
L 28.457267 212.626181 
z
" style="fill:#1f77b4;opacity:0.4;"/>
   </g>
   <g id="patch_88">
    <path clip-path="url(#p8ed4f8467c)" d="M 40.752236 237.6 
L 53.047204 237.6 
L 53.047204 237.6 
L 40.752236 237.6 
z
" style="fill:#1f77b4;opacity:0.4;"/>
   </g>
   <g id="patch_89">
    <path clip-path="url(#p8ed4f8467c)" d="M 53.047204 237.6 
L 65.342172 237.6 
L 65.342172 237.6 
L 53.047204 237.6 
z
" style="fill:#1f77b4;opacity:0.4;"/>
   </g>
   <g id="patch_90">
    <path clip-path="url(#p8ed4f8467c)" d="M 65.342172 237.6 
L 77.637141 237.6 
L 77.637141 237.6 
L 65.342172 237.6 
z
" style="fill:#1f77b4;opacity:0.4;"/>
   </g>
   <g id="patch_91">
    <path clip-path="url(#p8ed4f8467c)" d="M 77.637141 237.6 
L 89.932109 237.6 
L 89.932109 237.6 
L 77.637141 237.6 
z
" style="fill:#1f77b4;opacity:0.4;"/>
   </g>
   <g id="patch_92">
    <path clip-path="url(#p8ed4f8467c)" d="M 89.932109 237.6 
L 102.227077 237.6 
L 102.227077 237.6 
L 89.932109 237.6 
z
" style="fill:#1f77b4;opacity:0.4;"/>
   </g>
   <g id="patch_93">
    <path clip-path="url(#p8ed4f8467c)" d="M 102.227077 237.6 
L 114.522045 237.6 
L 114.522045 237.6 
L 102.227077 237.6 
z
" style="fill:#1f77b4;opacity:0.4;"/>
   </g>
   <g id="patch_94">
    <path clip-path="url(#p8ed4f8467c)" d="M 114.522045 237.6 
L 126.817014 237.6 
L 126.817014 212.626181 
L 114.522045 212.626181 
z
" style="fill:#1f77b4;opacity:0.4;"/>
   </g>
   <g id="patch_95">
    <path clip-path="url(#p8ed4f8467c)" d="M 126.817014 237.6 
L 139.111982 237.6 
L 139.111982 237.6 
L 126.817014 237.6 
z
" style="fill:#1f77b4;opacity:0.4;"/>
   </g>
   <g id="patch_96">
    <path clip-path="url(#p8ed4f8467c)" d="M 139.111982 237.6 
L 151.40695 237.6 
L 151.40695 237.6 
L 139.111982 237.6 
z
" style="fill:#1f77b4;opacity:0.4;"/>
   </g>
   <g id="patch_97">
    <path clip-path="url(#p8ed4f8467c)" d="M 151.40695 237.6 
L 163.701919 237.6 
L 163.701919 237.6 
L 151.40695 237.6 
z
" style="fill:#1f77b4;opacity:0.4;"/>
   </g>
   <g id="patch_98">
    <path clip-path="url(#p8ed4f8467c)" d="M 163.701919 237.6 
L 175.996887 237.6 
L 175.996887 237.6 
L 163.701919 237.6 
z
" style="fill:#1f77b4;opacity:0.4;"/>
   </g>
   <g id="patch_99">
    <path clip-path="url(#p8ed4f8467c)" d="M 175.996887 237.6 
L 188.291855 237.6 
L 188.291855 237.6 
L 175.996887 237.6 
z
" style="fill:#1f77b4;opacity:0.4;"/>
   </g>
   <g id="patch_100">
    <path clip-path="url(#p8ed4f8467c)" d="M 188.291855 237.6 
L 200.586823 237.6 
L 200.586823 212.626181 
L 188.291855 212.626181 
z
" style="fill:#1f77b4;opacity:0.4;"/>
   </g>
   <g id="patch_101">
    <path clip-path="url(#p8ed4f8467c)" d="M 200.586823 237.6 
L 212.881792 237.6 
L 212.881792 237.6 
L 200.586823 237.6 
z
" style="fill:#1f77b4;opacity:0.4;"/>
   </g>
   <g id="patch_102">
    <path clip-path="url(#p8ed4f8467c)" d="M 212.881792 237.6 
L 225.17676 237.6 
L 225.17676 212.626181 
L 212.881792 212.626181 
z
" style="fill:#1f77b4;opacity:0.4;"/>
   </g>
   <g id="patch_103">
    <path clip-path="url(#p8ed4f8467c)" d="M 225.17676 237.6 
L 237.471728 237.6 
L 237.471728 212.626181 
L 225.17676 212.626181 
z
" style="fill:#1f77b4;opacity:0.4;"/>
   </g>
   <g id="patch_104">
    <path clip-path="url(#p8ed4f8467c)" d="M 237.471728 237.6 
L 249.766697 237.6 
L 249.766697 237.6 
L 237.471728 237.6 
z
" style="fill:#1f77b4;opacity:0.4;"/>
   </g>
   <g id="patch_105">
    <path clip-path="url(#p8ed4f8467c)" d="M 249.766697 237.6 
L 262.061665 237.6 
L 262.061665 162.678544 
L 249.766697 162.678544 
z
" style="fill:#1f77b4;opacity:0.4;"/>
   </g>
   <g id="patch_106">
    <path clip-path="url(#p8ed4f8467c)" d="M 262.061665 237.6 
L 274.356633 237.6 
L 274.356633 212.626181 
L 262.061665 212.626181 
z
" style="fill:#1f77b4;opacity:0.4;"/>
   </g>
   <g id="patch_107">
    <path clip-path="url(#p8ed4f8467c)" d="M 274.356633 237.6 
L 286.651602 237.6 
L 286.651602 187.652363 
L 274.356633 187.652363 
z
" style="fill:#1f77b4;opacity:0.4;"/>
   </g>
   <g id="patch_108">
    <path clip-path="url(#p8ed4f8467c)" d="M 286.651602 237.6 
L 298.94657 237.6 
L 298.94657 162.678544 
L 286.651602 162.678544 
z
" style="fill:#1f77b4;opacity:0.4;"/>
   </g>
   <g id="patch_109">
    <path clip-path="url(#p8ed4f8467c)" d="M 298.94657 237.6 
L 311.241538 237.6 
L 311.241538 112.730907 
L 298.94657 112.730907 
z
" style="fill:#1f77b4;opacity:0.4;"/>
   </g>
   <g id="patch_110">
    <path clip-path="url(#p8ed4f8467c)" d="M 311.241538 237.6 
L 323.536506 237.6 
L 323.536506 12.835633 
L 311.241538 12.835633 
z
" style="fill:#1f77b4;opacity:0.4;"/>
   </g>
   <g id="patch_111">
    <path clip-path="url(#p8ed4f8467c)" d="M 323.536506 237.6 
L 335.831475 237.6 
L 335.831475 37.809451 
L 323.536506 37.809451 
z
" style="fill:#1f77b4;opacity:0.4;"/>
   </g>
   <g id="patch_112">
    <path clip-path="url(#p8ed4f8467c)" d="M 335.831475 237.6 
L 348.126443 237.6 
L 348.126443 -62.085823 
L 335.831475 -62.085823 
z
" style="fill:#1f77b4;opacity:0.4;"/>
   </g>
   <g id="patch_113">
    <path clip-path="url(#p8ed4f8467c)" d="M 348.126443 237.6 
L 360.421411 237.6 
L 360.421411 -186.954916 
L 348.126443 -186.954916 
z
" style="fill:#1f77b4;opacity:0.4;"/>
   </g>
   <g id="patch_114">
    <path clip-path="url(#p8ed4f8467c)" d="M 360.421411 237.6 
L 372.71638 237.6 
L 372.71638 -461.66692 
L 360.421411 -461.66692 
z
" style="fill:#1f77b4;opacity:0.4;"/>
   </g>
   <g id="patch_115">
    <path clip-path="url(#p8ed4f8467c)" d="M 372.71638 237.6 
L 385.011348 237.6 
L 385.011348 -711.405106 
L 372.71638 -711.405106 
z
" style="fill:#1f77b4;opacity:0.4;"/>
   </g>
   <g id="patch_116">
    <path clip-path="url(#p8ed4f8467c)" d="M 385.011348 237.6 
L 397.306316 237.6 
L 397.306316 -986.117111 
L 385.011348 -986.117111 
z
" style="fill:#1f77b4;opacity:0.4;"/>
   </g>
   <g id="patch_117">
    <path clip-path="url(#p8ed4f8467c)" d="M 397.306316 237.6 
L 409.601284 237.6 
L 409.601284 -2434.598589 
L 397.306316 -2434.598589 
z
" style="fill:#1f77b4;opacity:0.4;"/>
   </g>
   <g id="patch_118">
    <path clip-path="url(#p8ed4f8467c)" d="M 409.601284 237.6 
L 421.896253 237.6 
L 421.896253 -4007.94916 
L 409.601284 -4007.94916 
z
" style="fill:#1f77b4;opacity:0.4;"/>
   </g>
   <g id="patch_119">
    <path clip-path="url(#p8ed4f8467c)" d="M 421.896253 237.6 
L 434.191221 237.6 
L 434.191221 -8802.922329 
L 421.896253 -8802.922329 
z
" style="fill:#1f77b4;opacity:0.4;"/>
   </g>
   <g id="patch_120">
    <path clip-path="url(#p8ed4f8467c)" d="M 434.191221 237.6 
L 446.486189 237.6 
L 446.486189 -9926.744165 
L 434.191221 -9926.744165 
z
" style="fill:#1f77b4;opacity:0.4;"/>
   </g>
   <g id="patch_121">
    <path clip-path="url(#p8ed4f8467c)" d="M 446.486189 237.6 
L 458.781158 237.6 
L 458.781158 -7104.702665 
L 446.486189 -7104.702665 
z
" style="fill:#1f77b4;opacity:0.4;"/>
   </g>
   <g id="patch_122">
    <path clip-path="url(#p8ed4f8467c)" d="M 458.781158 237.6 
L 471.076126 237.6 
L 471.076126 -4332.608802 
L 458.781158 -4332.608802 
z
" style="fill:#1f77b4;opacity:0.4;"/>
   </g>
   <g id="patch_123">
    <path clip-path="url(#p8ed4f8467c)" d="M 471.076126 237.6 
L 483.371094 237.6 
L 483.371094 -2359.677133 
L 471.076126 -2359.677133 
z
" style="fill:#1f77b4;opacity:0.4;"/>
   </g>
   <g id="patch_124">
    <path clip-path="url(#p8ed4f8467c)" d="M 483.371094 237.6 
L 495.666062 237.6 
L 495.666062 -1585.488757 
L 483.371094 -1585.488757 
z
" style="fill:#1f77b4;opacity:0.4;"/>
   </g>
   <g id="patch_125">
    <path clip-path="url(#p8ed4f8467c)" d="M 495.666062 237.6 
L 507.961031 237.6 
L 507.961031 -436.693102 
L 495.666062 -436.693102 
z
" style="fill:#1f77b4;opacity:0.4;"/>
   </g>
   <g id="patch_126">
    <path clip-path="url(#p8ed4f8467c)" d="M 507.961031 237.6 
L 520.255999 237.6 
L 520.255999 -87.059642 
L 507.961031 -87.059642 
z
" style="fill:#1f77b4;opacity:0.4;"/>
   </g>
   <g id="patch_127">
    <path clip-path="url(#p8ed4f8467c)" d="M 520.255999 237.6 
L 532.550967 237.6 
L 532.550967 12.835633 
L 520.255999 12.835633 
z
" style="fill:#1f77b4;opacity:0.4;"/>
   </g>
   <g id="patch_128">
    <path clip-path="url(#p8ed4f8467c)" d="M 532.550967 237.6 
L 544.845936 237.6 
L 544.845936 112.730907 
L 532.550967 112.730907 
z
" style="fill:#1f77b4;opacity:0.4;"/>
   </g>
   <g id="patch_129">
    <path clip-path="url(#p8ed4f8467c)" d="M 544.845936 237.6 
L 557.140904 237.6 
L 557.140904 212.626181 
L 544.845936 212.626181 
z
" style="fill:#1f77b4;opacity:0.4;"/>
   </g>
   <g id="patch_130">
    <path clip-path="url(#p8ed4f8467c)" d="M 557.140904 237.6 
L 569.435872 237.6 
L 569.435872 137.704726 
L 557.140904 137.704726 
z
" style="fill:#1f77b4;opacity:0.4;"/>
   </g>
   <g id="patch_131">
    <path clip-path="url(#p8ed4f8467c)" d="M 569.435872 237.6 
L 581.730841 237.6 
L 581.730841 237.6 
L 569.435872 237.6 
z
" style="fill:#1f77b4;opacity:0.4;"/>
   </g>
   <g id="patch_132">
    <path clip-path="url(#p8ed4f8467c)" d="M 581.730841 237.6 
L 594.025809 237.6 
L 594.025809 212.626181 
L 581.730841 212.626181 
z
" style="fill:#1f77b4;opacity:0.4;"/>
   </g>
   <g id="patch_133">
    <path clip-path="url(#p8ed4f8467c)" d="M 594.025809 237.6 
L 606.320777 237.6 
L 606.320777 212.626181 
L 594.025809 212.626181 
z
" style="fill:#1f77b4;opacity:0.4;"/>
   </g>
   <g id="patch_134">
    <path clip-path="url(#p8ed4f8467c)" d="M 606.320777 237.6 
L 618.615745 237.6 
L 618.615745 212.626181 
L 606.320777 212.626181 
z
" style="fill:#1f77b4;opacity:0.4;"/>
   </g>
   <g id="patch_135">
    <path clip-path="url(#p8ed4f8467c)" d="M 618.615745 237.6 
L 630.910714 237.6 
L 630.910714 187.652363 
L 618.615745 187.652363 
z
" style="fill:#1f77b4;opacity:0.4;"/>
   </g>
   <g id="patch_136">
    <path clip-path="url(#p8ed4f8467c)" d="M 630.910714 237.6 
L 643.205682 237.6 
L 643.205682 237.6 
L 630.910714 237.6 
z
" style="fill:#1f77b4;opacity:0.4;"/>
   </g>
   <g id="patch_137">
    <path clip-path="url(#p8ed4f8467c)" d="M 643.205682 237.6 
L 655.50065 237.6 
L 655.50065 237.6 
L 643.205682 237.6 
z
" style="fill:#1f77b4;opacity:0.4;"/>
   </g>
   <g id="patch_138">
    <path clip-path="url(#p8ed4f8467c)" d="M 655.50065 237.6 
L 667.795619 237.6 
L 667.795619 212.626181 
L 655.50065 212.626181 
z
" style="fill:#1f77b4;opacity:0.4;"/>
   </g>
   <g id="patch_139">
    <path clip-path="url(#p8ed4f8467c)" d="M 667.795619 237.6 
L 680.090587 237.6 
L 680.090587 212.626181 
L 667.795619 212.626181 
z
" style="fill:#1f77b4;opacity:0.4;"/>
   </g>
   <g id="patch_140">
    <path clip-path="url(#p8ed4f8467c)" d="M 680.090587 237.6 
L 692.385555 237.6 
L 692.385555 237.6 
L 680.090587 237.6 
z
" style="fill:#1f77b4;opacity:0.4;"/>
   </g>
   <g id="patch_141">
    <path clip-path="url(#p8ed4f8467c)" d="M 692.385555 237.6 
L 704.680523 237.6 
L 704.680523 237.6 
L 692.385555 237.6 
z
" style="fill:#1f77b4;opacity:0.4;"/>
   </g>
   <g id="patch_142">
    <path clip-path="url(#p8ed4f8467c)" d="M 704.680523 237.6 
L 716.975492 237.6 
L 716.975492 212.626181 
L 704.680523 212.626181 
z
" style="fill:#1f77b4;opacity:0.4;"/>
   </g>
   <g id="patch_143">
    <path clip-path="url(#p8ed4f8467c)" d="M 716.975492 237.6 
L 729.27046 237.6 
L 729.27046 237.6 
L 716.975492 237.6 
z
" style="fill:#1f77b4;opacity:0.4;"/>
   </g>
   <g id="patch_144">
    <path clip-path="url(#p8ed4f8467c)" d="M 729.27046 237.6 
L 741.565428 237.6 
L 741.565428 237.6 
L 729.27046 237.6 
z
" style="fill:#1f77b4;opacity:0.4;"/>
   </g>
   <g id="patch_145">
    <path clip-path="url(#p8ed4f8467c)" d="M 741.565428 237.6 
L 753.860397 237.6 
L 753.860397 237.6 
L 741.565428 237.6 
z
" style="fill:#1f77b4;opacity:0.4;"/>
   </g>
   <g id="patch_146">
    <path clip-path="url(#p8ed4f8467c)" d="M 753.860397 237.6 
L 766.155365 237.6 
L 766.155365 237.6 
L 753.860397 237.6 
z
" style="fill:#1f77b4;opacity:0.4;"/>
   </g>
   <g id="patch_147">
    <path clip-path="url(#p8ed4f8467c)" d="M 766.155365 237.6 
L 778.450333 237.6 
L 778.450333 237.6 
L 766.155365 237.6 
z
" style="fill:#1f77b4;opacity:0.4;"/>
   </g>
   <g id="patch_148">
    <path clip-path="url(#p8ed4f8467c)" d="M 778.450333 237.6 
L 790.745302 237.6 
L 790.745302 187.652363 
L 778.450333 187.652363 
z
" style="fill:#1f77b4;opacity:0.4;"/>
   </g>
   <g id="matplotlib.axis_3">
    <g id="xtick_6">
     <g id="line2d_20">
      <g>
       <use style="stroke:#000000;stroke-width:0.8;" x="158.4" xlink:href="#m50f4898278" y="237.6"/>
      </g>
     </g>
     <g id="text_17">
      <!-- −0.07 -->
      <g transform="translate(143.077344 252.198437)scale(0.1 -0.1)">
       <use xlink:href="#DejaVuSans-2212"/>
       <use x="83.789062" xlink:href="#DejaVuSans-30"/>
       <use x="147.412109" xlink:href="#DejaVuSans-2e"/>
       <use x="179.199219" xlink:href="#DejaVuSans-30"/>
       <use x="242.822266" xlink:href="#DejaVuSans-37"/>
      </g>
     </g>
    </g>
    <g id="xtick_7">
     <g id="line2d_21">
      <g>
       <use style="stroke:#000000;stroke-width:0.8;" x="198" xlink:href="#m50f4898278" y="237.6"/>
      </g>
     </g>
     <g id="text_18">
      <!-- −0.06 -->
      <g transform="translate(182.677344 252.198437)scale(0.1 -0.1)">
       <use xlink:href="#DejaVuSans-2212"/>
       <use x="83.789062" xlink:href="#DejaVuSans-30"/>
       <use x="147.412109" xlink:href="#DejaVuSans-2e"/>
       <use x="179.199219" xlink:href="#DejaVuSans-30"/>
       <use x="242.822266" xlink:href="#DejaVuSans-36"/>
      </g>
     </g>
    </g>
    <g id="xtick_8">
     <g id="line2d_22">
      <g>
       <use style="stroke:#000000;stroke-width:0.8;" x="237.6" xlink:href="#m50f4898278" y="237.6"/>
      </g>
     </g>
     <g id="text_19">
      <!-- −0.05 -->
      <g transform="translate(222.277344 252.198437)scale(0.1 -0.1)">
       <use xlink:href="#DejaVuSans-2212"/>
       <use x="83.789062" xlink:href="#DejaVuSans-30"/>
       <use x="147.412109" xlink:href="#DejaVuSans-2e"/>
       <use x="179.199219" xlink:href="#DejaVuSans-30"/>
       <use x="242.822266" xlink:href="#DejaVuSans-35"/>
      </g>
     </g>
    </g>
    <g id="xtick_9">
     <g id="line2d_23">
      <g>
       <use style="stroke:#000000;stroke-width:0.8;" x="277.2" xlink:href="#m50f4898278" y="237.6"/>
      </g>
     </g>
     <g id="text_20">
      <!-- −0.04 -->
      <g transform="translate(261.877344 252.198437)scale(0.1 -0.1)">
       <use xlink:href="#DejaVuSans-2212"/>
       <use x="83.789062" xlink:href="#DejaVuSans-30"/>
       <use x="147.412109" xlink:href="#DejaVuSans-2e"/>
       <use x="179.199219" xlink:href="#DejaVuSans-30"/>
       <use x="242.822266" xlink:href="#DejaVuSans-34"/>
      </g>
     </g>
    </g>
    <g id="xtick_10">
     <g id="line2d_24">
      <g>
       <use style="stroke:#000000;stroke-width:0.8;" x="316.8" xlink:href="#m50f4898278" y="237.6"/>
      </g>
     </g>
     <g id="text_21">
      <!-- −0.03 -->
      <g transform="translate(301.477344 252.198437)scale(0.1 -0.1)">
       <use xlink:href="#DejaVuSans-2212"/>
       <use x="83.789062" xlink:href="#DejaVuSans-30"/>
       <use x="147.412109" xlink:href="#DejaVuSans-2e"/>
       <use x="179.199219" xlink:href="#DejaVuSans-30"/>
       <use x="242.822266" xlink:href="#DejaVuSans-33"/>
      </g>
     </g>
    </g>
   </g>
   <g id="matplotlib.axis_4">
    <g id="ytick_9">
     <g id="line2d_25">
      <g>
       <use style="stroke:#000000;stroke-width:0.8;" x="138.6" xlink:href="#m3165bd6079" y="237.6"/>
      </g>
     </g>
     <g id="text_22">
      <!-- 0.0 -->
      <g transform="translate(115.696875 241.399219)scale(0.1 -0.1)">
       <use xlink:href="#DejaVuSans-30"/>
       <use x="63.623047" xlink:href="#DejaVuSans-2e"/>
       <use x="95.410156" xlink:href="#DejaVuSans-30"/>
      </g>
     </g>
    </g>
    <g id="ytick_10">
     <g id="line2d_26">
      <g>
       <use style="stroke:#000000;stroke-width:0.8;" x="138.6" xlink:href="#m3165bd6079" y="207.36"/>
      </g>
     </g>
     <g id="text_23">
      <!-- 0.2 -->
      <g transform="translate(115.696875 211.159219)scale(0.1 -0.1)">
       <use xlink:href="#DejaVuSans-30"/>
       <use x="63.623047" xlink:href="#DejaVuSans-2e"/>
       <use x="95.410156" xlink:href="#DejaVuSans-32"/>
      </g>
     </g>
    </g>
    <g id="ytick_11">
     <g id="line2d_27">
      <g>
       <use style="stroke:#000000;stroke-width:0.8;" x="138.6" xlink:href="#m3165bd6079" y="177.12"/>
      </g>
     </g>
     <g id="text_24">
      <!-- 0.4 -->
      <g transform="translate(115.696875 180.919219)scale(0.1 -0.1)">
       <use xlink:href="#DejaVuSans-30"/>
       <use x="63.623047" xlink:href="#DejaVuSans-2e"/>
       <use x="95.410156" xlink:href="#DejaVuSans-34"/>
      </g>
     </g>
    </g>
    <g id="ytick_12">
     <g id="line2d_28">
      <g>
       <use style="stroke:#000000;stroke-width:0.8;" x="138.6" xlink:href="#m3165bd6079" y="146.88"/>
      </g>
     </g>
     <g id="text_25">
      <!-- 0.6 -->
      <g transform="translate(115.696875 150.679219)scale(0.1 -0.1)">
       <use xlink:href="#DejaVuSans-30"/>
       <use x="63.623047" xlink:href="#DejaVuSans-2e"/>
       <use x="95.410156" xlink:href="#DejaVuSans-36"/>
      </g>
     </g>
    </g>
    <g id="ytick_13">
     <g id="line2d_29">
      <g>
       <use style="stroke:#000000;stroke-width:0.8;" x="138.6" xlink:href="#m3165bd6079" y="116.64"/>
      </g>
     </g>
     <g id="text_26">
      <!-- 0.8 -->
      <defs>
       <path d="M 31.78125 34.625 
Q 24.75 34.625 20.71875 30.859375 
Q 16.703125 27.09375 16.703125 20.515625 
Q 16.703125 13.921875 20.71875 10.15625 
Q 24.75 6.390625 31.78125 6.390625 
Q 38.8125 6.390625 42.859375 10.171875 
Q 46.921875 13.96875 46.921875 20.515625 
Q 46.921875 27.09375 42.890625 30.859375 
Q 38.875 34.625 31.78125 34.625 
z
M 21.921875 38.8125 
Q 15.578125 40.375 12.03125 44.71875 
Q 8.5 49.078125 8.5 55.328125 
Q 8.5 64.0625 14.71875 69.140625 
Q 20.953125 74.21875 31.78125 74.21875 
Q 42.671875 74.21875 48.875 69.140625 
Q 55.078125 64.0625 55.078125 55.328125 
Q 55.078125 49.078125 51.53125 44.71875 
Q 48 40.375 41.703125 38.8125 
Q 48.828125 37.15625 52.796875 32.3125 
Q 56.78125 27.484375 56.78125 20.515625 
Q 56.78125 9.90625 50.3125 4.234375 
Q 43.84375 -1.421875 31.78125 -1.421875 
Q 19.734375 -1.421875 13.25 4.234375 
Q 6.78125 9.90625 6.78125 20.515625 
Q 6.78125 27.484375 10.78125 32.3125 
Q 14.796875 37.15625 21.921875 38.8125 
z
M 18.3125 54.390625 
Q 18.3125 48.734375 21.84375 45.5625 
Q 25.390625 42.390625 31.78125 42.390625 
Q 38.140625 42.390625 41.71875 45.5625 
Q 45.3125 48.734375 45.3125 54.390625 
Q 45.3125 60.0625 41.71875 63.234375 
Q 38.140625 66.40625 31.78125 66.40625 
Q 25.390625 66.40625 21.84375 63.234375 
Q 18.3125 60.0625 18.3125 54.390625 
z
" id="DejaVuSans-38"/>
      </defs>
      <g transform="translate(115.696875 120.439219)scale(0.1 -0.1)">
       <use xlink:href="#DejaVuSans-30"/>
       <use x="63.623047" xlink:href="#DejaVuSans-2e"/>
       <use x="95.410156" xlink:href="#DejaVuSans-38"/>
      </g>
     </g>
    </g>
    <g id="ytick_14">
     <g id="line2d_30">
      <g>
       <use style="stroke:#000000;stroke-width:0.8;" x="138.6" xlink:href="#m3165bd6079" y="86.4"/>
      </g>
     </g>
     <g id="text_27">
      <!-- 1.0 -->
      <g transform="translate(115.696875 90.199219)scale(0.1 -0.1)">
       <use xlink:href="#DejaVuSans-31"/>
       <use x="63.623047" xlink:href="#DejaVuSans-2e"/>
       <use x="95.410156" xlink:href="#DejaVuSans-30"/>
      </g>
     </g>
    </g>
   </g>
   <g id="line2d_31">
    <path clip-path="url(#p8ed4f8467c)" d="M -1 237.6 
L 233.67422 237.529793 
L 247.501187 237.291518 
L 256.719164 236.818931 
L 261.328153 236.378514 
L 265.937142 235.71172 
L 270.54613 234.714483 
L 275.155119 233.241271 
L 279.764108 231.091586 
L 284.373097 227.993402 
L 288.982085 223.583384 
L 293.591074 217.38397 
L 298.200063 208.777765 
L 302.809052 196.980127 
L 307.41804 181.011447 
L 312.027029 159.671248 
L 316.636018 131.516956 
L 321.245007 94.850913 
L 325.853996 47.719739 
L 329.60967 -1 
M 545.026355 -1 
L 547.085456 27.981583 
L 551.694445 79.361367 
L 556.303434 119.52044 
L 560.912422 150.500424 
L 565.521411 174.090825 
L 570.1304 191.824192 
L 574.739389 204.985203 
L 579.348378 214.629394 
L 583.957366 221.607758 
L 588.566355 226.594106 
L 593.175344 230.112782 
L 597.784333 232.565055 
L 602.393321 234.253059 
L 607.00231 235.40072 
L 611.611299 236.171461 
L 616.220288 236.68276 
L 620.829276 237.017826 
L 630.047254 237.373468 
L 643.87422 237.549582 
L 676.137142 237.59899 
L 793 237.6 
L 793 237.6 
" style="fill:none;opacity:0.95;stroke:#ff7f0e;stroke-linecap:square;stroke-width:1.5;"/>
   </g>
   <g id="line2d_32">
    <path clip-path="url(#p8ed4f8467c)" d="M -1 237.576665 
L 18.939803 237.584063 
L 25.980661 236.892885 
L 33.021519 228.512297 
L 40.062377 212.446371 
L 47.103235 229.392124 
L 54.144093 237.182392 
L 61.18495 237.6 
L 82.307524 237.556475 
L 96.38924 237.553086 
L 103.430098 237.513897 
L 110.470956 235.046888 
L 117.511814 224.640004 
L 124.552672 216.318724 
L 131.593529 231.237926 
L 138.634387 237.252955 
L 145.675245 237.6 
L 166.797819 237.551302 
L 173.838677 237.6 
L 180.879535 237.155225 
L 187.920393 229.193999 
L 194.961251 211.980479 
L 202.002108 228.954376 
L 209.042966 236.799293 
L 216.083824 231.018396 
L 223.124682 215.63624 
L 230.16554 216.359699 
L 237.206398 209.26307 
L 244.247256 224.316245 
L 251.288114 205.852945 
L 258.328972 168.771364 
L 265.36983 192.582286 
L 272.410687 195.590073 
L 279.451545 194.966562 
L 286.492403 184.943547 
L 293.533261 147.296085 
L 300.574119 98.948367 
L 307.614977 87.558799 
L 314.655835 54.397839 
L 321.696693 62.280004 
L 328.737551 49.174716 
L 332.316769 -1 
M 524.168232 -1 
L 532.92243 62.459437 
L 539.963288 110.164126 
L 547.004146 187.639685 
L 554.045004 191.211284 
L 561.085861 178.917038 
L 568.126719 161.241878 
L 575.167577 208.376406 
L 582.208435 221.185871 
L 589.249293 211.758805 
L 596.290151 212.649093 
L 603.331009 217.055087 
L 610.371867 215.793393 
L 617.412725 209.161269 
L 624.453583 193.60131 
L 631.49444 208.48268 
L 638.535298 231.043024 
L 645.576156 237.315762 
L 652.617014 236.481514 
L 659.657872 227.563609 
L 666.69873 206.433682 
L 673.739588 207.965406 
L 680.780446 224.698238 
L 687.821304 235.108567 
L 694.862162 232.216656 
L 701.90302 218.877081 
L 708.943877 222.085211 
L 715.984735 233.937513 
L 723.025593 237.40151 
L 730.066451 237.6 
L 765.270741 237.562147 
L 772.311599 237.076865 
L 779.352456 226.607341 
L 786.393314 198.95462 
L 793 207.222565 
L 793 207.222565 
" style="fill:none;stroke:#1f77b4;stroke-dasharray:5.55,2.4;stroke-dashoffset:0;stroke-width:1.5;"/>
   </g>
   <g id="patch_149">
    <path d="M 138.6 237.6 
L 138.6 86.4 
" style="fill:none;stroke:#000000;stroke-linecap:square;stroke-linejoin:miter;stroke-width:0.8;"/>
   </g>
   <g id="patch_150">
    <path d="M 336.6 237.6 
L 336.6 86.4 
" style="fill:none;stroke:#000000;stroke-linecap:square;stroke-linejoin:miter;stroke-width:0.8;"/>
   </g>
   <g id="patch_151">
    <path d="M 138.6 237.6 
L 336.6 237.6 
" style="fill:none;stroke:#000000;stroke-linecap:square;stroke-linejoin:miter;stroke-width:0.8;"/>
   </g>
   <g id="patch_152">
    <path d="M 138.6 86.4 
L 336.6 86.4 
" style="fill:none;stroke:#000000;stroke-linecap:square;stroke-linejoin:miter;stroke-width:0.8;"/>
   </g>
   <g id="legend_2">
    <g id="patch_153">
     <path d="M 145.6 123.75625 
L 278.778125 123.75625 
Q 280.778125 123.75625 280.778125 121.75625 
L 280.778125 93.4 
Q 280.778125 91.4 278.778125 91.4 
L 145.6 91.4 
Q 143.6 91.4 143.6 93.4 
L 143.6 121.75625 
Q 143.6 123.75625 145.6 123.75625 
z
" style="fill:#ffffff;opacity:0.8;stroke:#cccccc;stroke-linejoin:miter;"/>
    </g>
    <g id="line2d_33">
     <path d="M 147.6 99.498437 
L 167.6 99.498437 
" style="fill:none;opacity:0.95;stroke:#ff7f0e;stroke-linecap:square;stroke-width:1.5;"/>
    </g>
    <g id="line2d_34"/>
    <g id="text_28">
     <!-- Fitted Normal PDF -->
     <g transform="translate(175.6 102.998437)scale(0.1 -0.1)">
      <use xlink:href="#DejaVuSans-46"/>
      <use x="57.410156" xlink:href="#DejaVuSans-69"/>
      <use x="85.193359" xlink:href="#DejaVuSans-74"/>
      <use x="124.402344" xlink:href="#DejaVuSans-74"/>
      <use x="163.611328" xlink:href="#DejaVuSans-65"/>
      <use x="225.134766" xlink:href="#DejaVuSans-64"/>
      <use x="288.611328" xlink:href="#DejaVuSans-20"/>
      <use x="320.398438" xlink:href="#DejaVuSans-4e"/>
      <use x="395.203125" xlink:href="#DejaVuSans-6f"/>
      <use x="456.384766" xlink:href="#DejaVuSans-72"/>
      <use x="497.482422" xlink:href="#DejaVuSans-6d"/>
      <use x="594.894531" xlink:href="#DejaVuSans-61"/>
      <use x="656.173828" xlink:href="#DejaVuSans-6c"/>
      <use x="683.957031" xlink:href="#DejaVuSans-20"/>
      <use x="715.744141" xlink:href="#DejaVuSans-50"/>
      <use x="776.046875" xlink:href="#DejaVuSans-44"/>
      <use x="853.048828" xlink:href="#DejaVuSans-46"/>
     </g>
    </g>
    <g id="line2d_35">
     <path d="M 147.6 114.176562 
L 167.6 114.176562 
" style="fill:none;stroke:#1f77b4;stroke-dasharray:5.55,2.4;stroke-dashoffset:0;stroke-width:1.5;"/>
    </g>
    <g id="line2d_36"/>
    <g id="text_29">
     <!-- Fitted Empirical PDF -->
     <g transform="translate(175.6 117.676562)scale(0.1 -0.1)">
      <use xlink:href="#DejaVuSans-46"/>
      <use x="57.410156" xlink:href="#DejaVuSans-69"/>
      <use x="85.193359" xlink:href="#DejaVuSans-74"/>
      <use x="124.402344" xlink:href="#DejaVuSans-74"/>
      <use x="163.611328" xlink:href="#DejaVuSans-65"/>
      <use x="225.134766" xlink:href="#DejaVuSans-64"/>
      <use x="288.611328" xlink:href="#DejaVuSans-20"/>
      <use x="320.398438" xlink:href="#DejaVuSans-45"/>
      <use x="383.582031" xlink:href="#DejaVuSans-6d"/>
      <use x="480.994141" xlink:href="#DejaVuSans-70"/>
      <use x="544.470703" xlink:href="#DejaVuSans-69"/>
      <use x="572.253906" xlink:href="#DejaVuSans-72"/>
      <use x="613.367188" xlink:href="#DejaVuSans-69"/>
      <use x="641.150391" xlink:href="#DejaVuSans-63"/>
      <use x="696.130859" xlink:href="#DejaVuSans-61"/>
      <use x="757.410156" xlink:href="#DejaVuSans-6c"/>
      <use x="785.193359" xlink:href="#DejaVuSans-20"/>
      <use x="816.980469" xlink:href="#DejaVuSans-50"/>
      <use x="877.283203" xlink:href="#DejaVuSans-44"/>
      <use x="954.285156" xlink:href="#DejaVuSans-46"/>
     </g>
    </g>
   </g>
  </g>
 </g>
 <defs>
  <clipPath id="p09e5a8b3fb">
   <rect height="326.16" width="613.8" x="99" y="51.84"/>
  </clipPath>
  <clipPath id="p8ed4f8467c">
   <rect height="151.2" width="198" x="138.6" y="86.4"/>
  </clipPath>
 </defs>
</svg>
